%TF.GenerationSoftware,KiCad,Pcbnew,(6.0.7)*%
%TF.CreationDate,2022-09-13T21:36:05-06:00*%
%TF.ProjectId,attiny_rfid_light,61747469-6e79-45f7-9266-69645f6c6967,rev?*%
%TF.SameCoordinates,Original*%
%TF.FileFunction,Copper,L1,Top*%
%TF.FilePolarity,Positive*%
%FSLAX46Y46*%
G04 Gerber Fmt 4.6, Leading zero omitted, Abs format (unit mm)*
G04 Created by KiCad (PCBNEW (6.0.7)) date 2022-09-13 21:36:05*
%MOMM*%
%LPD*%
G01*
G04 APERTURE LIST*
G04 Aperture macros list*
%AMRoundRect*
0 Rectangle with rounded corners*
0 $1 Rounding radius*
0 $2 $3 $4 $5 $6 $7 $8 $9 X,Y pos of 4 corners*
0 Add a 4 corners polygon primitive as box body*
4,1,4,$2,$3,$4,$5,$6,$7,$8,$9,$2,$3,0*
0 Add four circle primitives for the rounded corners*
1,1,$1+$1,$2,$3*
1,1,$1+$1,$4,$5*
1,1,$1+$1,$6,$7*
1,1,$1+$1,$8,$9*
0 Add four rect primitives between the rounded corners*
20,1,$1+$1,$2,$3,$4,$5,0*
20,1,$1+$1,$4,$5,$6,$7,0*
20,1,$1+$1,$6,$7,$8,$9,0*
20,1,$1+$1,$8,$9,$2,$3,0*%
G04 Aperture macros list end*
%TA.AperFunction,SMDPad,CuDef*%
%ADD10R,1.700000X0.650000*%
%TD*%
%TA.AperFunction,SMDPad,CuDef*%
%ADD11RoundRect,0.250000X-0.350000X-0.450000X0.350000X-0.450000X0.350000X0.450000X-0.350000X0.450000X0*%
%TD*%
%TA.AperFunction,SMDPad,CuDef*%
%ADD12RoundRect,0.250000X0.350000X0.450000X-0.350000X0.450000X-0.350000X-0.450000X0.350000X-0.450000X0*%
%TD*%
%TA.AperFunction,ComponentPad*%
%ADD13R,1.700000X1.700000*%
%TD*%
%TA.AperFunction,ComponentPad*%
%ADD14O,1.700000X1.700000*%
%TD*%
%TA.AperFunction,SMDPad,CuDef*%
%ADD15R,1.350000X0.400000*%
%TD*%
%TA.AperFunction,SMDPad,CuDef*%
%ADD16R,1.900000X1.500000*%
%TD*%
%TA.AperFunction,SMDPad,CuDef*%
%ADD17R,1.900000X1.200000*%
%TD*%
%TA.AperFunction,ComponentPad*%
%ADD18O,1.900000X1.200000*%
%TD*%
%TA.AperFunction,ComponentPad*%
%ADD19C,1.450000*%
%TD*%
%TA.AperFunction,SMDPad,CuDef*%
%ADD20R,1.550000X0.650000*%
%TD*%
%TA.AperFunction,SMDPad,CuDef*%
%ADD21R,1.500000X1.000000*%
%TD*%
%TA.AperFunction,SMDPad,CuDef*%
%ADD22RoundRect,0.250000X-0.337500X-0.475000X0.337500X-0.475000X0.337500X0.475000X-0.337500X0.475000X0*%
%TD*%
%TA.AperFunction,ComponentPad*%
%ADD23C,1.600000*%
%TD*%
%TA.AperFunction,SMDPad,CuDef*%
%ADD24RoundRect,0.250000X0.337500X0.475000X-0.337500X0.475000X-0.337500X-0.475000X0.337500X-0.475000X0*%
%TD*%
%TA.AperFunction,ViaPad*%
%ADD25C,0.800000*%
%TD*%
%TA.AperFunction,Conductor*%
%ADD26C,0.250000*%
%TD*%
G04 APERTURE END LIST*
D10*
%TO.P,U1,1,~{RESET}/PB5*%
%TO.N,Net-(J_DEBUG1-Pad1)*%
X80170000Y-89535000D03*
%TO.P,U1,2,XTAL1/PB3*%
%TO.N,Net-(J_DEBUG1-Pad2)*%
X80170000Y-90805000D03*
%TO.P,U1,3,XTAL2/PB4*%
%TO.N,Net-(J_DEBUG1-Pad3)*%
X80170000Y-92075000D03*
%TO.P,U1,4,GND*%
%TO.N,GND*%
X80170000Y-93345000D03*
%TO.P,U1,5,AREF/PB0*%
%TO.N,Net-(J_DEBUG1-Pad5)*%
X87470000Y-93345000D03*
%TO.P,U1,6,PB1*%
%TO.N,Net-(R_1-Pad1)*%
X87470000Y-92075000D03*
%TO.P,U1,7,PB2*%
%TO.N,Net-(J_DEBUG1-Pad7)*%
X87470000Y-90805000D03*
%TO.P,U1,8,VCC*%
%TO.N,+5V*%
X87470000Y-89535000D03*
%TD*%
D11*
%TO.P,R_ANT1,2*%
%TO.N,Net-(R_ANT1-Pad2)*%
X98196500Y-91267400D03*
%TO.P,R_ANT1,1*%
%TO.N,Net-(R_ANT1-Pad1)*%
X96196500Y-91267400D03*
%TD*%
%TO.P,R_5,1*%
%TO.N,+5V*%
X103131600Y-83697900D03*
%TO.P,R_5,2*%
%TO.N,Net-(R_5-Pad2)*%
X105131600Y-83697900D03*
%TD*%
%TO.P,R_4,1*%
%TO.N,+5V*%
X103140000Y-88900000D03*
%TO.P,R_4,2*%
%TO.N,Net-(R_4-Pad2)*%
X105140000Y-88900000D03*
%TD*%
%TO.P,R_3,1*%
%TO.N,+5V*%
X103140000Y-93980000D03*
%TO.P,R_3,2*%
%TO.N,Net-(R_3-Pad2)*%
X105140000Y-93980000D03*
%TD*%
D12*
%TO.P,R_2,1*%
%TO.N,+5V*%
X105140000Y-99060000D03*
%TO.P,R_2,2*%
%TO.N,Net-(R_2-Pad2)*%
X103140000Y-99060000D03*
%TD*%
D11*
%TO.P,R_1,1*%
%TO.N,Net-(R_1-Pad1)*%
X91042200Y-90988900D03*
%TO.P,R_1,2*%
%TO.N,Net-(R_1-Pad2)*%
X93042200Y-90988900D03*
%TD*%
D13*
%TO.P,L_ANT1,1,1*%
%TO.N,Net-(C_DV1-Pad1)*%
X97196500Y-96347400D03*
D14*
%TO.P,L_ANT1,2,2*%
%TO.N,Net-(R_ANT1-Pad2)*%
X97196500Y-98887400D03*
%TD*%
D15*
%TO.P,J_POWER1,1,VBUS*%
%TO.N,+5V*%
X75122500Y-85060000D03*
%TO.P,J_POWER1,2,D-*%
%TO.N,unconnected-(J_POWER1-Pad2)*%
X75122500Y-85710000D03*
%TO.P,J_POWER1,3,D+*%
%TO.N,unconnected-(J_POWER1-Pad3)*%
X75122500Y-86360000D03*
%TO.P,J_POWER1,4,ID*%
%TO.N,unconnected-(J_POWER1-Pad4)*%
X75122500Y-87010000D03*
%TO.P,J_POWER1,5,GND*%
%TO.N,GND*%
X75122500Y-87660000D03*
D16*
%TO.P,J_POWER1,6,Shield*%
%TO.N,unconnected-(J_POWER1-Pad6)*%
X72422500Y-85360000D03*
D17*
X72422500Y-89260000D03*
D18*
X72422500Y-89860000D03*
D19*
X75122500Y-83860000D03*
D18*
X72422500Y-82860000D03*
D17*
X72422500Y-83460000D03*
D19*
X75122500Y-88860000D03*
D16*
X72422500Y-87360000D03*
%TD*%
D13*
%TO.P,J_DEBUG1,1,Pin_1*%
%TO.N,Net-(J_DEBUG1-Pad1)*%
X73660000Y-99060000D03*
D14*
%TO.P,J_DEBUG1,2,Pin_2*%
%TO.N,Net-(J_DEBUG1-Pad2)*%
X76200000Y-99060000D03*
%TO.P,J_DEBUG1,3,Pin_3*%
%TO.N,Net-(J_DEBUG1-Pad3)*%
X78740000Y-99060000D03*
%TO.P,J_DEBUG1,4,Pin_4*%
%TO.N,GND*%
X81280000Y-99060000D03*
%TO.P,J_DEBUG1,5,Pin_5*%
%TO.N,Net-(J_DEBUG1-Pad5)*%
X83820000Y-99060000D03*
%TO.P,J_DEBUG1,6,Pin_6*%
%TO.N,Net-(R_1-Pad1)*%
X86360000Y-99060000D03*
%TO.P,J_DEBUG1,7,Pin_7*%
%TO.N,Net-(J_DEBUG1-Pad7)*%
X88900000Y-99060000D03*
%TO.P,J_DEBUG1,8,Pin_8*%
%TO.N,+5V*%
X91440000Y-99060000D03*
%TD*%
D20*
%TO.P,IC1,1,VSS*%
%TO.N,GND*%
X81095000Y-76835000D03*
%TO.P,IC1,2,RDY/CLK*%
%TO.N,Net-(J_DEBUG1-Pad7)*%
X81095000Y-78105000D03*
%TO.P,IC1,3,ANT1*%
%TO.N,Net-(R_ANT1-Pad1)*%
X81095000Y-79375000D03*
%TO.P,IC1,4,DVDD*%
%TO.N,+5V*%
X81095000Y-80645000D03*
%TO.P,IC1,5,DVSS*%
%TO.N,GND*%
X81095000Y-81915000D03*
%TO.P,IC1,6,ANT2*%
%TO.N,Net-(C_RES1-Pad2)*%
X81095000Y-83185000D03*
%TO.P,IC1,7,VDD*%
%TO.N,unconnected-(IC1-Pad7)*%
X81095000Y-84455000D03*
%TO.P,IC1,8,DEMOD_IN*%
%TO.N,Net-(C_DV1-Pad2)*%
X81095000Y-85725000D03*
%TO.P,IC1,9,CDEC_OUT*%
%TO.N,Net-(C_DEC1-Pad1)*%
X86545000Y-85725000D03*
%TO.P,IC1,10,CDEC_IN*%
%TO.N,Net-(C_DEC1-Pad2)*%
X86545000Y-84455000D03*
%TO.P,IC1,11,AGND*%
%TO.N,Net-(C_AGND1-Pad1)*%
X86545000Y-83185000D03*
%TO.P,IC1,12,MOD*%
%TO.N,GND*%
X86545000Y-81915000D03*
%TO.P,IC1,13,DEMOD_OUT*%
%TO.N,Net-(J_DEBUG1-Pad2)*%
X86545000Y-80645000D03*
%TO.P,IC1,14,SHD*%
%TO.N,Net-(J_DEBUG1-Pad3)*%
X86545000Y-79375000D03*
%TO.P,IC1,15,FCAP*%
%TO.N,Net-(C_FCAP1-Pad1)*%
X86545000Y-78105000D03*
%TO.P,IC1,16,DC2*%
%TO.N,Net-(C_DC2-Pad1)*%
X86545000Y-76835000D03*
%TD*%
D21*
%TO.P,D4,1,VDD*%
%TO.N,GND*%
X124550000Y-84760000D03*
%TO.P,D4,2,DOUT*%
%TO.N,unconnected-(D4-Pad2)*%
X124550000Y-87960000D03*
%TO.P,D4,3,VSS*%
%TO.N,Net-(R_5-Pad2)*%
X129450000Y-87960000D03*
%TO.P,D4,4,DIN*%
%TO.N,Net-(D3-Pad2)*%
X129450000Y-84760000D03*
%TD*%
%TO.P,D3,1,VDD*%
%TO.N,GND*%
X134710000Y-74600000D03*
%TO.P,D3,2,DOUT*%
%TO.N,Net-(D3-Pad2)*%
X134710000Y-77800000D03*
%TO.P,D3,3,VSS*%
%TO.N,Net-(R_4-Pad2)*%
X139610000Y-77800000D03*
%TO.P,D3,4,DIN*%
%TO.N,Net-(D2-Pad2)*%
X139610000Y-74600000D03*
%TD*%
%TO.P,D2,1,VDD*%
%TO.N,GND*%
X144870000Y-84760000D03*
%TO.P,D2,2,DOUT*%
%TO.N,Net-(D2-Pad2)*%
X144870000Y-87960000D03*
%TO.P,D2,3,VSS*%
%TO.N,Net-(R_3-Pad2)*%
X149770000Y-87960000D03*
%TO.P,D2,4,DIN*%
%TO.N,Net-(D1-Pad2)*%
X149770000Y-84760000D03*
%TD*%
%TO.P,D1,1,VDD*%
%TO.N,GND*%
X139610000Y-98120000D03*
%TO.P,D1,2,DOUT*%
%TO.N,Net-(D1-Pad2)*%
X139610000Y-94920000D03*
%TO.P,D1,3,VSS*%
%TO.N,Net-(R_2-Pad2)*%
X134710000Y-94920000D03*
%TO.P,D1,4,DIN*%
%TO.N,Net-(R_1-Pad2)*%
X134710000Y-98120000D03*
%TD*%
D22*
%TO.P,C_RES1,2*%
%TO.N,Net-(C_RES1-Pad2)*%
X97826900Y-76832200D03*
%TO.P,C_RES1,1*%
%TO.N,Net-(C_DV1-Pad1)*%
X95751900Y-76832200D03*
%TD*%
%TO.P,C_FCAP1,2*%
%TO.N,GND*%
X93016900Y-76832200D03*
%TO.P,C_FCAP1,1*%
%TO.N,Net-(C_FCAP1-Pad1)*%
X90941900Y-76832200D03*
%TD*%
%TO.P,C_DV2,1*%
%TO.N,Net-(C_DV1-Pad2)*%
X91012500Y-83350000D03*
%TO.P,C_DV2,2*%
%TO.N,GND*%
X93087500Y-83350000D03*
%TD*%
%TO.P,C_DV1,2*%
%TO.N,Net-(C_DV1-Pad2)*%
X93016900Y-79842200D03*
%TO.P,C_DV1,1*%
%TO.N,Net-(C_DV1-Pad1)*%
X90941900Y-79842200D03*
%TD*%
%TO.P,C_DEC1,1*%
%TO.N,Net-(C_DEC1-Pad1)*%
X91012500Y-86360000D03*
%TO.P,C_DEC1,2*%
%TO.N,Net-(C_DEC1-Pad2)*%
X93087500Y-86360000D03*
%TD*%
%TO.P,C_DC2,1*%
%TO.N,Net-(C_DC2-Pad1)*%
X95750500Y-79838900D03*
%TO.P,C_DC2,2*%
%TO.N,GND*%
X97825500Y-79838900D03*
%TD*%
D23*
%TO.P,C_Big1,1*%
%TO.N,+5V*%
X73660000Y-78740000D03*
%TO.P,C_Big1,2*%
%TO.N,GND*%
X75660000Y-78740000D03*
%TD*%
D22*
%TO.P,C_AGND1,1*%
%TO.N,Net-(C_AGND1-Pad1)*%
X95822500Y-86360000D03*
%TO.P,C_AGND1,2*%
%TO.N,GND*%
X97897500Y-86360000D03*
%TD*%
%TO.P,C4,1*%
%TO.N,GND*%
X125962500Y-93980000D03*
%TO.P,C4,2*%
%TO.N,Net-(R_5-Pad2)*%
X128037500Y-93980000D03*
%TD*%
%TO.P,C3,1*%
%TO.N,GND*%
X136122500Y-81280000D03*
%TO.P,C3,2*%
%TO.N,Net-(R_4-Pad2)*%
X138197500Y-81280000D03*
%TD*%
%TO.P,C2,1*%
%TO.N,GND*%
X146282500Y-93980000D03*
%TO.P,C2,2*%
%TO.N,Net-(R_3-Pad2)*%
X148357500Y-93980000D03*
%TD*%
D24*
%TO.P,C1,1*%
%TO.N,GND*%
X138197500Y-91440000D03*
%TO.P,C1,2*%
%TO.N,Net-(R_2-Pad2)*%
X136122500Y-91440000D03*
%TD*%
D25*
%TO.N,Net-(J_DEBUG1-Pad3)*%
X85147100Y-79375000D03*
%TO.N,Net-(J_DEBUG1-Pad2)*%
X84573900Y-80667900D03*
%TO.N,Net-(C_DV1-Pad2)*%
X89464000Y-83683100D03*
X83372800Y-85854300D03*
%TO.N,+5V*%
X82471600Y-80525000D03*
%TD*%
D26*
%TO.N,Net-(R_ANT1-Pad1)*%
X93463200Y-88534100D02*
X96196500Y-91267400D01*
X82327000Y-88534100D02*
X93463200Y-88534100D01*
X79994700Y-86201800D02*
X82327000Y-88534100D01*
X79994700Y-79375000D02*
X79994700Y-86201800D01*
X81095000Y-79375000D02*
X79994700Y-79375000D01*
%TO.N,Net-(R_ANT1-Pad2)*%
X98371900Y-91442800D02*
X98196500Y-91267400D01*
X98371900Y-97344700D02*
X98371900Y-91442800D01*
X98004500Y-97712100D02*
X98371900Y-97344700D01*
X97196500Y-97712100D02*
X98004500Y-97712100D01*
X97196500Y-98887400D02*
X97196500Y-97712100D01*
%TO.N,unconnected-(J_POWER1-Pad6)*%
X72422500Y-89860000D02*
X72422500Y-89260000D01*
X74097800Y-88860000D02*
X73697800Y-89260000D01*
X75122500Y-88860000D02*
X74097800Y-88860000D01*
X72422500Y-87360000D02*
X72422500Y-85360000D01*
X72422500Y-89260000D02*
X73060200Y-89260000D01*
X73060200Y-89260000D02*
X73697800Y-89260000D01*
X72422500Y-88622300D02*
X72422500Y-87360000D01*
X73060200Y-89260000D02*
X72422500Y-88622300D01*
X72422500Y-85360000D02*
X72422500Y-83460000D01*
X72422500Y-83460000D02*
X72422500Y-82860000D01*
%TO.N,Net-(R_1-Pad1)*%
X88645300Y-95599400D02*
X88645300Y-92075000D01*
X86360000Y-97884700D02*
X88645300Y-95599400D01*
X86360000Y-99060000D02*
X86360000Y-97884700D01*
X87470000Y-92075000D02*
X88645300Y-92075000D01*
X89956100Y-92075000D02*
X88645300Y-92075000D01*
X91042200Y-90988900D02*
X89956100Y-92075000D01*
%TO.N,Net-(J_DEBUG1-Pad5)*%
X86294700Y-95410000D02*
X86294700Y-93345000D01*
X83820000Y-97884700D02*
X86294700Y-95410000D01*
X83820000Y-99060000D02*
X83820000Y-97884700D01*
X87470000Y-93345000D02*
X86294700Y-93345000D01*
%TO.N,Net-(J_DEBUG1-Pad1)*%
X73660000Y-94869700D02*
X78994700Y-89535000D01*
X73660000Y-99060000D02*
X73660000Y-94869700D01*
X80170000Y-89535000D02*
X78994700Y-89535000D01*
%TO.N,Net-(J_DEBUG1-Pad3)*%
X78740000Y-92329700D02*
X78994700Y-92075000D01*
X78740000Y-99060000D02*
X78740000Y-92329700D01*
X80170000Y-92075000D02*
X78994700Y-92075000D01*
X86545000Y-79375000D02*
X85444700Y-79375000D01*
X85444700Y-79375000D02*
X85147100Y-79375000D01*
%TO.N,Net-(J_DEBUG1-Pad2)*%
X86545000Y-80645000D02*
X85444700Y-80645000D01*
X85421800Y-80667900D02*
X84573900Y-80667900D01*
X85444700Y-80645000D02*
X85421800Y-80667900D01*
X80170000Y-90805000D02*
X78994700Y-90805000D01*
X76200000Y-93599700D02*
X78994700Y-90805000D01*
X76200000Y-99060000D02*
X76200000Y-93599700D01*
%TO.N,Net-(J_DEBUG1-Pad7)*%
X88900000Y-99060000D02*
X87724700Y-99060000D01*
X82644600Y-92013700D02*
X83853300Y-90805000D01*
X82644600Y-99583700D02*
X82644600Y-92013700D01*
X83296200Y-100235300D02*
X82644600Y-99583700D01*
X86916800Y-100235300D02*
X83296200Y-100235300D01*
X87724700Y-99427400D02*
X86916800Y-100235300D01*
X87724700Y-99060000D02*
X87724700Y-99427400D01*
X83853300Y-90805000D02*
X87470000Y-90805000D01*
X81095000Y-78105000D02*
X79994700Y-78105000D01*
X79544400Y-86496100D02*
X83853300Y-90805000D01*
X79544400Y-78555300D02*
X79544400Y-86496100D01*
X79994700Y-78105000D02*
X79544400Y-78555300D01*
%TO.N,Net-(D3-Pad2)*%
X133634700Y-81650600D02*
X130525300Y-84760000D01*
X133634700Y-77800000D02*
X133634700Y-81650600D01*
X134710000Y-77800000D02*
X133634700Y-77800000D01*
X129450000Y-84760000D02*
X130525300Y-84760000D01*
%TO.N,Net-(D2-Pad2)*%
X145945300Y-79860000D02*
X140685300Y-74600000D01*
X145945300Y-87960000D02*
X145945300Y-79860000D01*
X144870000Y-87960000D02*
X145945300Y-87960000D01*
X139610000Y-74600000D02*
X140685300Y-74600000D01*
%TO.N,Net-(R_1-Pad2)*%
X134710000Y-98120000D02*
X133634700Y-98120000D01*
X131213100Y-100541600D02*
X133634700Y-98120000D01*
X96504600Y-100541600D02*
X131213100Y-100541600D01*
X93042200Y-97079200D02*
X96504600Y-100541600D01*
X93042200Y-90988900D02*
X93042200Y-97079200D01*
%TO.N,Net-(D1-Pad2)*%
X148694700Y-86910600D02*
X140685300Y-94920000D01*
X148694700Y-84760000D02*
X148694700Y-86910600D01*
X149770000Y-84760000D02*
X148694700Y-84760000D01*
X139610000Y-94920000D02*
X140685300Y-94920000D01*
%TO.N,Net-(C_RES1-Pad2)*%
X81095000Y-83185000D02*
X82195300Y-83185000D01*
X86482600Y-87472300D02*
X82195300Y-83185000D01*
X98427300Y-87472300D02*
X86482600Y-87472300D01*
X98826000Y-87073600D02*
X98427300Y-87472300D01*
X98826000Y-77831300D02*
X98826000Y-87073600D01*
X97826900Y-76832200D02*
X98826000Y-77831300D01*
%TO.N,Net-(C_FCAP1-Pad1)*%
X89669100Y-78105000D02*
X86545000Y-78105000D01*
X90941900Y-76832200D02*
X89669100Y-78105000D01*
%TO.N,Net-(C_DV1-Pad2)*%
X81095000Y-85725000D02*
X82195300Y-85725000D01*
X93016900Y-81345600D02*
X91012500Y-83350000D01*
X93016900Y-79842200D02*
X93016900Y-81345600D01*
X89797100Y-83350000D02*
X89464000Y-83683100D01*
X91012500Y-83350000D02*
X89797100Y-83350000D01*
X82324600Y-85854300D02*
X83372800Y-85854300D01*
X82195300Y-85725000D02*
X82324600Y-85854300D01*
%TO.N,Net-(C_DV1-Pad1)*%
X95943400Y-77023700D02*
X95751900Y-76832200D01*
X97196500Y-89461100D02*
X97196500Y-96347400D01*
X99291000Y-87366600D02*
X97196500Y-89461100D01*
X99291000Y-76661100D02*
X99291000Y-87366600D01*
X98398000Y-75768100D02*
X99291000Y-76661100D01*
X97199000Y-75768100D02*
X98398000Y-75768100D01*
X95943400Y-77023700D02*
X97199000Y-75768100D01*
X90941900Y-79603400D02*
X90941900Y-79842200D01*
X92209400Y-78335900D02*
X90941900Y-79603400D01*
X93786000Y-78335900D02*
X92209400Y-78335900D01*
X94625300Y-79175200D02*
X93786000Y-78335900D01*
X94625300Y-80358400D02*
X94625300Y-79175200D01*
X95189300Y-80922400D02*
X94625300Y-80358400D01*
X96308300Y-80922400D02*
X95189300Y-80922400D01*
X96668100Y-80562600D02*
X96308300Y-80922400D01*
X96668100Y-77748400D02*
X96668100Y-80562600D01*
X95943400Y-77023700D02*
X96668100Y-77748400D01*
%TO.N,Net-(C_DEC1-Pad2)*%
X88264900Y-85074600D02*
X87645300Y-84455000D01*
X91802100Y-85074600D02*
X88264900Y-85074600D01*
X93087500Y-86360000D02*
X91802100Y-85074600D01*
X86545000Y-84455000D02*
X87645300Y-84455000D01*
%TO.N,Net-(C_DEC1-Pad1)*%
X88280300Y-86360000D02*
X87645300Y-85725000D01*
X91012500Y-86360000D02*
X88280300Y-86360000D01*
X86545000Y-85725000D02*
X87645300Y-85725000D01*
%TO.N,Net-(C_DC2-Pad1)*%
X86545000Y-76835000D02*
X87645300Y-76835000D01*
X88704300Y-75776000D02*
X87645300Y-76835000D01*
X91542900Y-75776000D02*
X88704300Y-75776000D01*
X92103000Y-76336100D02*
X91542900Y-75776000D01*
X92103000Y-77545700D02*
X92103000Y-76336100D01*
X92440900Y-77883600D02*
X92103000Y-77545700D01*
X93970600Y-77883600D02*
X92440900Y-77883600D01*
X95750500Y-79663500D02*
X93970600Y-77883600D01*
X95750500Y-79838900D02*
X95750500Y-79663500D01*
%TO.N,+5V*%
X75122500Y-85060000D02*
X74122200Y-85060000D01*
X103140000Y-83706300D02*
X103140000Y-88900000D01*
X103131600Y-83697900D02*
X103140000Y-83706300D01*
X73841800Y-84779600D02*
X74122200Y-85060000D01*
X73841800Y-78921800D02*
X73841800Y-84779600D01*
X73660000Y-78740000D02*
X73841800Y-78921800D01*
X81095000Y-80645000D02*
X82195300Y-80645000D01*
X82351600Y-80645000D02*
X82471600Y-80525000D01*
X82195300Y-80645000D02*
X82351600Y-80645000D01*
X91440000Y-99060000D02*
X91440000Y-97884700D01*
X103140000Y-88900000D02*
X103140000Y-93980000D01*
X102204300Y-94915700D02*
X102204300Y-99763700D01*
X103140000Y-93980000D02*
X102204300Y-94915700D01*
X104110500Y-100089500D02*
X105140000Y-99060000D01*
X102530100Y-100089500D02*
X104110500Y-100089500D01*
X102204300Y-99763700D02*
X102530100Y-100089500D01*
X101878600Y-100089400D02*
X102204300Y-99763700D01*
X96689400Y-100089400D02*
X101878600Y-100089400D01*
X95254700Y-98654700D02*
X96689400Y-100089400D01*
X95254700Y-91560600D02*
X95254700Y-98654700D01*
X93608600Y-89914500D02*
X95254700Y-91560600D01*
X91990600Y-89914500D02*
X93608600Y-89914500D01*
X91990600Y-97334100D02*
X91990600Y-89914500D01*
X91440000Y-97884700D02*
X91990600Y-97334100D01*
X91611100Y-89535000D02*
X91990600Y-89914500D01*
X87470000Y-89535000D02*
X91611100Y-89535000D01*
%TO.N,Net-(C_AGND1-Pad1)*%
X93892500Y-84430000D02*
X95822500Y-86360000D01*
X89185200Y-84430000D02*
X93892500Y-84430000D01*
X87940200Y-83185000D02*
X89185200Y-84430000D01*
X86545000Y-83185000D02*
X87940200Y-83185000D01*
%TO.N,Net-(R_5-Pad2)*%
X129450000Y-87960000D02*
X128374700Y-87960000D01*
X110265500Y-88831800D02*
X105131600Y-83697900D01*
X128037500Y-88831800D02*
X110265500Y-88831800D01*
X128037500Y-93980000D02*
X128037500Y-88831800D01*
X128037500Y-88297200D02*
X128374700Y-87960000D01*
X128037500Y-88831800D02*
X128037500Y-88297200D01*
%TO.N,Net-(R_4-Pad2)*%
X139610000Y-77800000D02*
X138534700Y-77800000D01*
X104194600Y-87954600D02*
X105140000Y-88900000D01*
X104194600Y-82999500D02*
X104194600Y-87954600D01*
X110219500Y-76974600D02*
X104194600Y-82999500D01*
X137034900Y-76974600D02*
X110219500Y-76974600D01*
X138197500Y-78137200D02*
X137034900Y-76974600D01*
X138197500Y-81280000D02*
X138197500Y-78137200D01*
X138197500Y-78137200D02*
X138534700Y-77800000D01*
%TO.N,Net-(R_3-Pad2)*%
X149770000Y-87960000D02*
X148694700Y-87960000D01*
X148357500Y-88297200D02*
X148357500Y-93980000D01*
X148694700Y-87960000D02*
X148357500Y-88297200D01*
X107144400Y-95984400D02*
X105140000Y-93980000D01*
X134786100Y-95984400D02*
X107144400Y-95984400D01*
X137747100Y-98945400D02*
X134786100Y-95984400D01*
X143392100Y-98945400D02*
X137747100Y-98945400D01*
X148357500Y-93980000D02*
X143392100Y-98945400D01*
%TO.N,Net-(R_2-Pad2)*%
X104140000Y-98060000D02*
X103140000Y-99060000D01*
X104140000Y-93349100D02*
X104140000Y-98060000D01*
X104567100Y-92922000D02*
X104140000Y-93349100D01*
X105809500Y-92922000D02*
X104567100Y-92922000D01*
X108387500Y-95500000D02*
X105809500Y-92922000D01*
X133054700Y-95500000D02*
X108387500Y-95500000D01*
X133634700Y-94920000D02*
X133054700Y-95500000D01*
X134710000Y-94920000D02*
X133634700Y-94920000D01*
X135785300Y-91777200D02*
X135785300Y-94920000D01*
X136122500Y-91440000D02*
X135785300Y-91777200D01*
X134710000Y-94920000D02*
X135785300Y-94920000D01*
%TO.N,GND*%
X81280000Y-99060000D02*
X81280000Y-97884700D01*
X80170000Y-93345000D02*
X81232700Y-93345000D01*
X124550000Y-84760000D02*
X125625300Y-84760000D01*
X144870000Y-84760000D02*
X143794700Y-84760000D01*
X126450600Y-85585300D02*
X125625300Y-84760000D01*
X128810800Y-85585300D02*
X126450600Y-85585300D01*
X133445700Y-90220100D02*
X128810800Y-85585300D01*
X133445700Y-90220200D02*
X133445700Y-90220100D01*
X133782600Y-89883300D02*
X133445700Y-90220200D01*
X136845500Y-89883300D02*
X133782600Y-89883300D01*
X137199000Y-89529800D02*
X136845500Y-89883300D01*
X137199000Y-82356500D02*
X137199000Y-89529800D01*
X137199000Y-82356500D02*
X136122500Y-81280000D01*
X128616200Y-95049600D02*
X133445700Y-90220100D01*
X127032100Y-95049600D02*
X128616200Y-95049600D01*
X125962500Y-93980000D02*
X127032100Y-95049600D01*
X81095000Y-76835000D02*
X82195300Y-76835000D01*
X82195300Y-76835000D02*
X83196900Y-77836600D01*
X93016900Y-76832200D02*
X93016900Y-76593400D01*
X85707800Y-75325700D02*
X83196900Y-77836600D01*
X91749200Y-75325700D02*
X85707800Y-75325700D01*
X93016900Y-76593400D02*
X91749200Y-75325700D01*
X94616900Y-81820600D02*
X93087500Y-83350000D01*
X93949900Y-81153600D02*
X94616900Y-81820600D01*
X93949900Y-79136700D02*
X93949900Y-81153600D01*
X93599400Y-78786200D02*
X93949900Y-79136700D01*
X92398200Y-78786200D02*
X93599400Y-78786200D01*
X91997900Y-79186500D02*
X92398200Y-78786200D01*
X91997900Y-80445400D02*
X91997900Y-79186500D01*
X90528300Y-81915000D02*
X91997900Y-80445400D01*
X86545000Y-81915000D02*
X90528300Y-81915000D01*
X97897500Y-83654800D02*
X96063300Y-81820600D01*
X97897500Y-86360000D02*
X97897500Y-83654800D01*
X94616900Y-81820600D02*
X96063300Y-81820600D01*
X97825500Y-80058400D02*
X97825500Y-79838900D01*
X96063300Y-81820600D02*
X97825500Y-80058400D01*
X95010300Y-74600000D02*
X134710000Y-74600000D01*
X93016900Y-76593400D02*
X95010300Y-74600000D01*
X140685400Y-81230300D02*
X140475200Y-81440500D01*
X140685400Y-77098600D02*
X140685400Y-81230300D01*
X139012100Y-75425300D02*
X140685400Y-77098600D01*
X136610600Y-75425300D02*
X139012100Y-75425300D01*
X135785300Y-74600000D02*
X136610600Y-75425300D01*
X143794700Y-84760000D02*
X140475200Y-81440500D01*
X139559200Y-82356500D02*
X137199000Y-82356500D01*
X140475200Y-81440500D02*
X139559200Y-82356500D01*
X134710000Y-74600000D02*
X135785300Y-74600000D01*
X138197500Y-91235300D02*
X138197500Y-91440000D01*
X136845500Y-89883300D02*
X138197500Y-91235300D01*
X138197500Y-97782800D02*
X138534700Y-98120000D01*
X138197500Y-91440000D02*
X138197500Y-97782800D01*
X139610000Y-98120000D02*
X138534700Y-98120000D01*
X144825300Y-93980000D02*
X140685300Y-98120000D01*
X146282500Y-93980000D02*
X144825300Y-93980000D01*
X139610000Y-98120000D02*
X140685300Y-98120000D01*
X75122500Y-87660000D02*
X76122800Y-87660000D01*
X78107000Y-76835000D02*
X76202000Y-78740000D01*
X81095000Y-76835000D02*
X78107000Y-76835000D01*
X76202000Y-78740000D02*
X75660000Y-78740000D01*
X76202000Y-78740000D02*
X76202000Y-87580800D01*
X76202000Y-87580800D02*
X76122800Y-87660000D01*
X79868300Y-87580800D02*
X76202000Y-87580800D01*
X81345400Y-89057900D02*
X79868300Y-87580800D01*
X81345400Y-93279600D02*
X81345400Y-89057900D01*
X81280000Y-93345000D02*
X81345400Y-93279600D01*
X81232700Y-93345000D02*
X81280000Y-93345000D01*
X81280000Y-93345000D02*
X81280000Y-97884700D01*
X81095000Y-81915000D02*
X82195300Y-81915000D01*
X83196900Y-77836600D02*
X83196900Y-81400100D01*
X82682000Y-81915000D02*
X82195300Y-81915000D01*
X83196900Y-81400100D02*
X82682000Y-81915000D01*
X84929800Y-81400100D02*
X85444700Y-81915000D01*
X83196900Y-81400100D02*
X84929800Y-81400100D01*
X86545000Y-81915000D02*
X85444700Y-81915000D01*
%TD*%
M02*
