%TF.GenerationSoftware,KiCad,Pcbnew,(6.0.7)*%
%TF.CreationDate,2022-09-13T21:36:05-06:00*%
%TF.ProjectId,attiny_rfid_light,61747469-6e79-45f7-9266-69645f6c6967,rev?*%
%TF.SameCoordinates,Original*%
%TF.FileFunction,Legend,Top*%
%TF.FilePolarity,Positive*%
%FSLAX46Y46*%
G04 Gerber Fmt 4.6, Leading zero omitted, Abs format (unit mm)*
G04 Created by KiCad (PCBNEW (6.0.7)) date 2022-09-13 21:36:05*
%MOMM*%
%LPD*%
G01*
G04 APERTURE LIST*
%ADD10C,0.150000*%
%ADD11C,0.254000*%
%ADD12C,0.120000*%
%ADD13C,0.200000*%
G04 APERTURE END LIST*
D10*
%TO.C,U1*%
X83058095Y-87212380D02*
X83058095Y-88021904D01*
X83105714Y-88117142D01*
X83153333Y-88164761D01*
X83248571Y-88212380D01*
X83439047Y-88212380D01*
X83534285Y-88164761D01*
X83581904Y-88117142D01*
X83629523Y-88021904D01*
X83629523Y-87212380D01*
X84629523Y-88212380D02*
X84058095Y-88212380D01*
X84343809Y-88212380D02*
X84343809Y-87212380D01*
X84248571Y-87355238D01*
X84153333Y-87450476D01*
X84058095Y-87498095D01*
%TO.C,R_ANT1*%
X95315547Y-90069780D02*
X94982214Y-89593590D01*
X94744119Y-90069780D02*
X94744119Y-89069780D01*
X95125071Y-89069780D01*
X95220309Y-89117400D01*
X95267928Y-89165019D01*
X95315547Y-89260257D01*
X95315547Y-89403114D01*
X95267928Y-89498352D01*
X95220309Y-89545971D01*
X95125071Y-89593590D01*
X94744119Y-89593590D01*
X95506023Y-90165019D02*
X96267928Y-90165019D01*
X96458404Y-89784066D02*
X96934595Y-89784066D01*
X96363166Y-90069780D02*
X96696500Y-89069780D01*
X97029833Y-90069780D01*
X97363166Y-90069780D02*
X97363166Y-89069780D01*
X97934595Y-90069780D01*
X97934595Y-89069780D01*
X98267928Y-89069780D02*
X98839357Y-89069780D01*
X98553642Y-90069780D02*
X98553642Y-89069780D01*
X99696500Y-90069780D02*
X99125071Y-90069780D01*
X99410785Y-90069780D02*
X99410785Y-89069780D01*
X99315547Y-89212638D01*
X99220309Y-89307876D01*
X99125071Y-89355495D01*
%TO.C,R_5*%
X103583980Y-82500280D02*
X103250647Y-82024090D01*
X103012552Y-82500280D02*
X103012552Y-81500280D01*
X103393504Y-81500280D01*
X103488742Y-81547900D01*
X103536361Y-81595519D01*
X103583980Y-81690757D01*
X103583980Y-81833614D01*
X103536361Y-81928852D01*
X103488742Y-81976471D01*
X103393504Y-82024090D01*
X103012552Y-82024090D01*
X103774457Y-82595519D02*
X104536361Y-82595519D01*
X105250647Y-81500280D02*
X104774457Y-81500280D01*
X104726838Y-81976471D01*
X104774457Y-81928852D01*
X104869695Y-81881233D01*
X105107790Y-81881233D01*
X105203028Y-81928852D01*
X105250647Y-81976471D01*
X105298266Y-82071709D01*
X105298266Y-82309804D01*
X105250647Y-82405042D01*
X105203028Y-82452661D01*
X105107790Y-82500280D01*
X104869695Y-82500280D01*
X104774457Y-82452661D01*
X104726838Y-82405042D01*
%TO.C,R_4*%
X103592380Y-87702380D02*
X103259047Y-87226190D01*
X103020952Y-87702380D02*
X103020952Y-86702380D01*
X103401904Y-86702380D01*
X103497142Y-86750000D01*
X103544761Y-86797619D01*
X103592380Y-86892857D01*
X103592380Y-87035714D01*
X103544761Y-87130952D01*
X103497142Y-87178571D01*
X103401904Y-87226190D01*
X103020952Y-87226190D01*
X103782857Y-87797619D02*
X104544761Y-87797619D01*
X105211428Y-87035714D02*
X105211428Y-87702380D01*
X104973333Y-86654761D02*
X104735238Y-87369047D01*
X105354285Y-87369047D01*
%TO.C,R_3*%
X103592380Y-92782380D02*
X103259047Y-92306190D01*
X103020952Y-92782380D02*
X103020952Y-91782380D01*
X103401904Y-91782380D01*
X103497142Y-91830000D01*
X103544761Y-91877619D01*
X103592380Y-91972857D01*
X103592380Y-92115714D01*
X103544761Y-92210952D01*
X103497142Y-92258571D01*
X103401904Y-92306190D01*
X103020952Y-92306190D01*
X103782857Y-92877619D02*
X104544761Y-92877619D01*
X104687619Y-91782380D02*
X105306666Y-91782380D01*
X104973333Y-92163333D01*
X105116190Y-92163333D01*
X105211428Y-92210952D01*
X105259047Y-92258571D01*
X105306666Y-92353809D01*
X105306666Y-92591904D01*
X105259047Y-92687142D01*
X105211428Y-92734761D01*
X105116190Y-92782380D01*
X104830476Y-92782380D01*
X104735238Y-92734761D01*
X104687619Y-92687142D01*
%TO.C,R_2*%
X103592380Y-101162380D02*
X103259047Y-100686190D01*
X103020952Y-101162380D02*
X103020952Y-100162380D01*
X103401904Y-100162380D01*
X103497142Y-100210000D01*
X103544761Y-100257619D01*
X103592380Y-100352857D01*
X103592380Y-100495714D01*
X103544761Y-100590952D01*
X103497142Y-100638571D01*
X103401904Y-100686190D01*
X103020952Y-100686190D01*
X103782857Y-101257619D02*
X104544761Y-101257619D01*
X104735238Y-100257619D02*
X104782857Y-100210000D01*
X104878095Y-100162380D01*
X105116190Y-100162380D01*
X105211428Y-100210000D01*
X105259047Y-100257619D01*
X105306666Y-100352857D01*
X105306666Y-100448095D01*
X105259047Y-100590952D01*
X104687619Y-101162380D01*
X105306666Y-101162380D01*
%TO.C,R_1*%
X91494580Y-89791280D02*
X91161247Y-89315090D01*
X90923152Y-89791280D02*
X90923152Y-88791280D01*
X91304104Y-88791280D01*
X91399342Y-88838900D01*
X91446961Y-88886519D01*
X91494580Y-88981757D01*
X91494580Y-89124614D01*
X91446961Y-89219852D01*
X91399342Y-89267471D01*
X91304104Y-89315090D01*
X90923152Y-89315090D01*
X91685057Y-89886519D02*
X92446961Y-89886519D01*
X93208866Y-89791280D02*
X92637438Y-89791280D01*
X92923152Y-89791280D02*
X92923152Y-88791280D01*
X92827914Y-88934138D01*
X92732676Y-89029376D01*
X92637438Y-89076995D01*
%TO.C,L_ANT1*%
X95315547Y-94469780D02*
X94839357Y-94469780D01*
X94839357Y-93469780D01*
X95410785Y-94565019D02*
X96172690Y-94565019D01*
X96363166Y-94184066D02*
X96839357Y-94184066D01*
X96267928Y-94469780D02*
X96601261Y-93469780D01*
X96934595Y-94469780D01*
X97267928Y-94469780D02*
X97267928Y-93469780D01*
X97839357Y-94469780D01*
X97839357Y-93469780D01*
X98172690Y-93469780D02*
X98744119Y-93469780D01*
X98458404Y-94469780D02*
X98458404Y-93469780D01*
X99601261Y-94469780D02*
X99029833Y-94469780D01*
X99315547Y-94469780D02*
X99315547Y-93469780D01*
X99220309Y-93612638D01*
X99125071Y-93707876D01*
X99029833Y-93755495D01*
%TO.C,J_POWER1*%
X76224880Y-89621904D02*
X76939166Y-89621904D01*
X77082023Y-89669523D01*
X77177261Y-89764761D01*
X77224880Y-89907619D01*
X77224880Y-90002857D01*
X77320119Y-89383809D02*
X77320119Y-88621904D01*
X77224880Y-88383809D02*
X76224880Y-88383809D01*
X76224880Y-88002857D01*
X76272500Y-87907619D01*
X76320119Y-87860000D01*
X76415357Y-87812380D01*
X76558214Y-87812380D01*
X76653452Y-87860000D01*
X76701071Y-87907619D01*
X76748690Y-88002857D01*
X76748690Y-88383809D01*
X76224880Y-87193333D02*
X76224880Y-87002857D01*
X76272500Y-86907619D01*
X76367738Y-86812380D01*
X76558214Y-86764761D01*
X76891547Y-86764761D01*
X77082023Y-86812380D01*
X77177261Y-86907619D01*
X77224880Y-87002857D01*
X77224880Y-87193333D01*
X77177261Y-87288571D01*
X77082023Y-87383809D01*
X76891547Y-87431428D01*
X76558214Y-87431428D01*
X76367738Y-87383809D01*
X76272500Y-87288571D01*
X76224880Y-87193333D01*
X76224880Y-86431428D02*
X77224880Y-86193333D01*
X76510595Y-86002857D01*
X77224880Y-85812380D01*
X76224880Y-85574285D01*
X76701071Y-85193333D02*
X76701071Y-84860000D01*
X77224880Y-84717142D02*
X77224880Y-85193333D01*
X76224880Y-85193333D01*
X76224880Y-84717142D01*
X77224880Y-83717142D02*
X76748690Y-84050476D01*
X77224880Y-84288571D02*
X76224880Y-84288571D01*
X76224880Y-83907619D01*
X76272500Y-83812380D01*
X76320119Y-83764761D01*
X76415357Y-83717142D01*
X76558214Y-83717142D01*
X76653452Y-83764761D01*
X76701071Y-83812380D01*
X76748690Y-83907619D01*
X76748690Y-84288571D01*
X77224880Y-82764761D02*
X77224880Y-83336190D01*
X77224880Y-83050476D02*
X76224880Y-83050476D01*
X76367738Y-83145714D01*
X76462976Y-83240952D01*
X76510595Y-83336190D01*
%TO.C,J_DEBUG1*%
X70782380Y-102250476D02*
X71496666Y-102250476D01*
X71639523Y-102298095D01*
X71734761Y-102393333D01*
X71782380Y-102536190D01*
X71782380Y-102631428D01*
X71877619Y-102012380D02*
X71877619Y-101250476D01*
X71782380Y-101012380D02*
X70782380Y-101012380D01*
X70782380Y-100774285D01*
X70830000Y-100631428D01*
X70925238Y-100536190D01*
X71020476Y-100488571D01*
X71210952Y-100440952D01*
X71353809Y-100440952D01*
X71544285Y-100488571D01*
X71639523Y-100536190D01*
X71734761Y-100631428D01*
X71782380Y-100774285D01*
X71782380Y-101012380D01*
X71258571Y-100012380D02*
X71258571Y-99679047D01*
X71782380Y-99536190D02*
X71782380Y-100012380D01*
X70782380Y-100012380D01*
X70782380Y-99536190D01*
X71258571Y-98774285D02*
X71306190Y-98631428D01*
X71353809Y-98583809D01*
X71449047Y-98536190D01*
X71591904Y-98536190D01*
X71687142Y-98583809D01*
X71734761Y-98631428D01*
X71782380Y-98726666D01*
X71782380Y-99107619D01*
X70782380Y-99107619D01*
X70782380Y-98774285D01*
X70830000Y-98679047D01*
X70877619Y-98631428D01*
X70972857Y-98583809D01*
X71068095Y-98583809D01*
X71163333Y-98631428D01*
X71210952Y-98679047D01*
X71258571Y-98774285D01*
X71258571Y-99107619D01*
X70782380Y-98107619D02*
X71591904Y-98107619D01*
X71687142Y-98060000D01*
X71734761Y-98012380D01*
X71782380Y-97917142D01*
X71782380Y-97726666D01*
X71734761Y-97631428D01*
X71687142Y-97583809D01*
X71591904Y-97536190D01*
X70782380Y-97536190D01*
X70830000Y-96536190D02*
X70782380Y-96631428D01*
X70782380Y-96774285D01*
X70830000Y-96917142D01*
X70925238Y-97012380D01*
X71020476Y-97060000D01*
X71210952Y-97107619D01*
X71353809Y-97107619D01*
X71544285Y-97060000D01*
X71639523Y-97012380D01*
X71734761Y-96917142D01*
X71782380Y-96774285D01*
X71782380Y-96679047D01*
X71734761Y-96536190D01*
X71687142Y-96488571D01*
X71353809Y-96488571D01*
X71353809Y-96679047D01*
X71782380Y-95536190D02*
X71782380Y-96107619D01*
X71782380Y-95821904D02*
X70782380Y-95821904D01*
X70925238Y-95917142D01*
X71020476Y-96012380D01*
X71068095Y-96107619D01*
D11*
%TO.C,IC1*%
X82580238Y-81854523D02*
X82580238Y-80584523D01*
X83910714Y-81733571D02*
X83850238Y-81794047D01*
X83668809Y-81854523D01*
X83547857Y-81854523D01*
X83366428Y-81794047D01*
X83245476Y-81673095D01*
X83185000Y-81552142D01*
X83124523Y-81310238D01*
X83124523Y-81128809D01*
X83185000Y-80886904D01*
X83245476Y-80765952D01*
X83366428Y-80645000D01*
X83547857Y-80584523D01*
X83668809Y-80584523D01*
X83850238Y-80645000D01*
X83910714Y-80705476D01*
X85120238Y-81854523D02*
X84394523Y-81854523D01*
X84757380Y-81854523D02*
X84757380Y-80584523D01*
X84636428Y-80765952D01*
X84515476Y-80886904D01*
X84394523Y-80947380D01*
D10*
%TO.C,D4*%
X126261904Y-83312380D02*
X126261904Y-82312380D01*
X126500000Y-82312380D01*
X126642857Y-82360000D01*
X126738095Y-82455238D01*
X126785714Y-82550476D01*
X126833333Y-82740952D01*
X126833333Y-82883809D01*
X126785714Y-83074285D01*
X126738095Y-83169523D01*
X126642857Y-83264761D01*
X126500000Y-83312380D01*
X126261904Y-83312380D01*
X127690476Y-82645714D02*
X127690476Y-83312380D01*
X127452380Y-82264761D02*
X127214285Y-82979047D01*
X127833333Y-82979047D01*
X123135714Y-85212380D02*
X122564285Y-85212380D01*
X122850000Y-85212380D02*
X122850000Y-84212380D01*
X122754761Y-84355238D01*
X122659523Y-84450476D01*
X122564285Y-84498095D01*
%TO.C,D3*%
X136421904Y-73152380D02*
X136421904Y-72152380D01*
X136660000Y-72152380D01*
X136802857Y-72200000D01*
X136898095Y-72295238D01*
X136945714Y-72390476D01*
X136993333Y-72580952D01*
X136993333Y-72723809D01*
X136945714Y-72914285D01*
X136898095Y-73009523D01*
X136802857Y-73104761D01*
X136660000Y-73152380D01*
X136421904Y-73152380D01*
X137326666Y-72152380D02*
X137945714Y-72152380D01*
X137612380Y-72533333D01*
X137755238Y-72533333D01*
X137850476Y-72580952D01*
X137898095Y-72628571D01*
X137945714Y-72723809D01*
X137945714Y-72961904D01*
X137898095Y-73057142D01*
X137850476Y-73104761D01*
X137755238Y-73152380D01*
X137469523Y-73152380D01*
X137374285Y-73104761D01*
X137326666Y-73057142D01*
X133295714Y-75052380D02*
X132724285Y-75052380D01*
X133010000Y-75052380D02*
X133010000Y-74052380D01*
X132914761Y-74195238D01*
X132819523Y-74290476D01*
X132724285Y-74338095D01*
%TO.C,D2*%
X146581904Y-83312380D02*
X146581904Y-82312380D01*
X146820000Y-82312380D01*
X146962857Y-82360000D01*
X147058095Y-82455238D01*
X147105714Y-82550476D01*
X147153333Y-82740952D01*
X147153333Y-82883809D01*
X147105714Y-83074285D01*
X147058095Y-83169523D01*
X146962857Y-83264761D01*
X146820000Y-83312380D01*
X146581904Y-83312380D01*
X147534285Y-82407619D02*
X147581904Y-82360000D01*
X147677142Y-82312380D01*
X147915238Y-82312380D01*
X148010476Y-82360000D01*
X148058095Y-82407619D01*
X148105714Y-82502857D01*
X148105714Y-82598095D01*
X148058095Y-82740952D01*
X147486666Y-83312380D01*
X148105714Y-83312380D01*
X143455714Y-85212380D02*
X142884285Y-85212380D01*
X143170000Y-85212380D02*
X143170000Y-84212380D01*
X143074761Y-84355238D01*
X142979523Y-84450476D01*
X142884285Y-84498095D01*
%TO.C,D1*%
X136421904Y-100472380D02*
X136421904Y-99472380D01*
X136660000Y-99472380D01*
X136802857Y-99520000D01*
X136898095Y-99615238D01*
X136945714Y-99710476D01*
X136993333Y-99900952D01*
X136993333Y-100043809D01*
X136945714Y-100234285D01*
X136898095Y-100329523D01*
X136802857Y-100424761D01*
X136660000Y-100472380D01*
X136421904Y-100472380D01*
X137945714Y-100472380D02*
X137374285Y-100472380D01*
X137660000Y-100472380D02*
X137660000Y-99472380D01*
X137564761Y-99615238D01*
X137469523Y-99710476D01*
X137374285Y-99758095D01*
X141595714Y-98572380D02*
X141024285Y-98572380D01*
X141310000Y-98572380D02*
X141310000Y-97572380D01*
X141214761Y-97715238D01*
X141119523Y-97810476D01*
X141024285Y-97858095D01*
%TO.C,C_RES1*%
X94813209Y-75509342D02*
X94765590Y-75556961D01*
X94622733Y-75604580D01*
X94527495Y-75604580D01*
X94384638Y-75556961D01*
X94289400Y-75461723D01*
X94241780Y-75366485D01*
X94194161Y-75176009D01*
X94194161Y-75033152D01*
X94241780Y-74842676D01*
X94289400Y-74747438D01*
X94384638Y-74652200D01*
X94527495Y-74604580D01*
X94622733Y-74604580D01*
X94765590Y-74652200D01*
X94813209Y-74699819D01*
X95003685Y-75699819D02*
X95765590Y-75699819D01*
X96575114Y-75604580D02*
X96241780Y-75128390D01*
X96003685Y-75604580D02*
X96003685Y-74604580D01*
X96384638Y-74604580D01*
X96479876Y-74652200D01*
X96527495Y-74699819D01*
X96575114Y-74795057D01*
X96575114Y-74937914D01*
X96527495Y-75033152D01*
X96479876Y-75080771D01*
X96384638Y-75128390D01*
X96003685Y-75128390D01*
X97003685Y-75080771D02*
X97337019Y-75080771D01*
X97479876Y-75604580D02*
X97003685Y-75604580D01*
X97003685Y-74604580D01*
X97479876Y-74604580D01*
X97860828Y-75556961D02*
X98003685Y-75604580D01*
X98241780Y-75604580D01*
X98337019Y-75556961D01*
X98384638Y-75509342D01*
X98432257Y-75414104D01*
X98432257Y-75318866D01*
X98384638Y-75223628D01*
X98337019Y-75176009D01*
X98241780Y-75128390D01*
X98051304Y-75080771D01*
X97956066Y-75033152D01*
X97908447Y-74985533D01*
X97860828Y-74890295D01*
X97860828Y-74795057D01*
X97908447Y-74699819D01*
X97956066Y-74652200D01*
X98051304Y-74604580D01*
X98289400Y-74604580D01*
X98432257Y-74652200D01*
X99384638Y-75604580D02*
X98813209Y-75604580D01*
X99098923Y-75604580D02*
X99098923Y-74604580D01*
X99003685Y-74747438D01*
X98908447Y-74842676D01*
X98813209Y-74890295D01*
%TO.C,C_FCAP1*%
X89574638Y-75509342D02*
X89527019Y-75556961D01*
X89384161Y-75604580D01*
X89288923Y-75604580D01*
X89146066Y-75556961D01*
X89050828Y-75461723D01*
X89003209Y-75366485D01*
X88955590Y-75176009D01*
X88955590Y-75033152D01*
X89003209Y-74842676D01*
X89050828Y-74747438D01*
X89146066Y-74652200D01*
X89288923Y-74604580D01*
X89384161Y-74604580D01*
X89527019Y-74652200D01*
X89574638Y-74699819D01*
X89765114Y-75699819D02*
X90527019Y-75699819D01*
X91098447Y-75080771D02*
X90765114Y-75080771D01*
X90765114Y-75604580D02*
X90765114Y-74604580D01*
X91241304Y-74604580D01*
X92193685Y-75509342D02*
X92146066Y-75556961D01*
X92003209Y-75604580D01*
X91907971Y-75604580D01*
X91765114Y-75556961D01*
X91669876Y-75461723D01*
X91622257Y-75366485D01*
X91574638Y-75176009D01*
X91574638Y-75033152D01*
X91622257Y-74842676D01*
X91669876Y-74747438D01*
X91765114Y-74652200D01*
X91907971Y-74604580D01*
X92003209Y-74604580D01*
X92146066Y-74652200D01*
X92193685Y-74699819D01*
X92574638Y-75318866D02*
X93050828Y-75318866D01*
X92479400Y-75604580D02*
X92812733Y-74604580D01*
X93146066Y-75604580D01*
X93479400Y-75604580D02*
X93479400Y-74604580D01*
X93860352Y-74604580D01*
X93955590Y-74652200D01*
X94003209Y-74699819D01*
X94050828Y-74795057D01*
X94050828Y-74937914D01*
X94003209Y-75033152D01*
X93955590Y-75080771D01*
X93860352Y-75128390D01*
X93479400Y-75128390D01*
X95003209Y-75604580D02*
X94431780Y-75604580D01*
X94717495Y-75604580D02*
X94717495Y-74604580D01*
X94622257Y-74747438D01*
X94527019Y-74842676D01*
X94431780Y-74890295D01*
%TO.C,C_DV2*%
X90573809Y-82027142D02*
X90526190Y-82074761D01*
X90383333Y-82122380D01*
X90288095Y-82122380D01*
X90145238Y-82074761D01*
X90050000Y-81979523D01*
X90002380Y-81884285D01*
X89954761Y-81693809D01*
X89954761Y-81550952D01*
X90002380Y-81360476D01*
X90050000Y-81265238D01*
X90145238Y-81170000D01*
X90288095Y-81122380D01*
X90383333Y-81122380D01*
X90526190Y-81170000D01*
X90573809Y-81217619D01*
X90764285Y-82217619D02*
X91526190Y-82217619D01*
X91764285Y-82122380D02*
X91764285Y-81122380D01*
X92002380Y-81122380D01*
X92145238Y-81170000D01*
X92240476Y-81265238D01*
X92288095Y-81360476D01*
X92335714Y-81550952D01*
X92335714Y-81693809D01*
X92288095Y-81884285D01*
X92240476Y-81979523D01*
X92145238Y-82074761D01*
X92002380Y-82122380D01*
X91764285Y-82122380D01*
X92621428Y-81122380D02*
X92954761Y-82122380D01*
X93288095Y-81122380D01*
X93573809Y-81217619D02*
X93621428Y-81170000D01*
X93716666Y-81122380D01*
X93954761Y-81122380D01*
X94050000Y-81170000D01*
X94097619Y-81217619D01*
X94145238Y-81312857D01*
X94145238Y-81408095D01*
X94097619Y-81550952D01*
X93526190Y-82122380D01*
X94145238Y-82122380D01*
%TO.C,C_DV1*%
X90503209Y-78519342D02*
X90455590Y-78566961D01*
X90312733Y-78614580D01*
X90217495Y-78614580D01*
X90074638Y-78566961D01*
X89979400Y-78471723D01*
X89931780Y-78376485D01*
X89884161Y-78186009D01*
X89884161Y-78043152D01*
X89931780Y-77852676D01*
X89979400Y-77757438D01*
X90074638Y-77662200D01*
X90217495Y-77614580D01*
X90312733Y-77614580D01*
X90455590Y-77662200D01*
X90503209Y-77709819D01*
X90693685Y-78709819D02*
X91455590Y-78709819D01*
X91693685Y-78614580D02*
X91693685Y-77614580D01*
X91931780Y-77614580D01*
X92074638Y-77662200D01*
X92169876Y-77757438D01*
X92217495Y-77852676D01*
X92265114Y-78043152D01*
X92265114Y-78186009D01*
X92217495Y-78376485D01*
X92169876Y-78471723D01*
X92074638Y-78566961D01*
X91931780Y-78614580D01*
X91693685Y-78614580D01*
X92550828Y-77614580D02*
X92884161Y-78614580D01*
X93217495Y-77614580D01*
X94074638Y-78614580D02*
X93503209Y-78614580D01*
X93788923Y-78614580D02*
X93788923Y-77614580D01*
X93693685Y-77757438D01*
X93598447Y-77852676D01*
X93503209Y-77900295D01*
%TO.C,C_DEC1*%
X90050000Y-85037142D02*
X90002380Y-85084761D01*
X89859523Y-85132380D01*
X89764285Y-85132380D01*
X89621428Y-85084761D01*
X89526190Y-84989523D01*
X89478571Y-84894285D01*
X89430952Y-84703809D01*
X89430952Y-84560952D01*
X89478571Y-84370476D01*
X89526190Y-84275238D01*
X89621428Y-84180000D01*
X89764285Y-84132380D01*
X89859523Y-84132380D01*
X90002380Y-84180000D01*
X90050000Y-84227619D01*
X90240476Y-85227619D02*
X91002380Y-85227619D01*
X91240476Y-85132380D02*
X91240476Y-84132380D01*
X91478571Y-84132380D01*
X91621428Y-84180000D01*
X91716666Y-84275238D01*
X91764285Y-84370476D01*
X91811904Y-84560952D01*
X91811904Y-84703809D01*
X91764285Y-84894285D01*
X91716666Y-84989523D01*
X91621428Y-85084761D01*
X91478571Y-85132380D01*
X91240476Y-85132380D01*
X92240476Y-84608571D02*
X92573809Y-84608571D01*
X92716666Y-85132380D02*
X92240476Y-85132380D01*
X92240476Y-84132380D01*
X92716666Y-84132380D01*
X93716666Y-85037142D02*
X93669047Y-85084761D01*
X93526190Y-85132380D01*
X93430952Y-85132380D01*
X93288095Y-85084761D01*
X93192857Y-84989523D01*
X93145238Y-84894285D01*
X93097619Y-84703809D01*
X93097619Y-84560952D01*
X93145238Y-84370476D01*
X93192857Y-84275238D01*
X93288095Y-84180000D01*
X93430952Y-84132380D01*
X93526190Y-84132380D01*
X93669047Y-84180000D01*
X93716666Y-84227619D01*
X94669047Y-85132380D02*
X94097619Y-85132380D01*
X94383333Y-85132380D02*
X94383333Y-84132380D01*
X94288095Y-84275238D01*
X94192857Y-84370476D01*
X94097619Y-84418095D01*
%TO.C,C_DC2*%
X57880380Y-101616042D02*
X57832761Y-101663661D01*
X57689904Y-101711280D01*
X57594666Y-101711280D01*
X57451809Y-101663661D01*
X57356571Y-101568423D01*
X57308952Y-101473185D01*
X57261333Y-101282709D01*
X57261333Y-101139852D01*
X57308952Y-100949376D01*
X57356571Y-100854138D01*
X57451809Y-100758900D01*
X57594666Y-100711280D01*
X57689904Y-100711280D01*
X57832761Y-100758900D01*
X57880380Y-100806519D01*
X58070857Y-101806519D02*
X58832761Y-101806519D01*
X59070857Y-101711280D02*
X59070857Y-100711280D01*
X59308952Y-100711280D01*
X59451809Y-100758900D01*
X59547047Y-100854138D01*
X59594666Y-100949376D01*
X59642285Y-101139852D01*
X59642285Y-101282709D01*
X59594666Y-101473185D01*
X59547047Y-101568423D01*
X59451809Y-101663661D01*
X59308952Y-101711280D01*
X59070857Y-101711280D01*
X60642285Y-101616042D02*
X60594666Y-101663661D01*
X60451809Y-101711280D01*
X60356571Y-101711280D01*
X60213714Y-101663661D01*
X60118476Y-101568423D01*
X60070857Y-101473185D01*
X60023238Y-101282709D01*
X60023238Y-101139852D01*
X60070857Y-100949376D01*
X60118476Y-100854138D01*
X60213714Y-100758900D01*
X60356571Y-100711280D01*
X60451809Y-100711280D01*
X60594666Y-100758900D01*
X60642285Y-100806519D01*
X61023238Y-100806519D02*
X61070857Y-100758900D01*
X61166095Y-100711280D01*
X61404190Y-100711280D01*
X61499428Y-100758900D01*
X61547047Y-100806519D01*
X61594666Y-100901757D01*
X61594666Y-100996995D01*
X61547047Y-101139852D01*
X60975619Y-101711280D01*
X61594666Y-101711280D01*
%TO.C,C_Big1*%
X72921904Y-75347142D02*
X72874285Y-75394761D01*
X72731428Y-75442380D01*
X72636190Y-75442380D01*
X72493333Y-75394761D01*
X72398095Y-75299523D01*
X72350476Y-75204285D01*
X72302857Y-75013809D01*
X72302857Y-74870952D01*
X72350476Y-74680476D01*
X72398095Y-74585238D01*
X72493333Y-74490000D01*
X72636190Y-74442380D01*
X72731428Y-74442380D01*
X72874285Y-74490000D01*
X72921904Y-74537619D01*
X73112380Y-75537619D02*
X73874285Y-75537619D01*
X74445714Y-74918571D02*
X74588571Y-74966190D01*
X74636190Y-75013809D01*
X74683809Y-75109047D01*
X74683809Y-75251904D01*
X74636190Y-75347142D01*
X74588571Y-75394761D01*
X74493333Y-75442380D01*
X74112380Y-75442380D01*
X74112380Y-74442380D01*
X74445714Y-74442380D01*
X74540952Y-74490000D01*
X74588571Y-74537619D01*
X74636190Y-74632857D01*
X74636190Y-74728095D01*
X74588571Y-74823333D01*
X74540952Y-74870952D01*
X74445714Y-74918571D01*
X74112380Y-74918571D01*
X75112380Y-75442380D02*
X75112380Y-74775714D01*
X75112380Y-74442380D02*
X75064761Y-74490000D01*
X75112380Y-74537619D01*
X75160000Y-74490000D01*
X75112380Y-74442380D01*
X75112380Y-74537619D01*
X76017142Y-74775714D02*
X76017142Y-75585238D01*
X75969523Y-75680476D01*
X75921904Y-75728095D01*
X75826666Y-75775714D01*
X75683809Y-75775714D01*
X75588571Y-75728095D01*
X76017142Y-75394761D02*
X75921904Y-75442380D01*
X75731428Y-75442380D01*
X75636190Y-75394761D01*
X75588571Y-75347142D01*
X75540952Y-75251904D01*
X75540952Y-74966190D01*
X75588571Y-74870952D01*
X75636190Y-74823333D01*
X75731428Y-74775714D01*
X75921904Y-74775714D01*
X76017142Y-74823333D01*
X77017142Y-75442380D02*
X76445714Y-75442380D01*
X76731428Y-75442380D02*
X76731428Y-74442380D01*
X76636190Y-74585238D01*
X76540952Y-74680476D01*
X76445714Y-74728095D01*
%TO.C,C_AGND1*%
X94360000Y-85037142D02*
X94312380Y-85084761D01*
X94169523Y-85132380D01*
X94074285Y-85132380D01*
X93931428Y-85084761D01*
X93836190Y-84989523D01*
X93788571Y-84894285D01*
X93740952Y-84703809D01*
X93740952Y-84560952D01*
X93788571Y-84370476D01*
X93836190Y-84275238D01*
X93931428Y-84180000D01*
X94074285Y-84132380D01*
X94169523Y-84132380D01*
X94312380Y-84180000D01*
X94360000Y-84227619D01*
X94550476Y-85227619D02*
X95312380Y-85227619D01*
X95502857Y-84846666D02*
X95979047Y-84846666D01*
X95407619Y-85132380D02*
X95740952Y-84132380D01*
X96074285Y-85132380D01*
X96931428Y-84180000D02*
X96836190Y-84132380D01*
X96693333Y-84132380D01*
X96550476Y-84180000D01*
X96455238Y-84275238D01*
X96407619Y-84370476D01*
X96360000Y-84560952D01*
X96360000Y-84703809D01*
X96407619Y-84894285D01*
X96455238Y-84989523D01*
X96550476Y-85084761D01*
X96693333Y-85132380D01*
X96788571Y-85132380D01*
X96931428Y-85084761D01*
X96979047Y-85037142D01*
X96979047Y-84703809D01*
X96788571Y-84703809D01*
X97407619Y-85132380D02*
X97407619Y-84132380D01*
X97979047Y-85132380D01*
X97979047Y-84132380D01*
X98455238Y-85132380D02*
X98455238Y-84132380D01*
X98693333Y-84132380D01*
X98836190Y-84180000D01*
X98931428Y-84275238D01*
X98979047Y-84370476D01*
X99026666Y-84560952D01*
X99026666Y-84703809D01*
X98979047Y-84894285D01*
X98931428Y-84989523D01*
X98836190Y-85084761D01*
X98693333Y-85132380D01*
X98455238Y-85132380D01*
X99979047Y-85132380D02*
X99407619Y-85132380D01*
X99693333Y-85132380D02*
X99693333Y-84132380D01*
X99598095Y-84275238D01*
X99502857Y-84370476D01*
X99407619Y-84418095D01*
%TO.C,C4*%
X126833333Y-92657142D02*
X126785714Y-92704761D01*
X126642857Y-92752380D01*
X126547619Y-92752380D01*
X126404761Y-92704761D01*
X126309523Y-92609523D01*
X126261904Y-92514285D01*
X126214285Y-92323809D01*
X126214285Y-92180952D01*
X126261904Y-91990476D01*
X126309523Y-91895238D01*
X126404761Y-91800000D01*
X126547619Y-91752380D01*
X126642857Y-91752380D01*
X126785714Y-91800000D01*
X126833333Y-91847619D01*
X127690476Y-92085714D02*
X127690476Y-92752380D01*
X127452380Y-91704761D02*
X127214285Y-92419047D01*
X127833333Y-92419047D01*
%TO.C,C3*%
X136993333Y-79957142D02*
X136945714Y-80004761D01*
X136802857Y-80052380D01*
X136707619Y-80052380D01*
X136564761Y-80004761D01*
X136469523Y-79909523D01*
X136421904Y-79814285D01*
X136374285Y-79623809D01*
X136374285Y-79480952D01*
X136421904Y-79290476D01*
X136469523Y-79195238D01*
X136564761Y-79100000D01*
X136707619Y-79052380D01*
X136802857Y-79052380D01*
X136945714Y-79100000D01*
X136993333Y-79147619D01*
X137326666Y-79052380D02*
X137945714Y-79052380D01*
X137612380Y-79433333D01*
X137755238Y-79433333D01*
X137850476Y-79480952D01*
X137898095Y-79528571D01*
X137945714Y-79623809D01*
X137945714Y-79861904D01*
X137898095Y-79957142D01*
X137850476Y-80004761D01*
X137755238Y-80052380D01*
X137469523Y-80052380D01*
X137374285Y-80004761D01*
X137326666Y-79957142D01*
%TO.C,C2*%
X147153333Y-92657142D02*
X147105714Y-92704761D01*
X146962857Y-92752380D01*
X146867619Y-92752380D01*
X146724761Y-92704761D01*
X146629523Y-92609523D01*
X146581904Y-92514285D01*
X146534285Y-92323809D01*
X146534285Y-92180952D01*
X146581904Y-91990476D01*
X146629523Y-91895238D01*
X146724761Y-91800000D01*
X146867619Y-91752380D01*
X146962857Y-91752380D01*
X147105714Y-91800000D01*
X147153333Y-91847619D01*
X147534285Y-91847619D02*
X147581904Y-91800000D01*
X147677142Y-91752380D01*
X147915238Y-91752380D01*
X148010476Y-91800000D01*
X148058095Y-91847619D01*
X148105714Y-91942857D01*
X148105714Y-92038095D01*
X148058095Y-92180952D01*
X147486666Y-92752380D01*
X148105714Y-92752380D01*
%TO.C,C1*%
X126833333Y-83317142D02*
X126785714Y-83364761D01*
X126642857Y-83412380D01*
X126547619Y-83412380D01*
X126404761Y-83364761D01*
X126309523Y-83269523D01*
X126261904Y-83174285D01*
X126214285Y-82983809D01*
X126214285Y-82840952D01*
X126261904Y-82650476D01*
X126309523Y-82555238D01*
X126404761Y-82460000D01*
X126547619Y-82412380D01*
X126642857Y-82412380D01*
X126785714Y-82460000D01*
X126833333Y-82507619D01*
X127785714Y-83412380D02*
X127214285Y-83412380D01*
X127500000Y-83412380D02*
X127500000Y-82412380D01*
X127404761Y-82555238D01*
X127309523Y-82650476D01*
X127214285Y-82698095D01*
%TO.C,U1*%
X81070000Y-88685000D02*
X81070000Y-88890000D01*
X81070000Y-94195000D02*
X81070000Y-93895000D01*
X86570000Y-94195000D02*
X86570000Y-93895000D01*
X81070000Y-94195000D02*
X86570000Y-94195000D01*
X86570000Y-88685000D02*
X86570000Y-88985000D01*
X81070000Y-88890000D02*
X79320000Y-88890000D01*
X81070000Y-88685000D02*
X86570000Y-88685000D01*
D12*
%TO.C,R_ANT1*%
X96969436Y-92002400D02*
X97423564Y-92002400D01*
X96969436Y-90532400D02*
X97423564Y-90532400D01*
%TO.C,R_5*%
X103904536Y-82962900D02*
X104358664Y-82962900D01*
X103904536Y-84432900D02*
X104358664Y-84432900D01*
%TO.C,R_4*%
X103912936Y-88165000D02*
X104367064Y-88165000D01*
X103912936Y-89635000D02*
X104367064Y-89635000D01*
%TO.C,R_3*%
X103912936Y-93245000D02*
X104367064Y-93245000D01*
X103912936Y-94715000D02*
X104367064Y-94715000D01*
%TO.C,R_2*%
X104367064Y-99795000D02*
X103912936Y-99795000D01*
X104367064Y-98325000D02*
X103912936Y-98325000D01*
%TO.C,R_1*%
X91815136Y-90253900D02*
X92269264Y-90253900D01*
X91815136Y-91723900D02*
X92269264Y-91723900D01*
%TO.C,L_ANT1*%
X95866500Y-96347400D02*
X95866500Y-95017400D01*
X95866500Y-100217400D02*
X98526500Y-100217400D01*
X95866500Y-97617400D02*
X95866500Y-100217400D01*
X95866500Y-97617400D02*
X98526500Y-97617400D01*
X95866500Y-95017400D02*
X97196500Y-95017400D01*
X98526500Y-97617400D02*
X98526500Y-100217400D01*
%TO.C,J_POWER1*%
X75422500Y-82460000D02*
X75422500Y-82910000D01*
X75972500Y-84660000D02*
X75522500Y-84660000D01*
X73572500Y-82460000D02*
X75422500Y-82460000D01*
X71022500Y-90260000D02*
X71272500Y-90260000D01*
X75972500Y-84660000D02*
X75972500Y-85110000D01*
X73572500Y-90260000D02*
X75422500Y-90260000D01*
X75422500Y-90260000D02*
X75422500Y-89810000D01*
X71022500Y-82460000D02*
X71272500Y-82460000D01*
%TO.C,J_DEBUG1*%
X74930000Y-100390000D02*
X74930000Y-97730000D01*
X92770000Y-100390000D02*
X92770000Y-97730000D01*
X74930000Y-100390000D02*
X92770000Y-100390000D01*
X73660000Y-100390000D02*
X72330000Y-100390000D01*
X74930000Y-97730000D02*
X92770000Y-97730000D01*
X72330000Y-100390000D02*
X72330000Y-99060000D01*
D13*
%TO.C,IC1*%
X85420000Y-86225000D02*
X82220000Y-86225000D01*
X80320000Y-76160000D02*
X81870000Y-76160000D01*
X82220000Y-76335000D02*
X85420000Y-76335000D01*
X85420000Y-76335000D02*
X85420000Y-86225000D01*
X82220000Y-86225000D02*
X82220000Y-76335000D01*
D12*
%TO.C,D4*%
X123350000Y-83610000D02*
X130650000Y-83610000D01*
X123350000Y-89110000D02*
X130650000Y-89110000D01*
X130650000Y-89110000D02*
X130650000Y-87960000D01*
%TO.C,D3*%
X133510000Y-73450000D02*
X140810000Y-73450000D01*
X133510000Y-78950000D02*
X140810000Y-78950000D01*
X140810000Y-78950000D02*
X140810000Y-77800000D01*
%TO.C,D2*%
X143670000Y-83610000D02*
X150970000Y-83610000D01*
X143670000Y-89110000D02*
X150970000Y-89110000D01*
X150970000Y-89110000D02*
X150970000Y-87960000D01*
%TO.C,D1*%
X140810000Y-99270000D02*
X133510000Y-99270000D01*
X140810000Y-93770000D02*
X133510000Y-93770000D01*
X133510000Y-93770000D02*
X133510000Y-94920000D01*
%TO.C,C_RES1*%
X96528148Y-77567200D02*
X97050652Y-77567200D01*
X96528148Y-76097200D02*
X97050652Y-76097200D01*
%TO.C,C_FCAP1*%
X91718148Y-77567200D02*
X92240652Y-77567200D01*
X91718148Y-76097200D02*
X92240652Y-76097200D01*
%TO.C,C_DV2*%
X91788748Y-82615000D02*
X92311252Y-82615000D01*
X91788748Y-84085000D02*
X92311252Y-84085000D01*
%TO.C,C_DV1*%
X91718148Y-80577200D02*
X92240652Y-80577200D01*
X91718148Y-79107200D02*
X92240652Y-79107200D01*
%TO.C,C_DEC1*%
X91788748Y-85625000D02*
X92311252Y-85625000D01*
X91788748Y-87095000D02*
X92311252Y-87095000D01*
%TO.C,C_DC2*%
X96526748Y-79103900D02*
X97049252Y-79103900D01*
X96526748Y-80573900D02*
X97049252Y-80573900D01*
%TO.C,C_Big1*%
X77280000Y-78740000D02*
G75*
G03*
X77280000Y-78740000I-2620000J0D01*
G01*
%TO.C,C_AGND1*%
X96598748Y-85625000D02*
X97121252Y-85625000D01*
X96598748Y-87095000D02*
X97121252Y-87095000D01*
%TO.C,C4*%
X126738748Y-93245000D02*
X127261252Y-93245000D01*
X126738748Y-94715000D02*
X127261252Y-94715000D01*
%TO.C,C3*%
X136898748Y-80545000D02*
X137421252Y-80545000D01*
X136898748Y-82015000D02*
X137421252Y-82015000D01*
%TO.C,C2*%
X147058748Y-93245000D02*
X147581252Y-93245000D01*
X147058748Y-94715000D02*
X147581252Y-94715000D01*
%TO.C,C1*%
X137421252Y-92175000D02*
X136898748Y-92175000D01*
X137421252Y-90705000D02*
X136898748Y-90705000D01*
%TD*%
M02*
