%TF.GenerationSoftware,KiCad,Pcbnew,(6.0.7)*%
%TF.CreationDate,2022-10-01T10:06:27-06:00*%
%TF.ProjectId,attiny_rfid_light,61747469-6e79-45f7-9266-69645f6c6967,rev?*%
%TF.SameCoordinates,Original*%
%TF.FileFunction,Drillmap*%
%TF.FilePolarity,Positive*%
%FSLAX45Y45*%
G04 Gerber Fmt 4.5, Leading zero omitted, Abs format (unit mm)*
G04 Created by KiCad (PCBNEW (6.0.7)) date 2022-10-01 10:06:27*
%MOMM*%
%LPD*%
G01*
G04 APERTURE LIST*
%ADD10C,0.200000*%
G04 APERTURE END LIST*
D10*
X6604000Y-5588000D02*
X14200000Y-5588000D01*
X14200000Y-5588000D02*
X14200000Y-15494000D01*
X14200000Y-15494000D02*
X6604000Y-15494000D01*
X6604000Y-15494000D02*
X6604000Y-5588000D01*
X6851619Y-15814476D02*
X6851619Y-15614476D01*
X6899238Y-15614476D01*
X6927809Y-15624000D01*
X6946857Y-15643048D01*
X6956381Y-15662095D01*
X6965905Y-15700190D01*
X6965905Y-15728762D01*
X6956381Y-15766857D01*
X6946857Y-15785905D01*
X6927809Y-15804952D01*
X6899238Y-15814476D01*
X6851619Y-15814476D01*
X7051619Y-15814476D02*
X7051619Y-15681143D01*
X7051619Y-15719238D02*
X7061143Y-15700190D01*
X7070667Y-15690667D01*
X7089714Y-15681143D01*
X7108762Y-15681143D01*
X7175428Y-15814476D02*
X7175428Y-15681143D01*
X7175428Y-15614476D02*
X7165905Y-15624000D01*
X7175428Y-15633524D01*
X7184952Y-15624000D01*
X7175428Y-15614476D01*
X7175428Y-15633524D01*
X7299238Y-15814476D02*
X7280190Y-15804952D01*
X7270667Y-15785905D01*
X7270667Y-15614476D01*
X7404000Y-15814476D02*
X7384952Y-15804952D01*
X7375428Y-15785905D01*
X7375428Y-15614476D01*
X7632571Y-15814476D02*
X7632571Y-15614476D01*
X7699238Y-15757333D01*
X7765905Y-15614476D01*
X7765905Y-15814476D01*
X7946857Y-15814476D02*
X7946857Y-15709714D01*
X7937333Y-15690667D01*
X7918286Y-15681143D01*
X7880190Y-15681143D01*
X7861143Y-15690667D01*
X7946857Y-15804952D02*
X7927809Y-15814476D01*
X7880190Y-15814476D01*
X7861143Y-15804952D01*
X7851619Y-15785905D01*
X7851619Y-15766857D01*
X7861143Y-15747809D01*
X7880190Y-15738286D01*
X7927809Y-15738286D01*
X7946857Y-15728762D01*
X8042095Y-15681143D02*
X8042095Y-15881143D01*
X8042095Y-15690667D02*
X8061143Y-15681143D01*
X8099238Y-15681143D01*
X8118286Y-15690667D01*
X8127809Y-15700190D01*
X8137333Y-15719238D01*
X8137333Y-15776381D01*
X8127809Y-15795428D01*
X8118286Y-15804952D01*
X8099238Y-15814476D01*
X8061143Y-15814476D01*
X8042095Y-15804952D01*
X8223048Y-15795428D02*
X8232571Y-15804952D01*
X8223048Y-15814476D01*
X8213524Y-15804952D01*
X8223048Y-15795428D01*
X8223048Y-15814476D01*
X8223048Y-15690667D02*
X8232571Y-15700190D01*
X8223048Y-15709714D01*
X8213524Y-15700190D01*
X8223048Y-15690667D01*
X8223048Y-15709714D01*
M02*
