%TF.GenerationSoftware,KiCad,Pcbnew,(6.0.7)*%
%TF.CreationDate,2022-10-01T10:05:14-06:00*%
%TF.ProjectId,attiny_rfid_light,61747469-6e79-45f7-9266-69645f6c6967,rev?*%
%TF.SameCoordinates,Original*%
%TF.FileFunction,Copper,L1,Top*%
%TF.FilePolarity,Positive*%
%FSLAX46Y46*%
G04 Gerber Fmt 4.6, Leading zero omitted, Abs format (unit mm)*
G04 Created by KiCad (PCBNEW (6.0.7)) date 2022-10-01 10:05:14*
%MOMM*%
%LPD*%
G01*
G04 APERTURE LIST*
G04 Aperture macros list*
%AMRoundRect*
0 Rectangle with rounded corners*
0 $1 Rounding radius*
0 $2 $3 $4 $5 $6 $7 $8 $9 X,Y pos of 4 corners*
0 Add a 4 corners polygon primitive as box body*
4,1,4,$2,$3,$4,$5,$6,$7,$8,$9,$2,$3,0*
0 Add four circle primitives for the rounded corners*
1,1,$1+$1,$2,$3*
1,1,$1+$1,$4,$5*
1,1,$1+$1,$6,$7*
1,1,$1+$1,$8,$9*
0 Add four rect primitives between the rounded corners*
20,1,$1+$1,$2,$3,$4,$5,0*
20,1,$1+$1,$4,$5,$6,$7,0*
20,1,$1+$1,$6,$7,$8,$9,0*
20,1,$1+$1,$8,$9,$2,$3,0*%
G04 Aperture macros list end*
%TA.AperFunction,EtchedComponent*%
%ADD10C,0.300000*%
%TD*%
%TA.AperFunction,SMDPad,CuDef*%
%ADD11R,1.500000X2.000000*%
%TD*%
%TA.AperFunction,SMDPad,CuDef*%
%ADD12R,3.800000X2.000000*%
%TD*%
%TA.AperFunction,SMDPad,CuDef*%
%ADD13R,2.000000X0.900000*%
%TD*%
%TA.AperFunction,SMDPad,CuDef*%
%ADD14R,0.900000X2.000000*%
%TD*%
%TA.AperFunction,SMDPad,CuDef*%
%ADD15R,5.000000X5.000000*%
%TD*%
%TA.AperFunction,SMDPad,CuDef*%
%ADD16RoundRect,0.250000X0.450000X-0.350000X0.450000X0.350000X-0.450000X0.350000X-0.450000X-0.350000X0*%
%TD*%
%TA.AperFunction,SMDPad,CuDef*%
%ADD17RoundRect,0.250000X-0.350000X-0.450000X0.350000X-0.450000X0.350000X0.450000X-0.350000X0.450000X0*%
%TD*%
%TA.AperFunction,SMDPad,CuDef*%
%ADD18C,1.524000*%
%TD*%
%TA.AperFunction,ComponentPad*%
%ADD19C,1.524000*%
%TD*%
%TA.AperFunction,SMDPad,CuDef*%
%ADD20R,1.350000X0.400000*%
%TD*%
%TA.AperFunction,SMDPad,CuDef*%
%ADD21R,1.900000X1.500000*%
%TD*%
%TA.AperFunction,SMDPad,CuDef*%
%ADD22R,1.900000X1.200000*%
%TD*%
%TA.AperFunction,ComponentPad*%
%ADD23O,1.900000X1.200000*%
%TD*%
%TA.AperFunction,ComponentPad*%
%ADD24C,1.450000*%
%TD*%
%TA.AperFunction,ComponentPad*%
%ADD25R,1.700000X1.700000*%
%TD*%
%TA.AperFunction,ComponentPad*%
%ADD26O,1.700000X1.700000*%
%TD*%
%TA.AperFunction,ComponentPad*%
%ADD27R,1.730000X2.030000*%
%TD*%
%TA.AperFunction,ComponentPad*%
%ADD28O,1.730000X2.030000*%
%TD*%
%TA.AperFunction,SMDPad,CuDef*%
%ADD29R,0.650000X1.550000*%
%TD*%
%TA.AperFunction,SMDPad,CuDef*%
%ADD30RoundRect,0.250000X0.337500X0.475000X-0.337500X0.475000X-0.337500X-0.475000X0.337500X-0.475000X0*%
%TD*%
%TA.AperFunction,SMDPad,CuDef*%
%ADD31RoundRect,0.250000X-0.337500X-0.475000X0.337500X-0.475000X0.337500X0.475000X-0.337500X0.475000X0*%
%TD*%
%TA.AperFunction,ComponentPad*%
%ADD32C,1.600000*%
%TD*%
%TA.AperFunction,ViaPad*%
%ADD33C,0.800000*%
%TD*%
%TA.AperFunction,Conductor*%
%ADD34C,0.250000*%
%TD*%
G04 APERTURE END LIST*
D10*
X81804500Y-71462800D02*
X125805500Y-71462800D01*
X131841500Y-121499800D02*
X75265500Y-121499800D01*
X117254500Y-80013800D02*
X117254500Y-106912800D01*
X135362500Y-61905800D02*
X135362500Y-125020800D01*
X124799500Y-114457800D02*
X82307500Y-114457800D01*
X88343500Y-108421800D02*
X88343500Y-78001800D01*
X127817500Y-117475800D02*
X79289500Y-117475800D01*
X91361500Y-81019800D02*
X116248500Y-81019800D01*
X78283500Y-118481800D02*
X78283500Y-67941800D01*
X80798500Y-115966800D02*
X80798500Y-70456800D01*
X79289500Y-68947800D02*
X128320500Y-68947800D01*
X86331500Y-75989800D02*
X121278500Y-75989800D01*
X71744500Y-61402800D02*
X135865500Y-61402800D01*
X76774500Y-119990800D02*
X76774500Y-66432800D01*
X69732500Y-59390800D02*
X137877500Y-59390800D01*
X76271500Y-65929800D02*
X131338500Y-65929800D01*
X129829500Y-119487800D02*
X77277500Y-119487800D01*
X81301500Y-115463800D02*
X81301500Y-70959800D01*
X109206500Y-98864800D02*
X97900500Y-98864800D01*
X130835500Y-66432800D02*
X130835500Y-120493800D01*
X132344500Y-122002800D02*
X74762500Y-122002800D01*
X74259500Y-122505800D02*
X74259500Y-63917800D01*
X125805500Y-71462800D02*
X125805500Y-115463800D01*
X138380500Y-58887800D02*
X138380500Y-128038800D01*
X126308500Y-115966800D02*
X80798500Y-115966800D01*
X117757500Y-107415800D02*
X89349500Y-107415800D01*
X121781500Y-75486800D02*
X121781500Y-111439800D01*
X125302500Y-71965800D02*
X125302500Y-114960800D01*
X114236500Y-83031800D02*
X114236500Y-103894800D01*
X131841500Y-65426800D02*
X131841500Y-121499800D01*
X132344500Y-64923800D02*
X132344500Y-122002800D01*
X119266500Y-78001800D02*
X119266500Y-108924800D01*
X110715500Y-86552800D02*
X110715500Y-100373800D01*
X68726500Y-128038800D02*
X68726500Y-58384800D01*
X124296500Y-72971800D02*
X124296500Y-113954800D01*
X128320500Y-117978800D02*
X78786500Y-117978800D01*
X113733500Y-83534800D02*
X113733500Y-103391800D01*
X80798500Y-70456800D02*
X126811500Y-70456800D01*
X78283500Y-67941800D02*
X129326500Y-67941800D01*
X73253500Y-62911800D02*
X134356500Y-62911800D01*
X120272500Y-76995800D02*
X120272500Y-109930800D01*
X136871500Y-60396800D02*
X136871500Y-126529800D01*
X123290500Y-112948800D02*
X83816500Y-112948800D01*
X133853500Y-123511800D02*
X73253500Y-123511800D01*
X110212500Y-87055800D02*
X110212500Y-99870800D01*
X129326500Y-118984800D02*
X77780500Y-118984800D01*
X73756500Y-63414800D02*
X133853500Y-63414800D01*
X75768500Y-65426800D02*
X131841500Y-65426800D01*
X110212500Y-99870800D02*
X96894500Y-99870800D01*
X127314500Y-116972800D02*
X79792500Y-116972800D01*
X83313500Y-113451800D02*
X83313500Y-72971800D01*
X109709500Y-87558800D02*
X109709500Y-99367800D01*
X114739500Y-82528800D02*
X114739500Y-104397800D01*
X93876500Y-102888800D02*
X93876500Y-83534800D01*
X96894500Y-86552800D02*
X110715500Y-86552800D01*
X92870500Y-103894800D02*
X92870500Y-82528800D01*
X80295500Y-116469800D02*
X80295500Y-69953800D01*
X70738500Y-126026800D02*
X70738500Y-60396800D01*
X70235500Y-126529800D02*
X70235500Y-59893800D01*
X125302500Y-114960800D02*
X81804500Y-114960800D01*
X90858500Y-80516800D02*
X116751500Y-80516800D01*
X122787500Y-74480800D02*
X122787500Y-112445800D01*
X81301500Y-70959800D02*
X126308500Y-70959800D01*
X131338500Y-65929800D02*
X131338500Y-120996800D01*
X111721500Y-85546800D02*
X111721500Y-101379800D01*
X77277500Y-66935800D02*
X130332500Y-66935800D01*
X77780500Y-118984800D02*
X77780500Y-67438800D01*
X82810500Y-72468800D02*
X124799500Y-72468800D01*
X138883500Y-58384800D02*
X138883500Y-128541800D01*
X90858500Y-105906800D02*
X90858500Y-80516800D01*
X137877500Y-127535800D02*
X69229500Y-127535800D01*
X96391500Y-100373800D02*
X96391500Y-86049800D01*
X93373500Y-103391800D02*
X93373500Y-83031800D01*
X121278500Y-110936800D02*
X85828500Y-110936800D01*
X113230500Y-84037800D02*
X113230500Y-102888800D01*
X123290500Y-73977800D02*
X123290500Y-112948800D01*
X77277500Y-119487800D02*
X77277500Y-66935800D01*
X93876500Y-83534800D02*
X113733500Y-83534800D01*
X112727500Y-84540800D02*
X112727500Y-102385800D01*
X72247500Y-61905800D02*
X135362500Y-61905800D01*
X114739500Y-104397800D02*
X92367500Y-104397800D01*
X112224500Y-101882800D02*
X94882500Y-101882800D01*
X129829500Y-67438800D02*
X129829500Y-119487800D01*
X91864500Y-81522800D02*
X115745500Y-81522800D01*
X98403500Y-88061800D02*
X109206500Y-88061800D01*
X75265500Y-64923800D02*
X132344500Y-64923800D01*
X111721500Y-101379800D02*
X95385500Y-101379800D01*
X137374500Y-59893800D02*
X137374500Y-127032800D01*
X70235500Y-59893800D02*
X137374500Y-59893800D01*
X85828500Y-75486800D02*
X121781500Y-75486800D01*
X106093500Y-95751800D02*
X108703500Y-98361800D01*
X94379500Y-84037800D02*
X113230500Y-84037800D01*
X128320500Y-68947800D02*
X128320500Y-117978800D01*
X82307500Y-114457800D02*
X82307500Y-71965800D01*
X97397500Y-99367800D02*
X97397500Y-87055800D01*
X74762500Y-122002800D02*
X74762500Y-64420800D01*
X95385500Y-85043800D02*
X112224500Y-85043800D01*
X122284500Y-74983800D02*
X122284500Y-111942800D01*
X88343500Y-78001800D02*
X119266500Y-78001800D01*
X71241500Y-125523800D02*
X71241500Y-60899800D01*
X85325500Y-111439800D02*
X85325500Y-74983800D01*
X92870500Y-82528800D02*
X114739500Y-82528800D01*
X78786500Y-117978800D02*
X78786500Y-68444800D01*
X95385500Y-101379800D02*
X95385500Y-85043800D01*
X85828500Y-110936800D02*
X85828500Y-75486800D01*
X138883500Y-130445018D02*
X138883500Y-128541800D01*
X121781500Y-111439800D02*
X85325500Y-111439800D01*
X109709500Y-99367800D02*
X97397500Y-99367800D01*
X127817500Y-69450800D02*
X127817500Y-117475800D01*
X111218500Y-100876800D02*
X95888500Y-100876800D01*
X120272500Y-109930800D02*
X86834500Y-109930800D01*
X94379500Y-102385800D02*
X94379500Y-84037800D01*
X69732500Y-127032800D02*
X69732500Y-59390800D01*
X127314500Y-69953800D02*
X127314500Y-116972800D01*
X124296500Y-113954800D02*
X82810500Y-113954800D01*
X95888500Y-100876800D02*
X95888500Y-85546800D01*
X91864500Y-104900800D02*
X91864500Y-81522800D01*
X69229500Y-58887800D02*
X138380500Y-58887800D01*
X79792500Y-116972800D02*
X79792500Y-69450800D01*
X72750500Y-124014800D02*
X72750500Y-62408800D01*
X113230500Y-102888800D02*
X93876500Y-102888800D01*
X136871500Y-126529800D02*
X70235500Y-126529800D01*
X87840500Y-77498800D02*
X119769500Y-77498800D01*
X87337500Y-109427800D02*
X87337500Y-76995800D01*
X94882500Y-101882800D02*
X94882500Y-84540800D01*
X132847500Y-122505800D02*
X74259500Y-122505800D01*
X117254500Y-106912800D02*
X89852500Y-106912800D01*
X89349500Y-107415800D02*
X89349500Y-79007800D01*
X92367500Y-82025800D02*
X115242500Y-82025800D01*
X86331500Y-110433800D02*
X86331500Y-75989800D01*
X130332500Y-66935800D02*
X130332500Y-119990800D01*
X115242500Y-82025800D02*
X115242500Y-104900800D01*
X70738500Y-60396800D02*
X136871500Y-60396800D01*
X116751500Y-80516800D02*
X116751500Y-106409800D01*
X120775500Y-110433800D02*
X86331500Y-110433800D01*
X114236500Y-103894800D02*
X92870500Y-103894800D01*
X123793500Y-73474800D02*
X123793500Y-113451800D01*
X119769500Y-77498800D02*
X119769500Y-109427800D01*
X134356500Y-62911800D02*
X134356500Y-124014800D01*
X86834500Y-76492800D02*
X120775500Y-76492800D01*
X72750500Y-62408800D02*
X134859500Y-62408800D01*
X74259500Y-63917800D02*
X133350500Y-63917800D01*
X111218500Y-86049800D02*
X111218500Y-100876800D01*
X121278500Y-75989800D02*
X121278500Y-110936800D01*
X113733500Y-103391800D02*
X93373500Y-103391800D01*
X115745500Y-81522800D02*
X115745500Y-105403800D01*
X126811500Y-70456800D02*
X126811500Y-116469800D01*
X116751500Y-106409800D02*
X90355500Y-106409800D01*
X94882500Y-84540800D02*
X112727500Y-84540800D01*
X122284500Y-111942800D02*
X84822500Y-111942800D01*
X88846500Y-107918800D02*
X88846500Y-78504800D01*
X69229500Y-127535800D02*
X69229500Y-58887800D01*
X109206500Y-88061800D02*
X109206500Y-98864800D01*
X134859500Y-124517800D02*
X72247500Y-124517800D01*
X83816500Y-73474800D02*
X123793500Y-73474800D01*
X135362500Y-125020800D02*
X71744500Y-125020800D01*
X134356500Y-124014800D02*
X72750500Y-124014800D01*
X115745500Y-105403800D02*
X91361500Y-105403800D01*
X83313500Y-72971800D02*
X124296500Y-72971800D01*
X117757500Y-79510800D02*
X117757500Y-107415800D01*
X138380500Y-128038800D02*
X68726500Y-128038800D01*
X89852500Y-79510800D02*
X117757500Y-79510800D01*
X116248500Y-81019800D02*
X116248500Y-105906800D01*
X126308500Y-70959800D02*
X126308500Y-115966800D01*
X75265500Y-121499800D02*
X75265500Y-64923800D01*
X85325500Y-74983800D02*
X122284500Y-74983800D01*
X79792500Y-69450800D02*
X127817500Y-69450800D01*
X90355500Y-80013800D02*
X117254500Y-80013800D01*
X82810500Y-113954800D02*
X82810500Y-72468800D01*
X73253500Y-123511800D02*
X73253500Y-62911800D01*
X97900500Y-98864800D02*
X97900500Y-87558800D01*
X133350500Y-63917800D02*
X133350500Y-123008800D01*
X133350500Y-123008800D02*
X73756500Y-123008800D01*
X137374500Y-127032800D02*
X69732500Y-127032800D01*
X72247500Y-124517800D02*
X72247500Y-61905800D01*
X71241500Y-60899800D02*
X136368500Y-60899800D01*
X125805500Y-115463800D02*
X81301500Y-115463800D01*
X119769500Y-109427800D02*
X87337500Y-109427800D01*
X112727500Y-102385800D02*
X94379500Y-102385800D01*
X83816500Y-112948800D02*
X83816500Y-73474800D01*
X93373500Y-83031800D02*
X114236500Y-83031800D01*
X84319500Y-73977800D02*
X123290500Y-73977800D01*
X73756500Y-123008800D02*
X73756500Y-63414800D01*
X95888500Y-85546800D02*
X111721500Y-85546800D01*
X76774500Y-66432800D02*
X130835500Y-66432800D01*
X120775500Y-76492800D02*
X120775500Y-110433800D01*
X89852500Y-106912800D02*
X89852500Y-79510800D01*
X77780500Y-67438800D02*
X129829500Y-67438800D01*
X79289500Y-117475800D02*
X79289500Y-68947800D01*
X124799500Y-72468800D02*
X124799500Y-114457800D01*
X84319500Y-112445800D02*
X84319500Y-73977800D01*
X68726500Y-58384800D02*
X138883500Y-58384800D01*
X122787500Y-112445800D02*
X84319500Y-112445800D01*
X98403500Y-98361800D02*
X98403500Y-88061800D01*
X130332500Y-119990800D02*
X76774500Y-119990800D01*
X91361500Y-105403800D02*
X91361500Y-81019800D01*
X96894500Y-99870800D02*
X96894500Y-86552800D01*
X78786500Y-68444800D02*
X128823500Y-68444800D01*
X136368500Y-126026800D02*
X70738500Y-126026800D01*
X76271500Y-120493800D02*
X76271500Y-65929800D01*
X132847500Y-64420800D02*
X132847500Y-122505800D01*
X97397500Y-87055800D02*
X110212500Y-87055800D01*
X131338500Y-120996800D02*
X75768500Y-120996800D01*
X118763500Y-108421800D02*
X88343500Y-108421800D01*
X128823500Y-118481800D02*
X78283500Y-118481800D01*
X90355500Y-106409800D02*
X90355500Y-80013800D01*
X84822500Y-111942800D02*
X84822500Y-74480800D01*
X118763500Y-78504800D02*
X118763500Y-108421800D01*
X82307500Y-71965800D02*
X125302500Y-71965800D01*
X80295500Y-69953800D02*
X127314500Y-69953800D01*
X71744500Y-125020800D02*
X71744500Y-61402800D01*
X135865500Y-61402800D02*
X135865500Y-125523800D01*
X118260500Y-107918800D02*
X88846500Y-107918800D01*
X112224500Y-85043800D02*
X112224500Y-101882800D01*
X118260500Y-79007800D02*
X118260500Y-107918800D01*
X137877500Y-59390800D02*
X137877500Y-127535800D01*
X84822500Y-74480800D02*
X122787500Y-74480800D01*
X136368500Y-60899800D02*
X136368500Y-126026800D01*
X135865500Y-125523800D02*
X71241500Y-125523800D01*
X119266500Y-108924800D02*
X87840500Y-108924800D01*
X129326500Y-67941800D02*
X129326500Y-118984800D01*
X81804500Y-114960800D02*
X81804500Y-71462800D01*
X97900500Y-87558800D02*
X109709500Y-87558800D01*
X108703500Y-98361800D02*
X98403500Y-98361800D01*
X133853500Y-63414800D02*
X133853500Y-123511800D01*
X115242500Y-104900800D02*
X91864500Y-104900800D01*
X128823500Y-68444800D02*
X128823500Y-118481800D01*
X126811500Y-116469800D02*
X80295500Y-116469800D01*
X123793500Y-113451800D02*
X83313500Y-113451800D01*
X75768500Y-120996800D02*
X75768500Y-65426800D01*
X116248500Y-105906800D02*
X90858500Y-105906800D01*
X96391500Y-86049800D02*
X111218500Y-86049800D01*
X134859500Y-62408800D02*
X134859500Y-124517800D01*
X86834500Y-109930800D02*
X86834500Y-76492800D01*
X87337500Y-76995800D02*
X120272500Y-76995800D01*
X92367500Y-104397800D02*
X92367500Y-82025800D01*
X130835500Y-120493800D02*
X76271500Y-120493800D01*
X87840500Y-108924800D02*
X87840500Y-77498800D01*
X74762500Y-64420800D02*
X132847500Y-64420800D01*
X88846500Y-78504800D02*
X118763500Y-78504800D01*
X110715500Y-100373800D02*
X96391500Y-100373800D01*
X89349500Y-79007800D02*
X118260500Y-79007800D01*
D11*
X76440000Y-144170000D03*
X78740000Y-144170000D03*
D12*
X78740000Y-150470000D03*
D11*
X81040000Y-144170000D03*
D13*
X109688200Y-153519800D03*
X109688200Y-152249800D03*
X109688200Y-150979800D03*
X109688200Y-149709800D03*
X109688200Y-148439800D03*
X109688200Y-147169800D03*
X109688200Y-145899800D03*
X109688200Y-144629800D03*
X109688200Y-143359800D03*
X109688200Y-142089800D03*
X109688200Y-140819800D03*
X109688200Y-139549800D03*
X109688200Y-138279800D03*
X109688200Y-137009800D03*
D14*
X106903200Y-136009800D03*
X105633200Y-136009800D03*
X104363200Y-136009800D03*
X103093200Y-136009800D03*
X101823200Y-136009800D03*
X100553200Y-136009800D03*
X99283200Y-136009800D03*
X98013200Y-136009800D03*
X96743200Y-136009800D03*
X95473200Y-136009800D03*
D13*
X92688200Y-137009800D03*
X92688200Y-138279800D03*
X92688200Y-139549800D03*
X92688200Y-140819800D03*
X92688200Y-142089800D03*
X92688200Y-143359800D03*
X92688200Y-144629800D03*
X92688200Y-145899800D03*
X92688200Y-147169800D03*
X92688200Y-148439800D03*
X92688200Y-149709800D03*
X92688200Y-150979800D03*
X92688200Y-152249800D03*
X92688200Y-153519800D03*
D15*
X102188200Y-146019800D03*
D16*
X137160000Y-135620000D03*
X137160000Y-133620000D03*
D17*
X84996600Y-131266900D03*
X86996600Y-131266900D03*
X119696000Y-136403700D03*
X121696000Y-136403700D03*
X85009400Y-134594800D03*
X87009400Y-134594800D03*
X85009400Y-137252500D03*
X87009400Y-137252500D03*
X85007100Y-147633200D03*
X87007100Y-147633200D03*
D18*
X138914696Y-130386600D03*
D19*
X106093500Y-95751800D03*
D20*
X70042500Y-140940000D03*
X70042500Y-141590000D03*
X70042500Y-142240000D03*
X70042500Y-142890000D03*
X70042500Y-143540000D03*
D21*
X67342500Y-141240000D03*
D22*
X67342500Y-145140000D03*
D23*
X67342500Y-145740000D03*
D24*
X70042500Y-139740000D03*
D23*
X67342500Y-138740000D03*
D22*
X67342500Y-139340000D03*
D24*
X70042500Y-144740000D03*
D21*
X67342500Y-143240000D03*
D25*
X115658600Y-152313700D03*
D26*
X118198600Y-152313700D03*
X120738600Y-152313700D03*
X123278600Y-152313700D03*
X125818600Y-152313700D03*
X128358600Y-152313700D03*
X130898600Y-152313700D03*
X133438600Y-152313700D03*
D27*
X76200000Y-132080000D03*
D28*
X78740000Y-132080000D03*
X81280000Y-132080000D03*
D29*
X133183500Y-136397000D03*
X131913500Y-136397000D03*
X130643500Y-136397000D03*
X129373500Y-136397000D03*
X128103500Y-136397000D03*
X126833500Y-136397000D03*
X125563500Y-136397000D03*
X124293500Y-136397000D03*
X124293500Y-141847000D03*
X125563500Y-141847000D03*
X126833500Y-141847000D03*
X128103500Y-141847000D03*
X129373500Y-141847000D03*
X130643500Y-141847000D03*
X131913500Y-141847000D03*
X133183500Y-141847000D03*
D30*
X133394700Y-130425800D03*
X135469700Y-130425800D03*
D31*
X133526100Y-148116300D03*
X131451100Y-148116300D03*
X126812200Y-132965800D03*
X128887200Y-132965800D03*
X126812200Y-130425800D03*
X128887200Y-130425800D03*
X79224100Y-141027600D03*
X81299100Y-141027600D03*
X87127700Y-142533900D03*
X85052700Y-142533900D03*
X85052700Y-139993900D03*
X87127700Y-139993900D03*
X125213200Y-145597900D03*
X123138200Y-145597900D03*
X131531100Y-145478000D03*
X133606100Y-145478000D03*
D32*
X138127000Y-142200000D03*
X136127000Y-142200000D03*
D31*
X129446800Y-145478000D03*
X127371800Y-145478000D03*
X84984300Y-152410400D03*
X87059300Y-152410400D03*
X85027500Y-150055400D03*
X87102500Y-150055400D03*
X84965900Y-145173400D03*
X87040900Y-145173400D03*
D33*
X95596000Y-142587400D03*
X87194200Y-132583000D03*
X107379300Y-138221700D03*
X137805800Y-132173500D03*
X100033700Y-141978000D03*
X100015600Y-140697700D03*
X96929500Y-142758000D03*
X98629300Y-138751600D03*
X90725300Y-142274800D03*
D34*
X94013500Y-141004900D02*
X94013500Y-140819800D01*
X95596000Y-142587400D02*
X94013500Y-141004900D01*
X92688200Y-140819800D02*
X94013500Y-140819800D01*
X85968800Y-130239100D02*
X86996600Y-131266900D01*
X81250400Y-130239100D02*
X85968800Y-130239100D01*
X79930300Y-131559200D02*
X81250400Y-130239100D01*
X79930300Y-132080000D02*
X79930300Y-131559200D01*
X78740000Y-132080000D02*
X79930300Y-132080000D01*
X92688200Y-152249800D02*
X94013500Y-152249800D01*
X100553200Y-136009800D02*
X100553200Y-137335100D01*
X100765700Y-137547600D02*
X100553200Y-137335100D01*
X100765700Y-142271800D02*
X100765700Y-137547600D01*
X100334200Y-142703300D02*
X100765700Y-142271800D01*
X99965300Y-142703300D02*
X100334200Y-142703300D01*
X99345700Y-143322900D02*
X99965300Y-142703300D01*
X99345700Y-146917600D02*
X99345700Y-143322900D01*
X94013500Y-152249800D02*
X99345700Y-146917600D01*
X109688200Y-138279800D02*
X108362900Y-138279800D01*
X86312700Y-132583000D02*
X84996600Y-131266900D01*
X87194200Y-132583000D02*
X86312700Y-132583000D01*
X108304800Y-138221700D02*
X107379300Y-138221700D01*
X108362900Y-138279800D02*
X108304800Y-138221700D01*
X117976800Y-134684500D02*
X95473200Y-134684500D01*
X119696000Y-136403700D02*
X117976800Y-134684500D01*
X95473200Y-136009800D02*
X95473200Y-134684500D01*
X88947900Y-134594800D02*
X91362900Y-137009800D01*
X87009400Y-134594800D02*
X88947900Y-134594800D01*
X92688200Y-137009800D02*
X91362900Y-137009800D01*
X137160000Y-132819300D02*
X137160000Y-133620000D01*
X137805800Y-132173500D02*
X137160000Y-132819300D01*
X67342500Y-145140000D02*
X68617800Y-145140000D01*
X67342500Y-141240000D02*
X67342500Y-140164700D01*
X67342500Y-145740000D02*
X67342500Y-145140000D01*
X67342500Y-139340000D02*
X67342500Y-138740000D01*
X68617800Y-144340000D02*
X69017800Y-144740000D01*
X68617800Y-143240000D02*
X68617800Y-144340000D01*
X70042500Y-144740000D02*
X69017800Y-144740000D01*
X69017800Y-144740000D02*
X68617800Y-145140000D01*
X67342500Y-143240000D02*
X67980200Y-143240000D01*
X67980200Y-143240000D02*
X68617800Y-143240000D01*
X67342500Y-142602300D02*
X67342500Y-141240000D01*
X67980200Y-143240000D02*
X67342500Y-142602300D01*
X67342500Y-139740000D02*
X70042500Y-139740000D01*
X67342500Y-139340000D02*
X67342500Y-139740000D01*
X67342500Y-139740000D02*
X67342500Y-140164700D01*
X95371700Y-148351600D02*
X94013500Y-149709800D01*
X95371700Y-146640000D02*
X95371700Y-148351600D01*
X100033700Y-141978000D02*
X95371700Y-146640000D01*
X92688200Y-149709800D02*
X94013500Y-149709800D01*
X92688200Y-148439800D02*
X94013500Y-148439800D01*
X94013500Y-146699800D02*
X94013500Y-148439800D01*
X100015600Y-140697700D02*
X94013500Y-146699800D01*
X94013500Y-139842000D02*
X94013500Y-139549800D01*
X96929500Y-142758000D02*
X94013500Y-139842000D01*
X92688200Y-139549800D02*
X94013500Y-139549800D01*
X121913900Y-151946300D02*
X121913900Y-152313700D01*
X122721800Y-151138400D02*
X121913900Y-151946300D01*
X123355900Y-151138400D02*
X122721800Y-151138400D01*
X128409300Y-146085000D02*
X123355900Y-151138400D01*
X128409300Y-143911500D02*
X128409300Y-146085000D01*
X129373500Y-142947300D02*
X128409300Y-143911500D01*
X129373500Y-141847000D02*
X129373500Y-142947300D01*
X120738600Y-152313700D02*
X121913900Y-152313700D01*
X130643500Y-136397000D02*
X130643500Y-135296700D01*
X131121100Y-134819100D02*
X130643500Y-135296700D01*
X136359100Y-134819100D02*
X131121100Y-134819100D01*
X137160000Y-135620000D02*
X136359100Y-134819100D01*
X97212800Y-137335100D02*
X96743200Y-137335100D01*
X98629300Y-138751600D02*
X97212800Y-137335100D01*
X96743200Y-136009800D02*
X96743200Y-137335100D01*
X119373900Y-152681100D02*
X119373900Y-152313700D01*
X120181800Y-153489000D02*
X119373900Y-152681100D01*
X123852100Y-153489000D02*
X120181800Y-153489000D01*
X124548600Y-152792500D02*
X123852100Y-153489000D01*
X124548600Y-151896800D02*
X124548600Y-152792500D01*
X126826800Y-149618600D02*
X124548600Y-151896800D01*
X133669100Y-149618600D02*
X126826800Y-149618600D01*
X139298000Y-143989700D02*
X133669100Y-149618600D01*
X139298000Y-140922500D02*
X139298000Y-143989700D01*
X133672200Y-135296700D02*
X139298000Y-140922500D01*
X131913500Y-135296700D02*
X133672200Y-135296700D01*
X131913500Y-136397000D02*
X131913500Y-135296700D01*
X118198600Y-152313700D02*
X119373900Y-152313700D01*
X123789600Y-137497300D02*
X126833500Y-137497300D01*
X123643100Y-137350800D02*
X123789600Y-137497300D01*
X123643100Y-134458700D02*
X123643100Y-137350800D01*
X126406000Y-131695800D02*
X123643100Y-134458700D01*
X127219300Y-131695800D02*
X126406000Y-131695800D01*
X127849800Y-131065300D02*
X127219300Y-131695800D01*
X127849800Y-129826400D02*
X127849800Y-131065300D01*
X128314200Y-129362000D02*
X127849800Y-129826400D01*
X132330900Y-129362000D02*
X128314200Y-129362000D01*
X133394700Y-130425800D02*
X132330900Y-129362000D01*
X126833500Y-136397000D02*
X126833500Y-137497300D01*
X131913500Y-143436800D02*
X131913500Y-141847000D01*
X130609300Y-144741000D02*
X131913500Y-143436800D01*
X130609300Y-147274500D02*
X130609300Y-144741000D01*
X131451100Y-148116300D02*
X130609300Y-147274500D01*
X124481300Y-135296700D02*
X124293500Y-135296700D01*
X126812200Y-132965800D02*
X124481300Y-135296700D01*
X124293500Y-136397000D02*
X124293500Y-135296700D01*
X128887200Y-130890800D02*
X128887200Y-130425800D01*
X126812200Y-132965800D02*
X128887200Y-130890800D01*
X135508900Y-130386600D02*
X135469700Y-130425800D01*
X138914700Y-130386600D02*
X135508900Y-130386600D01*
X133935200Y-128891300D02*
X135469700Y-130425800D01*
X128145000Y-128891300D02*
X133935200Y-128891300D01*
X126812200Y-130224100D02*
X128145000Y-128891300D01*
X126812200Y-130425800D02*
X126812200Y-130224100D01*
X78740000Y-144170000D02*
X79224100Y-144170000D01*
X85973300Y-138216400D02*
X85009400Y-137252500D01*
X85973300Y-140747500D02*
X85973300Y-138216400D01*
X85644200Y-141076600D02*
X85973300Y-140747500D01*
X84395400Y-141076600D02*
X85644200Y-141076600D01*
X83251100Y-139932300D02*
X84395400Y-141076600D01*
X80319400Y-139932300D02*
X83251100Y-139932300D01*
X79224100Y-141027600D02*
X80319400Y-139932300D01*
X79224100Y-141027600D02*
X79224100Y-144170000D01*
X80965300Y-149144700D02*
X80965300Y-150470000D01*
X79224100Y-147403500D02*
X80965300Y-149144700D01*
X79224100Y-144170000D02*
X79224100Y-147403500D01*
X78740000Y-150470000D02*
X80965300Y-150470000D01*
X125563500Y-145247600D02*
X125563500Y-141847000D01*
X125213200Y-145597900D02*
X125563500Y-145247600D01*
X123138200Y-144102600D02*
X124293500Y-142947300D01*
X123138200Y-145597900D02*
X123138200Y-144102600D01*
X124293500Y-141847000D02*
X124293500Y-142947300D01*
X133183500Y-143825600D02*
X133183500Y-141847000D01*
X131531100Y-145478000D02*
X133183500Y-143825600D01*
X131424300Y-137497300D02*
X129373500Y-137497300D01*
X136127000Y-142200000D02*
X131424300Y-137497300D01*
X129373500Y-136397000D02*
X129373500Y-137497300D01*
X81280000Y-136221200D02*
X81640400Y-136581600D01*
X81280000Y-132080000D02*
X81280000Y-136221200D01*
X81640400Y-136581600D02*
X85052700Y-139993900D01*
X75598000Y-140940000D02*
X76440000Y-141782000D01*
X70042500Y-140940000D02*
X75598000Y-140940000D01*
X81640400Y-136581600D02*
X76440000Y-141782000D01*
X76440000Y-141782000D02*
X76440000Y-144170000D01*
X126833500Y-144939700D02*
X126833500Y-141847000D01*
X127371800Y-145478000D02*
X126833500Y-144939700D01*
X87007100Y-149960000D02*
X87007100Y-147633200D01*
X87102500Y-150055400D02*
X87007100Y-149960000D01*
X117483100Y-153957300D02*
X116834000Y-153308200D01*
X130987000Y-153957300D02*
X117483100Y-153957300D01*
X132263300Y-152681000D02*
X130987000Y-153957300D01*
X132263300Y-152313700D02*
X132263300Y-152681000D01*
X115828300Y-154313900D02*
X116834000Y-153308200D01*
X87288900Y-154313900D02*
X115828300Y-154313900D01*
X86139400Y-153164400D02*
X87288900Y-154313900D01*
X86139400Y-151018500D02*
X86139400Y-153164400D01*
X87102500Y-150055400D02*
X86139400Y-151018500D01*
X116539900Y-150979800D02*
X109688200Y-150979800D01*
X116834000Y-151273900D02*
X116539900Y-150979800D01*
X116834000Y-153308200D02*
X116834000Y-151273900D01*
X133438600Y-152313700D02*
X132263300Y-152313700D01*
X88037000Y-151432700D02*
X87059300Y-152410400D01*
X88037000Y-146976800D02*
X88037000Y-151432700D01*
X86850300Y-145790000D02*
X88037000Y-146976800D01*
X86850300Y-145790000D02*
X85007100Y-147633200D01*
X87040900Y-145599400D02*
X87040900Y-145173400D01*
X86850300Y-145790000D02*
X87040900Y-145599400D01*
X88073200Y-142274800D02*
X90725300Y-142274800D01*
X88073200Y-144141100D02*
X88073200Y-142274800D01*
X87040900Y-145173400D02*
X88073200Y-144141100D01*
X86497600Y-136083000D02*
X85009400Y-134594800D01*
X87454800Y-136083000D02*
X86497600Y-136083000D01*
X88073200Y-136701400D02*
X87454800Y-136083000D01*
X88073200Y-142274800D02*
X88073200Y-136701400D01*
X111077400Y-152313700D02*
X111013500Y-152249800D01*
X115658600Y-152313700D02*
X111077400Y-152313700D01*
X109688200Y-152249800D02*
X111013500Y-152249800D01*
X133183500Y-136397000D02*
X133183500Y-137497300D01*
X137824900Y-142138700D02*
X133183500Y-137497300D01*
X138065700Y-142138700D02*
X138127000Y-142200000D01*
X137824900Y-142138700D02*
X138065700Y-142138700D01*
X81040000Y-144170000D02*
X82115300Y-144170000D01*
X84014600Y-146069300D02*
X82115300Y-144170000D01*
X84070000Y-146069300D02*
X84014600Y-146069300D01*
X84070000Y-146069300D02*
X84965900Y-145173400D01*
X81299100Y-142585600D02*
X81040000Y-142844700D01*
X81299100Y-141027600D02*
X81299100Y-142585600D01*
X81040000Y-144170000D02*
X81040000Y-142844700D01*
X85052700Y-142533900D02*
X87127700Y-142533900D01*
X85052700Y-145086600D02*
X84965900Y-145173400D01*
X85052700Y-142533900D02*
X85052700Y-145086600D01*
X102188200Y-146019800D02*
X102188200Y-148845100D01*
X87127700Y-142533900D02*
X87127700Y-139993900D01*
X102188200Y-146019800D02*
X102188200Y-143194500D01*
X102188200Y-142050100D02*
X102188200Y-143194500D01*
X106903200Y-137335100D02*
X102188200Y-142050100D01*
X70042500Y-143540000D02*
X70930200Y-143540000D01*
X87127700Y-137370800D02*
X87009400Y-137252500D01*
X87127700Y-139993900D02*
X87127700Y-137370800D01*
X76200000Y-132080000D02*
X77390300Y-132080000D01*
X133526100Y-145558000D02*
X133526100Y-148116300D01*
X133606100Y-145478000D02*
X133526100Y-145558000D01*
X128103500Y-133749500D02*
X128887200Y-132965800D01*
X128103500Y-136397000D02*
X128103500Y-133749500D01*
X129446800Y-147744200D02*
X129446800Y-145478000D01*
X130870800Y-149168200D02*
X129446800Y-147744200D01*
X132474200Y-149168200D02*
X130870800Y-149168200D01*
X133526100Y-148116300D02*
X132474200Y-149168200D01*
X128103500Y-136397000D02*
X128103500Y-137497300D01*
X127594500Y-138006300D02*
X128103500Y-137497300D01*
X128103500Y-141847000D02*
X128103500Y-140746700D01*
X128103500Y-138515300D02*
X127594500Y-138006300D01*
X128103500Y-140746700D02*
X128103500Y-138515300D01*
X136633800Y-143329800D02*
X134555000Y-143329800D01*
X137824900Y-142138700D02*
X136633800Y-143329800D01*
X133606100Y-144278700D02*
X133606100Y-145478000D01*
X134555000Y-143329800D02*
X133606100Y-144278700D01*
X133643300Y-140746700D02*
X128103500Y-140746700D01*
X134555000Y-141658400D02*
X133643300Y-140746700D01*
X134555000Y-143329800D02*
X134555000Y-141658400D01*
X84070000Y-149097900D02*
X84070000Y-146069300D01*
X85027500Y-150055400D02*
X84070000Y-149097900D01*
X71512300Y-144122100D02*
X70930200Y-143540000D01*
X71512300Y-146639500D02*
X71512300Y-144122100D01*
X76674300Y-151801500D02*
X71512300Y-146639500D01*
X84061700Y-151801500D02*
X76674300Y-151801500D01*
X84061700Y-151021200D02*
X85027500Y-150055400D01*
X84061700Y-151801500D02*
X84061700Y-151021200D01*
X84670600Y-152410400D02*
X84061700Y-151801500D01*
X84984300Y-152410400D02*
X84670600Y-152410400D01*
X118141700Y-132849400D02*
X121696000Y-136403700D01*
X87956700Y-132849400D02*
X118141700Y-132849400D01*
X87956700Y-130595300D02*
X87956700Y-132849400D01*
X87148700Y-129787300D02*
X87956700Y-130595300D01*
X79162200Y-129787300D02*
X87148700Y-129787300D01*
X77390300Y-131559200D02*
X79162200Y-129787300D01*
X77390300Y-132080000D02*
X77390300Y-131559200D01*
X85521200Y-135764300D02*
X87009400Y-137252500D01*
X84564000Y-135764300D02*
X85521200Y-135764300D01*
X84038600Y-135238900D02*
X84564000Y-135764300D01*
X84038600Y-133881600D02*
X84038600Y-135238900D01*
X84585200Y-133335000D02*
X84038600Y-133881600D01*
X87471100Y-133335000D02*
X84585200Y-133335000D01*
X87956700Y-132849400D02*
X87471100Y-133335000D01*
X106903200Y-136234700D02*
X106903200Y-137335100D01*
X106903200Y-136234700D02*
X106903200Y-136234400D01*
X106903200Y-136009800D02*
X106903200Y-136234400D01*
X116593300Y-137432000D02*
X121696000Y-137432000D01*
X115395700Y-136234400D02*
X116593300Y-137432000D01*
X106903200Y-136234400D02*
X115395700Y-136234400D01*
X121696000Y-136403700D02*
X121696000Y-137432000D01*
X122270300Y-138006300D02*
X127594500Y-138006300D01*
X121696000Y-137432000D02*
X122270300Y-138006300D01*
X97513500Y-153519800D02*
X102188200Y-148845100D01*
X92688200Y-153519800D02*
X97513500Y-153519800D01*
X106862900Y-153519800D02*
X109688200Y-153519800D01*
X102188200Y-148845100D02*
X106862900Y-153519800D01*
M02*
