%TF.GenerationSoftware,KiCad,Pcbnew,(6.0.7)*%
%TF.CreationDate,2022-10-01T10:05:14-06:00*%
%TF.ProjectId,attiny_rfid_light,61747469-6e79-45f7-9266-69645f6c6967,rev?*%
%TF.SameCoordinates,Original*%
%TF.FileFunction,Paste,Top*%
%TF.FilePolarity,Positive*%
%FSLAX46Y46*%
G04 Gerber Fmt 4.6, Leading zero omitted, Abs format (unit mm)*
G04 Created by KiCad (PCBNEW (6.0.7)) date 2022-10-01 10:05:14*
%MOMM*%
%LPD*%
G01*
G04 APERTURE LIST*
G04 Aperture macros list*
%AMRoundRect*
0 Rectangle with rounded corners*
0 $1 Rounding radius*
0 $2 $3 $4 $5 $6 $7 $8 $9 X,Y pos of 4 corners*
0 Add a 4 corners polygon primitive as box body*
4,1,4,$2,$3,$4,$5,$6,$7,$8,$9,$2,$3,0*
0 Add four circle primitives for the rounded corners*
1,1,$1+$1,$2,$3*
1,1,$1+$1,$4,$5*
1,1,$1+$1,$6,$7*
1,1,$1+$1,$8,$9*
0 Add four rect primitives between the rounded corners*
20,1,$1+$1,$2,$3,$4,$5,0*
20,1,$1+$1,$4,$5,$6,$7,0*
20,1,$1+$1,$6,$7,$8,$9,0*
20,1,$1+$1,$8,$9,$2,$3,0*%
G04 Aperture macros list end*
%ADD10R,1.500000X2.000000*%
%ADD11R,3.800000X2.000000*%
%ADD12R,2.000000X0.900000*%
%ADD13R,0.900000X2.000000*%
%ADD14R,5.000000X5.000000*%
%ADD15RoundRect,0.250000X0.450000X-0.350000X0.450000X0.350000X-0.450000X0.350000X-0.450000X-0.350000X0*%
%ADD16RoundRect,0.250000X-0.350000X-0.450000X0.350000X-0.450000X0.350000X0.450000X-0.350000X0.450000X0*%
%ADD17C,1.524000*%
%ADD18R,1.350000X0.400000*%
%ADD19R,1.900000X1.500000*%
%ADD20R,0.650000X1.550000*%
%ADD21RoundRect,0.250000X0.337500X0.475000X-0.337500X0.475000X-0.337500X-0.475000X0.337500X-0.475000X0*%
%ADD22RoundRect,0.250000X-0.337500X-0.475000X0.337500X-0.475000X0.337500X0.475000X-0.337500X0.475000X0*%
G04 APERTURE END LIST*
D10*
X76440000Y-144170000D03*
X78740000Y-144170000D03*
D11*
X78740000Y-150470000D03*
D10*
X81040000Y-144170000D03*
D12*
X109688200Y-153519800D03*
X109688200Y-152249800D03*
X109688200Y-150979800D03*
X109688200Y-149709800D03*
X109688200Y-148439800D03*
X109688200Y-147169800D03*
X109688200Y-145899800D03*
X109688200Y-144629800D03*
X109688200Y-143359800D03*
X109688200Y-142089800D03*
X109688200Y-140819800D03*
X109688200Y-139549800D03*
X109688200Y-138279800D03*
X109688200Y-137009800D03*
D13*
X106903200Y-136009800D03*
X105633200Y-136009800D03*
X104363200Y-136009800D03*
X103093200Y-136009800D03*
X101823200Y-136009800D03*
X100553200Y-136009800D03*
X99283200Y-136009800D03*
X98013200Y-136009800D03*
X96743200Y-136009800D03*
X95473200Y-136009800D03*
D12*
X92688200Y-137009800D03*
X92688200Y-138279800D03*
X92688200Y-139549800D03*
X92688200Y-140819800D03*
X92688200Y-142089800D03*
X92688200Y-143359800D03*
X92688200Y-144629800D03*
X92688200Y-145899800D03*
X92688200Y-147169800D03*
X92688200Y-148439800D03*
X92688200Y-149709800D03*
X92688200Y-150979800D03*
X92688200Y-152249800D03*
X92688200Y-153519800D03*
D14*
X102188200Y-146019800D03*
D15*
X137160000Y-135620000D03*
X137160000Y-133620000D03*
D16*
X84996600Y-131266900D03*
X86996600Y-131266900D03*
X119696000Y-136403700D03*
X121696000Y-136403700D03*
X85009400Y-134594800D03*
X87009400Y-134594800D03*
X85009400Y-137252500D03*
X87009400Y-137252500D03*
X85007100Y-147633200D03*
X87007100Y-147633200D03*
D17*
X138914696Y-130386600D03*
D18*
X70042500Y-140940000D03*
X70042500Y-141590000D03*
X70042500Y-142240000D03*
X70042500Y-142890000D03*
X70042500Y-143540000D03*
D19*
X67342500Y-141240000D03*
X67342500Y-143240000D03*
D20*
X133183500Y-136397000D03*
X131913500Y-136397000D03*
X130643500Y-136397000D03*
X129373500Y-136397000D03*
X128103500Y-136397000D03*
X126833500Y-136397000D03*
X125563500Y-136397000D03*
X124293500Y-136397000D03*
X124293500Y-141847000D03*
X125563500Y-141847000D03*
X126833500Y-141847000D03*
X128103500Y-141847000D03*
X129373500Y-141847000D03*
X130643500Y-141847000D03*
X131913500Y-141847000D03*
X133183500Y-141847000D03*
D21*
X133394700Y-130425800D03*
X135469700Y-130425800D03*
D22*
X133526100Y-148116300D03*
X131451100Y-148116300D03*
X126812200Y-132965800D03*
X128887200Y-132965800D03*
X126812200Y-130425800D03*
X128887200Y-130425800D03*
X79224100Y-141027600D03*
X81299100Y-141027600D03*
X87127700Y-142533900D03*
X85052700Y-142533900D03*
X85052700Y-139993900D03*
X87127700Y-139993900D03*
X125213200Y-145597900D03*
X123138200Y-145597900D03*
X131531100Y-145478000D03*
X133606100Y-145478000D03*
X129446800Y-145478000D03*
X127371800Y-145478000D03*
X84984300Y-152410400D03*
X87059300Y-152410400D03*
X85027500Y-150055400D03*
X87102500Y-150055400D03*
X84965900Y-145173400D03*
X87040900Y-145173400D03*
M02*
