%TF.GenerationSoftware,KiCad,Pcbnew,(6.0.7)*%
%TF.CreationDate,2022-10-01T10:05:14-06:00*%
%TF.ProjectId,attiny_rfid_light,61747469-6e79-45f7-9266-69645f6c6967,rev?*%
%TF.SameCoordinates,Original*%
%TF.FileFunction,Legend,Top*%
%TF.FilePolarity,Positive*%
%FSLAX46Y46*%
G04 Gerber Fmt 4.6, Leading zero omitted, Abs format (unit mm)*
G04 Created by KiCad (PCBNEW (6.0.7)) date 2022-10-01 10:05:14*
%MOMM*%
%LPD*%
G01*
G04 APERTURE LIST*
G04 Aperture macros list*
%AMRoundRect*
0 Rectangle with rounded corners*
0 $1 Rounding radius*
0 $2 $3 $4 $5 $6 $7 $8 $9 X,Y pos of 4 corners*
0 Add a 4 corners polygon primitive as box body*
4,1,4,$2,$3,$4,$5,$6,$7,$8,$9,$2,$3,0*
0 Add four circle primitives for the rounded corners*
1,1,$1+$1,$2,$3*
1,1,$1+$1,$4,$5*
1,1,$1+$1,$6,$7*
1,1,$1+$1,$8,$9*
0 Add four rect primitives between the rounded corners*
20,1,$1+$1,$2,$3,$4,$5,0*
20,1,$1+$1,$4,$5,$6,$7,0*
20,1,$1+$1,$6,$7,$8,$9,0*
20,1,$1+$1,$8,$9,$2,$3,0*%
G04 Aperture macros list end*
%ADD10C,0.150000*%
%ADD11C,1.000000*%
%ADD12C,0.254000*%
%ADD13C,0.120000*%
%ADD14C,0.200000*%
%ADD15R,1.500000X2.000000*%
%ADD16R,3.800000X2.000000*%
%ADD17R,2.000000X0.900000*%
%ADD18R,0.900000X2.000000*%
%ADD19R,5.000000X5.000000*%
%ADD20RoundRect,0.250000X0.450000X-0.350000X0.450000X0.350000X-0.450000X0.350000X-0.450000X-0.350000X0*%
%ADD21RoundRect,0.250000X-0.350000X-0.450000X0.350000X-0.450000X0.350000X0.450000X-0.350000X0.450000X0*%
%ADD22C,1.524000*%
%ADD23R,1.350000X0.400000*%
%ADD24R,1.900000X1.500000*%
%ADD25R,1.900000X1.200000*%
%ADD26O,1.900000X1.200000*%
%ADD27C,1.450000*%
%ADD28R,1.700000X1.700000*%
%ADD29O,1.700000X1.700000*%
%ADD30R,1.730000X2.030000*%
%ADD31O,1.730000X2.030000*%
%ADD32R,0.650000X1.550000*%
%ADD33RoundRect,0.250000X0.337500X0.475000X-0.337500X0.475000X-0.337500X-0.475000X0.337500X-0.475000X0*%
%ADD34RoundRect,0.250000X-0.337500X-0.475000X0.337500X-0.475000X0.337500X0.475000X-0.337500X0.475000X0*%
%ADD35C,1.600000*%
G04 APERTURE END LIST*
D10*
X82431128Y-148081904D02*
X83240652Y-148081904D01*
X83335890Y-148034285D01*
X83383509Y-147986666D01*
X83431128Y-147891428D01*
X83431128Y-147700952D01*
X83383509Y-147605714D01*
X83335890Y-147558095D01*
X83240652Y-147510476D01*
X82431128Y-147510476D01*
X82526367Y-147081904D02*
X82478748Y-147034285D01*
X82431128Y-146939047D01*
X82431128Y-146700952D01*
X82478748Y-146605714D01*
X82526367Y-146558095D01*
X82621605Y-146510476D01*
X82716843Y-146510476D01*
X82859700Y-146558095D01*
X83431128Y-147129523D01*
X83431128Y-146510476D01*
X111250580Y-137596704D02*
X112060104Y-137596704D01*
X112155342Y-137549085D01*
X112202961Y-137501466D01*
X112250580Y-137406228D01*
X112250580Y-137215752D01*
X112202961Y-137120514D01*
X112155342Y-137072895D01*
X112060104Y-137025276D01*
X111250580Y-137025276D01*
X112250580Y-136025276D02*
X112250580Y-136596704D01*
X112250580Y-136310990D02*
X111250580Y-136310990D01*
X111393438Y-136406228D01*
X111488676Y-136501466D01*
X111536295Y-136596704D01*
X148662380Y-245720952D02*
X148186190Y-246054285D01*
X148662380Y-246292380D02*
X147662380Y-246292380D01*
X147662380Y-245911428D01*
X147710000Y-245816190D01*
X147757619Y-245768571D01*
X147852857Y-245720952D01*
X147995714Y-245720952D01*
X148090952Y-245768571D01*
X148138571Y-245816190D01*
X148186190Y-245911428D01*
X148186190Y-246292380D01*
X148757619Y-245530476D02*
X148757619Y-244768571D01*
X148376666Y-244578095D02*
X148376666Y-244101904D01*
X148662380Y-244673333D02*
X147662380Y-244340000D01*
X148662380Y-244006666D01*
X148662380Y-243673333D02*
X147662380Y-243673333D01*
X148662380Y-243101904D01*
X147662380Y-243101904D01*
X147662380Y-242768571D02*
X147662380Y-242197142D01*
X148662380Y-242482857D02*
X147662380Y-242482857D01*
X148662380Y-241340000D02*
X148662380Y-241911428D01*
X148662380Y-241625714D02*
X147662380Y-241625714D01*
X147805238Y-241720952D01*
X147900476Y-241816190D01*
X147948095Y-241911428D01*
X85448980Y-130069280D02*
X85115647Y-129593090D01*
X84877552Y-130069280D02*
X84877552Y-129069280D01*
X85258504Y-129069280D01*
X85353742Y-129116900D01*
X85401361Y-129164519D01*
X85448980Y-129259757D01*
X85448980Y-129402614D01*
X85401361Y-129497852D01*
X85353742Y-129545471D01*
X85258504Y-129593090D01*
X84877552Y-129593090D01*
X85639457Y-130164519D02*
X86401361Y-130164519D01*
X87115647Y-129069280D02*
X86639457Y-129069280D01*
X86591838Y-129545471D01*
X86639457Y-129497852D01*
X86734695Y-129450233D01*
X86972790Y-129450233D01*
X87068028Y-129497852D01*
X87115647Y-129545471D01*
X87163266Y-129640709D01*
X87163266Y-129878804D01*
X87115647Y-129974042D01*
X87068028Y-130021661D01*
X86972790Y-130069280D01*
X86734695Y-130069280D01*
X86639457Y-130021661D01*
X86591838Y-129974042D01*
X120148380Y-135206080D02*
X119815047Y-134729890D01*
X119576952Y-135206080D02*
X119576952Y-134206080D01*
X119957904Y-134206080D01*
X120053142Y-134253700D01*
X120100761Y-134301319D01*
X120148380Y-134396557D01*
X120148380Y-134539414D01*
X120100761Y-134634652D01*
X120053142Y-134682271D01*
X119957904Y-134729890D01*
X119576952Y-134729890D01*
X120338857Y-135301319D02*
X121100761Y-135301319D01*
X121767428Y-134539414D02*
X121767428Y-135206080D01*
X121529333Y-134158461D02*
X121291238Y-134872747D01*
X121910285Y-134872747D01*
X85461780Y-133397180D02*
X85128447Y-132920990D01*
X84890352Y-133397180D02*
X84890352Y-132397180D01*
X85271304Y-132397180D01*
X85366542Y-132444800D01*
X85414161Y-132492419D01*
X85461780Y-132587657D01*
X85461780Y-132730514D01*
X85414161Y-132825752D01*
X85366542Y-132873371D01*
X85271304Y-132920990D01*
X84890352Y-132920990D01*
X85652257Y-133492419D02*
X86414161Y-133492419D01*
X86557019Y-132397180D02*
X87176066Y-132397180D01*
X86842733Y-132778133D01*
X86985590Y-132778133D01*
X87080828Y-132825752D01*
X87128447Y-132873371D01*
X87176066Y-132968609D01*
X87176066Y-133206704D01*
X87128447Y-133301942D01*
X87080828Y-133349561D01*
X86985590Y-133397180D01*
X86699876Y-133397180D01*
X86604638Y-133349561D01*
X86557019Y-133301942D01*
X85461780Y-136054880D02*
X85128447Y-135578690D01*
X84890352Y-136054880D02*
X84890352Y-135054880D01*
X85271304Y-135054880D01*
X85366542Y-135102500D01*
X85414161Y-135150119D01*
X85461780Y-135245357D01*
X85461780Y-135388214D01*
X85414161Y-135483452D01*
X85366542Y-135531071D01*
X85271304Y-135578690D01*
X84890352Y-135578690D01*
X85652257Y-136150119D02*
X86414161Y-136150119D01*
X86604638Y-135150119D02*
X86652257Y-135102500D01*
X86747495Y-135054880D01*
X86985590Y-135054880D01*
X87080828Y-135102500D01*
X87128447Y-135150119D01*
X87176066Y-135245357D01*
X87176066Y-135340595D01*
X87128447Y-135483452D01*
X86557019Y-136054880D01*
X87176066Y-136054880D01*
X85459480Y-146435580D02*
X85126147Y-145959390D01*
X84888052Y-146435580D02*
X84888052Y-145435580D01*
X85269004Y-145435580D01*
X85364242Y-145483200D01*
X85411861Y-145530819D01*
X85459480Y-145626057D01*
X85459480Y-145768914D01*
X85411861Y-145864152D01*
X85364242Y-145911771D01*
X85269004Y-145959390D01*
X84888052Y-145959390D01*
X85649957Y-146530819D02*
X86411861Y-146530819D01*
X87173766Y-146435580D02*
X86602338Y-146435580D01*
X86888052Y-146435580D02*
X86888052Y-145435580D01*
X86792814Y-145578438D01*
X86697576Y-145673676D01*
X86602338Y-145721295D01*
D11*
X24743976Y-102259419D02*
X19982071Y-102259419D01*
X19982071Y-82259419D01*
X25696357Y-104164180D02*
X33315404Y-104164180D01*
X35220166Y-96545133D02*
X39982071Y-96545133D01*
X34267785Y-102259419D02*
X37601119Y-82259419D01*
X40934452Y-102259419D01*
X44267785Y-102259419D02*
X44267785Y-82259419D01*
X49982071Y-102259419D01*
X49982071Y-82259419D01*
X53315404Y-82259419D02*
X59029690Y-82259419D01*
X56172547Y-102259419D02*
X56172547Y-82259419D01*
X67601119Y-102259419D02*
X61886833Y-102259419D01*
X64743976Y-102259419D02*
X64743976Y-82259419D01*
X63791595Y-85116561D01*
X62839214Y-87021323D01*
X61886833Y-87973704D01*
D10*
X98503738Y-93665371D02*
X98443261Y-93725847D01*
X98261833Y-93786323D01*
X98140880Y-93786323D01*
X97959452Y-93725847D01*
X97838500Y-93604895D01*
X97778023Y-93483942D01*
X97717547Y-93242038D01*
X97717547Y-93060609D01*
X97778023Y-92818704D01*
X97838500Y-92697752D01*
X97959452Y-92576800D01*
X98140880Y-92516323D01*
X98261833Y-92516323D01*
X98443261Y-92576800D01*
X98503738Y-92637276D01*
X99229452Y-93786323D02*
X99108500Y-93725847D01*
X99048023Y-93665371D01*
X98987547Y-93544419D01*
X98987547Y-93181561D01*
X99048023Y-93060609D01*
X99108500Y-93000133D01*
X99229452Y-92939657D01*
X99410880Y-92939657D01*
X99531833Y-93000133D01*
X99592309Y-93060609D01*
X99652785Y-93181561D01*
X99652785Y-93544419D01*
X99592309Y-93665371D01*
X99531833Y-93725847D01*
X99410880Y-93786323D01*
X99229452Y-93786323D01*
X100197071Y-93786323D02*
X100197071Y-92939657D01*
X100197071Y-92516323D02*
X100136595Y-92576800D01*
X100197071Y-92637276D01*
X100257547Y-92576800D01*
X100197071Y-92516323D01*
X100197071Y-92637276D01*
X100983261Y-93786323D02*
X100862309Y-93725847D01*
X100801833Y-93604895D01*
X100801833Y-92516323D01*
X102374214Y-93423466D02*
X102978976Y-93423466D01*
X102253261Y-93786323D02*
X102676595Y-92516323D01*
X103099928Y-93786323D01*
X103523261Y-92939657D02*
X103523261Y-93786323D01*
X103523261Y-93060609D02*
X103583738Y-93000133D01*
X103704690Y-92939657D01*
X103886119Y-92939657D01*
X104007071Y-93000133D01*
X104067547Y-93121085D01*
X104067547Y-93786323D01*
X104490880Y-92939657D02*
X104974690Y-92939657D01*
X104672309Y-92516323D02*
X104672309Y-93604895D01*
X104732785Y-93725847D01*
X104853738Y-93786323D01*
X104974690Y-93786323D01*
X105881833Y-93725847D02*
X105760880Y-93786323D01*
X105518976Y-93786323D01*
X105398023Y-93725847D01*
X105337547Y-93604895D01*
X105337547Y-93121085D01*
X105398023Y-93000133D01*
X105518976Y-92939657D01*
X105760880Y-92939657D01*
X105881833Y-93000133D01*
X105942309Y-93121085D01*
X105942309Y-93242038D01*
X105337547Y-93362990D01*
X106486595Y-92939657D02*
X106486595Y-93786323D01*
X106486595Y-93060609D02*
X106547071Y-93000133D01*
X106668023Y-92939657D01*
X106849452Y-92939657D01*
X106970404Y-93000133D01*
X107030880Y-93121085D01*
X107030880Y-93786323D01*
X107635642Y-92939657D02*
X107635642Y-93786323D01*
X107635642Y-93060609D02*
X107696119Y-93000133D01*
X107817071Y-92939657D01*
X107998500Y-92939657D01*
X108119452Y-93000133D01*
X108179928Y-93121085D01*
X108179928Y-93786323D01*
X109328976Y-93786323D02*
X109328976Y-93121085D01*
X109268500Y-93000133D01*
X109147547Y-92939657D01*
X108905642Y-92939657D01*
X108784690Y-93000133D01*
X109328976Y-93725847D02*
X109208023Y-93786323D01*
X108905642Y-93786323D01*
X108784690Y-93725847D01*
X108724214Y-93604895D01*
X108724214Y-93483942D01*
X108784690Y-93362990D01*
X108905642Y-93302514D01*
X109208023Y-93302514D01*
X109328976Y-93242038D01*
X71144880Y-145501904D02*
X71859166Y-145501904D01*
X72002023Y-145549523D01*
X72097261Y-145644761D01*
X72144880Y-145787619D01*
X72144880Y-145882857D01*
X72240119Y-145263809D02*
X72240119Y-144501904D01*
X72144880Y-144263809D02*
X71144880Y-144263809D01*
X71144880Y-143882857D01*
X71192500Y-143787619D01*
X71240119Y-143740000D01*
X71335357Y-143692380D01*
X71478214Y-143692380D01*
X71573452Y-143740000D01*
X71621071Y-143787619D01*
X71668690Y-143882857D01*
X71668690Y-144263809D01*
X71144880Y-143073333D02*
X71144880Y-142882857D01*
X71192500Y-142787619D01*
X71287738Y-142692380D01*
X71478214Y-142644761D01*
X71811547Y-142644761D01*
X72002023Y-142692380D01*
X72097261Y-142787619D01*
X72144880Y-142882857D01*
X72144880Y-143073333D01*
X72097261Y-143168571D01*
X72002023Y-143263809D01*
X71811547Y-143311428D01*
X71478214Y-143311428D01*
X71287738Y-143263809D01*
X71192500Y-143168571D01*
X71144880Y-143073333D01*
X71144880Y-142311428D02*
X72144880Y-142073333D01*
X71430595Y-141882857D01*
X72144880Y-141692380D01*
X71144880Y-141454285D01*
X71621071Y-141073333D02*
X71621071Y-140740000D01*
X72144880Y-140597142D02*
X72144880Y-141073333D01*
X71144880Y-141073333D01*
X71144880Y-140597142D01*
X72144880Y-139597142D02*
X71668690Y-139930476D01*
X72144880Y-140168571D02*
X71144880Y-140168571D01*
X71144880Y-139787619D01*
X71192500Y-139692380D01*
X71240119Y-139644761D01*
X71335357Y-139597142D01*
X71478214Y-139597142D01*
X71573452Y-139644761D01*
X71621071Y-139692380D01*
X71668690Y-139787619D01*
X71668690Y-140168571D01*
X72144880Y-138644761D02*
X72144880Y-139216190D01*
X72144880Y-138930476D02*
X71144880Y-138930476D01*
X71287738Y-139025714D01*
X71382976Y-139120952D01*
X71430595Y-139216190D01*
X112780980Y-155504176D02*
X113495266Y-155504176D01*
X113638123Y-155551795D01*
X113733361Y-155647033D01*
X113780980Y-155789890D01*
X113780980Y-155885128D01*
X113876219Y-155266080D02*
X113876219Y-154504176D01*
X113780980Y-154266080D02*
X112780980Y-154266080D01*
X112780980Y-154027985D01*
X112828600Y-153885128D01*
X112923838Y-153789890D01*
X113019076Y-153742271D01*
X113209552Y-153694652D01*
X113352409Y-153694652D01*
X113542885Y-153742271D01*
X113638123Y-153789890D01*
X113733361Y-153885128D01*
X113780980Y-154027985D01*
X113780980Y-154266080D01*
X113257171Y-153266080D02*
X113257171Y-152932747D01*
X113780980Y-152789890D02*
X113780980Y-153266080D01*
X112780980Y-153266080D01*
X112780980Y-152789890D01*
X113257171Y-152027985D02*
X113304790Y-151885128D01*
X113352409Y-151837509D01*
X113447647Y-151789890D01*
X113590504Y-151789890D01*
X113685742Y-151837509D01*
X113733361Y-151885128D01*
X113780980Y-151980366D01*
X113780980Y-152361319D01*
X112780980Y-152361319D01*
X112780980Y-152027985D01*
X112828600Y-151932747D01*
X112876219Y-151885128D01*
X112971457Y-151837509D01*
X113066695Y-151837509D01*
X113161933Y-151885128D01*
X113209552Y-151932747D01*
X113257171Y-152027985D01*
X113257171Y-152361319D01*
X112780980Y-151361319D02*
X113590504Y-151361319D01*
X113685742Y-151313700D01*
X113733361Y-151266080D01*
X113780980Y-151170842D01*
X113780980Y-150980366D01*
X113733361Y-150885128D01*
X113685742Y-150837509D01*
X113590504Y-150789890D01*
X112780980Y-150789890D01*
X112828600Y-149789890D02*
X112780980Y-149885128D01*
X112780980Y-150027985D01*
X112828600Y-150170842D01*
X112923838Y-150266080D01*
X113019076Y-150313700D01*
X113209552Y-150361319D01*
X113352409Y-150361319D01*
X113542885Y-150313700D01*
X113638123Y-150266080D01*
X113733361Y-150170842D01*
X113780980Y-150027985D01*
X113780980Y-149932747D01*
X113733361Y-149789890D01*
X113685742Y-149742271D01*
X113352409Y-149742271D01*
X113352409Y-149932747D01*
X113780980Y-148789890D02*
X113780980Y-149361319D01*
X113780980Y-149075604D02*
X112780980Y-149075604D01*
X112923838Y-149170842D01*
X113019076Y-149266080D01*
X113066695Y-149361319D01*
X77009523Y-128132380D02*
X77009523Y-128846666D01*
X76961904Y-128989523D01*
X76866666Y-129084761D01*
X76723809Y-129132380D01*
X76628571Y-129132380D01*
X77961904Y-129132380D02*
X77485714Y-129132380D01*
X77485714Y-128132380D01*
X78295238Y-128608571D02*
X78628571Y-128608571D01*
X78771428Y-129132380D02*
X78295238Y-129132380D01*
X78295238Y-128132380D01*
X78771428Y-128132380D01*
X79200000Y-129132380D02*
X79200000Y-128132380D01*
X79438095Y-128132380D01*
X79580952Y-128180000D01*
X79676190Y-128275238D01*
X79723809Y-128370476D01*
X79771428Y-128560952D01*
X79771428Y-128703809D01*
X79723809Y-128894285D01*
X79676190Y-128989523D01*
X79580952Y-129084761D01*
X79438095Y-129132380D01*
X79200000Y-129132380D01*
X80723809Y-129132380D02*
X80152380Y-129132380D01*
X80438095Y-129132380D02*
X80438095Y-128132380D01*
X80342857Y-128275238D01*
X80247619Y-128370476D01*
X80152380Y-128418095D01*
D12*
X129313023Y-140361761D02*
X128043023Y-140361761D01*
X129192071Y-139031285D02*
X129252547Y-139091761D01*
X129313023Y-139273190D01*
X129313023Y-139394142D01*
X129252547Y-139575571D01*
X129131595Y-139696523D01*
X129010642Y-139757000D01*
X128768738Y-139817476D01*
X128587309Y-139817476D01*
X128345404Y-139757000D01*
X128224452Y-139696523D01*
X128103500Y-139575571D01*
X128043023Y-139394142D01*
X128043023Y-139273190D01*
X128103500Y-139091761D01*
X128163976Y-139031285D01*
X129313023Y-137821761D02*
X129313023Y-138547476D01*
X129313023Y-138184619D02*
X128043023Y-138184619D01*
X128224452Y-138305571D01*
X128345404Y-138426523D01*
X128405880Y-138547476D01*
D10*
X132456009Y-132462942D02*
X132408390Y-132510561D01*
X132265533Y-132558180D01*
X132170295Y-132558180D01*
X132027438Y-132510561D01*
X131932200Y-132415323D01*
X131884580Y-132320085D01*
X131836961Y-132129609D01*
X131836961Y-131986752D01*
X131884580Y-131796276D01*
X131932200Y-131701038D01*
X132027438Y-131605800D01*
X132170295Y-131558180D01*
X132265533Y-131558180D01*
X132408390Y-131605800D01*
X132456009Y-131653419D01*
X132646485Y-132653419D02*
X133408390Y-132653419D01*
X134217914Y-132558180D02*
X133884580Y-132081990D01*
X133646485Y-132558180D02*
X133646485Y-131558180D01*
X134027438Y-131558180D01*
X134122676Y-131605800D01*
X134170295Y-131653419D01*
X134217914Y-131748657D01*
X134217914Y-131891514D01*
X134170295Y-131986752D01*
X134122676Y-132034371D01*
X134027438Y-132081990D01*
X133646485Y-132081990D01*
X134646485Y-132034371D02*
X134979819Y-132034371D01*
X135122676Y-132558180D02*
X134646485Y-132558180D01*
X134646485Y-131558180D01*
X135122676Y-131558180D01*
X135503628Y-132510561D02*
X135646485Y-132558180D01*
X135884580Y-132558180D01*
X135979819Y-132510561D01*
X136027438Y-132462942D01*
X136075057Y-132367704D01*
X136075057Y-132272466D01*
X136027438Y-132177228D01*
X135979819Y-132129609D01*
X135884580Y-132081990D01*
X135694104Y-132034371D01*
X135598866Y-131986752D01*
X135551247Y-131939133D01*
X135503628Y-131843895D01*
X135503628Y-131748657D01*
X135551247Y-131653419D01*
X135598866Y-131605800D01*
X135694104Y-131558180D01*
X135932200Y-131558180D01*
X136075057Y-131605800D01*
X137027438Y-132558180D02*
X136456009Y-132558180D01*
X136741723Y-132558180D02*
X136741723Y-131558180D01*
X136646485Y-131701038D01*
X136551247Y-131796276D01*
X136456009Y-131843895D01*
X130982202Y-142331463D02*
X130934583Y-142379082D01*
X130791725Y-142426701D01*
X130696487Y-142426701D01*
X130553630Y-142379082D01*
X130458392Y-142283844D01*
X130410773Y-142188606D01*
X130363154Y-141998130D01*
X130363154Y-141855273D01*
X130410773Y-141664797D01*
X130458392Y-141569559D01*
X130553630Y-141474321D01*
X130696487Y-141426701D01*
X130791725Y-141426701D01*
X130934583Y-141474321D01*
X130982202Y-141521940D01*
X131172678Y-142521940D02*
X131934583Y-142521940D01*
X132506011Y-141902892D02*
X132172678Y-141902892D01*
X132172678Y-142426701D02*
X132172678Y-141426701D01*
X132648868Y-141426701D01*
X133601249Y-142331463D02*
X133553630Y-142379082D01*
X133410773Y-142426701D01*
X133315535Y-142426701D01*
X133172678Y-142379082D01*
X133077440Y-142283844D01*
X133029821Y-142188606D01*
X132982202Y-141998130D01*
X132982202Y-141855273D01*
X133029821Y-141664797D01*
X133077440Y-141569559D01*
X133172678Y-141474321D01*
X133315535Y-141426701D01*
X133410773Y-141426701D01*
X133553630Y-141474321D01*
X133601249Y-141521940D01*
X133982202Y-142140987D02*
X134458392Y-142140987D01*
X133886964Y-142426701D02*
X134220297Y-141426701D01*
X134553630Y-142426701D01*
X134886964Y-142426701D02*
X134886964Y-141426701D01*
X135267916Y-141426701D01*
X135363154Y-141474321D01*
X135410773Y-141521940D01*
X135458392Y-141617178D01*
X135458392Y-141760035D01*
X135410773Y-141855273D01*
X135363154Y-141902892D01*
X135267916Y-141950511D01*
X134886964Y-141950511D01*
X136410773Y-142426701D02*
X135839344Y-142426701D01*
X136125059Y-142426701D02*
X136125059Y-141426701D01*
X136029821Y-141569559D01*
X135934583Y-141664797D01*
X135839344Y-141712416D01*
X126373509Y-131642942D02*
X126325890Y-131690561D01*
X126183033Y-131738180D01*
X126087795Y-131738180D01*
X125944938Y-131690561D01*
X125849700Y-131595323D01*
X125802080Y-131500085D01*
X125754461Y-131309609D01*
X125754461Y-131166752D01*
X125802080Y-130976276D01*
X125849700Y-130881038D01*
X125944938Y-130785800D01*
X126087795Y-130738180D01*
X126183033Y-130738180D01*
X126325890Y-130785800D01*
X126373509Y-130833419D01*
X126563985Y-131833419D02*
X127325890Y-131833419D01*
X127563985Y-131738180D02*
X127563985Y-130738180D01*
X127802080Y-130738180D01*
X127944938Y-130785800D01*
X128040176Y-130881038D01*
X128087795Y-130976276D01*
X128135414Y-131166752D01*
X128135414Y-131309609D01*
X128087795Y-131500085D01*
X128040176Y-131595323D01*
X127944938Y-131690561D01*
X127802080Y-131738180D01*
X127563985Y-131738180D01*
X128421128Y-130738180D02*
X128754461Y-131738180D01*
X129087795Y-130738180D01*
X129897319Y-130738180D02*
X129421128Y-130738180D01*
X129373509Y-131214371D01*
X129421128Y-131166752D01*
X129516366Y-131119133D01*
X129754461Y-131119133D01*
X129849700Y-131166752D01*
X129897319Y-131214371D01*
X129944938Y-131309609D01*
X129944938Y-131547704D01*
X129897319Y-131642942D01*
X129849700Y-131690561D01*
X129754461Y-131738180D01*
X129516366Y-131738180D01*
X129421128Y-131690561D01*
X129373509Y-131642942D01*
X126373509Y-129102942D02*
X126325890Y-129150561D01*
X126183033Y-129198180D01*
X126087795Y-129198180D01*
X125944938Y-129150561D01*
X125849700Y-129055323D01*
X125802080Y-128960085D01*
X125754461Y-128769609D01*
X125754461Y-128626752D01*
X125802080Y-128436276D01*
X125849700Y-128341038D01*
X125944938Y-128245800D01*
X126087795Y-128198180D01*
X126183033Y-128198180D01*
X126325890Y-128245800D01*
X126373509Y-128293419D01*
X126563985Y-129293419D02*
X127325890Y-129293419D01*
X127563985Y-129198180D02*
X127563985Y-128198180D01*
X127802080Y-128198180D01*
X127944938Y-128245800D01*
X128040176Y-128341038D01*
X128087795Y-128436276D01*
X128135414Y-128626752D01*
X128135414Y-128769609D01*
X128087795Y-128960085D01*
X128040176Y-129055323D01*
X127944938Y-129150561D01*
X127802080Y-129198180D01*
X127563985Y-129198180D01*
X128421128Y-128198180D02*
X128754461Y-129198180D01*
X129087795Y-128198180D01*
X129849700Y-128531514D02*
X129849700Y-129198180D01*
X129611604Y-128150561D02*
X129373509Y-128864847D01*
X129992557Y-128864847D01*
X78785409Y-139704742D02*
X78737790Y-139752361D01*
X78594933Y-139799980D01*
X78499695Y-139799980D01*
X78356838Y-139752361D01*
X78261600Y-139657123D01*
X78213980Y-139561885D01*
X78166361Y-139371409D01*
X78166361Y-139228552D01*
X78213980Y-139038076D01*
X78261600Y-138942838D01*
X78356838Y-138847600D01*
X78499695Y-138799980D01*
X78594933Y-138799980D01*
X78737790Y-138847600D01*
X78785409Y-138895219D01*
X78975885Y-139895219D02*
X79737790Y-139895219D01*
X79975885Y-139799980D02*
X79975885Y-138799980D01*
X80213980Y-138799980D01*
X80356838Y-138847600D01*
X80452076Y-138942838D01*
X80499695Y-139038076D01*
X80547314Y-139228552D01*
X80547314Y-139371409D01*
X80499695Y-139561885D01*
X80452076Y-139657123D01*
X80356838Y-139752361D01*
X80213980Y-139799980D01*
X79975885Y-139799980D01*
X80833028Y-138799980D02*
X81166361Y-139799980D01*
X81499695Y-138799980D01*
X81737790Y-138799980D02*
X82356838Y-138799980D01*
X82023504Y-139180933D01*
X82166361Y-139180933D01*
X82261600Y-139228552D01*
X82309219Y-139276171D01*
X82356838Y-139371409D01*
X82356838Y-139609504D01*
X82309219Y-139704742D01*
X82261600Y-139752361D01*
X82166361Y-139799980D01*
X81880647Y-139799980D01*
X81785409Y-139752361D01*
X81737790Y-139704742D01*
X84614009Y-141211042D02*
X84566390Y-141258661D01*
X84423533Y-141306280D01*
X84328295Y-141306280D01*
X84185438Y-141258661D01*
X84090200Y-141163423D01*
X84042580Y-141068185D01*
X83994961Y-140877709D01*
X83994961Y-140734852D01*
X84042580Y-140544376D01*
X84090200Y-140449138D01*
X84185438Y-140353900D01*
X84328295Y-140306280D01*
X84423533Y-140306280D01*
X84566390Y-140353900D01*
X84614009Y-140401519D01*
X84804485Y-141401519D02*
X85566390Y-141401519D01*
X85804485Y-141306280D02*
X85804485Y-140306280D01*
X86042580Y-140306280D01*
X86185438Y-140353900D01*
X86280676Y-140449138D01*
X86328295Y-140544376D01*
X86375914Y-140734852D01*
X86375914Y-140877709D01*
X86328295Y-141068185D01*
X86280676Y-141163423D01*
X86185438Y-141258661D01*
X86042580Y-141306280D01*
X85804485Y-141306280D01*
X86661628Y-140306280D02*
X86994961Y-141306280D01*
X87328295Y-140306280D01*
X87614009Y-140401519D02*
X87661628Y-140353900D01*
X87756866Y-140306280D01*
X87994961Y-140306280D01*
X88090200Y-140353900D01*
X88137819Y-140401519D01*
X88185438Y-140496757D01*
X88185438Y-140591995D01*
X88137819Y-140734852D01*
X87566390Y-141306280D01*
X88185438Y-141306280D01*
X84614009Y-138671042D02*
X84566390Y-138718661D01*
X84423533Y-138766280D01*
X84328295Y-138766280D01*
X84185438Y-138718661D01*
X84090200Y-138623423D01*
X84042580Y-138528185D01*
X83994961Y-138337709D01*
X83994961Y-138194852D01*
X84042580Y-138004376D01*
X84090200Y-137909138D01*
X84185438Y-137813900D01*
X84328295Y-137766280D01*
X84423533Y-137766280D01*
X84566390Y-137813900D01*
X84614009Y-137861519D01*
X84804485Y-138861519D02*
X85566390Y-138861519D01*
X85804485Y-138766280D02*
X85804485Y-137766280D01*
X86042580Y-137766280D01*
X86185438Y-137813900D01*
X86280676Y-137909138D01*
X86328295Y-138004376D01*
X86375914Y-138194852D01*
X86375914Y-138337709D01*
X86328295Y-138528185D01*
X86280676Y-138623423D01*
X86185438Y-138718661D01*
X86042580Y-138766280D01*
X85804485Y-138766280D01*
X86661628Y-137766280D02*
X86994961Y-138766280D01*
X87328295Y-137766280D01*
X88185438Y-138766280D02*
X87614009Y-138766280D01*
X87899723Y-138766280D02*
X87899723Y-137766280D01*
X87804485Y-137909138D01*
X87709247Y-138004376D01*
X87614009Y-138051995D01*
X122175700Y-144275042D02*
X122128080Y-144322661D01*
X121985223Y-144370280D01*
X121889985Y-144370280D01*
X121747128Y-144322661D01*
X121651890Y-144227423D01*
X121604271Y-144132185D01*
X121556652Y-143941709D01*
X121556652Y-143798852D01*
X121604271Y-143608376D01*
X121651890Y-143513138D01*
X121747128Y-143417900D01*
X121889985Y-143370280D01*
X121985223Y-143370280D01*
X122128080Y-143417900D01*
X122175700Y-143465519D01*
X122366176Y-144465519D02*
X123128080Y-144465519D01*
X123366176Y-144370280D02*
X123366176Y-143370280D01*
X123604271Y-143370280D01*
X123747128Y-143417900D01*
X123842366Y-143513138D01*
X123889985Y-143608376D01*
X123937604Y-143798852D01*
X123937604Y-143941709D01*
X123889985Y-144132185D01*
X123842366Y-144227423D01*
X123747128Y-144322661D01*
X123604271Y-144370280D01*
X123366176Y-144370280D01*
X124366176Y-143846471D02*
X124699509Y-143846471D01*
X124842366Y-144370280D02*
X124366176Y-144370280D01*
X124366176Y-143370280D01*
X124842366Y-143370280D01*
X125842366Y-144275042D02*
X125794747Y-144322661D01*
X125651890Y-144370280D01*
X125556652Y-144370280D01*
X125413795Y-144322661D01*
X125318557Y-144227423D01*
X125270938Y-144132185D01*
X125223319Y-143941709D01*
X125223319Y-143798852D01*
X125270938Y-143608376D01*
X125318557Y-143513138D01*
X125413795Y-143417900D01*
X125556652Y-143370280D01*
X125651890Y-143370280D01*
X125794747Y-143417900D01*
X125842366Y-143465519D01*
X126794747Y-144370280D02*
X126223319Y-144370280D01*
X126509033Y-144370280D02*
X126509033Y-143370280D01*
X126413795Y-143513138D01*
X126318557Y-143608376D01*
X126223319Y-143655995D01*
X131020980Y-144155142D02*
X130973361Y-144202761D01*
X130830504Y-144250380D01*
X130735266Y-144250380D01*
X130592409Y-144202761D01*
X130497171Y-144107523D01*
X130449552Y-144012285D01*
X130401933Y-143821809D01*
X130401933Y-143678952D01*
X130449552Y-143488476D01*
X130497171Y-143393238D01*
X130592409Y-143298000D01*
X130735266Y-143250380D01*
X130830504Y-143250380D01*
X130973361Y-143298000D01*
X131020980Y-143345619D01*
X131211457Y-144345619D02*
X131973361Y-144345619D01*
X132211457Y-144250380D02*
X132211457Y-143250380D01*
X132449552Y-143250380D01*
X132592409Y-143298000D01*
X132687647Y-143393238D01*
X132735266Y-143488476D01*
X132782885Y-143678952D01*
X132782885Y-143821809D01*
X132735266Y-144012285D01*
X132687647Y-144107523D01*
X132592409Y-144202761D01*
X132449552Y-144250380D01*
X132211457Y-144250380D01*
X133782885Y-144155142D02*
X133735266Y-144202761D01*
X133592409Y-144250380D01*
X133497171Y-144250380D01*
X133354314Y-144202761D01*
X133259076Y-144107523D01*
X133211457Y-144012285D01*
X133163838Y-143821809D01*
X133163838Y-143678952D01*
X133211457Y-143488476D01*
X133259076Y-143393238D01*
X133354314Y-143298000D01*
X133497171Y-143250380D01*
X133592409Y-143250380D01*
X133735266Y-143298000D01*
X133782885Y-143345619D01*
X134735266Y-144250380D02*
X134163838Y-144250380D01*
X134449552Y-144250380D02*
X134449552Y-143250380D01*
X134354314Y-143393238D01*
X134259076Y-143488476D01*
X134163838Y-143536095D01*
X135388904Y-138807142D02*
X135341285Y-138854761D01*
X135198428Y-138902380D01*
X135103190Y-138902380D01*
X134960333Y-138854761D01*
X134865095Y-138759523D01*
X134817476Y-138664285D01*
X134769857Y-138473809D01*
X134769857Y-138330952D01*
X134817476Y-138140476D01*
X134865095Y-138045238D01*
X134960333Y-137950000D01*
X135103190Y-137902380D01*
X135198428Y-137902380D01*
X135341285Y-137950000D01*
X135388904Y-137997619D01*
X135579380Y-138997619D02*
X136341285Y-138997619D01*
X136912714Y-138378571D02*
X137055571Y-138426190D01*
X137103190Y-138473809D01*
X137150809Y-138569047D01*
X137150809Y-138711904D01*
X137103190Y-138807142D01*
X137055571Y-138854761D01*
X136960333Y-138902380D01*
X136579380Y-138902380D01*
X136579380Y-137902380D01*
X136912714Y-137902380D01*
X137007952Y-137950000D01*
X137055571Y-137997619D01*
X137103190Y-138092857D01*
X137103190Y-138188095D01*
X137055571Y-138283333D01*
X137007952Y-138330952D01*
X136912714Y-138378571D01*
X136579380Y-138378571D01*
X137579380Y-138902380D02*
X137579380Y-138235714D01*
X137579380Y-137902380D02*
X137531761Y-137950000D01*
X137579380Y-137997619D01*
X137627000Y-137950000D01*
X137579380Y-137902380D01*
X137579380Y-137997619D01*
X138484142Y-138235714D02*
X138484142Y-139045238D01*
X138436523Y-139140476D01*
X138388904Y-139188095D01*
X138293666Y-139235714D01*
X138150809Y-139235714D01*
X138055571Y-139188095D01*
X138484142Y-138854761D02*
X138388904Y-138902380D01*
X138198428Y-138902380D01*
X138103190Y-138854761D01*
X138055571Y-138807142D01*
X138007952Y-138711904D01*
X138007952Y-138426190D01*
X138055571Y-138330952D01*
X138103190Y-138283333D01*
X138198428Y-138235714D01*
X138388904Y-138235714D01*
X138484142Y-138283333D01*
X139484142Y-138902380D02*
X138912714Y-138902380D01*
X139198428Y-138902380D02*
X139198428Y-137902380D01*
X139103190Y-138045238D01*
X139007952Y-138140476D01*
X138912714Y-138188095D01*
X125909300Y-144155142D02*
X125861680Y-144202761D01*
X125718823Y-144250380D01*
X125623585Y-144250380D01*
X125480728Y-144202761D01*
X125385490Y-144107523D01*
X125337871Y-144012285D01*
X125290252Y-143821809D01*
X125290252Y-143678952D01*
X125337871Y-143488476D01*
X125385490Y-143393238D01*
X125480728Y-143298000D01*
X125623585Y-143250380D01*
X125718823Y-143250380D01*
X125861680Y-143298000D01*
X125909300Y-143345619D01*
X126099776Y-144345619D02*
X126861680Y-144345619D01*
X127052157Y-143964666D02*
X127528347Y-143964666D01*
X126956919Y-144250380D02*
X127290252Y-143250380D01*
X127623585Y-144250380D01*
X128480728Y-143298000D02*
X128385490Y-143250380D01*
X128242633Y-143250380D01*
X128099776Y-143298000D01*
X128004538Y-143393238D01*
X127956919Y-143488476D01*
X127909300Y-143678952D01*
X127909300Y-143821809D01*
X127956919Y-144012285D01*
X128004538Y-144107523D01*
X128099776Y-144202761D01*
X128242633Y-144250380D01*
X128337871Y-144250380D01*
X128480728Y-144202761D01*
X128528347Y-144155142D01*
X128528347Y-143821809D01*
X128337871Y-143821809D01*
X128956919Y-144250380D02*
X128956919Y-143250380D01*
X129528347Y-144250380D01*
X129528347Y-143250380D01*
X130004538Y-144250380D02*
X130004538Y-143250380D01*
X130242633Y-143250380D01*
X130385490Y-143298000D01*
X130480728Y-143393238D01*
X130528347Y-143488476D01*
X130575966Y-143678952D01*
X130575966Y-143821809D01*
X130528347Y-144012285D01*
X130480728Y-144107523D01*
X130385490Y-144202761D01*
X130242633Y-144250380D01*
X130004538Y-144250380D01*
X131528347Y-144250380D02*
X130956919Y-144250380D01*
X131242633Y-144250380D02*
X131242633Y-143250380D01*
X131147395Y-143393238D01*
X131052157Y-143488476D01*
X130956919Y-143536095D01*
X85855133Y-151087542D02*
X85807514Y-151135161D01*
X85664657Y-151182780D01*
X85569419Y-151182780D01*
X85426561Y-151135161D01*
X85331323Y-151039923D01*
X85283704Y-150944685D01*
X85236085Y-150754209D01*
X85236085Y-150611352D01*
X85283704Y-150420876D01*
X85331323Y-150325638D01*
X85426561Y-150230400D01*
X85569419Y-150182780D01*
X85664657Y-150182780D01*
X85807514Y-150230400D01*
X85855133Y-150278019D01*
X86188466Y-150182780D02*
X86807514Y-150182780D01*
X86474180Y-150563733D01*
X86617038Y-150563733D01*
X86712276Y-150611352D01*
X86759895Y-150658971D01*
X86807514Y-150754209D01*
X86807514Y-150992304D01*
X86759895Y-151087542D01*
X86712276Y-151135161D01*
X86617038Y-151182780D01*
X86331323Y-151182780D01*
X86236085Y-151135161D01*
X86188466Y-151087542D01*
X85541738Y-146585914D02*
X85494119Y-146633533D01*
X85351262Y-146681152D01*
X85256024Y-146681152D01*
X85113166Y-146633533D01*
X85017928Y-146538295D01*
X84970309Y-146443057D01*
X84922690Y-146252581D01*
X84922690Y-146109724D01*
X84970309Y-145919248D01*
X85017928Y-145824010D01*
X85113166Y-145728772D01*
X85256024Y-145681152D01*
X85351262Y-145681152D01*
X85494119Y-145728772D01*
X85541738Y-145776391D01*
X85922690Y-145776391D02*
X85970309Y-145728772D01*
X86065547Y-145681152D01*
X86303643Y-145681152D01*
X86398881Y-145728772D01*
X86446500Y-145776391D01*
X86494119Y-145871629D01*
X86494119Y-145966867D01*
X86446500Y-146109724D01*
X85875071Y-146681152D01*
X86494119Y-146681152D01*
X85836733Y-143850542D02*
X85789114Y-143898161D01*
X85646257Y-143945780D01*
X85551019Y-143945780D01*
X85408161Y-143898161D01*
X85312923Y-143802923D01*
X85265304Y-143707685D01*
X85217685Y-143517209D01*
X85217685Y-143374352D01*
X85265304Y-143183876D01*
X85312923Y-143088638D01*
X85408161Y-142993400D01*
X85551019Y-142945780D01*
X85646257Y-142945780D01*
X85789114Y-142993400D01*
X85836733Y-143041019D01*
X86789114Y-143945780D02*
X86217685Y-143945780D01*
X86503400Y-143945780D02*
X86503400Y-142945780D01*
X86408161Y-143088638D01*
X86312923Y-143183876D01*
X86217685Y-143231495D01*
D13*
X82150000Y-149230000D02*
X80890000Y-149230000D01*
X75330000Y-149230000D02*
X76590000Y-149230000D01*
X75330000Y-145470000D02*
X75330000Y-149230000D01*
X82150000Y-143220000D02*
X82150000Y-149230000D01*
X92068200Y-161129800D02*
X92068200Y-154709800D01*
X110308200Y-161129800D02*
X92068200Y-161129800D01*
X110308200Y-161129800D02*
X110308200Y-154709800D01*
X92068200Y-136164800D02*
X92068200Y-135384800D01*
X92068200Y-135384800D02*
X93068200Y-135384800D01*
X110308200Y-154709800D02*
X110688200Y-154709800D01*
X110308200Y-136164800D02*
X110308200Y-135384800D01*
X110308200Y-135384800D02*
X109308200Y-135384800D01*
X136425000Y-134847064D02*
X136425000Y-134392936D01*
X137895000Y-134847064D02*
X137895000Y-134392936D01*
X85769536Y-130531900D02*
X86223664Y-130531900D01*
X85769536Y-132001900D02*
X86223664Y-132001900D01*
X120468936Y-135668700D02*
X120923064Y-135668700D01*
X120468936Y-137138700D02*
X120923064Y-137138700D01*
X85782336Y-133859800D02*
X86236464Y-133859800D01*
X85782336Y-135329800D02*
X86236464Y-135329800D01*
X85782336Y-136517500D02*
X86236464Y-136517500D01*
X85782336Y-137987500D02*
X86236464Y-137987500D01*
X85780036Y-146898200D02*
X86234164Y-146898200D01*
X85780036Y-148368200D02*
X86234164Y-148368200D01*
X70342500Y-138340000D02*
X70342500Y-138790000D01*
X70892500Y-140540000D02*
X70442500Y-140540000D01*
X68492500Y-138340000D02*
X70342500Y-138340000D01*
X65942500Y-146140000D02*
X66192500Y-146140000D01*
X70892500Y-140540000D02*
X70892500Y-140990000D01*
X68492500Y-146140000D02*
X70342500Y-146140000D01*
X70342500Y-146140000D02*
X70342500Y-145690000D01*
X65942500Y-138340000D02*
X66192500Y-138340000D01*
X116928600Y-153643700D02*
X116928600Y-150983700D01*
X134768600Y-153643700D02*
X134768600Y-150983700D01*
X116928600Y-153643700D02*
X134768600Y-153643700D01*
X115658600Y-153643700D02*
X114328600Y-153643700D01*
X116928600Y-150983700D02*
X134768600Y-150983700D01*
X114328600Y-153643700D02*
X114328600Y-152313700D01*
X74850000Y-129430000D02*
X82650000Y-129430000D01*
X74850000Y-135480000D02*
X74850000Y-129430000D01*
X76200000Y-135380000D02*
X76200000Y-134370000D01*
X76200000Y-134370000D02*
X81280000Y-134370000D01*
X82650000Y-135480000D02*
X74850000Y-135480000D01*
X82650000Y-129430000D02*
X82650000Y-135480000D01*
X81280000Y-134370000D02*
X81280000Y-135380000D01*
D14*
X123793500Y-140722000D02*
X123793500Y-137522000D01*
X133858500Y-135622000D02*
X133858500Y-137172000D01*
X133683500Y-137522000D02*
X133683500Y-140722000D01*
X133683500Y-140722000D02*
X123793500Y-140722000D01*
X123793500Y-137522000D02*
X133683500Y-137522000D01*
D13*
X134693452Y-129690800D02*
X134170948Y-129690800D01*
X134693452Y-131160800D02*
X134170948Y-131160800D01*
X132227348Y-148851300D02*
X132749852Y-148851300D01*
X132227348Y-147381300D02*
X132749852Y-147381300D01*
X127588448Y-132230800D02*
X128110952Y-132230800D01*
X127588448Y-133700800D02*
X128110952Y-133700800D01*
X127588448Y-129690800D02*
X128110952Y-129690800D01*
X127588448Y-131160800D02*
X128110952Y-131160800D01*
X80000348Y-140292600D02*
X80522852Y-140292600D01*
X80000348Y-141762600D02*
X80522852Y-141762600D01*
X85828948Y-143268900D02*
X86351452Y-143268900D01*
X85828948Y-141798900D02*
X86351452Y-141798900D01*
X85828948Y-139258900D02*
X86351452Y-139258900D01*
X85828948Y-140728900D02*
X86351452Y-140728900D01*
X123914448Y-146332900D02*
X124436952Y-146332900D01*
X123914448Y-144862900D02*
X124436952Y-144862900D01*
X132307348Y-144743000D02*
X132829852Y-144743000D01*
X132307348Y-146213000D02*
X132829852Y-146213000D01*
X139747000Y-142200000D02*
G75*
G03*
X139747000Y-142200000I-2620000J0D01*
G01*
X128148048Y-146213000D02*
X128670552Y-146213000D01*
X128148048Y-144743000D02*
X128670552Y-144743000D01*
X85760548Y-151675400D02*
X86283052Y-151675400D01*
X85760548Y-153145400D02*
X86283052Y-153145400D01*
X85803748Y-149320400D02*
X86326252Y-149320400D01*
X85803748Y-150790400D02*
X86326252Y-150790400D01*
X85742148Y-144438400D02*
X86264652Y-144438400D01*
X85742148Y-145908400D02*
X86264652Y-145908400D01*
%LPC*%
D15*
X76440000Y-144170000D03*
X78740000Y-144170000D03*
D16*
X78740000Y-150470000D03*
D15*
X81040000Y-144170000D03*
D17*
X109688200Y-153519800D03*
X109688200Y-152249800D03*
X109688200Y-150979800D03*
X109688200Y-149709800D03*
X109688200Y-148439800D03*
X109688200Y-147169800D03*
X109688200Y-145899800D03*
X109688200Y-144629800D03*
X109688200Y-143359800D03*
X109688200Y-142089800D03*
X109688200Y-140819800D03*
X109688200Y-139549800D03*
X109688200Y-138279800D03*
X109688200Y-137009800D03*
D18*
X106903200Y-136009800D03*
X105633200Y-136009800D03*
X104363200Y-136009800D03*
X103093200Y-136009800D03*
X101823200Y-136009800D03*
X100553200Y-136009800D03*
X99283200Y-136009800D03*
X98013200Y-136009800D03*
X96743200Y-136009800D03*
X95473200Y-136009800D03*
D17*
X92688200Y-137009800D03*
X92688200Y-138279800D03*
X92688200Y-139549800D03*
X92688200Y-140819800D03*
X92688200Y-142089800D03*
X92688200Y-143359800D03*
X92688200Y-144629800D03*
X92688200Y-145899800D03*
X92688200Y-147169800D03*
X92688200Y-148439800D03*
X92688200Y-149709800D03*
X92688200Y-150979800D03*
X92688200Y-152249800D03*
X92688200Y-153519800D03*
D19*
X102188200Y-146019800D03*
D20*
X137160000Y-135620000D03*
X137160000Y-133620000D03*
D21*
X84996600Y-131266900D03*
X86996600Y-131266900D03*
X119696000Y-136403700D03*
X121696000Y-136403700D03*
X85009400Y-134594800D03*
X87009400Y-134594800D03*
X85009400Y-137252500D03*
X87009400Y-137252500D03*
X85007100Y-147633200D03*
X87007100Y-147633200D03*
D22*
X138914696Y-130386600D03*
X106093500Y-95751800D03*
D23*
X70042500Y-140940000D03*
X70042500Y-141590000D03*
X70042500Y-142240000D03*
X70042500Y-142890000D03*
X70042500Y-143540000D03*
D24*
X67342500Y-141240000D03*
D25*
X67342500Y-145140000D03*
D26*
X67342500Y-145740000D03*
D27*
X70042500Y-139740000D03*
D26*
X67342500Y-138740000D03*
D25*
X67342500Y-139340000D03*
D27*
X70042500Y-144740000D03*
D24*
X67342500Y-143240000D03*
D28*
X115658600Y-152313700D03*
D29*
X118198600Y-152313700D03*
X120738600Y-152313700D03*
X123278600Y-152313700D03*
X125818600Y-152313700D03*
X128358600Y-152313700D03*
X130898600Y-152313700D03*
X133438600Y-152313700D03*
D30*
X76200000Y-132080000D03*
D31*
X78740000Y-132080000D03*
X81280000Y-132080000D03*
D32*
X133183500Y-136397000D03*
X131913500Y-136397000D03*
X130643500Y-136397000D03*
X129373500Y-136397000D03*
X128103500Y-136397000D03*
X126833500Y-136397000D03*
X125563500Y-136397000D03*
X124293500Y-136397000D03*
X124293500Y-141847000D03*
X125563500Y-141847000D03*
X126833500Y-141847000D03*
X128103500Y-141847000D03*
X129373500Y-141847000D03*
X130643500Y-141847000D03*
X131913500Y-141847000D03*
X133183500Y-141847000D03*
D33*
X133394700Y-130425800D03*
X135469700Y-130425800D03*
D34*
X133526100Y-148116300D03*
X131451100Y-148116300D03*
X126812200Y-132965800D03*
X128887200Y-132965800D03*
X126812200Y-130425800D03*
X128887200Y-130425800D03*
X79224100Y-141027600D03*
X81299100Y-141027600D03*
X87127700Y-142533900D03*
X85052700Y-142533900D03*
X85052700Y-139993900D03*
X87127700Y-139993900D03*
X125213200Y-145597900D03*
X123138200Y-145597900D03*
X131531100Y-145478000D03*
X133606100Y-145478000D03*
D35*
X138127000Y-142200000D03*
X136127000Y-142200000D03*
D34*
X129446800Y-145478000D03*
X127371800Y-145478000D03*
X84984300Y-152410400D03*
X87059300Y-152410400D03*
X85027500Y-150055400D03*
X87102500Y-150055400D03*
X84965900Y-145173400D03*
X87040900Y-145173400D03*
M02*
