%TF.GenerationSoftware,KiCad,Pcbnew,(6.0.7)*%
%TF.CreationDate,2022-10-01T10:06:27-06:00*%
%TF.ProjectId,attiny_rfid_light,61747469-6e79-45f7-9266-69645f6c6967,rev?*%
%TF.SameCoordinates,Original*%
%TF.FileFunction,Drillmap*%
%TF.FilePolarity,Positive*%
%FSLAX45Y45*%
G04 Gerber Fmt 4.5, Leading zero omitted, Abs format (unit mm)*
G04 Created by KiCad (PCBNEW (6.0.7)) date 2022-10-01 10:06:27*
%MOMM*%
%LPD*%
G01*
G04 APERTURE LIST*
%ADD10C,0.200000*%
%ADD11C,0.040000*%
%ADD12C,0.060000*%
%ADD13C,0.076200*%
%ADD14C,0.080000*%
%ADD15C,0.085000*%
%ADD16C,0.100000*%
%ADD17C,0.102000*%
G04 APERTURE END LIST*
D10*
X6604000Y-5588000D02*
X14200000Y-5588000D01*
X14200000Y-5588000D02*
X14200000Y-15494000D01*
X14200000Y-15494000D02*
X6604000Y-15494000D01*
X6604000Y-15494000D02*
X6604000Y-5588000D01*
D11*
X8699420Y-13238300D02*
X8739420Y-13278300D01*
X8739420Y-13238300D02*
X8699420Y-13278300D01*
X9052530Y-14207480D02*
X9092530Y-14247480D01*
X9092530Y-14207480D02*
X9052530Y-14247480D01*
X9539600Y-14238740D02*
X9579600Y-14278740D01*
X9579600Y-14238740D02*
X9539600Y-14278740D01*
X9672950Y-14255800D02*
X9712950Y-14295800D01*
X9712950Y-14255800D02*
X9672950Y-14295800D01*
X9842930Y-13855160D02*
X9882930Y-13895160D01*
X9882930Y-13855160D02*
X9842930Y-13895160D01*
X9981560Y-14049770D02*
X10021560Y-14089770D01*
X10021560Y-14049770D02*
X9981560Y-14089770D01*
X9983370Y-14177800D02*
X10023370Y-14217800D01*
X10023370Y-14177800D02*
X9983370Y-14217800D01*
X10717930Y-13802170D02*
X10757930Y-13842170D01*
X10757930Y-13802170D02*
X10717930Y-13842170D01*
X13760580Y-13197350D02*
X13800580Y-13237350D01*
X13800580Y-13197350D02*
X13760580Y-13237350D01*
D12*
X6764250Y-13874000D02*
G75*
G03*
X6764250Y-13874000I-30000J0D01*
G01*
D10*
X6699250Y-13904000D02*
X6769250Y-13904000D01*
X6699250Y-13844000D02*
X6769250Y-13844000D01*
X6769250Y-13904000D02*
G75*
G03*
X6769250Y-13844000I0J30000D01*
G01*
X6699250Y-13844000D02*
G75*
G03*
X6699250Y-13904000I0J-30000D01*
G01*
D12*
X6764250Y-14574000D02*
G75*
G03*
X6764250Y-14574000I-30000J0D01*
G01*
D10*
X6769250Y-14544000D02*
X6699250Y-14544000D01*
X6769250Y-14604000D02*
X6699250Y-14604000D01*
X6699250Y-14544000D02*
G75*
G03*
X6699250Y-14604000I0J-30000D01*
G01*
X6769250Y-14604000D02*
G75*
G03*
X6769250Y-14544000I0J30000D01*
G01*
D13*
X10609350Y-9537080D02*
X10609350Y-9613280D01*
X10571250Y-9575180D02*
X10647450Y-9575180D01*
D14*
X13640984Y-14248284D02*
X13640984Y-14191715D01*
X13584415Y-14191715D01*
X13584415Y-14248284D01*
X13640984Y-14248284D01*
X13840984Y-14248284D02*
X13840984Y-14191715D01*
X13784415Y-14191715D01*
X13784415Y-14248284D01*
X13840984Y-14248284D01*
D15*
X7004250Y-14016500D02*
X7046750Y-13974000D01*
X7004250Y-13931500D01*
X6961750Y-13974000D01*
X7004250Y-14016500D01*
X7004250Y-14516500D02*
X7046750Y-14474000D01*
X7004250Y-14431500D01*
X6961750Y-14474000D01*
X7004250Y-14516500D01*
D16*
X11515860Y-15181370D02*
X11615860Y-15281370D01*
X11615860Y-15181370D02*
X11515860Y-15281370D01*
X11615860Y-15231370D02*
G75*
G03*
X11615860Y-15231370I-50000J0D01*
G01*
X11769860Y-15181370D02*
X11869860Y-15281370D01*
X11869860Y-15181370D02*
X11769860Y-15281370D01*
X11869860Y-15231370D02*
G75*
G03*
X11869860Y-15231370I-50000J0D01*
G01*
X12023860Y-15181370D02*
X12123860Y-15281370D01*
X12123860Y-15181370D02*
X12023860Y-15281370D01*
X12123860Y-15231370D02*
G75*
G03*
X12123860Y-15231370I-50000J0D01*
G01*
X12277860Y-15181370D02*
X12377860Y-15281370D01*
X12377860Y-15181370D02*
X12277860Y-15281370D01*
X12377860Y-15231370D02*
G75*
G03*
X12377860Y-15231370I-50000J0D01*
G01*
X12531860Y-15181370D02*
X12631860Y-15281370D01*
X12631860Y-15181370D02*
X12531860Y-15281370D01*
X12631860Y-15231370D02*
G75*
G03*
X12631860Y-15231370I-50000J0D01*
G01*
X12785860Y-15181370D02*
X12885860Y-15281370D01*
X12885860Y-15181370D02*
X12785860Y-15281370D01*
X12885860Y-15231370D02*
G75*
G03*
X12885860Y-15231370I-50000J0D01*
G01*
X13039860Y-15181370D02*
X13139860Y-15281370D01*
X13139860Y-15181370D02*
X13039860Y-15281370D01*
X13139860Y-15231370D02*
G75*
G03*
X13139860Y-15231370I-50000J0D01*
G01*
X13293860Y-15181370D02*
X13393860Y-15281370D01*
X13393860Y-15181370D02*
X13293860Y-15281370D01*
X13393860Y-15231370D02*
G75*
G03*
X13393860Y-15231370I-50000J0D01*
G01*
D17*
X7569000Y-13157000D02*
X7671000Y-13259000D01*
X7671000Y-13157000D02*
X7569000Y-13259000D01*
X7620000Y-13157000D02*
X7620000Y-13259000D01*
X7569000Y-13208000D02*
X7671000Y-13208000D01*
X7823000Y-13157000D02*
X7925000Y-13259000D01*
X7925000Y-13157000D02*
X7823000Y-13259000D01*
X7874000Y-13157000D02*
X7874000Y-13259000D01*
X7823000Y-13208000D02*
X7925000Y-13208000D01*
X8077000Y-13157000D02*
X8179000Y-13259000D01*
X8179000Y-13157000D02*
X8077000Y-13259000D01*
X8128000Y-13157000D02*
X8128000Y-13259000D01*
X8077000Y-13208000D02*
X8179000Y-13208000D01*
D10*
X6851619Y-15814476D02*
X6851619Y-15614476D01*
X6899238Y-15614476D01*
X6927809Y-15624000D01*
X6946857Y-15643048D01*
X6956381Y-15662095D01*
X6965905Y-15700190D01*
X6965905Y-15728762D01*
X6956381Y-15766857D01*
X6946857Y-15785905D01*
X6927809Y-15804952D01*
X6899238Y-15814476D01*
X6851619Y-15814476D01*
X7051619Y-15814476D02*
X7051619Y-15681143D01*
X7051619Y-15719238D02*
X7061143Y-15700190D01*
X7070667Y-15690667D01*
X7089714Y-15681143D01*
X7108762Y-15681143D01*
X7175428Y-15814476D02*
X7175428Y-15681143D01*
X7175428Y-15614476D02*
X7165905Y-15624000D01*
X7175428Y-15633524D01*
X7184952Y-15624000D01*
X7175428Y-15614476D01*
X7175428Y-15633524D01*
X7299238Y-15814476D02*
X7280190Y-15804952D01*
X7270667Y-15785905D01*
X7270667Y-15614476D01*
X7404000Y-15814476D02*
X7384952Y-15804952D01*
X7375428Y-15785905D01*
X7375428Y-15614476D01*
X7632571Y-15814476D02*
X7632571Y-15614476D01*
X7699238Y-15757333D01*
X7765905Y-15614476D01*
X7765905Y-15814476D01*
X7946857Y-15814476D02*
X7946857Y-15709714D01*
X7937333Y-15690667D01*
X7918286Y-15681143D01*
X7880190Y-15681143D01*
X7861143Y-15690667D01*
X7946857Y-15804952D02*
X7927809Y-15814476D01*
X7880190Y-15814476D01*
X7861143Y-15804952D01*
X7851619Y-15785905D01*
X7851619Y-15766857D01*
X7861143Y-15747809D01*
X7880190Y-15738286D01*
X7927809Y-15738286D01*
X7946857Y-15728762D01*
X8042095Y-15681143D02*
X8042095Y-15881143D01*
X8042095Y-15690667D02*
X8061143Y-15681143D01*
X8099238Y-15681143D01*
X8118286Y-15690667D01*
X8127809Y-15700190D01*
X8137333Y-15719238D01*
X8137333Y-15776381D01*
X8127809Y-15795428D01*
X8118286Y-15804952D01*
X8099238Y-15814476D01*
X8061143Y-15814476D01*
X8042095Y-15804952D01*
X8223048Y-15795428D02*
X8232571Y-15804952D01*
X8223048Y-15814476D01*
X8213524Y-15804952D01*
X8223048Y-15795428D01*
X8223048Y-15814476D01*
X8223048Y-15690667D02*
X8232571Y-15700190D01*
X8223048Y-15709714D01*
X8213524Y-15700190D01*
X8223048Y-15690667D01*
X8223048Y-15709714D01*
D11*
X6554000Y-16124000D02*
X6594000Y-16164000D01*
X6594000Y-16124000D02*
X6554000Y-16164000D01*
D10*
X6889714Y-16034476D02*
X6908762Y-16034476D01*
X6927809Y-16044000D01*
X6937333Y-16053524D01*
X6946857Y-16072571D01*
X6956381Y-16110667D01*
X6956381Y-16158286D01*
X6946857Y-16196381D01*
X6937333Y-16215428D01*
X6927809Y-16224952D01*
X6908762Y-16234476D01*
X6889714Y-16234476D01*
X6870667Y-16224952D01*
X6861143Y-16215428D01*
X6851619Y-16196381D01*
X6842095Y-16158286D01*
X6842095Y-16110667D01*
X6851619Y-16072571D01*
X6861143Y-16053524D01*
X6870667Y-16044000D01*
X6889714Y-16034476D01*
X7042095Y-16215428D02*
X7051619Y-16224952D01*
X7042095Y-16234476D01*
X7032571Y-16224952D01*
X7042095Y-16215428D01*
X7042095Y-16234476D01*
X7223048Y-16101143D02*
X7223048Y-16234476D01*
X7175428Y-16024952D02*
X7127809Y-16167809D01*
X7251619Y-16167809D01*
X7365905Y-16034476D02*
X7384952Y-16034476D01*
X7404000Y-16044000D01*
X7413524Y-16053524D01*
X7423048Y-16072571D01*
X7432571Y-16110667D01*
X7432571Y-16158286D01*
X7423048Y-16196381D01*
X7413524Y-16215428D01*
X7404000Y-16224952D01*
X7384952Y-16234476D01*
X7365905Y-16234476D01*
X7346857Y-16224952D01*
X7337333Y-16215428D01*
X7327809Y-16196381D01*
X7318286Y-16158286D01*
X7318286Y-16110667D01*
X7327809Y-16072571D01*
X7337333Y-16053524D01*
X7346857Y-16044000D01*
X7365905Y-16034476D01*
X7556381Y-16034476D02*
X7575428Y-16034476D01*
X7594476Y-16044000D01*
X7604000Y-16053524D01*
X7613524Y-16072571D01*
X7623048Y-16110667D01*
X7623048Y-16158286D01*
X7613524Y-16196381D01*
X7604000Y-16215428D01*
X7594476Y-16224952D01*
X7575428Y-16234476D01*
X7556381Y-16234476D01*
X7537333Y-16224952D01*
X7527809Y-16215428D01*
X7518286Y-16196381D01*
X7508762Y-16158286D01*
X7508762Y-16110667D01*
X7518286Y-16072571D01*
X7527809Y-16053524D01*
X7537333Y-16044000D01*
X7556381Y-16034476D01*
X7708762Y-16234476D02*
X7708762Y-16101143D01*
X7708762Y-16120190D02*
X7718286Y-16110667D01*
X7737333Y-16101143D01*
X7765905Y-16101143D01*
X7784952Y-16110667D01*
X7794476Y-16129714D01*
X7794476Y-16234476D01*
X7794476Y-16129714D02*
X7804000Y-16110667D01*
X7823048Y-16101143D01*
X7851619Y-16101143D01*
X7870667Y-16110667D01*
X7880190Y-16129714D01*
X7880190Y-16234476D01*
X7975428Y-16234476D02*
X7975428Y-16101143D01*
X7975428Y-16120190D02*
X7984952Y-16110667D01*
X8004000Y-16101143D01*
X8032571Y-16101143D01*
X8051619Y-16110667D01*
X8061143Y-16129714D01*
X8061143Y-16234476D01*
X8061143Y-16129714D02*
X8070667Y-16110667D01*
X8089714Y-16101143D01*
X8118286Y-16101143D01*
X8137333Y-16110667D01*
X8146857Y-16129714D01*
X8146857Y-16234476D01*
X8537333Y-16024952D02*
X8365905Y-16282095D01*
X8794476Y-16034476D02*
X8813524Y-16034476D01*
X8832571Y-16044000D01*
X8842095Y-16053524D01*
X8851619Y-16072571D01*
X8861143Y-16110667D01*
X8861143Y-16158286D01*
X8851619Y-16196381D01*
X8842095Y-16215428D01*
X8832571Y-16224952D01*
X8813524Y-16234476D01*
X8794476Y-16234476D01*
X8775429Y-16224952D01*
X8765905Y-16215428D01*
X8756381Y-16196381D01*
X8746857Y-16158286D01*
X8746857Y-16110667D01*
X8756381Y-16072571D01*
X8765905Y-16053524D01*
X8775429Y-16044000D01*
X8794476Y-16034476D01*
X8946857Y-16215428D02*
X8956381Y-16224952D01*
X8946857Y-16234476D01*
X8937333Y-16224952D01*
X8946857Y-16215428D01*
X8946857Y-16234476D01*
X9080190Y-16034476D02*
X9099238Y-16034476D01*
X9118286Y-16044000D01*
X9127810Y-16053524D01*
X9137333Y-16072571D01*
X9146857Y-16110667D01*
X9146857Y-16158286D01*
X9137333Y-16196381D01*
X9127810Y-16215428D01*
X9118286Y-16224952D01*
X9099238Y-16234476D01*
X9080190Y-16234476D01*
X9061143Y-16224952D01*
X9051619Y-16215428D01*
X9042095Y-16196381D01*
X9032571Y-16158286D01*
X9032571Y-16110667D01*
X9042095Y-16072571D01*
X9051619Y-16053524D01*
X9061143Y-16044000D01*
X9080190Y-16034476D01*
X9337333Y-16234476D02*
X9223048Y-16234476D01*
X9280190Y-16234476D02*
X9280190Y-16034476D01*
X9261143Y-16063048D01*
X9242095Y-16082095D01*
X9223048Y-16091619D01*
X9518286Y-16034476D02*
X9423048Y-16034476D01*
X9413524Y-16129714D01*
X9423048Y-16120190D01*
X9442095Y-16110667D01*
X9489714Y-16110667D01*
X9508762Y-16120190D01*
X9518286Y-16129714D01*
X9527810Y-16148762D01*
X9527810Y-16196381D01*
X9518286Y-16215428D01*
X9508762Y-16224952D01*
X9489714Y-16234476D01*
X9442095Y-16234476D01*
X9423048Y-16224952D01*
X9413524Y-16215428D01*
X9594476Y-16034476D02*
X9727810Y-16034476D01*
X9642095Y-16234476D01*
X9794476Y-16034476D02*
X9794476Y-16072571D01*
X9870667Y-16034476D02*
X9870667Y-16072571D01*
X10165905Y-16310667D02*
X10156381Y-16301143D01*
X10137333Y-16272571D01*
X10127810Y-16253524D01*
X10118286Y-16224952D01*
X10108762Y-16177333D01*
X10108762Y-16139238D01*
X10118286Y-16091619D01*
X10127810Y-16063048D01*
X10137333Y-16044000D01*
X10156381Y-16015428D01*
X10165905Y-16005905D01*
X10251619Y-16234476D02*
X10289714Y-16234476D01*
X10308762Y-16224952D01*
X10318286Y-16215428D01*
X10337333Y-16186857D01*
X10346857Y-16148762D01*
X10346857Y-16072571D01*
X10337333Y-16053524D01*
X10327810Y-16044000D01*
X10308762Y-16034476D01*
X10270667Y-16034476D01*
X10251619Y-16044000D01*
X10242095Y-16053524D01*
X10232571Y-16072571D01*
X10232571Y-16120190D01*
X10242095Y-16139238D01*
X10251619Y-16148762D01*
X10270667Y-16158286D01*
X10308762Y-16158286D01*
X10327810Y-16148762D01*
X10337333Y-16139238D01*
X10346857Y-16120190D01*
X10584952Y-16234476D02*
X10584952Y-16034476D01*
X10670667Y-16234476D02*
X10670667Y-16129714D01*
X10661143Y-16110667D01*
X10642095Y-16101143D01*
X10613524Y-16101143D01*
X10594476Y-16110667D01*
X10584952Y-16120190D01*
X10794476Y-16234476D02*
X10775429Y-16224952D01*
X10765905Y-16215428D01*
X10756381Y-16196381D01*
X10756381Y-16139238D01*
X10765905Y-16120190D01*
X10775429Y-16110667D01*
X10794476Y-16101143D01*
X10823048Y-16101143D01*
X10842095Y-16110667D01*
X10851619Y-16120190D01*
X10861143Y-16139238D01*
X10861143Y-16196381D01*
X10851619Y-16215428D01*
X10842095Y-16224952D01*
X10823048Y-16234476D01*
X10794476Y-16234476D01*
X10975429Y-16234476D02*
X10956381Y-16224952D01*
X10946857Y-16205905D01*
X10946857Y-16034476D01*
X11127810Y-16224952D02*
X11108762Y-16234476D01*
X11070667Y-16234476D01*
X11051619Y-16224952D01*
X11042095Y-16205905D01*
X11042095Y-16129714D01*
X11051619Y-16110667D01*
X11070667Y-16101143D01*
X11108762Y-16101143D01*
X11127810Y-16110667D01*
X11137333Y-16129714D01*
X11137333Y-16148762D01*
X11042095Y-16167809D01*
X11213524Y-16224952D02*
X11232571Y-16234476D01*
X11270667Y-16234476D01*
X11289714Y-16224952D01*
X11299238Y-16205905D01*
X11299238Y-16196381D01*
X11289714Y-16177333D01*
X11270667Y-16167809D01*
X11242095Y-16167809D01*
X11223048Y-16158286D01*
X11213524Y-16139238D01*
X11213524Y-16129714D01*
X11223048Y-16110667D01*
X11242095Y-16101143D01*
X11270667Y-16101143D01*
X11289714Y-16110667D01*
X11365905Y-16310667D02*
X11375428Y-16301143D01*
X11394476Y-16272571D01*
X11404000Y-16253524D01*
X11413524Y-16224952D01*
X11423048Y-16177333D01*
X11423048Y-16139238D01*
X11413524Y-16091619D01*
X11404000Y-16063048D01*
X11394476Y-16044000D01*
X11375428Y-16015428D01*
X11365905Y-16005905D01*
D12*
X6594000Y-16408000D02*
G75*
G03*
X6594000Y-16408000I-30000J0D01*
G01*
D10*
X6889714Y-16298476D02*
X6908762Y-16298476D01*
X6927809Y-16308000D01*
X6937333Y-16317524D01*
X6946857Y-16336571D01*
X6956381Y-16374667D01*
X6956381Y-16422286D01*
X6946857Y-16460381D01*
X6937333Y-16479428D01*
X6927809Y-16488952D01*
X6908762Y-16498476D01*
X6889714Y-16498476D01*
X6870667Y-16488952D01*
X6861143Y-16479428D01*
X6851619Y-16460381D01*
X6842095Y-16422286D01*
X6842095Y-16374667D01*
X6851619Y-16336571D01*
X6861143Y-16317524D01*
X6870667Y-16308000D01*
X6889714Y-16298476D01*
X7042095Y-16479428D02*
X7051619Y-16488952D01*
X7042095Y-16498476D01*
X7032571Y-16488952D01*
X7042095Y-16479428D01*
X7042095Y-16498476D01*
X7223048Y-16298476D02*
X7184952Y-16298476D01*
X7165905Y-16308000D01*
X7156381Y-16317524D01*
X7137333Y-16346095D01*
X7127809Y-16384190D01*
X7127809Y-16460381D01*
X7137333Y-16479428D01*
X7146857Y-16488952D01*
X7165905Y-16498476D01*
X7204000Y-16498476D01*
X7223048Y-16488952D01*
X7232571Y-16479428D01*
X7242095Y-16460381D01*
X7242095Y-16412762D01*
X7232571Y-16393714D01*
X7223048Y-16384190D01*
X7204000Y-16374667D01*
X7165905Y-16374667D01*
X7146857Y-16384190D01*
X7137333Y-16393714D01*
X7127809Y-16412762D01*
X7365905Y-16298476D02*
X7384952Y-16298476D01*
X7404000Y-16308000D01*
X7413524Y-16317524D01*
X7423048Y-16336571D01*
X7432571Y-16374667D01*
X7432571Y-16422286D01*
X7423048Y-16460381D01*
X7413524Y-16479428D01*
X7404000Y-16488952D01*
X7384952Y-16498476D01*
X7365905Y-16498476D01*
X7346857Y-16488952D01*
X7337333Y-16479428D01*
X7327809Y-16460381D01*
X7318286Y-16422286D01*
X7318286Y-16374667D01*
X7327809Y-16336571D01*
X7337333Y-16317524D01*
X7346857Y-16308000D01*
X7365905Y-16298476D01*
X7556381Y-16298476D02*
X7575428Y-16298476D01*
X7594476Y-16308000D01*
X7604000Y-16317524D01*
X7613524Y-16336571D01*
X7623048Y-16374667D01*
X7623048Y-16422286D01*
X7613524Y-16460381D01*
X7604000Y-16479428D01*
X7594476Y-16488952D01*
X7575428Y-16498476D01*
X7556381Y-16498476D01*
X7537333Y-16488952D01*
X7527809Y-16479428D01*
X7518286Y-16460381D01*
X7508762Y-16422286D01*
X7508762Y-16374667D01*
X7518286Y-16336571D01*
X7527809Y-16317524D01*
X7537333Y-16308000D01*
X7556381Y-16298476D01*
X7708762Y-16498476D02*
X7708762Y-16365143D01*
X7708762Y-16384190D02*
X7718286Y-16374667D01*
X7737333Y-16365143D01*
X7765905Y-16365143D01*
X7784952Y-16374667D01*
X7794476Y-16393714D01*
X7794476Y-16498476D01*
X7794476Y-16393714D02*
X7804000Y-16374667D01*
X7823048Y-16365143D01*
X7851619Y-16365143D01*
X7870667Y-16374667D01*
X7880190Y-16393714D01*
X7880190Y-16498476D01*
X7975428Y-16498476D02*
X7975428Y-16365143D01*
X7975428Y-16384190D02*
X7984952Y-16374667D01*
X8004000Y-16365143D01*
X8032571Y-16365143D01*
X8051619Y-16374667D01*
X8061143Y-16393714D01*
X8061143Y-16498476D01*
X8061143Y-16393714D02*
X8070667Y-16374667D01*
X8089714Y-16365143D01*
X8118286Y-16365143D01*
X8137333Y-16374667D01*
X8146857Y-16393714D01*
X8146857Y-16498476D01*
X8537333Y-16288952D02*
X8365905Y-16546095D01*
X8794476Y-16298476D02*
X8813524Y-16298476D01*
X8832571Y-16308000D01*
X8842095Y-16317524D01*
X8851619Y-16336571D01*
X8861143Y-16374667D01*
X8861143Y-16422286D01*
X8851619Y-16460381D01*
X8842095Y-16479428D01*
X8832571Y-16488952D01*
X8813524Y-16498476D01*
X8794476Y-16498476D01*
X8775429Y-16488952D01*
X8765905Y-16479428D01*
X8756381Y-16460381D01*
X8746857Y-16422286D01*
X8746857Y-16374667D01*
X8756381Y-16336571D01*
X8765905Y-16317524D01*
X8775429Y-16308000D01*
X8794476Y-16298476D01*
X8946857Y-16479428D02*
X8956381Y-16488952D01*
X8946857Y-16498476D01*
X8937333Y-16488952D01*
X8946857Y-16479428D01*
X8946857Y-16498476D01*
X9080190Y-16298476D02*
X9099238Y-16298476D01*
X9118286Y-16308000D01*
X9127810Y-16317524D01*
X9137333Y-16336571D01*
X9146857Y-16374667D01*
X9146857Y-16422286D01*
X9137333Y-16460381D01*
X9127810Y-16479428D01*
X9118286Y-16488952D01*
X9099238Y-16498476D01*
X9080190Y-16498476D01*
X9061143Y-16488952D01*
X9051619Y-16479428D01*
X9042095Y-16460381D01*
X9032571Y-16422286D01*
X9032571Y-16374667D01*
X9042095Y-16336571D01*
X9051619Y-16317524D01*
X9061143Y-16308000D01*
X9080190Y-16298476D01*
X9223048Y-16317524D02*
X9232571Y-16308000D01*
X9251619Y-16298476D01*
X9299238Y-16298476D01*
X9318286Y-16308000D01*
X9327810Y-16317524D01*
X9337333Y-16336571D01*
X9337333Y-16355619D01*
X9327810Y-16384190D01*
X9213524Y-16498476D01*
X9337333Y-16498476D01*
X9404000Y-16298476D02*
X9527810Y-16298476D01*
X9461143Y-16374667D01*
X9489714Y-16374667D01*
X9508762Y-16384190D01*
X9518286Y-16393714D01*
X9527810Y-16412762D01*
X9527810Y-16460381D01*
X9518286Y-16479428D01*
X9508762Y-16488952D01*
X9489714Y-16498476D01*
X9432571Y-16498476D01*
X9413524Y-16488952D01*
X9404000Y-16479428D01*
X9699238Y-16298476D02*
X9661143Y-16298476D01*
X9642095Y-16308000D01*
X9632571Y-16317524D01*
X9613524Y-16346095D01*
X9604000Y-16384190D01*
X9604000Y-16460381D01*
X9613524Y-16479428D01*
X9623048Y-16488952D01*
X9642095Y-16498476D01*
X9680190Y-16498476D01*
X9699238Y-16488952D01*
X9708762Y-16479428D01*
X9718286Y-16460381D01*
X9718286Y-16412762D01*
X9708762Y-16393714D01*
X9699238Y-16384190D01*
X9680190Y-16374667D01*
X9642095Y-16374667D01*
X9623048Y-16384190D01*
X9613524Y-16393714D01*
X9604000Y-16412762D01*
X9794476Y-16298476D02*
X9794476Y-16336571D01*
X9870667Y-16298476D02*
X9870667Y-16336571D01*
X10165905Y-16574667D02*
X10156381Y-16565143D01*
X10137333Y-16536571D01*
X10127810Y-16517524D01*
X10118286Y-16488952D01*
X10108762Y-16441333D01*
X10108762Y-16403238D01*
X10118286Y-16355619D01*
X10127810Y-16327048D01*
X10137333Y-16308000D01*
X10156381Y-16279428D01*
X10165905Y-16269905D01*
X10280190Y-16298476D02*
X10299238Y-16298476D01*
X10318286Y-16308000D01*
X10327810Y-16317524D01*
X10337333Y-16336571D01*
X10346857Y-16374667D01*
X10346857Y-16422286D01*
X10337333Y-16460381D01*
X10327810Y-16479428D01*
X10318286Y-16488952D01*
X10299238Y-16498476D01*
X10280190Y-16498476D01*
X10261143Y-16488952D01*
X10251619Y-16479428D01*
X10242095Y-16460381D01*
X10232571Y-16422286D01*
X10232571Y-16374667D01*
X10242095Y-16336571D01*
X10251619Y-16317524D01*
X10261143Y-16308000D01*
X10280190Y-16298476D01*
X10584952Y-16498476D02*
X10584952Y-16298476D01*
X10670667Y-16498476D02*
X10670667Y-16393714D01*
X10661143Y-16374667D01*
X10642095Y-16365143D01*
X10613524Y-16365143D01*
X10594476Y-16374667D01*
X10584952Y-16384190D01*
X10794476Y-16498476D02*
X10775429Y-16488952D01*
X10765905Y-16479428D01*
X10756381Y-16460381D01*
X10756381Y-16403238D01*
X10765905Y-16384190D01*
X10775429Y-16374667D01*
X10794476Y-16365143D01*
X10823048Y-16365143D01*
X10842095Y-16374667D01*
X10851619Y-16384190D01*
X10861143Y-16403238D01*
X10861143Y-16460381D01*
X10851619Y-16479428D01*
X10842095Y-16488952D01*
X10823048Y-16498476D01*
X10794476Y-16498476D01*
X10975429Y-16498476D02*
X10956381Y-16488952D01*
X10946857Y-16469905D01*
X10946857Y-16298476D01*
X11127810Y-16488952D02*
X11108762Y-16498476D01*
X11070667Y-16498476D01*
X11051619Y-16488952D01*
X11042095Y-16469905D01*
X11042095Y-16393714D01*
X11051619Y-16374667D01*
X11070667Y-16365143D01*
X11108762Y-16365143D01*
X11127810Y-16374667D01*
X11137333Y-16393714D01*
X11137333Y-16412762D01*
X11042095Y-16431809D01*
X11213524Y-16488952D02*
X11232571Y-16498476D01*
X11270667Y-16498476D01*
X11289714Y-16488952D01*
X11299238Y-16469905D01*
X11299238Y-16460381D01*
X11289714Y-16441333D01*
X11270667Y-16431809D01*
X11242095Y-16431809D01*
X11223048Y-16422286D01*
X11213524Y-16403238D01*
X11213524Y-16393714D01*
X11223048Y-16374667D01*
X11242095Y-16365143D01*
X11270667Y-16365143D01*
X11289714Y-16374667D01*
X11537333Y-16422286D02*
X11689714Y-16422286D01*
X11613524Y-16498476D02*
X11613524Y-16346095D01*
X11927809Y-16317524D02*
X11937333Y-16308000D01*
X11956381Y-16298476D01*
X12004000Y-16298476D01*
X12023048Y-16308000D01*
X12032571Y-16317524D01*
X12042095Y-16336571D01*
X12042095Y-16355619D01*
X12032571Y-16384190D01*
X11918286Y-16498476D01*
X12042095Y-16498476D01*
X12270667Y-16488952D02*
X12289714Y-16498476D01*
X12327809Y-16498476D01*
X12346857Y-16488952D01*
X12356381Y-16469905D01*
X12356381Y-16460381D01*
X12346857Y-16441333D01*
X12327809Y-16431809D01*
X12299238Y-16431809D01*
X12280190Y-16422286D01*
X12270667Y-16403238D01*
X12270667Y-16393714D01*
X12280190Y-16374667D01*
X12299238Y-16365143D01*
X12327809Y-16365143D01*
X12346857Y-16374667D01*
X12470667Y-16498476D02*
X12451619Y-16488952D01*
X12442095Y-16469905D01*
X12442095Y-16298476D01*
X12575428Y-16498476D02*
X12556381Y-16488952D01*
X12546857Y-16479428D01*
X12537333Y-16460381D01*
X12537333Y-16403238D01*
X12546857Y-16384190D01*
X12556381Y-16374667D01*
X12575428Y-16365143D01*
X12604000Y-16365143D01*
X12623048Y-16374667D01*
X12632571Y-16384190D01*
X12642095Y-16403238D01*
X12642095Y-16460381D01*
X12632571Y-16479428D01*
X12623048Y-16488952D01*
X12604000Y-16498476D01*
X12575428Y-16498476D01*
X12699238Y-16365143D02*
X12775428Y-16365143D01*
X12727809Y-16298476D02*
X12727809Y-16469905D01*
X12737333Y-16488952D01*
X12756381Y-16498476D01*
X12775428Y-16498476D01*
X12832571Y-16488952D02*
X12851619Y-16498476D01*
X12889714Y-16498476D01*
X12908762Y-16488952D01*
X12918286Y-16469905D01*
X12918286Y-16460381D01*
X12908762Y-16441333D01*
X12889714Y-16431809D01*
X12861143Y-16431809D01*
X12842095Y-16422286D01*
X12832571Y-16403238D01*
X12832571Y-16393714D01*
X12842095Y-16374667D01*
X12861143Y-16365143D01*
X12889714Y-16365143D01*
X12908762Y-16374667D01*
X12984952Y-16574667D02*
X12994476Y-16565143D01*
X13013524Y-16536571D01*
X13023048Y-16517524D01*
X13032571Y-16488952D01*
X13042095Y-16441333D01*
X13042095Y-16403238D01*
X13032571Y-16355619D01*
X13023048Y-16327048D01*
X13013524Y-16308000D01*
X12994476Y-16279428D01*
X12984952Y-16269905D01*
D13*
X6555900Y-16633900D02*
X6555900Y-16710100D01*
X6517800Y-16672000D02*
X6594000Y-16672000D01*
D10*
X6889714Y-16562476D02*
X6908762Y-16562476D01*
X6927809Y-16572000D01*
X6937333Y-16581524D01*
X6946857Y-16600571D01*
X6956381Y-16638667D01*
X6956381Y-16686286D01*
X6946857Y-16724381D01*
X6937333Y-16743428D01*
X6927809Y-16752952D01*
X6908762Y-16762476D01*
X6889714Y-16762476D01*
X6870667Y-16752952D01*
X6861143Y-16743428D01*
X6851619Y-16724381D01*
X6842095Y-16686286D01*
X6842095Y-16638667D01*
X6851619Y-16600571D01*
X6861143Y-16581524D01*
X6870667Y-16572000D01*
X6889714Y-16562476D01*
X7042095Y-16743428D02*
X7051619Y-16752952D01*
X7042095Y-16762476D01*
X7032571Y-16752952D01*
X7042095Y-16743428D01*
X7042095Y-16762476D01*
X7118286Y-16562476D02*
X7251619Y-16562476D01*
X7165905Y-16762476D01*
X7413524Y-16562476D02*
X7375428Y-16562476D01*
X7356381Y-16572000D01*
X7346857Y-16581524D01*
X7327809Y-16610095D01*
X7318286Y-16648190D01*
X7318286Y-16724381D01*
X7327809Y-16743428D01*
X7337333Y-16752952D01*
X7356381Y-16762476D01*
X7394476Y-16762476D01*
X7413524Y-16752952D01*
X7423048Y-16743428D01*
X7432571Y-16724381D01*
X7432571Y-16676762D01*
X7423048Y-16657714D01*
X7413524Y-16648190D01*
X7394476Y-16638667D01*
X7356381Y-16638667D01*
X7337333Y-16648190D01*
X7327809Y-16657714D01*
X7318286Y-16676762D01*
X7508762Y-16581524D02*
X7518286Y-16572000D01*
X7537333Y-16562476D01*
X7584952Y-16562476D01*
X7604000Y-16572000D01*
X7613524Y-16581524D01*
X7623048Y-16600571D01*
X7623048Y-16619619D01*
X7613524Y-16648190D01*
X7499238Y-16762476D01*
X7623048Y-16762476D01*
X7708762Y-16762476D02*
X7708762Y-16629143D01*
X7708762Y-16648190D02*
X7718286Y-16638667D01*
X7737333Y-16629143D01*
X7765905Y-16629143D01*
X7784952Y-16638667D01*
X7794476Y-16657714D01*
X7794476Y-16762476D01*
X7794476Y-16657714D02*
X7804000Y-16638667D01*
X7823048Y-16629143D01*
X7851619Y-16629143D01*
X7870667Y-16638667D01*
X7880190Y-16657714D01*
X7880190Y-16762476D01*
X7975428Y-16762476D02*
X7975428Y-16629143D01*
X7975428Y-16648190D02*
X7984952Y-16638667D01*
X8004000Y-16629143D01*
X8032571Y-16629143D01*
X8051619Y-16638667D01*
X8061143Y-16657714D01*
X8061143Y-16762476D01*
X8061143Y-16657714D02*
X8070667Y-16638667D01*
X8089714Y-16629143D01*
X8118286Y-16629143D01*
X8137333Y-16638667D01*
X8146857Y-16657714D01*
X8146857Y-16762476D01*
X8537333Y-16552952D02*
X8365905Y-16810095D01*
X8794476Y-16562476D02*
X8813524Y-16562476D01*
X8832571Y-16572000D01*
X8842095Y-16581524D01*
X8851619Y-16600571D01*
X8861143Y-16638667D01*
X8861143Y-16686286D01*
X8851619Y-16724381D01*
X8842095Y-16743428D01*
X8832571Y-16752952D01*
X8813524Y-16762476D01*
X8794476Y-16762476D01*
X8775429Y-16752952D01*
X8765905Y-16743428D01*
X8756381Y-16724381D01*
X8746857Y-16686286D01*
X8746857Y-16638667D01*
X8756381Y-16600571D01*
X8765905Y-16581524D01*
X8775429Y-16572000D01*
X8794476Y-16562476D01*
X8946857Y-16743428D02*
X8956381Y-16752952D01*
X8946857Y-16762476D01*
X8937333Y-16752952D01*
X8946857Y-16743428D01*
X8946857Y-16762476D01*
X9080190Y-16562476D02*
X9099238Y-16562476D01*
X9118286Y-16572000D01*
X9127810Y-16581524D01*
X9137333Y-16600571D01*
X9146857Y-16638667D01*
X9146857Y-16686286D01*
X9137333Y-16724381D01*
X9127810Y-16743428D01*
X9118286Y-16752952D01*
X9099238Y-16762476D01*
X9080190Y-16762476D01*
X9061143Y-16752952D01*
X9051619Y-16743428D01*
X9042095Y-16724381D01*
X9032571Y-16686286D01*
X9032571Y-16638667D01*
X9042095Y-16600571D01*
X9051619Y-16581524D01*
X9061143Y-16572000D01*
X9080190Y-16562476D01*
X9213524Y-16562476D02*
X9337333Y-16562476D01*
X9270667Y-16638667D01*
X9299238Y-16638667D01*
X9318286Y-16648190D01*
X9327810Y-16657714D01*
X9337333Y-16676762D01*
X9337333Y-16724381D01*
X9327810Y-16743428D01*
X9318286Y-16752952D01*
X9299238Y-16762476D01*
X9242095Y-16762476D01*
X9223048Y-16752952D01*
X9213524Y-16743428D01*
X9461143Y-16562476D02*
X9480190Y-16562476D01*
X9499238Y-16572000D01*
X9508762Y-16581524D01*
X9518286Y-16600571D01*
X9527810Y-16638667D01*
X9527810Y-16686286D01*
X9518286Y-16724381D01*
X9508762Y-16743428D01*
X9499238Y-16752952D01*
X9480190Y-16762476D01*
X9461143Y-16762476D01*
X9442095Y-16752952D01*
X9432571Y-16743428D01*
X9423048Y-16724381D01*
X9413524Y-16686286D01*
X9413524Y-16638667D01*
X9423048Y-16600571D01*
X9432571Y-16581524D01*
X9442095Y-16572000D01*
X9461143Y-16562476D01*
X9651619Y-16562476D02*
X9670667Y-16562476D01*
X9689714Y-16572000D01*
X9699238Y-16581524D01*
X9708762Y-16600571D01*
X9718286Y-16638667D01*
X9718286Y-16686286D01*
X9708762Y-16724381D01*
X9699238Y-16743428D01*
X9689714Y-16752952D01*
X9670667Y-16762476D01*
X9651619Y-16762476D01*
X9632571Y-16752952D01*
X9623048Y-16743428D01*
X9613524Y-16724381D01*
X9604000Y-16686286D01*
X9604000Y-16638667D01*
X9613524Y-16600571D01*
X9623048Y-16581524D01*
X9632571Y-16572000D01*
X9651619Y-16562476D01*
X9794476Y-16562476D02*
X9794476Y-16600571D01*
X9870667Y-16562476D02*
X9870667Y-16600571D01*
X10165905Y-16838667D02*
X10156381Y-16829143D01*
X10137333Y-16800571D01*
X10127810Y-16781524D01*
X10118286Y-16752952D01*
X10108762Y-16705333D01*
X10108762Y-16667238D01*
X10118286Y-16619619D01*
X10127810Y-16591048D01*
X10137333Y-16572000D01*
X10156381Y-16543428D01*
X10165905Y-16533905D01*
X10346857Y-16762476D02*
X10232571Y-16762476D01*
X10289714Y-16762476D02*
X10289714Y-16562476D01*
X10270667Y-16591048D01*
X10251619Y-16610095D01*
X10232571Y-16619619D01*
X10584952Y-16762476D02*
X10584952Y-16562476D01*
X10670667Y-16762476D02*
X10670667Y-16657714D01*
X10661143Y-16638667D01*
X10642095Y-16629143D01*
X10613524Y-16629143D01*
X10594476Y-16638667D01*
X10584952Y-16648190D01*
X10794476Y-16762476D02*
X10775429Y-16752952D01*
X10765905Y-16743428D01*
X10756381Y-16724381D01*
X10756381Y-16667238D01*
X10765905Y-16648190D01*
X10775429Y-16638667D01*
X10794476Y-16629143D01*
X10823048Y-16629143D01*
X10842095Y-16638667D01*
X10851619Y-16648190D01*
X10861143Y-16667238D01*
X10861143Y-16724381D01*
X10851619Y-16743428D01*
X10842095Y-16752952D01*
X10823048Y-16762476D01*
X10794476Y-16762476D01*
X10975429Y-16762476D02*
X10956381Y-16752952D01*
X10946857Y-16733905D01*
X10946857Y-16562476D01*
X11127810Y-16752952D02*
X11108762Y-16762476D01*
X11070667Y-16762476D01*
X11051619Y-16752952D01*
X11042095Y-16733905D01*
X11042095Y-16657714D01*
X11051619Y-16638667D01*
X11070667Y-16629143D01*
X11108762Y-16629143D01*
X11127810Y-16638667D01*
X11137333Y-16657714D01*
X11137333Y-16676762D01*
X11042095Y-16695809D01*
X11204000Y-16838667D02*
X11213524Y-16829143D01*
X11232571Y-16800571D01*
X11242095Y-16781524D01*
X11251619Y-16752952D01*
X11261143Y-16705333D01*
X11261143Y-16667238D01*
X11251619Y-16619619D01*
X11242095Y-16591048D01*
X11232571Y-16572000D01*
X11213524Y-16543428D01*
X11204000Y-16533905D01*
D14*
X6582284Y-16964285D02*
X6582284Y-16907716D01*
X6525715Y-16907716D01*
X6525715Y-16964285D01*
X6582284Y-16964285D01*
D10*
X6889714Y-16826476D02*
X6908762Y-16826476D01*
X6927809Y-16836000D01*
X6937333Y-16845524D01*
X6946857Y-16864571D01*
X6956381Y-16902667D01*
X6956381Y-16950286D01*
X6946857Y-16988381D01*
X6937333Y-17007429D01*
X6927809Y-17016952D01*
X6908762Y-17026476D01*
X6889714Y-17026476D01*
X6870667Y-17016952D01*
X6861143Y-17007429D01*
X6851619Y-16988381D01*
X6842095Y-16950286D01*
X6842095Y-16902667D01*
X6851619Y-16864571D01*
X6861143Y-16845524D01*
X6870667Y-16836000D01*
X6889714Y-16826476D01*
X7042095Y-17007429D02*
X7051619Y-17016952D01*
X7042095Y-17026476D01*
X7032571Y-17016952D01*
X7042095Y-17007429D01*
X7042095Y-17026476D01*
X7165905Y-16912190D02*
X7146857Y-16902667D01*
X7137333Y-16893143D01*
X7127809Y-16874095D01*
X7127809Y-16864571D01*
X7137333Y-16845524D01*
X7146857Y-16836000D01*
X7165905Y-16826476D01*
X7204000Y-16826476D01*
X7223048Y-16836000D01*
X7232571Y-16845524D01*
X7242095Y-16864571D01*
X7242095Y-16874095D01*
X7232571Y-16893143D01*
X7223048Y-16902667D01*
X7204000Y-16912190D01*
X7165905Y-16912190D01*
X7146857Y-16921714D01*
X7137333Y-16931238D01*
X7127809Y-16950286D01*
X7127809Y-16988381D01*
X7137333Y-17007429D01*
X7146857Y-17016952D01*
X7165905Y-17026476D01*
X7204000Y-17026476D01*
X7223048Y-17016952D01*
X7232571Y-17007429D01*
X7242095Y-16988381D01*
X7242095Y-16950286D01*
X7232571Y-16931238D01*
X7223048Y-16921714D01*
X7204000Y-16912190D01*
X7365905Y-16826476D02*
X7384952Y-16826476D01*
X7404000Y-16836000D01*
X7413524Y-16845524D01*
X7423048Y-16864571D01*
X7432571Y-16902667D01*
X7432571Y-16950286D01*
X7423048Y-16988381D01*
X7413524Y-17007429D01*
X7404000Y-17016952D01*
X7384952Y-17026476D01*
X7365905Y-17026476D01*
X7346857Y-17016952D01*
X7337333Y-17007429D01*
X7327809Y-16988381D01*
X7318286Y-16950286D01*
X7318286Y-16902667D01*
X7327809Y-16864571D01*
X7337333Y-16845524D01*
X7346857Y-16836000D01*
X7365905Y-16826476D01*
X7556381Y-16826476D02*
X7575428Y-16826476D01*
X7594476Y-16836000D01*
X7604000Y-16845524D01*
X7613524Y-16864571D01*
X7623048Y-16902667D01*
X7623048Y-16950286D01*
X7613524Y-16988381D01*
X7604000Y-17007429D01*
X7594476Y-17016952D01*
X7575428Y-17026476D01*
X7556381Y-17026476D01*
X7537333Y-17016952D01*
X7527809Y-17007429D01*
X7518286Y-16988381D01*
X7508762Y-16950286D01*
X7508762Y-16902667D01*
X7518286Y-16864571D01*
X7527809Y-16845524D01*
X7537333Y-16836000D01*
X7556381Y-16826476D01*
X7708762Y-17026476D02*
X7708762Y-16893143D01*
X7708762Y-16912190D02*
X7718286Y-16902667D01*
X7737333Y-16893143D01*
X7765905Y-16893143D01*
X7784952Y-16902667D01*
X7794476Y-16921714D01*
X7794476Y-17026476D01*
X7794476Y-16921714D02*
X7804000Y-16902667D01*
X7823048Y-16893143D01*
X7851619Y-16893143D01*
X7870667Y-16902667D01*
X7880190Y-16921714D01*
X7880190Y-17026476D01*
X7975428Y-17026476D02*
X7975428Y-16893143D01*
X7975428Y-16912190D02*
X7984952Y-16902667D01*
X8004000Y-16893143D01*
X8032571Y-16893143D01*
X8051619Y-16902667D01*
X8061143Y-16921714D01*
X8061143Y-17026476D01*
X8061143Y-16921714D02*
X8070667Y-16902667D01*
X8089714Y-16893143D01*
X8118286Y-16893143D01*
X8137333Y-16902667D01*
X8146857Y-16921714D01*
X8146857Y-17026476D01*
X8537333Y-16816952D02*
X8365905Y-17074095D01*
X8794476Y-16826476D02*
X8813524Y-16826476D01*
X8832571Y-16836000D01*
X8842095Y-16845524D01*
X8851619Y-16864571D01*
X8861143Y-16902667D01*
X8861143Y-16950286D01*
X8851619Y-16988381D01*
X8842095Y-17007429D01*
X8832571Y-17016952D01*
X8813524Y-17026476D01*
X8794476Y-17026476D01*
X8775429Y-17016952D01*
X8765905Y-17007429D01*
X8756381Y-16988381D01*
X8746857Y-16950286D01*
X8746857Y-16902667D01*
X8756381Y-16864571D01*
X8765905Y-16845524D01*
X8775429Y-16836000D01*
X8794476Y-16826476D01*
X8946857Y-17007429D02*
X8956381Y-17016952D01*
X8946857Y-17026476D01*
X8937333Y-17016952D01*
X8946857Y-17007429D01*
X8946857Y-17026476D01*
X9080190Y-16826476D02*
X9099238Y-16826476D01*
X9118286Y-16836000D01*
X9127810Y-16845524D01*
X9137333Y-16864571D01*
X9146857Y-16902667D01*
X9146857Y-16950286D01*
X9137333Y-16988381D01*
X9127810Y-17007429D01*
X9118286Y-17016952D01*
X9099238Y-17026476D01*
X9080190Y-17026476D01*
X9061143Y-17016952D01*
X9051619Y-17007429D01*
X9042095Y-16988381D01*
X9032571Y-16950286D01*
X9032571Y-16902667D01*
X9042095Y-16864571D01*
X9051619Y-16845524D01*
X9061143Y-16836000D01*
X9080190Y-16826476D01*
X9213524Y-16826476D02*
X9337333Y-16826476D01*
X9270667Y-16902667D01*
X9299238Y-16902667D01*
X9318286Y-16912190D01*
X9327810Y-16921714D01*
X9337333Y-16940762D01*
X9337333Y-16988381D01*
X9327810Y-17007429D01*
X9318286Y-17016952D01*
X9299238Y-17026476D01*
X9242095Y-17026476D01*
X9223048Y-17016952D01*
X9213524Y-17007429D01*
X9527810Y-17026476D02*
X9413524Y-17026476D01*
X9470667Y-17026476D02*
X9470667Y-16826476D01*
X9451619Y-16855048D01*
X9432571Y-16874095D01*
X9413524Y-16883619D01*
X9708762Y-16826476D02*
X9613524Y-16826476D01*
X9604000Y-16921714D01*
X9613524Y-16912190D01*
X9632571Y-16902667D01*
X9680190Y-16902667D01*
X9699238Y-16912190D01*
X9708762Y-16921714D01*
X9718286Y-16940762D01*
X9718286Y-16988381D01*
X9708762Y-17007429D01*
X9699238Y-17016952D01*
X9680190Y-17026476D01*
X9632571Y-17026476D01*
X9613524Y-17016952D01*
X9604000Y-17007429D01*
X9794476Y-16826476D02*
X9794476Y-16864571D01*
X9870667Y-16826476D02*
X9870667Y-16864571D01*
X10165905Y-17102667D02*
X10156381Y-17093143D01*
X10137333Y-17064571D01*
X10127810Y-17045524D01*
X10118286Y-17016952D01*
X10108762Y-16969333D01*
X10108762Y-16931238D01*
X10118286Y-16883619D01*
X10127810Y-16855048D01*
X10137333Y-16836000D01*
X10156381Y-16807429D01*
X10165905Y-16797905D01*
X10232571Y-16845524D02*
X10242095Y-16836000D01*
X10261143Y-16826476D01*
X10308762Y-16826476D01*
X10327810Y-16836000D01*
X10337333Y-16845524D01*
X10346857Y-16864571D01*
X10346857Y-16883619D01*
X10337333Y-16912190D01*
X10223048Y-17026476D01*
X10346857Y-17026476D01*
X10584952Y-17026476D02*
X10584952Y-16826476D01*
X10670667Y-17026476D02*
X10670667Y-16921714D01*
X10661143Y-16902667D01*
X10642095Y-16893143D01*
X10613524Y-16893143D01*
X10594476Y-16902667D01*
X10584952Y-16912190D01*
X10794476Y-17026476D02*
X10775429Y-17016952D01*
X10765905Y-17007429D01*
X10756381Y-16988381D01*
X10756381Y-16931238D01*
X10765905Y-16912190D01*
X10775429Y-16902667D01*
X10794476Y-16893143D01*
X10823048Y-16893143D01*
X10842095Y-16902667D01*
X10851619Y-16912190D01*
X10861143Y-16931238D01*
X10861143Y-16988381D01*
X10851619Y-17007429D01*
X10842095Y-17016952D01*
X10823048Y-17026476D01*
X10794476Y-17026476D01*
X10975429Y-17026476D02*
X10956381Y-17016952D01*
X10946857Y-16997905D01*
X10946857Y-16826476D01*
X11127810Y-17016952D02*
X11108762Y-17026476D01*
X11070667Y-17026476D01*
X11051619Y-17016952D01*
X11042095Y-16997905D01*
X11042095Y-16921714D01*
X11051619Y-16902667D01*
X11070667Y-16893143D01*
X11108762Y-16893143D01*
X11127810Y-16902667D01*
X11137333Y-16921714D01*
X11137333Y-16940762D01*
X11042095Y-16959810D01*
X11213524Y-17016952D02*
X11232571Y-17026476D01*
X11270667Y-17026476D01*
X11289714Y-17016952D01*
X11299238Y-16997905D01*
X11299238Y-16988381D01*
X11289714Y-16969333D01*
X11270667Y-16959810D01*
X11242095Y-16959810D01*
X11223048Y-16950286D01*
X11213524Y-16931238D01*
X11213524Y-16921714D01*
X11223048Y-16902667D01*
X11242095Y-16893143D01*
X11270667Y-16893143D01*
X11289714Y-16902667D01*
X11365905Y-17102667D02*
X11375428Y-17093143D01*
X11394476Y-17064571D01*
X11404000Y-17045524D01*
X11413524Y-17016952D01*
X11423048Y-16969333D01*
X11423048Y-16931238D01*
X11413524Y-16883619D01*
X11404000Y-16855048D01*
X11394476Y-16836000D01*
X11375428Y-16807429D01*
X11365905Y-16797905D01*
D15*
X6551500Y-17242500D02*
X6594000Y-17200000D01*
X6551500Y-17157500D01*
X6509000Y-17200000D01*
X6551500Y-17242500D01*
D10*
X6889714Y-17090476D02*
X6908762Y-17090476D01*
X6927809Y-17100000D01*
X6937333Y-17109524D01*
X6946857Y-17128571D01*
X6956381Y-17166667D01*
X6956381Y-17214286D01*
X6946857Y-17252381D01*
X6937333Y-17271429D01*
X6927809Y-17280952D01*
X6908762Y-17290476D01*
X6889714Y-17290476D01*
X6870667Y-17280952D01*
X6861143Y-17271429D01*
X6851619Y-17252381D01*
X6842095Y-17214286D01*
X6842095Y-17166667D01*
X6851619Y-17128571D01*
X6861143Y-17109524D01*
X6870667Y-17100000D01*
X6889714Y-17090476D01*
X7042095Y-17271429D02*
X7051619Y-17280952D01*
X7042095Y-17290476D01*
X7032571Y-17280952D01*
X7042095Y-17271429D01*
X7042095Y-17290476D01*
X7165905Y-17176190D02*
X7146857Y-17166667D01*
X7137333Y-17157143D01*
X7127809Y-17138095D01*
X7127809Y-17128571D01*
X7137333Y-17109524D01*
X7146857Y-17100000D01*
X7165905Y-17090476D01*
X7204000Y-17090476D01*
X7223048Y-17100000D01*
X7232571Y-17109524D01*
X7242095Y-17128571D01*
X7242095Y-17138095D01*
X7232571Y-17157143D01*
X7223048Y-17166667D01*
X7204000Y-17176190D01*
X7165905Y-17176190D01*
X7146857Y-17185714D01*
X7137333Y-17195238D01*
X7127809Y-17214286D01*
X7127809Y-17252381D01*
X7137333Y-17271429D01*
X7146857Y-17280952D01*
X7165905Y-17290476D01*
X7204000Y-17290476D01*
X7223048Y-17280952D01*
X7232571Y-17271429D01*
X7242095Y-17252381D01*
X7242095Y-17214286D01*
X7232571Y-17195238D01*
X7223048Y-17185714D01*
X7204000Y-17176190D01*
X7423048Y-17090476D02*
X7327809Y-17090476D01*
X7318286Y-17185714D01*
X7327809Y-17176190D01*
X7346857Y-17166667D01*
X7394476Y-17166667D01*
X7413524Y-17176190D01*
X7423048Y-17185714D01*
X7432571Y-17204762D01*
X7432571Y-17252381D01*
X7423048Y-17271429D01*
X7413524Y-17280952D01*
X7394476Y-17290476D01*
X7346857Y-17290476D01*
X7327809Y-17280952D01*
X7318286Y-17271429D01*
X7556381Y-17090476D02*
X7575428Y-17090476D01*
X7594476Y-17100000D01*
X7604000Y-17109524D01*
X7613524Y-17128571D01*
X7623048Y-17166667D01*
X7623048Y-17214286D01*
X7613524Y-17252381D01*
X7604000Y-17271429D01*
X7594476Y-17280952D01*
X7575428Y-17290476D01*
X7556381Y-17290476D01*
X7537333Y-17280952D01*
X7527809Y-17271429D01*
X7518286Y-17252381D01*
X7508762Y-17214286D01*
X7508762Y-17166667D01*
X7518286Y-17128571D01*
X7527809Y-17109524D01*
X7537333Y-17100000D01*
X7556381Y-17090476D01*
X7708762Y-17290476D02*
X7708762Y-17157143D01*
X7708762Y-17176190D02*
X7718286Y-17166667D01*
X7737333Y-17157143D01*
X7765905Y-17157143D01*
X7784952Y-17166667D01*
X7794476Y-17185714D01*
X7794476Y-17290476D01*
X7794476Y-17185714D02*
X7804000Y-17166667D01*
X7823048Y-17157143D01*
X7851619Y-17157143D01*
X7870667Y-17166667D01*
X7880190Y-17185714D01*
X7880190Y-17290476D01*
X7975428Y-17290476D02*
X7975428Y-17157143D01*
X7975428Y-17176190D02*
X7984952Y-17166667D01*
X8004000Y-17157143D01*
X8032571Y-17157143D01*
X8051619Y-17166667D01*
X8061143Y-17185714D01*
X8061143Y-17290476D01*
X8061143Y-17185714D02*
X8070667Y-17166667D01*
X8089714Y-17157143D01*
X8118286Y-17157143D01*
X8137333Y-17166667D01*
X8146857Y-17185714D01*
X8146857Y-17290476D01*
X8537333Y-17080952D02*
X8365905Y-17338095D01*
X8794476Y-17090476D02*
X8813524Y-17090476D01*
X8832571Y-17100000D01*
X8842095Y-17109524D01*
X8851619Y-17128571D01*
X8861143Y-17166667D01*
X8861143Y-17214286D01*
X8851619Y-17252381D01*
X8842095Y-17271429D01*
X8832571Y-17280952D01*
X8813524Y-17290476D01*
X8794476Y-17290476D01*
X8775429Y-17280952D01*
X8765905Y-17271429D01*
X8756381Y-17252381D01*
X8746857Y-17214286D01*
X8746857Y-17166667D01*
X8756381Y-17128571D01*
X8765905Y-17109524D01*
X8775429Y-17100000D01*
X8794476Y-17090476D01*
X8946857Y-17271429D02*
X8956381Y-17280952D01*
X8946857Y-17290476D01*
X8937333Y-17280952D01*
X8946857Y-17271429D01*
X8946857Y-17290476D01*
X9080190Y-17090476D02*
X9099238Y-17090476D01*
X9118286Y-17100000D01*
X9127810Y-17109524D01*
X9137333Y-17128571D01*
X9146857Y-17166667D01*
X9146857Y-17214286D01*
X9137333Y-17252381D01*
X9127810Y-17271429D01*
X9118286Y-17280952D01*
X9099238Y-17290476D01*
X9080190Y-17290476D01*
X9061143Y-17280952D01*
X9051619Y-17271429D01*
X9042095Y-17252381D01*
X9032571Y-17214286D01*
X9032571Y-17166667D01*
X9042095Y-17128571D01*
X9051619Y-17109524D01*
X9061143Y-17100000D01*
X9080190Y-17090476D01*
X9213524Y-17090476D02*
X9337333Y-17090476D01*
X9270667Y-17166667D01*
X9299238Y-17166667D01*
X9318286Y-17176190D01*
X9327810Y-17185714D01*
X9337333Y-17204762D01*
X9337333Y-17252381D01*
X9327810Y-17271429D01*
X9318286Y-17280952D01*
X9299238Y-17290476D01*
X9242095Y-17290476D01*
X9223048Y-17280952D01*
X9213524Y-17271429D01*
X9404000Y-17090476D02*
X9527810Y-17090476D01*
X9461143Y-17166667D01*
X9489714Y-17166667D01*
X9508762Y-17176190D01*
X9518286Y-17185714D01*
X9527810Y-17204762D01*
X9527810Y-17252381D01*
X9518286Y-17271429D01*
X9508762Y-17280952D01*
X9489714Y-17290476D01*
X9432571Y-17290476D01*
X9413524Y-17280952D01*
X9404000Y-17271429D01*
X9708762Y-17090476D02*
X9613524Y-17090476D01*
X9604000Y-17185714D01*
X9613524Y-17176190D01*
X9632571Y-17166667D01*
X9680190Y-17166667D01*
X9699238Y-17176190D01*
X9708762Y-17185714D01*
X9718286Y-17204762D01*
X9718286Y-17252381D01*
X9708762Y-17271429D01*
X9699238Y-17280952D01*
X9680190Y-17290476D01*
X9632571Y-17290476D01*
X9613524Y-17280952D01*
X9604000Y-17271429D01*
X9794476Y-17090476D02*
X9794476Y-17128571D01*
X9870667Y-17090476D02*
X9870667Y-17128571D01*
X10165905Y-17366667D02*
X10156381Y-17357143D01*
X10137333Y-17328571D01*
X10127810Y-17309524D01*
X10118286Y-17280952D01*
X10108762Y-17233333D01*
X10108762Y-17195238D01*
X10118286Y-17147619D01*
X10127810Y-17119048D01*
X10137333Y-17100000D01*
X10156381Y-17071429D01*
X10165905Y-17061905D01*
X10232571Y-17109524D02*
X10242095Y-17100000D01*
X10261143Y-17090476D01*
X10308762Y-17090476D01*
X10327810Y-17100000D01*
X10337333Y-17109524D01*
X10346857Y-17128571D01*
X10346857Y-17147619D01*
X10337333Y-17176190D01*
X10223048Y-17290476D01*
X10346857Y-17290476D01*
X10584952Y-17290476D02*
X10584952Y-17090476D01*
X10670667Y-17290476D02*
X10670667Y-17185714D01*
X10661143Y-17166667D01*
X10642095Y-17157143D01*
X10613524Y-17157143D01*
X10594476Y-17166667D01*
X10584952Y-17176190D01*
X10794476Y-17290476D02*
X10775429Y-17280952D01*
X10765905Y-17271429D01*
X10756381Y-17252381D01*
X10756381Y-17195238D01*
X10765905Y-17176190D01*
X10775429Y-17166667D01*
X10794476Y-17157143D01*
X10823048Y-17157143D01*
X10842095Y-17166667D01*
X10851619Y-17176190D01*
X10861143Y-17195238D01*
X10861143Y-17252381D01*
X10851619Y-17271429D01*
X10842095Y-17280952D01*
X10823048Y-17290476D01*
X10794476Y-17290476D01*
X10975429Y-17290476D02*
X10956381Y-17280952D01*
X10946857Y-17261905D01*
X10946857Y-17090476D01*
X11127810Y-17280952D02*
X11108762Y-17290476D01*
X11070667Y-17290476D01*
X11051619Y-17280952D01*
X11042095Y-17261905D01*
X11042095Y-17185714D01*
X11051619Y-17166667D01*
X11070667Y-17157143D01*
X11108762Y-17157143D01*
X11127810Y-17166667D01*
X11137333Y-17185714D01*
X11137333Y-17204762D01*
X11042095Y-17223810D01*
X11213524Y-17280952D02*
X11232571Y-17290476D01*
X11270667Y-17290476D01*
X11289714Y-17280952D01*
X11299238Y-17261905D01*
X11299238Y-17252381D01*
X11289714Y-17233333D01*
X11270667Y-17223810D01*
X11242095Y-17223810D01*
X11223048Y-17214286D01*
X11213524Y-17195238D01*
X11213524Y-17185714D01*
X11223048Y-17166667D01*
X11242095Y-17157143D01*
X11270667Y-17157143D01*
X11289714Y-17166667D01*
X11365905Y-17366667D02*
X11375428Y-17357143D01*
X11394476Y-17328571D01*
X11404000Y-17309524D01*
X11413524Y-17280952D01*
X11423048Y-17233333D01*
X11423048Y-17195238D01*
X11413524Y-17147619D01*
X11404000Y-17119048D01*
X11394476Y-17100000D01*
X11375428Y-17071429D01*
X11365905Y-17061905D01*
D16*
X6494000Y-17414000D02*
X6594000Y-17514000D01*
X6594000Y-17414000D02*
X6494000Y-17514000D01*
X6594000Y-17464000D02*
G75*
G03*
X6594000Y-17464000I-50000J0D01*
G01*
D10*
X6956381Y-17554476D02*
X6842095Y-17554476D01*
X6899238Y-17554476D02*
X6899238Y-17354476D01*
X6880190Y-17383048D01*
X6861143Y-17402095D01*
X6842095Y-17411619D01*
X7042095Y-17535429D02*
X7051619Y-17544952D01*
X7042095Y-17554476D01*
X7032571Y-17544952D01*
X7042095Y-17535429D01*
X7042095Y-17554476D01*
X7175428Y-17354476D02*
X7194476Y-17354476D01*
X7213524Y-17364000D01*
X7223048Y-17373524D01*
X7232571Y-17392571D01*
X7242095Y-17430667D01*
X7242095Y-17478286D01*
X7232571Y-17516381D01*
X7223048Y-17535429D01*
X7213524Y-17544952D01*
X7194476Y-17554476D01*
X7175428Y-17554476D01*
X7156381Y-17544952D01*
X7146857Y-17535429D01*
X7137333Y-17516381D01*
X7127809Y-17478286D01*
X7127809Y-17430667D01*
X7137333Y-17392571D01*
X7146857Y-17373524D01*
X7156381Y-17364000D01*
X7175428Y-17354476D01*
X7365905Y-17354476D02*
X7384952Y-17354476D01*
X7404000Y-17364000D01*
X7413524Y-17373524D01*
X7423048Y-17392571D01*
X7432571Y-17430667D01*
X7432571Y-17478286D01*
X7423048Y-17516381D01*
X7413524Y-17535429D01*
X7404000Y-17544952D01*
X7384952Y-17554476D01*
X7365905Y-17554476D01*
X7346857Y-17544952D01*
X7337333Y-17535429D01*
X7327809Y-17516381D01*
X7318286Y-17478286D01*
X7318286Y-17430667D01*
X7327809Y-17392571D01*
X7337333Y-17373524D01*
X7346857Y-17364000D01*
X7365905Y-17354476D01*
X7556381Y-17354476D02*
X7575428Y-17354476D01*
X7594476Y-17364000D01*
X7604000Y-17373524D01*
X7613524Y-17392571D01*
X7623048Y-17430667D01*
X7623048Y-17478286D01*
X7613524Y-17516381D01*
X7604000Y-17535429D01*
X7594476Y-17544952D01*
X7575428Y-17554476D01*
X7556381Y-17554476D01*
X7537333Y-17544952D01*
X7527809Y-17535429D01*
X7518286Y-17516381D01*
X7508762Y-17478286D01*
X7508762Y-17430667D01*
X7518286Y-17392571D01*
X7527809Y-17373524D01*
X7537333Y-17364000D01*
X7556381Y-17354476D01*
X7708762Y-17554476D02*
X7708762Y-17421143D01*
X7708762Y-17440190D02*
X7718286Y-17430667D01*
X7737333Y-17421143D01*
X7765905Y-17421143D01*
X7784952Y-17430667D01*
X7794476Y-17449714D01*
X7794476Y-17554476D01*
X7794476Y-17449714D02*
X7804000Y-17430667D01*
X7823048Y-17421143D01*
X7851619Y-17421143D01*
X7870667Y-17430667D01*
X7880190Y-17449714D01*
X7880190Y-17554476D01*
X7975428Y-17554476D02*
X7975428Y-17421143D01*
X7975428Y-17440190D02*
X7984952Y-17430667D01*
X8004000Y-17421143D01*
X8032571Y-17421143D01*
X8051619Y-17430667D01*
X8061143Y-17449714D01*
X8061143Y-17554476D01*
X8061143Y-17449714D02*
X8070667Y-17430667D01*
X8089714Y-17421143D01*
X8118286Y-17421143D01*
X8137333Y-17430667D01*
X8146857Y-17449714D01*
X8146857Y-17554476D01*
X8537333Y-17344952D02*
X8365905Y-17602095D01*
X8794476Y-17354476D02*
X8813524Y-17354476D01*
X8832571Y-17364000D01*
X8842095Y-17373524D01*
X8851619Y-17392571D01*
X8861143Y-17430667D01*
X8861143Y-17478286D01*
X8851619Y-17516381D01*
X8842095Y-17535429D01*
X8832571Y-17544952D01*
X8813524Y-17554476D01*
X8794476Y-17554476D01*
X8775429Y-17544952D01*
X8765905Y-17535429D01*
X8756381Y-17516381D01*
X8746857Y-17478286D01*
X8746857Y-17430667D01*
X8756381Y-17392571D01*
X8765905Y-17373524D01*
X8775429Y-17364000D01*
X8794476Y-17354476D01*
X8946857Y-17535429D02*
X8956381Y-17544952D01*
X8946857Y-17554476D01*
X8937333Y-17544952D01*
X8946857Y-17535429D01*
X8946857Y-17554476D01*
X9080190Y-17354476D02*
X9099238Y-17354476D01*
X9118286Y-17364000D01*
X9127810Y-17373524D01*
X9137333Y-17392571D01*
X9146857Y-17430667D01*
X9146857Y-17478286D01*
X9137333Y-17516381D01*
X9127810Y-17535429D01*
X9118286Y-17544952D01*
X9099238Y-17554476D01*
X9080190Y-17554476D01*
X9061143Y-17544952D01*
X9051619Y-17535429D01*
X9042095Y-17516381D01*
X9032571Y-17478286D01*
X9032571Y-17430667D01*
X9042095Y-17392571D01*
X9051619Y-17373524D01*
X9061143Y-17364000D01*
X9080190Y-17354476D01*
X9213524Y-17354476D02*
X9337333Y-17354476D01*
X9270667Y-17430667D01*
X9299238Y-17430667D01*
X9318286Y-17440190D01*
X9327810Y-17449714D01*
X9337333Y-17468762D01*
X9337333Y-17516381D01*
X9327810Y-17535429D01*
X9318286Y-17544952D01*
X9299238Y-17554476D01*
X9242095Y-17554476D01*
X9223048Y-17544952D01*
X9213524Y-17535429D01*
X9432571Y-17554476D02*
X9470667Y-17554476D01*
X9489714Y-17544952D01*
X9499238Y-17535429D01*
X9518286Y-17506857D01*
X9527810Y-17468762D01*
X9527810Y-17392571D01*
X9518286Y-17373524D01*
X9508762Y-17364000D01*
X9489714Y-17354476D01*
X9451619Y-17354476D01*
X9432571Y-17364000D01*
X9423048Y-17373524D01*
X9413524Y-17392571D01*
X9413524Y-17440190D01*
X9423048Y-17459238D01*
X9432571Y-17468762D01*
X9451619Y-17478286D01*
X9489714Y-17478286D01*
X9508762Y-17468762D01*
X9518286Y-17459238D01*
X9527810Y-17440190D01*
X9699238Y-17421143D02*
X9699238Y-17554476D01*
X9651619Y-17344952D02*
X9604000Y-17487810D01*
X9727810Y-17487810D01*
X9794476Y-17354476D02*
X9794476Y-17392571D01*
X9870667Y-17354476D02*
X9870667Y-17392571D01*
X10165905Y-17630667D02*
X10156381Y-17621143D01*
X10137333Y-17592571D01*
X10127810Y-17573524D01*
X10118286Y-17544952D01*
X10108762Y-17497333D01*
X10108762Y-17459238D01*
X10118286Y-17411619D01*
X10127810Y-17383048D01*
X10137333Y-17364000D01*
X10156381Y-17335429D01*
X10165905Y-17325905D01*
X10270667Y-17440190D02*
X10251619Y-17430667D01*
X10242095Y-17421143D01*
X10232571Y-17402095D01*
X10232571Y-17392571D01*
X10242095Y-17373524D01*
X10251619Y-17364000D01*
X10270667Y-17354476D01*
X10308762Y-17354476D01*
X10327810Y-17364000D01*
X10337333Y-17373524D01*
X10346857Y-17392571D01*
X10346857Y-17402095D01*
X10337333Y-17421143D01*
X10327810Y-17430667D01*
X10308762Y-17440190D01*
X10270667Y-17440190D01*
X10251619Y-17449714D01*
X10242095Y-17459238D01*
X10232571Y-17478286D01*
X10232571Y-17516381D01*
X10242095Y-17535429D01*
X10251619Y-17544952D01*
X10270667Y-17554476D01*
X10308762Y-17554476D01*
X10327810Y-17544952D01*
X10337333Y-17535429D01*
X10346857Y-17516381D01*
X10346857Y-17478286D01*
X10337333Y-17459238D01*
X10327810Y-17449714D01*
X10308762Y-17440190D01*
X10584952Y-17554476D02*
X10584952Y-17354476D01*
X10670667Y-17554476D02*
X10670667Y-17449714D01*
X10661143Y-17430667D01*
X10642095Y-17421143D01*
X10613524Y-17421143D01*
X10594476Y-17430667D01*
X10584952Y-17440190D01*
X10794476Y-17554476D02*
X10775429Y-17544952D01*
X10765905Y-17535429D01*
X10756381Y-17516381D01*
X10756381Y-17459238D01*
X10765905Y-17440190D01*
X10775429Y-17430667D01*
X10794476Y-17421143D01*
X10823048Y-17421143D01*
X10842095Y-17430667D01*
X10851619Y-17440190D01*
X10861143Y-17459238D01*
X10861143Y-17516381D01*
X10851619Y-17535429D01*
X10842095Y-17544952D01*
X10823048Y-17554476D01*
X10794476Y-17554476D01*
X10975429Y-17554476D02*
X10956381Y-17544952D01*
X10946857Y-17525905D01*
X10946857Y-17354476D01*
X11127810Y-17544952D02*
X11108762Y-17554476D01*
X11070667Y-17554476D01*
X11051619Y-17544952D01*
X11042095Y-17525905D01*
X11042095Y-17449714D01*
X11051619Y-17430667D01*
X11070667Y-17421143D01*
X11108762Y-17421143D01*
X11127810Y-17430667D01*
X11137333Y-17449714D01*
X11137333Y-17468762D01*
X11042095Y-17487810D01*
X11213524Y-17544952D02*
X11232571Y-17554476D01*
X11270667Y-17554476D01*
X11289714Y-17544952D01*
X11299238Y-17525905D01*
X11299238Y-17516381D01*
X11289714Y-17497333D01*
X11270667Y-17487810D01*
X11242095Y-17487810D01*
X11223048Y-17478286D01*
X11213524Y-17459238D01*
X11213524Y-17449714D01*
X11223048Y-17430667D01*
X11242095Y-17421143D01*
X11270667Y-17421143D01*
X11289714Y-17430667D01*
X11365905Y-17630667D02*
X11375428Y-17621143D01*
X11394476Y-17592571D01*
X11404000Y-17573524D01*
X11413524Y-17544952D01*
X11423048Y-17497333D01*
X11423048Y-17459238D01*
X11413524Y-17411619D01*
X11404000Y-17383048D01*
X11394476Y-17364000D01*
X11375428Y-17335429D01*
X11365905Y-17325905D01*
D17*
X6492000Y-17677000D02*
X6594000Y-17779000D01*
X6594000Y-17677000D02*
X6492000Y-17779000D01*
X6543000Y-17677000D02*
X6543000Y-17779000D01*
X6492000Y-17728000D02*
X6594000Y-17728000D01*
D10*
X6956381Y-17818476D02*
X6842095Y-17818476D01*
X6899238Y-17818476D02*
X6899238Y-17618476D01*
X6880190Y-17647048D01*
X6861143Y-17666095D01*
X6842095Y-17675619D01*
X7042095Y-17799429D02*
X7051619Y-17808952D01*
X7042095Y-17818476D01*
X7032571Y-17808952D01*
X7042095Y-17799429D01*
X7042095Y-17818476D01*
X7175428Y-17618476D02*
X7194476Y-17618476D01*
X7213524Y-17628000D01*
X7223048Y-17637524D01*
X7232571Y-17656571D01*
X7242095Y-17694667D01*
X7242095Y-17742286D01*
X7232571Y-17780381D01*
X7223048Y-17799429D01*
X7213524Y-17808952D01*
X7194476Y-17818476D01*
X7175428Y-17818476D01*
X7156381Y-17808952D01*
X7146857Y-17799429D01*
X7137333Y-17780381D01*
X7127809Y-17742286D01*
X7127809Y-17694667D01*
X7137333Y-17656571D01*
X7146857Y-17637524D01*
X7156381Y-17628000D01*
X7175428Y-17618476D01*
X7318286Y-17637524D02*
X7327809Y-17628000D01*
X7346857Y-17618476D01*
X7394476Y-17618476D01*
X7413524Y-17628000D01*
X7423048Y-17637524D01*
X7432571Y-17656571D01*
X7432571Y-17675619D01*
X7423048Y-17704190D01*
X7308762Y-17818476D01*
X7432571Y-17818476D01*
X7556381Y-17618476D02*
X7575428Y-17618476D01*
X7594476Y-17628000D01*
X7604000Y-17637524D01*
X7613524Y-17656571D01*
X7623048Y-17694667D01*
X7623048Y-17742286D01*
X7613524Y-17780381D01*
X7604000Y-17799429D01*
X7594476Y-17808952D01*
X7575428Y-17818476D01*
X7556381Y-17818476D01*
X7537333Y-17808952D01*
X7527809Y-17799429D01*
X7518286Y-17780381D01*
X7508762Y-17742286D01*
X7508762Y-17694667D01*
X7518286Y-17656571D01*
X7527809Y-17637524D01*
X7537333Y-17628000D01*
X7556381Y-17618476D01*
X7708762Y-17818476D02*
X7708762Y-17685143D01*
X7708762Y-17704190D02*
X7718286Y-17694667D01*
X7737333Y-17685143D01*
X7765905Y-17685143D01*
X7784952Y-17694667D01*
X7794476Y-17713714D01*
X7794476Y-17818476D01*
X7794476Y-17713714D02*
X7804000Y-17694667D01*
X7823048Y-17685143D01*
X7851619Y-17685143D01*
X7870667Y-17694667D01*
X7880190Y-17713714D01*
X7880190Y-17818476D01*
X7975428Y-17818476D02*
X7975428Y-17685143D01*
X7975428Y-17704190D02*
X7984952Y-17694667D01*
X8004000Y-17685143D01*
X8032571Y-17685143D01*
X8051619Y-17694667D01*
X8061143Y-17713714D01*
X8061143Y-17818476D01*
X8061143Y-17713714D02*
X8070667Y-17694667D01*
X8089714Y-17685143D01*
X8118286Y-17685143D01*
X8137333Y-17694667D01*
X8146857Y-17713714D01*
X8146857Y-17818476D01*
X8537333Y-17608952D02*
X8365905Y-17866095D01*
X8794476Y-17618476D02*
X8813524Y-17618476D01*
X8832571Y-17628000D01*
X8842095Y-17637524D01*
X8851619Y-17656571D01*
X8861143Y-17694667D01*
X8861143Y-17742286D01*
X8851619Y-17780381D01*
X8842095Y-17799429D01*
X8832571Y-17808952D01*
X8813524Y-17818476D01*
X8794476Y-17818476D01*
X8775429Y-17808952D01*
X8765905Y-17799429D01*
X8756381Y-17780381D01*
X8746857Y-17742286D01*
X8746857Y-17694667D01*
X8756381Y-17656571D01*
X8765905Y-17637524D01*
X8775429Y-17628000D01*
X8794476Y-17618476D01*
X8946857Y-17799429D02*
X8956381Y-17808952D01*
X8946857Y-17818476D01*
X8937333Y-17808952D01*
X8946857Y-17799429D01*
X8946857Y-17818476D01*
X9080190Y-17618476D02*
X9099238Y-17618476D01*
X9118286Y-17628000D01*
X9127810Y-17637524D01*
X9137333Y-17656571D01*
X9146857Y-17694667D01*
X9146857Y-17742286D01*
X9137333Y-17780381D01*
X9127810Y-17799429D01*
X9118286Y-17808952D01*
X9099238Y-17818476D01*
X9080190Y-17818476D01*
X9061143Y-17808952D01*
X9051619Y-17799429D01*
X9042095Y-17780381D01*
X9032571Y-17742286D01*
X9032571Y-17694667D01*
X9042095Y-17656571D01*
X9051619Y-17637524D01*
X9061143Y-17628000D01*
X9080190Y-17618476D01*
X9318286Y-17685143D02*
X9318286Y-17818476D01*
X9270667Y-17608952D02*
X9223048Y-17751810D01*
X9346857Y-17751810D01*
X9461143Y-17618476D02*
X9480190Y-17618476D01*
X9499238Y-17628000D01*
X9508762Y-17637524D01*
X9518286Y-17656571D01*
X9527810Y-17694667D01*
X9527810Y-17742286D01*
X9518286Y-17780381D01*
X9508762Y-17799429D01*
X9499238Y-17808952D01*
X9480190Y-17818476D01*
X9461143Y-17818476D01*
X9442095Y-17808952D01*
X9432571Y-17799429D01*
X9423048Y-17780381D01*
X9413524Y-17742286D01*
X9413524Y-17694667D01*
X9423048Y-17656571D01*
X9432571Y-17637524D01*
X9442095Y-17628000D01*
X9461143Y-17618476D01*
X9604000Y-17637524D02*
X9613524Y-17628000D01*
X9632571Y-17618476D01*
X9680190Y-17618476D01*
X9699238Y-17628000D01*
X9708762Y-17637524D01*
X9718286Y-17656571D01*
X9718286Y-17675619D01*
X9708762Y-17704190D01*
X9594476Y-17818476D01*
X9718286Y-17818476D01*
X9794476Y-17618476D02*
X9794476Y-17656571D01*
X9870667Y-17618476D02*
X9870667Y-17656571D01*
X10165905Y-17894667D02*
X10156381Y-17885143D01*
X10137333Y-17856571D01*
X10127810Y-17837524D01*
X10118286Y-17808952D01*
X10108762Y-17761333D01*
X10108762Y-17723238D01*
X10118286Y-17675619D01*
X10127810Y-17647048D01*
X10137333Y-17628000D01*
X10156381Y-17599429D01*
X10165905Y-17589905D01*
X10223048Y-17618476D02*
X10346857Y-17618476D01*
X10280190Y-17694667D01*
X10308762Y-17694667D01*
X10327810Y-17704190D01*
X10337333Y-17713714D01*
X10346857Y-17732762D01*
X10346857Y-17780381D01*
X10337333Y-17799429D01*
X10327810Y-17808952D01*
X10308762Y-17818476D01*
X10251619Y-17818476D01*
X10232571Y-17808952D01*
X10223048Y-17799429D01*
X10584952Y-17818476D02*
X10584952Y-17618476D01*
X10670667Y-17818476D02*
X10670667Y-17713714D01*
X10661143Y-17694667D01*
X10642095Y-17685143D01*
X10613524Y-17685143D01*
X10594476Y-17694667D01*
X10584952Y-17704190D01*
X10794476Y-17818476D02*
X10775429Y-17808952D01*
X10765905Y-17799429D01*
X10756381Y-17780381D01*
X10756381Y-17723238D01*
X10765905Y-17704190D01*
X10775429Y-17694667D01*
X10794476Y-17685143D01*
X10823048Y-17685143D01*
X10842095Y-17694667D01*
X10851619Y-17704190D01*
X10861143Y-17723238D01*
X10861143Y-17780381D01*
X10851619Y-17799429D01*
X10842095Y-17808952D01*
X10823048Y-17818476D01*
X10794476Y-17818476D01*
X10975429Y-17818476D02*
X10956381Y-17808952D01*
X10946857Y-17789905D01*
X10946857Y-17618476D01*
X11127810Y-17808952D02*
X11108762Y-17818476D01*
X11070667Y-17818476D01*
X11051619Y-17808952D01*
X11042095Y-17789905D01*
X11042095Y-17713714D01*
X11051619Y-17694667D01*
X11070667Y-17685143D01*
X11108762Y-17685143D01*
X11127810Y-17694667D01*
X11137333Y-17713714D01*
X11137333Y-17732762D01*
X11042095Y-17751810D01*
X11213524Y-17808952D02*
X11232571Y-17818476D01*
X11270667Y-17818476D01*
X11289714Y-17808952D01*
X11299238Y-17789905D01*
X11299238Y-17780381D01*
X11289714Y-17761333D01*
X11270667Y-17751810D01*
X11242095Y-17751810D01*
X11223048Y-17742286D01*
X11213524Y-17723238D01*
X11213524Y-17713714D01*
X11223048Y-17694667D01*
X11242095Y-17685143D01*
X11270667Y-17685143D01*
X11289714Y-17694667D01*
X11365905Y-17894667D02*
X11375428Y-17885143D01*
X11394476Y-17856571D01*
X11404000Y-17837524D01*
X11413524Y-17808952D01*
X11423048Y-17761333D01*
X11423048Y-17723238D01*
X11413524Y-17675619D01*
X11404000Y-17647048D01*
X11394476Y-17628000D01*
X11375428Y-17599429D01*
X11365905Y-17589905D01*
M02*
