M48
; DRILL file {KiCad (6.0.7)} date Sat Oct  1 10:06:04 2022
; FORMAT={-:-/ absolute / metric / decimal}
; #@! TF.CreationDate,2022-10-01T10:06:04-06:00
; #@! TF.GenerationSoftware,Kicad,Pcbnew,(6.0.7)
; #@! TF.FileFunction,Plated,1,2,PTH
FMAT,2
METRIC
; #@! TA.AperFunction,Plated,PTH,ViaDrill
T1C0.400
; #@! TA.AperFunction,Plated,PTH,ComponentDrill
T2C0.600
; #@! TA.AperFunction,Plated,PTH,ComponentDrill
T3C0.762
; #@! TA.AperFunction,Plated,PTH,ComponentDrill
T4C0.800
; #@! TA.AperFunction,Plated,PTH,ComponentDrill
T5C0.850
; #@! TA.AperFunction,Plated,PTH,ComponentDrill
T6C1.000
; #@! TA.AperFunction,Plated,PTH,ComponentDrill
T7C1.020
%
G90
G05
T1
X87.194Y-132.583
X90.725Y-142.275
X95.596Y-142.587
X96.929Y-142.758
X98.629Y-138.752
X100.016Y-140.698
X100.034Y-141.978
X107.379Y-138.222
X137.806Y-132.173
T3
X106.093Y-95.752
T4
X136.127Y-142.2
X138.127Y-142.2
T5
X70.042Y-139.74
X70.042Y-144.74
T6
X115.659Y-152.314
X118.199Y-152.314
X120.739Y-152.314
X123.279Y-152.314
X125.819Y-152.314
X128.359Y-152.314
X130.899Y-152.314
X133.439Y-152.314
T7
X76.2Y-132.08
X78.74Y-132.08
X81.28Y-132.08
T2
X66.992Y-138.74G85X67.692Y-138.74
G05
X67.692Y-145.74G85X66.992Y-145.74
G05
T0
M30
