%TF.GenerationSoftware,KiCad,Pcbnew,(6.0.7)*%
%TF.CreationDate,2022-10-01T10:05:14-06:00*%
%TF.ProjectId,attiny_rfid_light,61747469-6e79-45f7-9266-69645f6c6967,rev?*%
%TF.SameCoordinates,Original*%
%TF.FileFunction,Copper,L2,Bot*%
%TF.FilePolarity,Positive*%
%FSLAX46Y46*%
G04 Gerber Fmt 4.6, Leading zero omitted, Abs format (unit mm)*
G04 Created by KiCad (PCBNEW (6.0.7)) date 2022-10-01 10:05:14*
%MOMM*%
%LPD*%
G01*
G04 APERTURE LIST*
%TA.AperFunction,EtchedComponent*%
%ADD10C,0.300000*%
%TD*%
%TA.AperFunction,SMDPad,CuDef*%
%ADD11C,1.524000*%
%TD*%
%TA.AperFunction,ComponentPad*%
%ADD12C,1.524000*%
%TD*%
%TA.AperFunction,ComponentPad*%
%ADD13O,1.900000X1.200000*%
%TD*%
%TA.AperFunction,ComponentPad*%
%ADD14C,1.450000*%
%TD*%
%TA.AperFunction,ComponentPad*%
%ADD15R,1.700000X1.700000*%
%TD*%
%TA.AperFunction,ComponentPad*%
%ADD16O,1.700000X1.700000*%
%TD*%
%TA.AperFunction,ComponentPad*%
%ADD17R,1.730000X2.030000*%
%TD*%
%TA.AperFunction,ComponentPad*%
%ADD18O,1.730000X2.030000*%
%TD*%
%TA.AperFunction,ComponentPad*%
%ADD19C,1.600000*%
%TD*%
%TA.AperFunction,ViaPad*%
%ADD20C,0.800000*%
%TD*%
%TA.AperFunction,Conductor*%
%ADD21C,0.250000*%
%TD*%
G04 APERTURE END LIST*
D10*
X110212500Y-99870800D02*
X96894500Y-99870800D01*
X109709500Y-87558800D02*
X109709500Y-99367800D01*
X112727500Y-84540800D02*
X112727500Y-102385800D01*
X118260500Y-107918800D02*
X88846500Y-107918800D01*
X70235500Y-126529800D02*
X70235500Y-59893800D01*
X75265500Y-64923800D02*
X132344500Y-64923800D01*
X111218500Y-86049800D02*
X111218500Y-100876800D01*
X77277500Y-119487800D02*
X77277500Y-66935800D01*
X114739500Y-82528800D02*
X114739500Y-104397800D01*
X72750500Y-62408800D02*
X134859500Y-62408800D01*
X90858500Y-80516800D02*
X116751500Y-80516800D01*
X96391500Y-86049800D02*
X111218500Y-86049800D01*
X91361500Y-105403800D02*
X91361500Y-81019800D01*
X75768500Y-65426800D02*
X131841500Y-65426800D01*
X117757500Y-107415800D02*
X89349500Y-107415800D01*
X81804500Y-114960800D02*
X81804500Y-71462800D01*
X75768500Y-120996800D02*
X75768500Y-65426800D01*
X80295500Y-69953800D02*
X127314500Y-69953800D01*
X125805500Y-115463800D02*
X81301500Y-115463800D01*
X127314500Y-116972800D02*
X79792500Y-116972800D01*
X112224500Y-85043800D02*
X112224500Y-101882800D01*
X121781500Y-111439800D02*
X85325500Y-111439800D01*
X74762500Y-122002800D02*
X74762500Y-64420800D01*
X128823500Y-68444800D02*
X128823500Y-118481800D01*
X138380500Y-128038800D02*
X68726500Y-128038800D01*
X126308500Y-70959800D02*
X126308500Y-115966800D01*
X95385500Y-85043800D02*
X112224500Y-85043800D01*
X133853500Y-63414800D02*
X133853500Y-123511800D01*
X88343500Y-78001800D02*
X119266500Y-78001800D01*
X80798500Y-70456800D02*
X126811500Y-70456800D01*
X115242500Y-104900800D02*
X91864500Y-104900800D01*
X69229500Y-58887800D02*
X138380500Y-58887800D01*
X88846500Y-107918800D02*
X88846500Y-78504800D01*
X74259500Y-63917800D02*
X133350500Y-63917800D01*
X74762500Y-64420800D02*
X132847500Y-64420800D01*
X119266500Y-78001800D02*
X119266500Y-108924800D01*
X95888500Y-100876800D02*
X95888500Y-85546800D01*
X76774500Y-66432800D02*
X130835500Y-66432800D01*
X121781500Y-75486800D02*
X121781500Y-111439800D01*
X70738500Y-60396800D02*
X136871500Y-60396800D01*
X125805500Y-71462800D02*
X125805500Y-115463800D01*
X116751500Y-106409800D02*
X90355500Y-106409800D01*
X122787500Y-112445800D02*
X84319500Y-112445800D01*
X126811500Y-70456800D02*
X126811500Y-116469800D01*
X69732500Y-127032800D02*
X69732500Y-59390800D01*
X97900500Y-98864800D02*
X97900500Y-87558800D01*
X129829500Y-67438800D02*
X129829500Y-119487800D01*
X135362500Y-125020800D02*
X71744500Y-125020800D01*
X130835500Y-120493800D02*
X76271500Y-120493800D01*
X117254500Y-80013800D02*
X117254500Y-106912800D01*
X90355500Y-106409800D02*
X90355500Y-80013800D01*
X75265500Y-121499800D02*
X75265500Y-64923800D01*
X78786500Y-117978800D02*
X78786500Y-68444800D01*
X80295500Y-116469800D02*
X80295500Y-69953800D01*
X136368500Y-60899800D02*
X136368500Y-126026800D01*
X126308500Y-115966800D02*
X80798500Y-115966800D01*
X93876500Y-102888800D02*
X93876500Y-83534800D01*
X135865500Y-125523800D02*
X71241500Y-125523800D01*
X127314500Y-69953800D02*
X127314500Y-116972800D01*
X83816500Y-112948800D02*
X83816500Y-73474800D01*
X129326500Y-118984800D02*
X77780500Y-118984800D01*
X87840500Y-108924800D02*
X87840500Y-77498800D01*
X116248500Y-81019800D02*
X116248500Y-105906800D01*
X113733500Y-103391800D02*
X93373500Y-103391800D01*
X77277500Y-66935800D02*
X130332500Y-66935800D01*
X88343500Y-108421800D02*
X88343500Y-78001800D01*
X77780500Y-67438800D02*
X129829500Y-67438800D01*
X127817500Y-117475800D02*
X79289500Y-117475800D01*
X130835500Y-66432800D02*
X130835500Y-120493800D01*
X91864500Y-104900800D02*
X91864500Y-81522800D01*
X108703500Y-98361800D02*
X98403500Y-98361800D01*
X73253500Y-123511800D02*
X73253500Y-62911800D01*
X119769500Y-109427800D02*
X87337500Y-109427800D01*
X83313500Y-113451800D02*
X83313500Y-72971800D01*
X115242500Y-82025800D02*
X115242500Y-104900800D01*
X128320500Y-68947800D02*
X128320500Y-117978800D01*
X82307500Y-71965800D02*
X125302500Y-71965800D01*
X108703500Y-98361800D02*
X106093500Y-95751800D01*
X90858500Y-105906800D02*
X90858500Y-80516800D01*
X71241500Y-60899800D02*
X136368500Y-60899800D01*
X118763500Y-108421800D02*
X88343500Y-108421800D01*
X95385500Y-101379800D02*
X95385500Y-85043800D01*
X92870500Y-82528800D02*
X114739500Y-82528800D01*
X109206500Y-88061800D02*
X109206500Y-98864800D01*
X87840500Y-77498800D02*
X119769500Y-77498800D01*
X117757500Y-79510800D02*
X117757500Y-107415800D01*
X119266500Y-108924800D02*
X87840500Y-108924800D01*
X133350500Y-123008800D02*
X73756500Y-123008800D01*
X85828500Y-110936800D02*
X85828500Y-75486800D01*
X73253500Y-62911800D02*
X134356500Y-62911800D01*
X137877500Y-127535800D02*
X69229500Y-127535800D01*
X120775500Y-110433800D02*
X86331500Y-110433800D01*
X79289500Y-117475800D02*
X79289500Y-68947800D01*
X134859500Y-124517800D02*
X72247500Y-124517800D01*
X86331500Y-110433800D02*
X86331500Y-75989800D01*
X89852500Y-106912800D02*
X89852500Y-79510800D01*
X130332500Y-119990800D02*
X76774500Y-119990800D01*
X83313500Y-72971800D02*
X124296500Y-72971800D01*
X94379500Y-102385800D02*
X94379500Y-84037800D01*
X120272500Y-109930800D02*
X86834500Y-109930800D01*
X133853500Y-123511800D02*
X73253500Y-123511800D01*
X114739500Y-104397800D02*
X92367500Y-104397800D01*
X120775500Y-76492800D02*
X120775500Y-110433800D01*
X70738500Y-126026800D02*
X70738500Y-60396800D01*
X84319500Y-73977800D02*
X123290500Y-73977800D01*
X90355500Y-80013800D02*
X117254500Y-80013800D01*
X109206500Y-98864800D02*
X97900500Y-98864800D01*
X72750500Y-124014800D02*
X72750500Y-62408800D01*
X128823500Y-118481800D02*
X78283500Y-118481800D01*
X125302500Y-114960800D02*
X81804500Y-114960800D01*
X89852500Y-79510800D02*
X117757500Y-79510800D01*
X123290500Y-112948800D02*
X83816500Y-112948800D01*
X116751500Y-80516800D02*
X116751500Y-106409800D01*
X86331500Y-75989800D02*
X121278500Y-75989800D01*
X81301500Y-70959800D02*
X126308500Y-70959800D01*
X88846500Y-78504800D02*
X118763500Y-78504800D01*
X113230500Y-84037800D02*
X113230500Y-102888800D01*
X111721500Y-85546800D02*
X111721500Y-101379800D01*
X82810500Y-113954800D02*
X82810500Y-72468800D01*
X111218500Y-100876800D02*
X95888500Y-100876800D01*
X138380500Y-58887800D02*
X138380500Y-128038800D01*
X113230500Y-102888800D02*
X93876500Y-102888800D01*
X122787500Y-74480800D02*
X122787500Y-112445800D01*
X86834500Y-109930800D02*
X86834500Y-76492800D01*
X129829500Y-119487800D02*
X77277500Y-119487800D01*
X118763500Y-78504800D02*
X118763500Y-108421800D01*
X97397500Y-99367800D02*
X97397500Y-87055800D01*
X132344500Y-122002800D02*
X74762500Y-122002800D01*
X84319500Y-112445800D02*
X84319500Y-73977800D01*
X89349500Y-79007800D02*
X118260500Y-79007800D01*
X73756500Y-123008800D02*
X73756500Y-63414800D01*
X95888500Y-85546800D02*
X111721500Y-85546800D01*
X85325500Y-74983800D02*
X122284500Y-74983800D01*
X79792500Y-116972800D02*
X79792500Y-69450800D01*
X137877500Y-59390800D02*
X137877500Y-127535800D01*
X98403500Y-98361800D02*
X98403500Y-88061800D01*
X124799500Y-114457800D02*
X82307500Y-114457800D01*
X115745500Y-105403800D02*
X91361500Y-105403800D01*
X94882500Y-84540800D02*
X112727500Y-84540800D01*
X68726500Y-58384800D02*
X138883500Y-58384800D01*
X133350500Y-63917800D02*
X133350500Y-123008800D01*
X134356500Y-124014800D02*
X72750500Y-124014800D01*
X125302500Y-71965800D02*
X125302500Y-114960800D01*
X92367500Y-82025800D02*
X115242500Y-82025800D01*
X116248500Y-105906800D02*
X90858500Y-105906800D01*
X98403500Y-88061800D02*
X109206500Y-88061800D01*
X136368500Y-126026800D02*
X70738500Y-126026800D01*
X115745500Y-81522800D02*
X115745500Y-105403800D01*
X118260500Y-79007800D02*
X118260500Y-107918800D01*
X93373500Y-83031800D02*
X114236500Y-83031800D01*
X77780500Y-118984800D02*
X77780500Y-67438800D01*
X97397500Y-87055800D02*
X110212500Y-87055800D01*
X82307500Y-114457800D02*
X82307500Y-71965800D01*
X132847500Y-64420800D02*
X132847500Y-122505800D01*
X121278500Y-110936800D02*
X85828500Y-110936800D01*
X86834500Y-76492800D02*
X120775500Y-76492800D01*
X124296500Y-72971800D02*
X124296500Y-113954800D01*
X138883500Y-58384800D02*
X138883500Y-128541800D01*
X110715500Y-100373800D02*
X96391500Y-100373800D01*
X71744500Y-61402800D02*
X135865500Y-61402800D01*
X122284500Y-111942800D02*
X84822500Y-111942800D01*
X79792500Y-69450800D02*
X127817500Y-69450800D01*
X128320500Y-117978800D02*
X78786500Y-117978800D01*
X97900500Y-87558800D02*
X109709500Y-87558800D01*
X87337500Y-76995800D02*
X120272500Y-76995800D01*
X136871500Y-60396800D02*
X136871500Y-126529800D01*
X92367500Y-104397800D02*
X92367500Y-82025800D01*
X113733500Y-83534800D02*
X113733500Y-103391800D01*
X96894500Y-99870800D02*
X96894500Y-86552800D01*
X76774500Y-119990800D02*
X76774500Y-66432800D01*
X123290500Y-73977800D02*
X123290500Y-112948800D01*
X76271500Y-65929800D02*
X131338500Y-65929800D01*
X72247500Y-61905800D02*
X135362500Y-61905800D01*
X137374500Y-59893800D02*
X137374500Y-127032800D01*
X135865500Y-61402800D02*
X135865500Y-125523800D01*
X96894500Y-86552800D02*
X110715500Y-86552800D01*
X84822500Y-74480800D02*
X122787500Y-74480800D01*
X134859500Y-62408800D02*
X134859500Y-124517800D01*
X122284500Y-74983800D02*
X122284500Y-111942800D01*
X71744500Y-125020800D02*
X71744500Y-61402800D01*
X93373500Y-103391800D02*
X93373500Y-83031800D01*
X126811500Y-116469800D02*
X80295500Y-116469800D01*
X80798500Y-115966800D02*
X80798500Y-70456800D01*
X131841500Y-65426800D02*
X131841500Y-121499800D01*
X109709500Y-99367800D02*
X97397500Y-99367800D01*
X111721500Y-101379800D02*
X95385500Y-101379800D01*
X89349500Y-107415800D02*
X89349500Y-79007800D01*
X83816500Y-73474800D02*
X123793500Y-73474800D01*
X91361500Y-81019800D02*
X116248500Y-81019800D01*
X132847500Y-122505800D02*
X74259500Y-122505800D01*
X85828500Y-75486800D02*
X121781500Y-75486800D01*
X91864500Y-81522800D02*
X115745500Y-81522800D01*
X73756500Y-63414800D02*
X133853500Y-63414800D01*
X131338500Y-65929800D02*
X131338500Y-120996800D01*
X110212500Y-87055800D02*
X110212500Y-99870800D01*
X81804500Y-71462800D02*
X125805500Y-71462800D01*
X79289500Y-68947800D02*
X128320500Y-68947800D01*
X94379500Y-84037800D02*
X113230500Y-84037800D01*
X72247500Y-124517800D02*
X72247500Y-61905800D01*
X123793500Y-113451800D02*
X83313500Y-113451800D01*
X117254500Y-106912800D02*
X89852500Y-106912800D01*
X119769500Y-77498800D02*
X119769500Y-109427800D01*
X131338500Y-120996800D02*
X75768500Y-120996800D01*
X78283500Y-67941800D02*
X129326500Y-67941800D01*
X69229500Y-127535800D02*
X69229500Y-58887800D01*
X92870500Y-103894800D02*
X92870500Y-82528800D01*
X124296500Y-113954800D02*
X82810500Y-113954800D01*
X76271500Y-120493800D02*
X76271500Y-65929800D01*
X87337500Y-109427800D02*
X87337500Y-76995800D01*
X130332500Y-66935800D02*
X130332500Y-119990800D01*
X136871500Y-126529800D02*
X70235500Y-126529800D01*
X137374500Y-127032800D02*
X69732500Y-127032800D01*
X110715500Y-86552800D02*
X110715500Y-100373800D01*
X74259500Y-122505800D02*
X74259500Y-63917800D01*
X138883500Y-128541800D02*
X138883500Y-130445018D01*
X114236500Y-83031800D02*
X114236500Y-103894800D01*
X82810500Y-72468800D02*
X124799500Y-72468800D01*
X84822500Y-111942800D02*
X84822500Y-74480800D01*
X78786500Y-68444800D02*
X128823500Y-68444800D01*
X127817500Y-69450800D02*
X127817500Y-117475800D01*
X71241500Y-125523800D02*
X71241500Y-60899800D01*
X135362500Y-61905800D02*
X135362500Y-125020800D01*
X112727500Y-102385800D02*
X94379500Y-102385800D01*
X132344500Y-64923800D02*
X132344500Y-122002800D01*
X69732500Y-59390800D02*
X137877500Y-59390800D01*
X93876500Y-83534800D02*
X113733500Y-83534800D01*
X124799500Y-72468800D02*
X124799500Y-114457800D01*
X131841500Y-121499800D02*
X75265500Y-121499800D01*
X120272500Y-76995800D02*
X120272500Y-109930800D01*
X112224500Y-101882800D02*
X94882500Y-101882800D01*
X68726500Y-128038800D02*
X68726500Y-58384800D01*
X70235500Y-59893800D02*
X137374500Y-59893800D01*
X96391500Y-100373800D02*
X96391500Y-86049800D01*
X78283500Y-118481800D02*
X78283500Y-67941800D01*
X81301500Y-115463800D02*
X81301500Y-70959800D01*
X134356500Y-62911800D02*
X134356500Y-124014800D01*
X121278500Y-75989800D02*
X121278500Y-110936800D01*
X85325500Y-111439800D02*
X85325500Y-74983800D01*
X123793500Y-73474800D02*
X123793500Y-113451800D01*
X129326500Y-67941800D02*
X129326500Y-118984800D01*
X94882500Y-101882800D02*
X94882500Y-84540800D01*
X114236500Y-103894800D02*
X92870500Y-103894800D01*
D11*
X138937635Y-130394246D03*
D12*
X106093500Y-95751800D03*
D13*
X67342500Y-145740000D03*
D14*
X70042500Y-139740000D03*
D13*
X67342500Y-138740000D03*
D14*
X70042500Y-144740000D03*
D15*
X115658600Y-152313700D03*
D16*
X118198600Y-152313700D03*
X120738600Y-152313700D03*
X123278600Y-152313700D03*
X125818600Y-152313700D03*
X128358600Y-152313700D03*
X130898600Y-152313700D03*
X133438600Y-152313700D03*
D17*
X76200000Y-132080000D03*
D18*
X78740000Y-132080000D03*
X81280000Y-132080000D03*
D19*
X138127000Y-142200000D03*
X136127000Y-142200000D03*
D20*
X95596000Y-142587400D03*
X87194200Y-132583000D03*
X107379300Y-138221700D03*
X137805800Y-132173500D03*
X100033700Y-141978000D03*
X100015600Y-140697700D03*
X96929500Y-142758000D03*
X98629300Y-138751600D03*
X90725300Y-142274800D03*
D21*
X123278600Y-152313700D02*
X122103300Y-152313700D01*
X122103300Y-152681000D02*
X122103300Y-152313700D01*
X120368000Y-154416300D02*
X122103300Y-152681000D01*
X107424900Y-154416300D02*
X120368000Y-154416300D01*
X95596000Y-142587400D02*
X107424900Y-154416300D01*
X101740600Y-132583000D02*
X107379300Y-138221700D01*
X87194200Y-132583000D02*
X101740600Y-132583000D01*
X137805800Y-131526000D02*
X137805800Y-132173500D01*
X138937600Y-130394200D02*
X137805800Y-131526000D01*
X122261000Y-141978000D02*
X100033700Y-141978000D01*
X132076700Y-151793700D02*
X122261000Y-141978000D01*
X132076700Y-152823200D02*
X132076700Y-151793700D01*
X131394300Y-153505600D02*
X132076700Y-152823200D01*
X129550500Y-153505600D02*
X131394300Y-153505600D01*
X128358600Y-152313700D02*
X129550500Y-153505600D01*
X125818600Y-152313700D02*
X126993900Y-152313700D01*
X123513400Y-140697700D02*
X100015600Y-140697700D01*
X134614000Y-151798300D02*
X123513400Y-140697700D01*
X134614000Y-152855000D02*
X134614000Y-151798300D01*
X133461400Y-154007600D02*
X134614000Y-152855000D01*
X128320500Y-154007600D02*
X133461400Y-154007600D01*
X126993900Y-152681000D02*
X128320500Y-154007600D01*
X126993900Y-152313700D02*
X126993900Y-152681000D01*
X108137500Y-153966000D02*
X96929500Y-142758000D01*
X119086300Y-153966000D02*
X108137500Y-153966000D01*
X120738600Y-152313700D02*
X119086300Y-153966000D01*
X109670600Y-143785700D02*
X118198600Y-152313700D01*
X100815700Y-143785700D02*
X109670600Y-143785700D01*
X98629300Y-141599300D02*
X100815700Y-143785700D01*
X98629300Y-138751600D02*
X98629300Y-141599300D01*
X81280000Y-132080000D02*
X82470300Y-132080000D01*
X85605400Y-135215100D02*
X82470300Y-132080000D01*
X101576100Y-135215100D02*
X85605400Y-135215100D01*
X105308100Y-138947100D02*
X101576100Y-135215100D01*
X132874100Y-138947100D02*
X105308100Y-138947100D01*
X136127000Y-142200000D02*
X132874100Y-138947100D01*
X129723300Y-151948400D02*
X129723300Y-152313700D01*
X128907800Y-151132900D02*
X129723300Y-151948400D01*
X120226600Y-151132900D02*
X128907800Y-151132900D01*
X119468600Y-151890900D02*
X120226600Y-151132900D01*
X119468600Y-152714100D02*
X119468600Y-151890900D01*
X118689200Y-153493500D02*
X119468600Y-152714100D01*
X117646400Y-153493500D02*
X118689200Y-153493500D01*
X116833900Y-152681000D02*
X117646400Y-153493500D01*
X116833900Y-152313700D02*
X116833900Y-152681000D01*
X115658600Y-152313700D02*
X116833900Y-152313700D01*
X115658600Y-152313700D02*
X114483300Y-152313700D01*
X130898600Y-152313700D02*
X129723300Y-152313700D01*
X108706800Y-152313700D02*
X114483300Y-152313700D01*
X98255200Y-141862100D02*
X108706800Y-152313700D01*
X91138000Y-141862100D02*
X98255200Y-141862100D01*
X90725300Y-142274800D02*
X91138000Y-141862100D01*
M02*
