%TF.GenerationSoftware,KiCad,Pcbnew,(6.0.7)*%
%TF.CreationDate,2022-10-30T14:33:14-06:00*%
%TF.ProjectId,attiny_rfid_light,61747469-6e79-45f7-9266-69645f6c6967,rev?*%
%TF.SameCoordinates,Original*%
%TF.FileFunction,Drillmap*%
%TF.FilePolarity,Positive*%
%FSLAX45Y45*%
G04 Gerber Fmt 4.5, Leading zero omitted, Abs format (unit mm)*
G04 Created by KiCad (PCBNEW (6.0.7)) date 2022-10-30 14:33:14*
%MOMM*%
%LPD*%
G01*
G04 APERTURE LIST*
%ADD10C,0.100000*%
%ADD11C,0.200000*%
%ADD12C,0.040000*%
%ADD13C,0.060000*%
%ADD14C,0.076200*%
%ADD15C,0.080000*%
%ADD16C,0.085000*%
%ADD17C,0.102000*%
G04 APERTURE END LIST*
D10*
X9872982Y-8863151D02*
X10835262Y-8863151D01*
X10835262Y-9598376D02*
X9872982Y-9598376D01*
X9872982Y-9598376D02*
X9872982Y-8863151D01*
D11*
X6585078Y-5595631D02*
X14088262Y-5595631D01*
X14088262Y-5595631D02*
X14088262Y-15501631D01*
X14088262Y-15501631D02*
X6585078Y-15501631D01*
X6585078Y-15501631D02*
X6585078Y-5595631D01*
D10*
X10835262Y-8863151D02*
X10835262Y-9598376D01*
D11*
D12*
X7092000Y-13696000D02*
X7132000Y-13736000D01*
X7132000Y-13696000D02*
X7092000Y-13736000D01*
X7092000Y-14966000D02*
X7132000Y-15006000D01*
X7132000Y-14966000D02*
X7092000Y-15006000D01*
X7197357Y-13117320D02*
X7237357Y-13157320D01*
X7237357Y-13117320D02*
X7197357Y-13157320D01*
X7346000Y-13696000D02*
X7386000Y-13736000D01*
X7386000Y-13696000D02*
X7346000Y-13736000D01*
X7346000Y-14966000D02*
X7386000Y-15006000D01*
X7386000Y-14966000D02*
X7346000Y-15006000D01*
X7832452Y-15347208D02*
X7872452Y-15387208D01*
X7872452Y-15347208D02*
X7832452Y-15387208D01*
X7854000Y-13696000D02*
X7894000Y-13736000D01*
X7894000Y-13696000D02*
X7854000Y-13736000D01*
X8616000Y-14458000D02*
X8656000Y-14498000D01*
X8656000Y-14458000D02*
X8616000Y-14498000D01*
X8616000Y-14966000D02*
X8656000Y-15006000D01*
X8656000Y-14966000D02*
X8616000Y-15006000D01*
X8870000Y-13442000D02*
X8910000Y-13482000D01*
X8910000Y-13442000D02*
X8870000Y-13482000D01*
X8870000Y-14966000D02*
X8910000Y-15006000D01*
X8910000Y-14966000D02*
X8870000Y-15006000D01*
X9124000Y-13442000D02*
X9164000Y-13482000D01*
X9164000Y-13442000D02*
X9124000Y-13482000D01*
X9408850Y-14725770D02*
X9448850Y-14765770D01*
X9448850Y-14725770D02*
X9408850Y-14765770D01*
X9409440Y-13953840D02*
X9449440Y-13993840D01*
X9449440Y-13953840D02*
X9409440Y-13993840D01*
X9526130Y-14029860D02*
X9566130Y-14069860D01*
X9566130Y-14029860D02*
X9526130Y-14069860D01*
X9619210Y-14833410D02*
X9659210Y-14873410D01*
X9659210Y-14833410D02*
X9619210Y-14873410D01*
X9654320Y-13758200D02*
X9694320Y-13798200D01*
X9694320Y-13758200D02*
X9654320Y-13798200D01*
X9744710Y-14851080D02*
X9784710Y-14891080D01*
X9784710Y-14851080D02*
X9744710Y-14891080D01*
X9758580Y-14104150D02*
X9798580Y-14144150D01*
X9798580Y-14104150D02*
X9758580Y-14144150D01*
X9886000Y-15220000D02*
X9926000Y-15260000D01*
X9926000Y-15220000D02*
X9886000Y-15260000D01*
X10648000Y-15220000D02*
X10688000Y-15260000D01*
X10688000Y-15220000D02*
X10648000Y-15260000D01*
X10902000Y-13188000D02*
X10942000Y-13228000D01*
X10942000Y-13188000D02*
X10902000Y-13228000D01*
X11113560Y-15204980D02*
X11153560Y-15244980D01*
X11153560Y-15204980D02*
X11113560Y-15244980D01*
X11273030Y-14779100D02*
X11313030Y-14819100D01*
X11313030Y-14779100D02*
X11273030Y-14819100D01*
X11306465Y-13529565D02*
X11346465Y-13569565D01*
X11346465Y-13529565D02*
X11306465Y-13569565D01*
X11480970Y-14600550D02*
X11520970Y-14640550D01*
X11520970Y-14600550D02*
X11480970Y-14640550D01*
X12050212Y-13569497D02*
X12090212Y-13609497D01*
X12090212Y-13569497D02*
X12050212Y-13609497D01*
X12917350Y-13953840D02*
X12957350Y-13993840D01*
X12957350Y-13953840D02*
X12917350Y-13993840D01*
X12992340Y-14304760D02*
X13032340Y-14344760D01*
X13032340Y-14304760D02*
X12992340Y-14344760D01*
X13171350Y-13758200D02*
X13211350Y-13798200D01*
X13211350Y-13758200D02*
X13171350Y-13798200D01*
X13223235Y-14872302D02*
X13263235Y-14912302D01*
X13263235Y-14872302D02*
X13223235Y-14912302D01*
X13289500Y-13434000D02*
X13329500Y-13474000D01*
X13329500Y-13434000D02*
X13289500Y-13474000D01*
X13537705Y-13110271D02*
X13577705Y-13150271D01*
X13577705Y-13110271D02*
X13537705Y-13150271D01*
X13853623Y-13317595D02*
X13893623Y-13357595D01*
X13893623Y-13317595D02*
X13853623Y-13357595D01*
X13912426Y-14715806D02*
X13952426Y-14755806D01*
X13952426Y-14715806D02*
X13912426Y-14755806D01*
X13923315Y-14055903D02*
X13963315Y-14095903D01*
X13963315Y-14055903D02*
X13923315Y-14095903D01*
D13*
X6764250Y-13874000D02*
G75*
G03*
X6764250Y-13874000I-30000J0D01*
G01*
D11*
X6699250Y-13904000D02*
X6769250Y-13904000D01*
X6699250Y-13844000D02*
X6769250Y-13844000D01*
X6769250Y-13904000D02*
G75*
G03*
X6769250Y-13844000I0J30000D01*
G01*
X6699250Y-13844000D02*
G75*
G03*
X6699250Y-13904000I0J-30000D01*
G01*
D13*
X6764250Y-14574000D02*
G75*
G03*
X6764250Y-14574000I-30000J0D01*
G01*
D11*
X6769250Y-14544000D02*
X6699250Y-14544000D01*
X6769250Y-14604000D02*
X6699250Y-14604000D01*
X6699250Y-14544000D02*
G75*
G03*
X6699250Y-14604000I0J-30000D01*
G01*
X6769250Y-14604000D02*
G75*
G03*
X6769250Y-14544000I0J30000D01*
G01*
D14*
X10355350Y-9675223D02*
X10355350Y-9751423D01*
X10317250Y-9713323D02*
X10393450Y-9713323D01*
D15*
X13716394Y-13744284D02*
X13716394Y-13687715D01*
X13659825Y-13687715D01*
X13659825Y-13744284D01*
X13716394Y-13744284D01*
X13916394Y-13744284D02*
X13916394Y-13687715D01*
X13859825Y-13687715D01*
X13859825Y-13744284D01*
X13916394Y-13744284D01*
D16*
X7004250Y-14016500D02*
X7046750Y-13974000D01*
X7004250Y-13931500D01*
X6961750Y-13974000D01*
X7004250Y-14016500D01*
X7004250Y-14516500D02*
X7046750Y-14474000D01*
X7004250Y-14431500D01*
X6961750Y-14474000D01*
X7004250Y-14516500D01*
D10*
X11515860Y-15181370D02*
X11615860Y-15281370D01*
X11615860Y-15181370D02*
X11515860Y-15281370D01*
X11615860Y-15231370D02*
G75*
G03*
X11615860Y-15231370I-50000J0D01*
G01*
X11769860Y-15181370D02*
X11869860Y-15281370D01*
X11869860Y-15181370D02*
X11769860Y-15281370D01*
X11869860Y-15231370D02*
G75*
G03*
X11869860Y-15231370I-50000J0D01*
G01*
X12023860Y-15181370D02*
X12123860Y-15281370D01*
X12123860Y-15181370D02*
X12023860Y-15281370D01*
X12123860Y-15231370D02*
G75*
G03*
X12123860Y-15231370I-50000J0D01*
G01*
X12277860Y-15181370D02*
X12377860Y-15281370D01*
X12377860Y-15181370D02*
X12277860Y-15281370D01*
X12377860Y-15231370D02*
G75*
G03*
X12377860Y-15231370I-50000J0D01*
G01*
X12531860Y-15181370D02*
X12631860Y-15281370D01*
X12631860Y-15181370D02*
X12531860Y-15281370D01*
X12631860Y-15231370D02*
G75*
G03*
X12631860Y-15231370I-50000J0D01*
G01*
X12785860Y-15181370D02*
X12885860Y-15281370D01*
X12885860Y-15181370D02*
X12785860Y-15281370D01*
X12885860Y-15231370D02*
G75*
G03*
X12885860Y-15231370I-50000J0D01*
G01*
X13039860Y-15181370D02*
X13139860Y-15281370D01*
X13139860Y-15181370D02*
X13039860Y-15281370D01*
X13139860Y-15231370D02*
G75*
G03*
X13139860Y-15231370I-50000J0D01*
G01*
X13293860Y-15181370D02*
X13393860Y-15281370D01*
X13393860Y-15181370D02*
X13293860Y-15281370D01*
X13393860Y-15231370D02*
G75*
G03*
X13393860Y-15231370I-50000J0D01*
G01*
D17*
X7503240Y-13168440D02*
X7605240Y-13270440D01*
X7605240Y-13168440D02*
X7503240Y-13270440D01*
X7554240Y-13168440D02*
X7554240Y-13270440D01*
X7503240Y-13219440D02*
X7605240Y-13219440D01*
X7757240Y-13168440D02*
X7859240Y-13270440D01*
X7859240Y-13168440D02*
X7757240Y-13270440D01*
X7808240Y-13168440D02*
X7808240Y-13270440D01*
X7757240Y-13219440D02*
X7859240Y-13219440D01*
X8011240Y-13168440D02*
X8113240Y-13270440D01*
X8113240Y-13168440D02*
X8011240Y-13270440D01*
X8062240Y-13168440D02*
X8062240Y-13270440D01*
X8011240Y-13219440D02*
X8113240Y-13219440D01*
D11*
X6832697Y-15822107D02*
X6832697Y-15622107D01*
X6880316Y-15622107D01*
X6908887Y-15631631D01*
X6927935Y-15650678D01*
X6937459Y-15669726D01*
X6946982Y-15707821D01*
X6946982Y-15736393D01*
X6937459Y-15774488D01*
X6927935Y-15793536D01*
X6908887Y-15812583D01*
X6880316Y-15822107D01*
X6832697Y-15822107D01*
X7032697Y-15822107D02*
X7032697Y-15688774D01*
X7032697Y-15726869D02*
X7042220Y-15707821D01*
X7051744Y-15698297D01*
X7070792Y-15688774D01*
X7089840Y-15688774D01*
X7156506Y-15822107D02*
X7156506Y-15688774D01*
X7156506Y-15622107D02*
X7146982Y-15631631D01*
X7156506Y-15641155D01*
X7166030Y-15631631D01*
X7156506Y-15622107D01*
X7156506Y-15641155D01*
X7280316Y-15822107D02*
X7261268Y-15812583D01*
X7251744Y-15793536D01*
X7251744Y-15622107D01*
X7385078Y-15822107D02*
X7366030Y-15812583D01*
X7356506Y-15793536D01*
X7356506Y-15622107D01*
X7613649Y-15822107D02*
X7613649Y-15622107D01*
X7680316Y-15764964D01*
X7746982Y-15622107D01*
X7746982Y-15822107D01*
X7927935Y-15822107D02*
X7927935Y-15717345D01*
X7918411Y-15698297D01*
X7899363Y-15688774D01*
X7861268Y-15688774D01*
X7842220Y-15698297D01*
X7927935Y-15812583D02*
X7908887Y-15822107D01*
X7861268Y-15822107D01*
X7842220Y-15812583D01*
X7832697Y-15793536D01*
X7832697Y-15774488D01*
X7842220Y-15755440D01*
X7861268Y-15745917D01*
X7908887Y-15745917D01*
X7927935Y-15736393D01*
X8023173Y-15688774D02*
X8023173Y-15888774D01*
X8023173Y-15698297D02*
X8042220Y-15688774D01*
X8080316Y-15688774D01*
X8099363Y-15698297D01*
X8108887Y-15707821D01*
X8118411Y-15726869D01*
X8118411Y-15784012D01*
X8108887Y-15803059D01*
X8099363Y-15812583D01*
X8080316Y-15822107D01*
X8042220Y-15822107D01*
X8023173Y-15812583D01*
X8204125Y-15803059D02*
X8213649Y-15812583D01*
X8204125Y-15822107D01*
X8194601Y-15812583D01*
X8204125Y-15803059D01*
X8204125Y-15822107D01*
X8204125Y-15698297D02*
X8213649Y-15707821D01*
X8204125Y-15717345D01*
X8194601Y-15707821D01*
X8204125Y-15698297D01*
X8204125Y-15717345D01*
D12*
X6535078Y-16131631D02*
X6575078Y-16171631D01*
X6575078Y-16131631D02*
X6535078Y-16171631D01*
D11*
X6870792Y-16042107D02*
X6889840Y-16042107D01*
X6908887Y-16051631D01*
X6918411Y-16061155D01*
X6927935Y-16080202D01*
X6937459Y-16118297D01*
X6937459Y-16165917D01*
X6927935Y-16204012D01*
X6918411Y-16223059D01*
X6908887Y-16232583D01*
X6889840Y-16242107D01*
X6870792Y-16242107D01*
X6851744Y-16232583D01*
X6842220Y-16223059D01*
X6832697Y-16204012D01*
X6823173Y-16165917D01*
X6823173Y-16118297D01*
X6832697Y-16080202D01*
X6842220Y-16061155D01*
X6851744Y-16051631D01*
X6870792Y-16042107D01*
X7023173Y-16223059D02*
X7032697Y-16232583D01*
X7023173Y-16242107D01*
X7013649Y-16232583D01*
X7023173Y-16223059D01*
X7023173Y-16242107D01*
X7204125Y-16108774D02*
X7204125Y-16242107D01*
X7156506Y-16032583D02*
X7108887Y-16175440D01*
X7232697Y-16175440D01*
X7346982Y-16042107D02*
X7366030Y-16042107D01*
X7385078Y-16051631D01*
X7394601Y-16061155D01*
X7404125Y-16080202D01*
X7413649Y-16118297D01*
X7413649Y-16165917D01*
X7404125Y-16204012D01*
X7394601Y-16223059D01*
X7385078Y-16232583D01*
X7366030Y-16242107D01*
X7346982Y-16242107D01*
X7327935Y-16232583D01*
X7318411Y-16223059D01*
X7308887Y-16204012D01*
X7299363Y-16165917D01*
X7299363Y-16118297D01*
X7308887Y-16080202D01*
X7318411Y-16061155D01*
X7327935Y-16051631D01*
X7346982Y-16042107D01*
X7537459Y-16042107D02*
X7556506Y-16042107D01*
X7575554Y-16051631D01*
X7585078Y-16061155D01*
X7594601Y-16080202D01*
X7604125Y-16118297D01*
X7604125Y-16165917D01*
X7594601Y-16204012D01*
X7585078Y-16223059D01*
X7575554Y-16232583D01*
X7556506Y-16242107D01*
X7537459Y-16242107D01*
X7518411Y-16232583D01*
X7508887Y-16223059D01*
X7499363Y-16204012D01*
X7489840Y-16165917D01*
X7489840Y-16118297D01*
X7499363Y-16080202D01*
X7508887Y-16061155D01*
X7518411Y-16051631D01*
X7537459Y-16042107D01*
X7689840Y-16242107D02*
X7689840Y-16108774D01*
X7689840Y-16127821D02*
X7699363Y-16118297D01*
X7718411Y-16108774D01*
X7746982Y-16108774D01*
X7766030Y-16118297D01*
X7775554Y-16137345D01*
X7775554Y-16242107D01*
X7775554Y-16137345D02*
X7785078Y-16118297D01*
X7804125Y-16108774D01*
X7832697Y-16108774D01*
X7851744Y-16118297D01*
X7861268Y-16137345D01*
X7861268Y-16242107D01*
X7956506Y-16242107D02*
X7956506Y-16108774D01*
X7956506Y-16127821D02*
X7966030Y-16118297D01*
X7985078Y-16108774D01*
X8013649Y-16108774D01*
X8032697Y-16118297D01*
X8042220Y-16137345D01*
X8042220Y-16242107D01*
X8042220Y-16137345D02*
X8051744Y-16118297D01*
X8070792Y-16108774D01*
X8099363Y-16108774D01*
X8118411Y-16118297D01*
X8127935Y-16137345D01*
X8127935Y-16242107D01*
X8518411Y-16032583D02*
X8346982Y-16289726D01*
X8775554Y-16042107D02*
X8794602Y-16042107D01*
X8813649Y-16051631D01*
X8823173Y-16061155D01*
X8832697Y-16080202D01*
X8842221Y-16118297D01*
X8842221Y-16165917D01*
X8832697Y-16204012D01*
X8823173Y-16223059D01*
X8813649Y-16232583D01*
X8794602Y-16242107D01*
X8775554Y-16242107D01*
X8756506Y-16232583D01*
X8746982Y-16223059D01*
X8737459Y-16204012D01*
X8727935Y-16165917D01*
X8727935Y-16118297D01*
X8737459Y-16080202D01*
X8746982Y-16061155D01*
X8756506Y-16051631D01*
X8775554Y-16042107D01*
X8927935Y-16223059D02*
X8937459Y-16232583D01*
X8927935Y-16242107D01*
X8918411Y-16232583D01*
X8927935Y-16223059D01*
X8927935Y-16242107D01*
X9061268Y-16042107D02*
X9080316Y-16042107D01*
X9099363Y-16051631D01*
X9108887Y-16061155D01*
X9118411Y-16080202D01*
X9127935Y-16118297D01*
X9127935Y-16165917D01*
X9118411Y-16204012D01*
X9108887Y-16223059D01*
X9099363Y-16232583D01*
X9080316Y-16242107D01*
X9061268Y-16242107D01*
X9042221Y-16232583D01*
X9032697Y-16223059D01*
X9023173Y-16204012D01*
X9013649Y-16165917D01*
X9013649Y-16118297D01*
X9023173Y-16080202D01*
X9032697Y-16061155D01*
X9042221Y-16051631D01*
X9061268Y-16042107D01*
X9318411Y-16242107D02*
X9204125Y-16242107D01*
X9261268Y-16242107D02*
X9261268Y-16042107D01*
X9242221Y-16070678D01*
X9223173Y-16089726D01*
X9204125Y-16099250D01*
X9499363Y-16042107D02*
X9404125Y-16042107D01*
X9394602Y-16137345D01*
X9404125Y-16127821D01*
X9423173Y-16118297D01*
X9470792Y-16118297D01*
X9489840Y-16127821D01*
X9499363Y-16137345D01*
X9508887Y-16156393D01*
X9508887Y-16204012D01*
X9499363Y-16223059D01*
X9489840Y-16232583D01*
X9470792Y-16242107D01*
X9423173Y-16242107D01*
X9404125Y-16232583D01*
X9394602Y-16223059D01*
X9575554Y-16042107D02*
X9708887Y-16042107D01*
X9623173Y-16242107D01*
X9775554Y-16042107D02*
X9775554Y-16080202D01*
X9851744Y-16042107D02*
X9851744Y-16080202D01*
X10146982Y-16318297D02*
X10137459Y-16308774D01*
X10118411Y-16280202D01*
X10108887Y-16261155D01*
X10099363Y-16232583D01*
X10089840Y-16184964D01*
X10089840Y-16146869D01*
X10099363Y-16099250D01*
X10108887Y-16070678D01*
X10118411Y-16051631D01*
X10137459Y-16023059D01*
X10146982Y-16013536D01*
X10204125Y-16042107D02*
X10327935Y-16042107D01*
X10261268Y-16118297D01*
X10289840Y-16118297D01*
X10308887Y-16127821D01*
X10318411Y-16137345D01*
X10327935Y-16156393D01*
X10327935Y-16204012D01*
X10318411Y-16223059D01*
X10308887Y-16232583D01*
X10289840Y-16242107D01*
X10232697Y-16242107D01*
X10213649Y-16232583D01*
X10204125Y-16223059D01*
X10499363Y-16042107D02*
X10461268Y-16042107D01*
X10442221Y-16051631D01*
X10432697Y-16061155D01*
X10413649Y-16089726D01*
X10404125Y-16127821D01*
X10404125Y-16204012D01*
X10413649Y-16223059D01*
X10423173Y-16232583D01*
X10442221Y-16242107D01*
X10480316Y-16242107D01*
X10499363Y-16232583D01*
X10508887Y-16223059D01*
X10518411Y-16204012D01*
X10518411Y-16156393D01*
X10508887Y-16137345D01*
X10499363Y-16127821D01*
X10480316Y-16118297D01*
X10442221Y-16118297D01*
X10423173Y-16127821D01*
X10413649Y-16137345D01*
X10404125Y-16156393D01*
X10756506Y-16242107D02*
X10756506Y-16042107D01*
X10842221Y-16242107D02*
X10842221Y-16137345D01*
X10832697Y-16118297D01*
X10813649Y-16108774D01*
X10785078Y-16108774D01*
X10766030Y-16118297D01*
X10756506Y-16127821D01*
X10966030Y-16242107D02*
X10946982Y-16232583D01*
X10937459Y-16223059D01*
X10927935Y-16204012D01*
X10927935Y-16146869D01*
X10937459Y-16127821D01*
X10946982Y-16118297D01*
X10966030Y-16108774D01*
X10994602Y-16108774D01*
X11013649Y-16118297D01*
X11023173Y-16127821D01*
X11032697Y-16146869D01*
X11032697Y-16204012D01*
X11023173Y-16223059D01*
X11013649Y-16232583D01*
X10994602Y-16242107D01*
X10966030Y-16242107D01*
X11146982Y-16242107D02*
X11127935Y-16232583D01*
X11118411Y-16213536D01*
X11118411Y-16042107D01*
X11299363Y-16232583D02*
X11280316Y-16242107D01*
X11242220Y-16242107D01*
X11223173Y-16232583D01*
X11213649Y-16213536D01*
X11213649Y-16137345D01*
X11223173Y-16118297D01*
X11242220Y-16108774D01*
X11280316Y-16108774D01*
X11299363Y-16118297D01*
X11308887Y-16137345D01*
X11308887Y-16156393D01*
X11213649Y-16175440D01*
X11385078Y-16232583D02*
X11404125Y-16242107D01*
X11442220Y-16242107D01*
X11461268Y-16232583D01*
X11470792Y-16213536D01*
X11470792Y-16204012D01*
X11461268Y-16184964D01*
X11442220Y-16175440D01*
X11413649Y-16175440D01*
X11394601Y-16165917D01*
X11385078Y-16146869D01*
X11385078Y-16137345D01*
X11394601Y-16118297D01*
X11413649Y-16108774D01*
X11442220Y-16108774D01*
X11461268Y-16118297D01*
X11537459Y-16318297D02*
X11546982Y-16308774D01*
X11566030Y-16280202D01*
X11575554Y-16261155D01*
X11585078Y-16232583D01*
X11594601Y-16184964D01*
X11594601Y-16146869D01*
X11585078Y-16099250D01*
X11575554Y-16070678D01*
X11566030Y-16051631D01*
X11546982Y-16023059D01*
X11537459Y-16013536D01*
D13*
X6575078Y-16415631D02*
G75*
G03*
X6575078Y-16415631I-30000J0D01*
G01*
D11*
X6870792Y-16306107D02*
X6889840Y-16306107D01*
X6908887Y-16315631D01*
X6918411Y-16325155D01*
X6927935Y-16344202D01*
X6937459Y-16382297D01*
X6937459Y-16429917D01*
X6927935Y-16468012D01*
X6918411Y-16487059D01*
X6908887Y-16496583D01*
X6889840Y-16506107D01*
X6870792Y-16506107D01*
X6851744Y-16496583D01*
X6842220Y-16487059D01*
X6832697Y-16468012D01*
X6823173Y-16429917D01*
X6823173Y-16382297D01*
X6832697Y-16344202D01*
X6842220Y-16325155D01*
X6851744Y-16315631D01*
X6870792Y-16306107D01*
X7023173Y-16487059D02*
X7032697Y-16496583D01*
X7023173Y-16506107D01*
X7013649Y-16496583D01*
X7023173Y-16487059D01*
X7023173Y-16506107D01*
X7204125Y-16306107D02*
X7166030Y-16306107D01*
X7146982Y-16315631D01*
X7137459Y-16325155D01*
X7118411Y-16353726D01*
X7108887Y-16391821D01*
X7108887Y-16468012D01*
X7118411Y-16487059D01*
X7127935Y-16496583D01*
X7146982Y-16506107D01*
X7185078Y-16506107D01*
X7204125Y-16496583D01*
X7213649Y-16487059D01*
X7223173Y-16468012D01*
X7223173Y-16420393D01*
X7213649Y-16401345D01*
X7204125Y-16391821D01*
X7185078Y-16382297D01*
X7146982Y-16382297D01*
X7127935Y-16391821D01*
X7118411Y-16401345D01*
X7108887Y-16420393D01*
X7346982Y-16306107D02*
X7366030Y-16306107D01*
X7385078Y-16315631D01*
X7394601Y-16325155D01*
X7404125Y-16344202D01*
X7413649Y-16382297D01*
X7413649Y-16429917D01*
X7404125Y-16468012D01*
X7394601Y-16487059D01*
X7385078Y-16496583D01*
X7366030Y-16506107D01*
X7346982Y-16506107D01*
X7327935Y-16496583D01*
X7318411Y-16487059D01*
X7308887Y-16468012D01*
X7299363Y-16429917D01*
X7299363Y-16382297D01*
X7308887Y-16344202D01*
X7318411Y-16325155D01*
X7327935Y-16315631D01*
X7346982Y-16306107D01*
X7537459Y-16306107D02*
X7556506Y-16306107D01*
X7575554Y-16315631D01*
X7585078Y-16325155D01*
X7594601Y-16344202D01*
X7604125Y-16382297D01*
X7604125Y-16429917D01*
X7594601Y-16468012D01*
X7585078Y-16487059D01*
X7575554Y-16496583D01*
X7556506Y-16506107D01*
X7537459Y-16506107D01*
X7518411Y-16496583D01*
X7508887Y-16487059D01*
X7499363Y-16468012D01*
X7489840Y-16429917D01*
X7489840Y-16382297D01*
X7499363Y-16344202D01*
X7508887Y-16325155D01*
X7518411Y-16315631D01*
X7537459Y-16306107D01*
X7689840Y-16506107D02*
X7689840Y-16372774D01*
X7689840Y-16391821D02*
X7699363Y-16382297D01*
X7718411Y-16372774D01*
X7746982Y-16372774D01*
X7766030Y-16382297D01*
X7775554Y-16401345D01*
X7775554Y-16506107D01*
X7775554Y-16401345D02*
X7785078Y-16382297D01*
X7804125Y-16372774D01*
X7832697Y-16372774D01*
X7851744Y-16382297D01*
X7861268Y-16401345D01*
X7861268Y-16506107D01*
X7956506Y-16506107D02*
X7956506Y-16372774D01*
X7956506Y-16391821D02*
X7966030Y-16382297D01*
X7985078Y-16372774D01*
X8013649Y-16372774D01*
X8032697Y-16382297D01*
X8042220Y-16401345D01*
X8042220Y-16506107D01*
X8042220Y-16401345D02*
X8051744Y-16382297D01*
X8070792Y-16372774D01*
X8099363Y-16372774D01*
X8118411Y-16382297D01*
X8127935Y-16401345D01*
X8127935Y-16506107D01*
X8518411Y-16296583D02*
X8346982Y-16553726D01*
X8775554Y-16306107D02*
X8794602Y-16306107D01*
X8813649Y-16315631D01*
X8823173Y-16325155D01*
X8832697Y-16344202D01*
X8842221Y-16382297D01*
X8842221Y-16429917D01*
X8832697Y-16468012D01*
X8823173Y-16487059D01*
X8813649Y-16496583D01*
X8794602Y-16506107D01*
X8775554Y-16506107D01*
X8756506Y-16496583D01*
X8746982Y-16487059D01*
X8737459Y-16468012D01*
X8727935Y-16429917D01*
X8727935Y-16382297D01*
X8737459Y-16344202D01*
X8746982Y-16325155D01*
X8756506Y-16315631D01*
X8775554Y-16306107D01*
X8927935Y-16487059D02*
X8937459Y-16496583D01*
X8927935Y-16506107D01*
X8918411Y-16496583D01*
X8927935Y-16487059D01*
X8927935Y-16506107D01*
X9061268Y-16306107D02*
X9080316Y-16306107D01*
X9099363Y-16315631D01*
X9108887Y-16325155D01*
X9118411Y-16344202D01*
X9127935Y-16382297D01*
X9127935Y-16429917D01*
X9118411Y-16468012D01*
X9108887Y-16487059D01*
X9099363Y-16496583D01*
X9080316Y-16506107D01*
X9061268Y-16506107D01*
X9042221Y-16496583D01*
X9032697Y-16487059D01*
X9023173Y-16468012D01*
X9013649Y-16429917D01*
X9013649Y-16382297D01*
X9023173Y-16344202D01*
X9032697Y-16325155D01*
X9042221Y-16315631D01*
X9061268Y-16306107D01*
X9204125Y-16325155D02*
X9213649Y-16315631D01*
X9232697Y-16306107D01*
X9280316Y-16306107D01*
X9299363Y-16315631D01*
X9308887Y-16325155D01*
X9318411Y-16344202D01*
X9318411Y-16363250D01*
X9308887Y-16391821D01*
X9194602Y-16506107D01*
X9318411Y-16506107D01*
X9385078Y-16306107D02*
X9508887Y-16306107D01*
X9442221Y-16382297D01*
X9470792Y-16382297D01*
X9489840Y-16391821D01*
X9499363Y-16401345D01*
X9508887Y-16420393D01*
X9508887Y-16468012D01*
X9499363Y-16487059D01*
X9489840Y-16496583D01*
X9470792Y-16506107D01*
X9413649Y-16506107D01*
X9394602Y-16496583D01*
X9385078Y-16487059D01*
X9680316Y-16306107D02*
X9642221Y-16306107D01*
X9623173Y-16315631D01*
X9613649Y-16325155D01*
X9594602Y-16353726D01*
X9585078Y-16391821D01*
X9585078Y-16468012D01*
X9594602Y-16487059D01*
X9604125Y-16496583D01*
X9623173Y-16506107D01*
X9661268Y-16506107D01*
X9680316Y-16496583D01*
X9689840Y-16487059D01*
X9699363Y-16468012D01*
X9699363Y-16420393D01*
X9689840Y-16401345D01*
X9680316Y-16391821D01*
X9661268Y-16382297D01*
X9623173Y-16382297D01*
X9604125Y-16391821D01*
X9594602Y-16401345D01*
X9585078Y-16420393D01*
X9775554Y-16306107D02*
X9775554Y-16344202D01*
X9851744Y-16306107D02*
X9851744Y-16344202D01*
X10146982Y-16582297D02*
X10137459Y-16572774D01*
X10118411Y-16544202D01*
X10108887Y-16525155D01*
X10099363Y-16496583D01*
X10089840Y-16448964D01*
X10089840Y-16410869D01*
X10099363Y-16363250D01*
X10108887Y-16334678D01*
X10118411Y-16315631D01*
X10137459Y-16287059D01*
X10146982Y-16277536D01*
X10261268Y-16306107D02*
X10280316Y-16306107D01*
X10299363Y-16315631D01*
X10308887Y-16325155D01*
X10318411Y-16344202D01*
X10327935Y-16382297D01*
X10327935Y-16429917D01*
X10318411Y-16468012D01*
X10308887Y-16487059D01*
X10299363Y-16496583D01*
X10280316Y-16506107D01*
X10261268Y-16506107D01*
X10242221Y-16496583D01*
X10232697Y-16487059D01*
X10223173Y-16468012D01*
X10213649Y-16429917D01*
X10213649Y-16382297D01*
X10223173Y-16344202D01*
X10232697Y-16325155D01*
X10242221Y-16315631D01*
X10261268Y-16306107D01*
X10566030Y-16506107D02*
X10566030Y-16306107D01*
X10651744Y-16506107D02*
X10651744Y-16401345D01*
X10642221Y-16382297D01*
X10623173Y-16372774D01*
X10594602Y-16372774D01*
X10575554Y-16382297D01*
X10566030Y-16391821D01*
X10775554Y-16506107D02*
X10756506Y-16496583D01*
X10746982Y-16487059D01*
X10737459Y-16468012D01*
X10737459Y-16410869D01*
X10746982Y-16391821D01*
X10756506Y-16382297D01*
X10775554Y-16372774D01*
X10804125Y-16372774D01*
X10823173Y-16382297D01*
X10832697Y-16391821D01*
X10842221Y-16410869D01*
X10842221Y-16468012D01*
X10832697Y-16487059D01*
X10823173Y-16496583D01*
X10804125Y-16506107D01*
X10775554Y-16506107D01*
X10956506Y-16506107D02*
X10937459Y-16496583D01*
X10927935Y-16477536D01*
X10927935Y-16306107D01*
X11108887Y-16496583D02*
X11089840Y-16506107D01*
X11051744Y-16506107D01*
X11032697Y-16496583D01*
X11023173Y-16477536D01*
X11023173Y-16401345D01*
X11032697Y-16382297D01*
X11051744Y-16372774D01*
X11089840Y-16372774D01*
X11108887Y-16382297D01*
X11118411Y-16401345D01*
X11118411Y-16420393D01*
X11023173Y-16439440D01*
X11194601Y-16496583D02*
X11213649Y-16506107D01*
X11251744Y-16506107D01*
X11270792Y-16496583D01*
X11280316Y-16477536D01*
X11280316Y-16468012D01*
X11270792Y-16448964D01*
X11251744Y-16439440D01*
X11223173Y-16439440D01*
X11204125Y-16429917D01*
X11194601Y-16410869D01*
X11194601Y-16401345D01*
X11204125Y-16382297D01*
X11223173Y-16372774D01*
X11251744Y-16372774D01*
X11270792Y-16382297D01*
X11518411Y-16429917D02*
X11670792Y-16429917D01*
X11594601Y-16506107D02*
X11594601Y-16353726D01*
X11908887Y-16325155D02*
X11918411Y-16315631D01*
X11937459Y-16306107D01*
X11985078Y-16306107D01*
X12004125Y-16315631D01*
X12013649Y-16325155D01*
X12023173Y-16344202D01*
X12023173Y-16363250D01*
X12013649Y-16391821D01*
X11899363Y-16506107D01*
X12023173Y-16506107D01*
X12251744Y-16496583D02*
X12270792Y-16506107D01*
X12308887Y-16506107D01*
X12327935Y-16496583D01*
X12337459Y-16477536D01*
X12337459Y-16468012D01*
X12327935Y-16448964D01*
X12308887Y-16439440D01*
X12280316Y-16439440D01*
X12261268Y-16429917D01*
X12251744Y-16410869D01*
X12251744Y-16401345D01*
X12261268Y-16382297D01*
X12280316Y-16372774D01*
X12308887Y-16372774D01*
X12327935Y-16382297D01*
X12451744Y-16506107D02*
X12432697Y-16496583D01*
X12423173Y-16477536D01*
X12423173Y-16306107D01*
X12556506Y-16506107D02*
X12537459Y-16496583D01*
X12527935Y-16487059D01*
X12518411Y-16468012D01*
X12518411Y-16410869D01*
X12527935Y-16391821D01*
X12537459Y-16382297D01*
X12556506Y-16372774D01*
X12585078Y-16372774D01*
X12604125Y-16382297D01*
X12613649Y-16391821D01*
X12623173Y-16410869D01*
X12623173Y-16468012D01*
X12613649Y-16487059D01*
X12604125Y-16496583D01*
X12585078Y-16506107D01*
X12556506Y-16506107D01*
X12680316Y-16372774D02*
X12756506Y-16372774D01*
X12708887Y-16306107D02*
X12708887Y-16477536D01*
X12718411Y-16496583D01*
X12737459Y-16506107D01*
X12756506Y-16506107D01*
X12813649Y-16496583D02*
X12832697Y-16506107D01*
X12870792Y-16506107D01*
X12889840Y-16496583D01*
X12899363Y-16477536D01*
X12899363Y-16468012D01*
X12889840Y-16448964D01*
X12870792Y-16439440D01*
X12842220Y-16439440D01*
X12823173Y-16429917D01*
X12813649Y-16410869D01*
X12813649Y-16401345D01*
X12823173Y-16382297D01*
X12842220Y-16372774D01*
X12870792Y-16372774D01*
X12889840Y-16382297D01*
X12966030Y-16582297D02*
X12975554Y-16572774D01*
X12994601Y-16544202D01*
X13004125Y-16525155D01*
X13013649Y-16496583D01*
X13023173Y-16448964D01*
X13023173Y-16410869D01*
X13013649Y-16363250D01*
X13004125Y-16334678D01*
X12994601Y-16315631D01*
X12975554Y-16287059D01*
X12966030Y-16277536D01*
D14*
X6536978Y-16641531D02*
X6536978Y-16717731D01*
X6498878Y-16679631D02*
X6575078Y-16679631D01*
D11*
X6870792Y-16570107D02*
X6889840Y-16570107D01*
X6908887Y-16579631D01*
X6918411Y-16589155D01*
X6927935Y-16608202D01*
X6937459Y-16646297D01*
X6937459Y-16693917D01*
X6927935Y-16732012D01*
X6918411Y-16751059D01*
X6908887Y-16760583D01*
X6889840Y-16770107D01*
X6870792Y-16770107D01*
X6851744Y-16760583D01*
X6842220Y-16751059D01*
X6832697Y-16732012D01*
X6823173Y-16693917D01*
X6823173Y-16646297D01*
X6832697Y-16608202D01*
X6842220Y-16589155D01*
X6851744Y-16579631D01*
X6870792Y-16570107D01*
X7023173Y-16751059D02*
X7032697Y-16760583D01*
X7023173Y-16770107D01*
X7013649Y-16760583D01*
X7023173Y-16751059D01*
X7023173Y-16770107D01*
X7099363Y-16570107D02*
X7232697Y-16570107D01*
X7146982Y-16770107D01*
X7394601Y-16570107D02*
X7356506Y-16570107D01*
X7337459Y-16579631D01*
X7327935Y-16589155D01*
X7308887Y-16617726D01*
X7299363Y-16655821D01*
X7299363Y-16732012D01*
X7308887Y-16751059D01*
X7318411Y-16760583D01*
X7337459Y-16770107D01*
X7375554Y-16770107D01*
X7394601Y-16760583D01*
X7404125Y-16751059D01*
X7413649Y-16732012D01*
X7413649Y-16684393D01*
X7404125Y-16665345D01*
X7394601Y-16655821D01*
X7375554Y-16646297D01*
X7337459Y-16646297D01*
X7318411Y-16655821D01*
X7308887Y-16665345D01*
X7299363Y-16684393D01*
X7489840Y-16589155D02*
X7499363Y-16579631D01*
X7518411Y-16570107D01*
X7566030Y-16570107D01*
X7585078Y-16579631D01*
X7594601Y-16589155D01*
X7604125Y-16608202D01*
X7604125Y-16627250D01*
X7594601Y-16655821D01*
X7480316Y-16770107D01*
X7604125Y-16770107D01*
X7689840Y-16770107D02*
X7689840Y-16636774D01*
X7689840Y-16655821D02*
X7699363Y-16646297D01*
X7718411Y-16636774D01*
X7746982Y-16636774D01*
X7766030Y-16646297D01*
X7775554Y-16665345D01*
X7775554Y-16770107D01*
X7775554Y-16665345D02*
X7785078Y-16646297D01*
X7804125Y-16636774D01*
X7832697Y-16636774D01*
X7851744Y-16646297D01*
X7861268Y-16665345D01*
X7861268Y-16770107D01*
X7956506Y-16770107D02*
X7956506Y-16636774D01*
X7956506Y-16655821D02*
X7966030Y-16646297D01*
X7985078Y-16636774D01*
X8013649Y-16636774D01*
X8032697Y-16646297D01*
X8042220Y-16665345D01*
X8042220Y-16770107D01*
X8042220Y-16665345D02*
X8051744Y-16646297D01*
X8070792Y-16636774D01*
X8099363Y-16636774D01*
X8118411Y-16646297D01*
X8127935Y-16665345D01*
X8127935Y-16770107D01*
X8518411Y-16560583D02*
X8346982Y-16817726D01*
X8775554Y-16570107D02*
X8794602Y-16570107D01*
X8813649Y-16579631D01*
X8823173Y-16589155D01*
X8832697Y-16608202D01*
X8842221Y-16646297D01*
X8842221Y-16693917D01*
X8832697Y-16732012D01*
X8823173Y-16751059D01*
X8813649Y-16760583D01*
X8794602Y-16770107D01*
X8775554Y-16770107D01*
X8756506Y-16760583D01*
X8746982Y-16751059D01*
X8737459Y-16732012D01*
X8727935Y-16693917D01*
X8727935Y-16646297D01*
X8737459Y-16608202D01*
X8746982Y-16589155D01*
X8756506Y-16579631D01*
X8775554Y-16570107D01*
X8927935Y-16751059D02*
X8937459Y-16760583D01*
X8927935Y-16770107D01*
X8918411Y-16760583D01*
X8927935Y-16751059D01*
X8927935Y-16770107D01*
X9061268Y-16570107D02*
X9080316Y-16570107D01*
X9099363Y-16579631D01*
X9108887Y-16589155D01*
X9118411Y-16608202D01*
X9127935Y-16646297D01*
X9127935Y-16693917D01*
X9118411Y-16732012D01*
X9108887Y-16751059D01*
X9099363Y-16760583D01*
X9080316Y-16770107D01*
X9061268Y-16770107D01*
X9042221Y-16760583D01*
X9032697Y-16751059D01*
X9023173Y-16732012D01*
X9013649Y-16693917D01*
X9013649Y-16646297D01*
X9023173Y-16608202D01*
X9032697Y-16589155D01*
X9042221Y-16579631D01*
X9061268Y-16570107D01*
X9194602Y-16570107D02*
X9318411Y-16570107D01*
X9251744Y-16646297D01*
X9280316Y-16646297D01*
X9299363Y-16655821D01*
X9308887Y-16665345D01*
X9318411Y-16684393D01*
X9318411Y-16732012D01*
X9308887Y-16751059D01*
X9299363Y-16760583D01*
X9280316Y-16770107D01*
X9223173Y-16770107D01*
X9204125Y-16760583D01*
X9194602Y-16751059D01*
X9442221Y-16570107D02*
X9461268Y-16570107D01*
X9480316Y-16579631D01*
X9489840Y-16589155D01*
X9499363Y-16608202D01*
X9508887Y-16646297D01*
X9508887Y-16693917D01*
X9499363Y-16732012D01*
X9489840Y-16751059D01*
X9480316Y-16760583D01*
X9461268Y-16770107D01*
X9442221Y-16770107D01*
X9423173Y-16760583D01*
X9413649Y-16751059D01*
X9404125Y-16732012D01*
X9394602Y-16693917D01*
X9394602Y-16646297D01*
X9404125Y-16608202D01*
X9413649Y-16589155D01*
X9423173Y-16579631D01*
X9442221Y-16570107D01*
X9632697Y-16570107D02*
X9651744Y-16570107D01*
X9670792Y-16579631D01*
X9680316Y-16589155D01*
X9689840Y-16608202D01*
X9699363Y-16646297D01*
X9699363Y-16693917D01*
X9689840Y-16732012D01*
X9680316Y-16751059D01*
X9670792Y-16760583D01*
X9651744Y-16770107D01*
X9632697Y-16770107D01*
X9613649Y-16760583D01*
X9604125Y-16751059D01*
X9594602Y-16732012D01*
X9585078Y-16693917D01*
X9585078Y-16646297D01*
X9594602Y-16608202D01*
X9604125Y-16589155D01*
X9613649Y-16579631D01*
X9632697Y-16570107D01*
X9775554Y-16570107D02*
X9775554Y-16608202D01*
X9851744Y-16570107D02*
X9851744Y-16608202D01*
X10146982Y-16846298D02*
X10137459Y-16836774D01*
X10118411Y-16808202D01*
X10108887Y-16789155D01*
X10099363Y-16760583D01*
X10089840Y-16712964D01*
X10089840Y-16674869D01*
X10099363Y-16627250D01*
X10108887Y-16598678D01*
X10118411Y-16579631D01*
X10137459Y-16551059D01*
X10146982Y-16541536D01*
X10327935Y-16770107D02*
X10213649Y-16770107D01*
X10270792Y-16770107D02*
X10270792Y-16570107D01*
X10251744Y-16598678D01*
X10232697Y-16617726D01*
X10213649Y-16627250D01*
X10566030Y-16770107D02*
X10566030Y-16570107D01*
X10651744Y-16770107D02*
X10651744Y-16665345D01*
X10642221Y-16646297D01*
X10623173Y-16636774D01*
X10594602Y-16636774D01*
X10575554Y-16646297D01*
X10566030Y-16655821D01*
X10775554Y-16770107D02*
X10756506Y-16760583D01*
X10746982Y-16751059D01*
X10737459Y-16732012D01*
X10737459Y-16674869D01*
X10746982Y-16655821D01*
X10756506Y-16646297D01*
X10775554Y-16636774D01*
X10804125Y-16636774D01*
X10823173Y-16646297D01*
X10832697Y-16655821D01*
X10842221Y-16674869D01*
X10842221Y-16732012D01*
X10832697Y-16751059D01*
X10823173Y-16760583D01*
X10804125Y-16770107D01*
X10775554Y-16770107D01*
X10956506Y-16770107D02*
X10937459Y-16760583D01*
X10927935Y-16741536D01*
X10927935Y-16570107D01*
X11108887Y-16760583D02*
X11089840Y-16770107D01*
X11051744Y-16770107D01*
X11032697Y-16760583D01*
X11023173Y-16741536D01*
X11023173Y-16665345D01*
X11032697Y-16646297D01*
X11051744Y-16636774D01*
X11089840Y-16636774D01*
X11108887Y-16646297D01*
X11118411Y-16665345D01*
X11118411Y-16684393D01*
X11023173Y-16703440D01*
X11185078Y-16846298D02*
X11194601Y-16836774D01*
X11213649Y-16808202D01*
X11223173Y-16789155D01*
X11232697Y-16760583D01*
X11242220Y-16712964D01*
X11242220Y-16674869D01*
X11232697Y-16627250D01*
X11223173Y-16598678D01*
X11213649Y-16579631D01*
X11194601Y-16551059D01*
X11185078Y-16541536D01*
D15*
X6563362Y-16971915D02*
X6563362Y-16915346D01*
X6506793Y-16915346D01*
X6506793Y-16971915D01*
X6563362Y-16971915D01*
D11*
X6870792Y-16834107D02*
X6889840Y-16834107D01*
X6908887Y-16843631D01*
X6918411Y-16853155D01*
X6927935Y-16872202D01*
X6937459Y-16910298D01*
X6937459Y-16957917D01*
X6927935Y-16996012D01*
X6918411Y-17015059D01*
X6908887Y-17024583D01*
X6889840Y-17034107D01*
X6870792Y-17034107D01*
X6851744Y-17024583D01*
X6842220Y-17015059D01*
X6832697Y-16996012D01*
X6823173Y-16957917D01*
X6823173Y-16910298D01*
X6832697Y-16872202D01*
X6842220Y-16853155D01*
X6851744Y-16843631D01*
X6870792Y-16834107D01*
X7023173Y-17015059D02*
X7032697Y-17024583D01*
X7023173Y-17034107D01*
X7013649Y-17024583D01*
X7023173Y-17015059D01*
X7023173Y-17034107D01*
X7146982Y-16919821D02*
X7127935Y-16910298D01*
X7118411Y-16900774D01*
X7108887Y-16881726D01*
X7108887Y-16872202D01*
X7118411Y-16853155D01*
X7127935Y-16843631D01*
X7146982Y-16834107D01*
X7185078Y-16834107D01*
X7204125Y-16843631D01*
X7213649Y-16853155D01*
X7223173Y-16872202D01*
X7223173Y-16881726D01*
X7213649Y-16900774D01*
X7204125Y-16910298D01*
X7185078Y-16919821D01*
X7146982Y-16919821D01*
X7127935Y-16929345D01*
X7118411Y-16938869D01*
X7108887Y-16957917D01*
X7108887Y-16996012D01*
X7118411Y-17015059D01*
X7127935Y-17024583D01*
X7146982Y-17034107D01*
X7185078Y-17034107D01*
X7204125Y-17024583D01*
X7213649Y-17015059D01*
X7223173Y-16996012D01*
X7223173Y-16957917D01*
X7213649Y-16938869D01*
X7204125Y-16929345D01*
X7185078Y-16919821D01*
X7346982Y-16834107D02*
X7366030Y-16834107D01*
X7385078Y-16843631D01*
X7394601Y-16853155D01*
X7404125Y-16872202D01*
X7413649Y-16910298D01*
X7413649Y-16957917D01*
X7404125Y-16996012D01*
X7394601Y-17015059D01*
X7385078Y-17024583D01*
X7366030Y-17034107D01*
X7346982Y-17034107D01*
X7327935Y-17024583D01*
X7318411Y-17015059D01*
X7308887Y-16996012D01*
X7299363Y-16957917D01*
X7299363Y-16910298D01*
X7308887Y-16872202D01*
X7318411Y-16853155D01*
X7327935Y-16843631D01*
X7346982Y-16834107D01*
X7537459Y-16834107D02*
X7556506Y-16834107D01*
X7575554Y-16843631D01*
X7585078Y-16853155D01*
X7594601Y-16872202D01*
X7604125Y-16910298D01*
X7604125Y-16957917D01*
X7594601Y-16996012D01*
X7585078Y-17015059D01*
X7575554Y-17024583D01*
X7556506Y-17034107D01*
X7537459Y-17034107D01*
X7518411Y-17024583D01*
X7508887Y-17015059D01*
X7499363Y-16996012D01*
X7489840Y-16957917D01*
X7489840Y-16910298D01*
X7499363Y-16872202D01*
X7508887Y-16853155D01*
X7518411Y-16843631D01*
X7537459Y-16834107D01*
X7689840Y-17034107D02*
X7689840Y-16900774D01*
X7689840Y-16919821D02*
X7699363Y-16910298D01*
X7718411Y-16900774D01*
X7746982Y-16900774D01*
X7766030Y-16910298D01*
X7775554Y-16929345D01*
X7775554Y-17034107D01*
X7775554Y-16929345D02*
X7785078Y-16910298D01*
X7804125Y-16900774D01*
X7832697Y-16900774D01*
X7851744Y-16910298D01*
X7861268Y-16929345D01*
X7861268Y-17034107D01*
X7956506Y-17034107D02*
X7956506Y-16900774D01*
X7956506Y-16919821D02*
X7966030Y-16910298D01*
X7985078Y-16900774D01*
X8013649Y-16900774D01*
X8032697Y-16910298D01*
X8042220Y-16929345D01*
X8042220Y-17034107D01*
X8042220Y-16929345D02*
X8051744Y-16910298D01*
X8070792Y-16900774D01*
X8099363Y-16900774D01*
X8118411Y-16910298D01*
X8127935Y-16929345D01*
X8127935Y-17034107D01*
X8518411Y-16824583D02*
X8346982Y-17081726D01*
X8775554Y-16834107D02*
X8794602Y-16834107D01*
X8813649Y-16843631D01*
X8823173Y-16853155D01*
X8832697Y-16872202D01*
X8842221Y-16910298D01*
X8842221Y-16957917D01*
X8832697Y-16996012D01*
X8823173Y-17015059D01*
X8813649Y-17024583D01*
X8794602Y-17034107D01*
X8775554Y-17034107D01*
X8756506Y-17024583D01*
X8746982Y-17015059D01*
X8737459Y-16996012D01*
X8727935Y-16957917D01*
X8727935Y-16910298D01*
X8737459Y-16872202D01*
X8746982Y-16853155D01*
X8756506Y-16843631D01*
X8775554Y-16834107D01*
X8927935Y-17015059D02*
X8937459Y-17024583D01*
X8927935Y-17034107D01*
X8918411Y-17024583D01*
X8927935Y-17015059D01*
X8927935Y-17034107D01*
X9061268Y-16834107D02*
X9080316Y-16834107D01*
X9099363Y-16843631D01*
X9108887Y-16853155D01*
X9118411Y-16872202D01*
X9127935Y-16910298D01*
X9127935Y-16957917D01*
X9118411Y-16996012D01*
X9108887Y-17015059D01*
X9099363Y-17024583D01*
X9080316Y-17034107D01*
X9061268Y-17034107D01*
X9042221Y-17024583D01*
X9032697Y-17015059D01*
X9023173Y-16996012D01*
X9013649Y-16957917D01*
X9013649Y-16910298D01*
X9023173Y-16872202D01*
X9032697Y-16853155D01*
X9042221Y-16843631D01*
X9061268Y-16834107D01*
X9194602Y-16834107D02*
X9318411Y-16834107D01*
X9251744Y-16910298D01*
X9280316Y-16910298D01*
X9299363Y-16919821D01*
X9308887Y-16929345D01*
X9318411Y-16948393D01*
X9318411Y-16996012D01*
X9308887Y-17015059D01*
X9299363Y-17024583D01*
X9280316Y-17034107D01*
X9223173Y-17034107D01*
X9204125Y-17024583D01*
X9194602Y-17015059D01*
X9508887Y-17034107D02*
X9394602Y-17034107D01*
X9451744Y-17034107D02*
X9451744Y-16834107D01*
X9432697Y-16862679D01*
X9413649Y-16881726D01*
X9394602Y-16891250D01*
X9689840Y-16834107D02*
X9594602Y-16834107D01*
X9585078Y-16929345D01*
X9594602Y-16919821D01*
X9613649Y-16910298D01*
X9661268Y-16910298D01*
X9680316Y-16919821D01*
X9689840Y-16929345D01*
X9699363Y-16948393D01*
X9699363Y-16996012D01*
X9689840Y-17015059D01*
X9680316Y-17024583D01*
X9661268Y-17034107D01*
X9613649Y-17034107D01*
X9594602Y-17024583D01*
X9585078Y-17015059D01*
X9775554Y-16834107D02*
X9775554Y-16872202D01*
X9851744Y-16834107D02*
X9851744Y-16872202D01*
X10146982Y-17110298D02*
X10137459Y-17100774D01*
X10118411Y-17072202D01*
X10108887Y-17053155D01*
X10099363Y-17024583D01*
X10089840Y-16976964D01*
X10089840Y-16938869D01*
X10099363Y-16891250D01*
X10108887Y-16862679D01*
X10118411Y-16843631D01*
X10137459Y-16815059D01*
X10146982Y-16805536D01*
X10213649Y-16853155D02*
X10223173Y-16843631D01*
X10242221Y-16834107D01*
X10289840Y-16834107D01*
X10308887Y-16843631D01*
X10318411Y-16853155D01*
X10327935Y-16872202D01*
X10327935Y-16891250D01*
X10318411Y-16919821D01*
X10204125Y-17034107D01*
X10327935Y-17034107D01*
X10566030Y-17034107D02*
X10566030Y-16834107D01*
X10651744Y-17034107D02*
X10651744Y-16929345D01*
X10642221Y-16910298D01*
X10623173Y-16900774D01*
X10594602Y-16900774D01*
X10575554Y-16910298D01*
X10566030Y-16919821D01*
X10775554Y-17034107D02*
X10756506Y-17024583D01*
X10746982Y-17015059D01*
X10737459Y-16996012D01*
X10737459Y-16938869D01*
X10746982Y-16919821D01*
X10756506Y-16910298D01*
X10775554Y-16900774D01*
X10804125Y-16900774D01*
X10823173Y-16910298D01*
X10832697Y-16919821D01*
X10842221Y-16938869D01*
X10842221Y-16996012D01*
X10832697Y-17015059D01*
X10823173Y-17024583D01*
X10804125Y-17034107D01*
X10775554Y-17034107D01*
X10956506Y-17034107D02*
X10937459Y-17024583D01*
X10927935Y-17005536D01*
X10927935Y-16834107D01*
X11108887Y-17024583D02*
X11089840Y-17034107D01*
X11051744Y-17034107D01*
X11032697Y-17024583D01*
X11023173Y-17005536D01*
X11023173Y-16929345D01*
X11032697Y-16910298D01*
X11051744Y-16900774D01*
X11089840Y-16900774D01*
X11108887Y-16910298D01*
X11118411Y-16929345D01*
X11118411Y-16948393D01*
X11023173Y-16967440D01*
X11194601Y-17024583D02*
X11213649Y-17034107D01*
X11251744Y-17034107D01*
X11270792Y-17024583D01*
X11280316Y-17005536D01*
X11280316Y-16996012D01*
X11270792Y-16976964D01*
X11251744Y-16967440D01*
X11223173Y-16967440D01*
X11204125Y-16957917D01*
X11194601Y-16938869D01*
X11194601Y-16929345D01*
X11204125Y-16910298D01*
X11223173Y-16900774D01*
X11251744Y-16900774D01*
X11270792Y-16910298D01*
X11346982Y-17110298D02*
X11356506Y-17100774D01*
X11375554Y-17072202D01*
X11385078Y-17053155D01*
X11394601Y-17024583D01*
X11404125Y-16976964D01*
X11404125Y-16938869D01*
X11394601Y-16891250D01*
X11385078Y-16862679D01*
X11375554Y-16843631D01*
X11356506Y-16815059D01*
X11346982Y-16805536D01*
D16*
X6532578Y-17250131D02*
X6575078Y-17207631D01*
X6532578Y-17165131D01*
X6490078Y-17207631D01*
X6532578Y-17250131D01*
D11*
X6870792Y-17098107D02*
X6889840Y-17098107D01*
X6908887Y-17107631D01*
X6918411Y-17117155D01*
X6927935Y-17136202D01*
X6937459Y-17174298D01*
X6937459Y-17221917D01*
X6927935Y-17260012D01*
X6918411Y-17279059D01*
X6908887Y-17288583D01*
X6889840Y-17298107D01*
X6870792Y-17298107D01*
X6851744Y-17288583D01*
X6842220Y-17279059D01*
X6832697Y-17260012D01*
X6823173Y-17221917D01*
X6823173Y-17174298D01*
X6832697Y-17136202D01*
X6842220Y-17117155D01*
X6851744Y-17107631D01*
X6870792Y-17098107D01*
X7023173Y-17279059D02*
X7032697Y-17288583D01*
X7023173Y-17298107D01*
X7013649Y-17288583D01*
X7023173Y-17279059D01*
X7023173Y-17298107D01*
X7146982Y-17183821D02*
X7127935Y-17174298D01*
X7118411Y-17164774D01*
X7108887Y-17145726D01*
X7108887Y-17136202D01*
X7118411Y-17117155D01*
X7127935Y-17107631D01*
X7146982Y-17098107D01*
X7185078Y-17098107D01*
X7204125Y-17107631D01*
X7213649Y-17117155D01*
X7223173Y-17136202D01*
X7223173Y-17145726D01*
X7213649Y-17164774D01*
X7204125Y-17174298D01*
X7185078Y-17183821D01*
X7146982Y-17183821D01*
X7127935Y-17193345D01*
X7118411Y-17202869D01*
X7108887Y-17221917D01*
X7108887Y-17260012D01*
X7118411Y-17279059D01*
X7127935Y-17288583D01*
X7146982Y-17298107D01*
X7185078Y-17298107D01*
X7204125Y-17288583D01*
X7213649Y-17279059D01*
X7223173Y-17260012D01*
X7223173Y-17221917D01*
X7213649Y-17202869D01*
X7204125Y-17193345D01*
X7185078Y-17183821D01*
X7404125Y-17098107D02*
X7308887Y-17098107D01*
X7299363Y-17193345D01*
X7308887Y-17183821D01*
X7327935Y-17174298D01*
X7375554Y-17174298D01*
X7394601Y-17183821D01*
X7404125Y-17193345D01*
X7413649Y-17212393D01*
X7413649Y-17260012D01*
X7404125Y-17279059D01*
X7394601Y-17288583D01*
X7375554Y-17298107D01*
X7327935Y-17298107D01*
X7308887Y-17288583D01*
X7299363Y-17279059D01*
X7537459Y-17098107D02*
X7556506Y-17098107D01*
X7575554Y-17107631D01*
X7585078Y-17117155D01*
X7594601Y-17136202D01*
X7604125Y-17174298D01*
X7604125Y-17221917D01*
X7594601Y-17260012D01*
X7585078Y-17279059D01*
X7575554Y-17288583D01*
X7556506Y-17298107D01*
X7537459Y-17298107D01*
X7518411Y-17288583D01*
X7508887Y-17279059D01*
X7499363Y-17260012D01*
X7489840Y-17221917D01*
X7489840Y-17174298D01*
X7499363Y-17136202D01*
X7508887Y-17117155D01*
X7518411Y-17107631D01*
X7537459Y-17098107D01*
X7689840Y-17298107D02*
X7689840Y-17164774D01*
X7689840Y-17183821D02*
X7699363Y-17174298D01*
X7718411Y-17164774D01*
X7746982Y-17164774D01*
X7766030Y-17174298D01*
X7775554Y-17193345D01*
X7775554Y-17298107D01*
X7775554Y-17193345D02*
X7785078Y-17174298D01*
X7804125Y-17164774D01*
X7832697Y-17164774D01*
X7851744Y-17174298D01*
X7861268Y-17193345D01*
X7861268Y-17298107D01*
X7956506Y-17298107D02*
X7956506Y-17164774D01*
X7956506Y-17183821D02*
X7966030Y-17174298D01*
X7985078Y-17164774D01*
X8013649Y-17164774D01*
X8032697Y-17174298D01*
X8042220Y-17193345D01*
X8042220Y-17298107D01*
X8042220Y-17193345D02*
X8051744Y-17174298D01*
X8070792Y-17164774D01*
X8099363Y-17164774D01*
X8118411Y-17174298D01*
X8127935Y-17193345D01*
X8127935Y-17298107D01*
X8518411Y-17088583D02*
X8346982Y-17345726D01*
X8775554Y-17098107D02*
X8794602Y-17098107D01*
X8813649Y-17107631D01*
X8823173Y-17117155D01*
X8832697Y-17136202D01*
X8842221Y-17174298D01*
X8842221Y-17221917D01*
X8832697Y-17260012D01*
X8823173Y-17279059D01*
X8813649Y-17288583D01*
X8794602Y-17298107D01*
X8775554Y-17298107D01*
X8756506Y-17288583D01*
X8746982Y-17279059D01*
X8737459Y-17260012D01*
X8727935Y-17221917D01*
X8727935Y-17174298D01*
X8737459Y-17136202D01*
X8746982Y-17117155D01*
X8756506Y-17107631D01*
X8775554Y-17098107D01*
X8927935Y-17279059D02*
X8937459Y-17288583D01*
X8927935Y-17298107D01*
X8918411Y-17288583D01*
X8927935Y-17279059D01*
X8927935Y-17298107D01*
X9061268Y-17098107D02*
X9080316Y-17098107D01*
X9099363Y-17107631D01*
X9108887Y-17117155D01*
X9118411Y-17136202D01*
X9127935Y-17174298D01*
X9127935Y-17221917D01*
X9118411Y-17260012D01*
X9108887Y-17279059D01*
X9099363Y-17288583D01*
X9080316Y-17298107D01*
X9061268Y-17298107D01*
X9042221Y-17288583D01*
X9032697Y-17279059D01*
X9023173Y-17260012D01*
X9013649Y-17221917D01*
X9013649Y-17174298D01*
X9023173Y-17136202D01*
X9032697Y-17117155D01*
X9042221Y-17107631D01*
X9061268Y-17098107D01*
X9194602Y-17098107D02*
X9318411Y-17098107D01*
X9251744Y-17174298D01*
X9280316Y-17174298D01*
X9299363Y-17183821D01*
X9308887Y-17193345D01*
X9318411Y-17212393D01*
X9318411Y-17260012D01*
X9308887Y-17279059D01*
X9299363Y-17288583D01*
X9280316Y-17298107D01*
X9223173Y-17298107D01*
X9204125Y-17288583D01*
X9194602Y-17279059D01*
X9385078Y-17098107D02*
X9508887Y-17098107D01*
X9442221Y-17174298D01*
X9470792Y-17174298D01*
X9489840Y-17183821D01*
X9499363Y-17193345D01*
X9508887Y-17212393D01*
X9508887Y-17260012D01*
X9499363Y-17279059D01*
X9489840Y-17288583D01*
X9470792Y-17298107D01*
X9413649Y-17298107D01*
X9394602Y-17288583D01*
X9385078Y-17279059D01*
X9689840Y-17098107D02*
X9594602Y-17098107D01*
X9585078Y-17193345D01*
X9594602Y-17183821D01*
X9613649Y-17174298D01*
X9661268Y-17174298D01*
X9680316Y-17183821D01*
X9689840Y-17193345D01*
X9699363Y-17212393D01*
X9699363Y-17260012D01*
X9689840Y-17279059D01*
X9680316Y-17288583D01*
X9661268Y-17298107D01*
X9613649Y-17298107D01*
X9594602Y-17288583D01*
X9585078Y-17279059D01*
X9775554Y-17098107D02*
X9775554Y-17136202D01*
X9851744Y-17098107D02*
X9851744Y-17136202D01*
X10146982Y-17374298D02*
X10137459Y-17364774D01*
X10118411Y-17336202D01*
X10108887Y-17317155D01*
X10099363Y-17288583D01*
X10089840Y-17240964D01*
X10089840Y-17202869D01*
X10099363Y-17155250D01*
X10108887Y-17126679D01*
X10118411Y-17107631D01*
X10137459Y-17079059D01*
X10146982Y-17069536D01*
X10213649Y-17117155D02*
X10223173Y-17107631D01*
X10242221Y-17098107D01*
X10289840Y-17098107D01*
X10308887Y-17107631D01*
X10318411Y-17117155D01*
X10327935Y-17136202D01*
X10327935Y-17155250D01*
X10318411Y-17183821D01*
X10204125Y-17298107D01*
X10327935Y-17298107D01*
X10566030Y-17298107D02*
X10566030Y-17098107D01*
X10651744Y-17298107D02*
X10651744Y-17193345D01*
X10642221Y-17174298D01*
X10623173Y-17164774D01*
X10594602Y-17164774D01*
X10575554Y-17174298D01*
X10566030Y-17183821D01*
X10775554Y-17298107D02*
X10756506Y-17288583D01*
X10746982Y-17279059D01*
X10737459Y-17260012D01*
X10737459Y-17202869D01*
X10746982Y-17183821D01*
X10756506Y-17174298D01*
X10775554Y-17164774D01*
X10804125Y-17164774D01*
X10823173Y-17174298D01*
X10832697Y-17183821D01*
X10842221Y-17202869D01*
X10842221Y-17260012D01*
X10832697Y-17279059D01*
X10823173Y-17288583D01*
X10804125Y-17298107D01*
X10775554Y-17298107D01*
X10956506Y-17298107D02*
X10937459Y-17288583D01*
X10927935Y-17269536D01*
X10927935Y-17098107D01*
X11108887Y-17288583D02*
X11089840Y-17298107D01*
X11051744Y-17298107D01*
X11032697Y-17288583D01*
X11023173Y-17269536D01*
X11023173Y-17193345D01*
X11032697Y-17174298D01*
X11051744Y-17164774D01*
X11089840Y-17164774D01*
X11108887Y-17174298D01*
X11118411Y-17193345D01*
X11118411Y-17212393D01*
X11023173Y-17231440D01*
X11194601Y-17288583D02*
X11213649Y-17298107D01*
X11251744Y-17298107D01*
X11270792Y-17288583D01*
X11280316Y-17269536D01*
X11280316Y-17260012D01*
X11270792Y-17240964D01*
X11251744Y-17231440D01*
X11223173Y-17231440D01*
X11204125Y-17221917D01*
X11194601Y-17202869D01*
X11194601Y-17193345D01*
X11204125Y-17174298D01*
X11223173Y-17164774D01*
X11251744Y-17164774D01*
X11270792Y-17174298D01*
X11346982Y-17374298D02*
X11356506Y-17364774D01*
X11375554Y-17336202D01*
X11385078Y-17317155D01*
X11394601Y-17288583D01*
X11404125Y-17240964D01*
X11404125Y-17202869D01*
X11394601Y-17155250D01*
X11385078Y-17126679D01*
X11375554Y-17107631D01*
X11356506Y-17079059D01*
X11346982Y-17069536D01*
D10*
X6475078Y-17421631D02*
X6575078Y-17521631D01*
X6575078Y-17421631D02*
X6475078Y-17521631D01*
X6575078Y-17471631D02*
G75*
G03*
X6575078Y-17471631I-50000J0D01*
G01*
D11*
X6937459Y-17562107D02*
X6823173Y-17562107D01*
X6880316Y-17562107D02*
X6880316Y-17362107D01*
X6861268Y-17390679D01*
X6842220Y-17409726D01*
X6823173Y-17419250D01*
X7023173Y-17543059D02*
X7032697Y-17552583D01*
X7023173Y-17562107D01*
X7013649Y-17552583D01*
X7023173Y-17543059D01*
X7023173Y-17562107D01*
X7156506Y-17362107D02*
X7175554Y-17362107D01*
X7194601Y-17371631D01*
X7204125Y-17381155D01*
X7213649Y-17400202D01*
X7223173Y-17438298D01*
X7223173Y-17485917D01*
X7213649Y-17524012D01*
X7204125Y-17543059D01*
X7194601Y-17552583D01*
X7175554Y-17562107D01*
X7156506Y-17562107D01*
X7137459Y-17552583D01*
X7127935Y-17543059D01*
X7118411Y-17524012D01*
X7108887Y-17485917D01*
X7108887Y-17438298D01*
X7118411Y-17400202D01*
X7127935Y-17381155D01*
X7137459Y-17371631D01*
X7156506Y-17362107D01*
X7346982Y-17362107D02*
X7366030Y-17362107D01*
X7385078Y-17371631D01*
X7394601Y-17381155D01*
X7404125Y-17400202D01*
X7413649Y-17438298D01*
X7413649Y-17485917D01*
X7404125Y-17524012D01*
X7394601Y-17543059D01*
X7385078Y-17552583D01*
X7366030Y-17562107D01*
X7346982Y-17562107D01*
X7327935Y-17552583D01*
X7318411Y-17543059D01*
X7308887Y-17524012D01*
X7299363Y-17485917D01*
X7299363Y-17438298D01*
X7308887Y-17400202D01*
X7318411Y-17381155D01*
X7327935Y-17371631D01*
X7346982Y-17362107D01*
X7537459Y-17362107D02*
X7556506Y-17362107D01*
X7575554Y-17371631D01*
X7585078Y-17381155D01*
X7594601Y-17400202D01*
X7604125Y-17438298D01*
X7604125Y-17485917D01*
X7594601Y-17524012D01*
X7585078Y-17543059D01*
X7575554Y-17552583D01*
X7556506Y-17562107D01*
X7537459Y-17562107D01*
X7518411Y-17552583D01*
X7508887Y-17543059D01*
X7499363Y-17524012D01*
X7489840Y-17485917D01*
X7489840Y-17438298D01*
X7499363Y-17400202D01*
X7508887Y-17381155D01*
X7518411Y-17371631D01*
X7537459Y-17362107D01*
X7689840Y-17562107D02*
X7689840Y-17428774D01*
X7689840Y-17447821D02*
X7699363Y-17438298D01*
X7718411Y-17428774D01*
X7746982Y-17428774D01*
X7766030Y-17438298D01*
X7775554Y-17457345D01*
X7775554Y-17562107D01*
X7775554Y-17457345D02*
X7785078Y-17438298D01*
X7804125Y-17428774D01*
X7832697Y-17428774D01*
X7851744Y-17438298D01*
X7861268Y-17457345D01*
X7861268Y-17562107D01*
X7956506Y-17562107D02*
X7956506Y-17428774D01*
X7956506Y-17447821D02*
X7966030Y-17438298D01*
X7985078Y-17428774D01*
X8013649Y-17428774D01*
X8032697Y-17438298D01*
X8042220Y-17457345D01*
X8042220Y-17562107D01*
X8042220Y-17457345D02*
X8051744Y-17438298D01*
X8070792Y-17428774D01*
X8099363Y-17428774D01*
X8118411Y-17438298D01*
X8127935Y-17457345D01*
X8127935Y-17562107D01*
X8518411Y-17352583D02*
X8346982Y-17609726D01*
X8775554Y-17362107D02*
X8794602Y-17362107D01*
X8813649Y-17371631D01*
X8823173Y-17381155D01*
X8832697Y-17400202D01*
X8842221Y-17438298D01*
X8842221Y-17485917D01*
X8832697Y-17524012D01*
X8823173Y-17543059D01*
X8813649Y-17552583D01*
X8794602Y-17562107D01*
X8775554Y-17562107D01*
X8756506Y-17552583D01*
X8746982Y-17543059D01*
X8737459Y-17524012D01*
X8727935Y-17485917D01*
X8727935Y-17438298D01*
X8737459Y-17400202D01*
X8746982Y-17381155D01*
X8756506Y-17371631D01*
X8775554Y-17362107D01*
X8927935Y-17543059D02*
X8937459Y-17552583D01*
X8927935Y-17562107D01*
X8918411Y-17552583D01*
X8927935Y-17543059D01*
X8927935Y-17562107D01*
X9061268Y-17362107D02*
X9080316Y-17362107D01*
X9099363Y-17371631D01*
X9108887Y-17381155D01*
X9118411Y-17400202D01*
X9127935Y-17438298D01*
X9127935Y-17485917D01*
X9118411Y-17524012D01*
X9108887Y-17543059D01*
X9099363Y-17552583D01*
X9080316Y-17562107D01*
X9061268Y-17562107D01*
X9042221Y-17552583D01*
X9032697Y-17543059D01*
X9023173Y-17524012D01*
X9013649Y-17485917D01*
X9013649Y-17438298D01*
X9023173Y-17400202D01*
X9032697Y-17381155D01*
X9042221Y-17371631D01*
X9061268Y-17362107D01*
X9194602Y-17362107D02*
X9318411Y-17362107D01*
X9251744Y-17438298D01*
X9280316Y-17438298D01*
X9299363Y-17447821D01*
X9308887Y-17457345D01*
X9318411Y-17476393D01*
X9318411Y-17524012D01*
X9308887Y-17543059D01*
X9299363Y-17552583D01*
X9280316Y-17562107D01*
X9223173Y-17562107D01*
X9204125Y-17552583D01*
X9194602Y-17543059D01*
X9413649Y-17562107D02*
X9451744Y-17562107D01*
X9470792Y-17552583D01*
X9480316Y-17543059D01*
X9499363Y-17514488D01*
X9508887Y-17476393D01*
X9508887Y-17400202D01*
X9499363Y-17381155D01*
X9489840Y-17371631D01*
X9470792Y-17362107D01*
X9432697Y-17362107D01*
X9413649Y-17371631D01*
X9404125Y-17381155D01*
X9394602Y-17400202D01*
X9394602Y-17447821D01*
X9404125Y-17466869D01*
X9413649Y-17476393D01*
X9432697Y-17485917D01*
X9470792Y-17485917D01*
X9489840Y-17476393D01*
X9499363Y-17466869D01*
X9508887Y-17447821D01*
X9680316Y-17428774D02*
X9680316Y-17562107D01*
X9632697Y-17352583D02*
X9585078Y-17495440D01*
X9708887Y-17495440D01*
X9775554Y-17362107D02*
X9775554Y-17400202D01*
X9851744Y-17362107D02*
X9851744Y-17400202D01*
X10146982Y-17638298D02*
X10137459Y-17628774D01*
X10118411Y-17600202D01*
X10108887Y-17581155D01*
X10099363Y-17552583D01*
X10089840Y-17504964D01*
X10089840Y-17466869D01*
X10099363Y-17419250D01*
X10108887Y-17390679D01*
X10118411Y-17371631D01*
X10137459Y-17343059D01*
X10146982Y-17333536D01*
X10251744Y-17447821D02*
X10232697Y-17438298D01*
X10223173Y-17428774D01*
X10213649Y-17409726D01*
X10213649Y-17400202D01*
X10223173Y-17381155D01*
X10232697Y-17371631D01*
X10251744Y-17362107D01*
X10289840Y-17362107D01*
X10308887Y-17371631D01*
X10318411Y-17381155D01*
X10327935Y-17400202D01*
X10327935Y-17409726D01*
X10318411Y-17428774D01*
X10308887Y-17438298D01*
X10289840Y-17447821D01*
X10251744Y-17447821D01*
X10232697Y-17457345D01*
X10223173Y-17466869D01*
X10213649Y-17485917D01*
X10213649Y-17524012D01*
X10223173Y-17543059D01*
X10232697Y-17552583D01*
X10251744Y-17562107D01*
X10289840Y-17562107D01*
X10308887Y-17552583D01*
X10318411Y-17543059D01*
X10327935Y-17524012D01*
X10327935Y-17485917D01*
X10318411Y-17466869D01*
X10308887Y-17457345D01*
X10289840Y-17447821D01*
X10566030Y-17562107D02*
X10566030Y-17362107D01*
X10651744Y-17562107D02*
X10651744Y-17457345D01*
X10642221Y-17438298D01*
X10623173Y-17428774D01*
X10594602Y-17428774D01*
X10575554Y-17438298D01*
X10566030Y-17447821D01*
X10775554Y-17562107D02*
X10756506Y-17552583D01*
X10746982Y-17543059D01*
X10737459Y-17524012D01*
X10737459Y-17466869D01*
X10746982Y-17447821D01*
X10756506Y-17438298D01*
X10775554Y-17428774D01*
X10804125Y-17428774D01*
X10823173Y-17438298D01*
X10832697Y-17447821D01*
X10842221Y-17466869D01*
X10842221Y-17524012D01*
X10832697Y-17543059D01*
X10823173Y-17552583D01*
X10804125Y-17562107D01*
X10775554Y-17562107D01*
X10956506Y-17562107D02*
X10937459Y-17552583D01*
X10927935Y-17533536D01*
X10927935Y-17362107D01*
X11108887Y-17552583D02*
X11089840Y-17562107D01*
X11051744Y-17562107D01*
X11032697Y-17552583D01*
X11023173Y-17533536D01*
X11023173Y-17457345D01*
X11032697Y-17438298D01*
X11051744Y-17428774D01*
X11089840Y-17428774D01*
X11108887Y-17438298D01*
X11118411Y-17457345D01*
X11118411Y-17476393D01*
X11023173Y-17495440D01*
X11194601Y-17552583D02*
X11213649Y-17562107D01*
X11251744Y-17562107D01*
X11270792Y-17552583D01*
X11280316Y-17533536D01*
X11280316Y-17524012D01*
X11270792Y-17504964D01*
X11251744Y-17495440D01*
X11223173Y-17495440D01*
X11204125Y-17485917D01*
X11194601Y-17466869D01*
X11194601Y-17457345D01*
X11204125Y-17438298D01*
X11223173Y-17428774D01*
X11251744Y-17428774D01*
X11270792Y-17438298D01*
X11346982Y-17638298D02*
X11356506Y-17628774D01*
X11375554Y-17600202D01*
X11385078Y-17581155D01*
X11394601Y-17552583D01*
X11404125Y-17504964D01*
X11404125Y-17466869D01*
X11394601Y-17419250D01*
X11385078Y-17390679D01*
X11375554Y-17371631D01*
X11356506Y-17343059D01*
X11346982Y-17333536D01*
D17*
X6473078Y-17684631D02*
X6575078Y-17786631D01*
X6575078Y-17684631D02*
X6473078Y-17786631D01*
X6524078Y-17684631D02*
X6524078Y-17786631D01*
X6473078Y-17735631D02*
X6575078Y-17735631D01*
D11*
X6937459Y-17826107D02*
X6823173Y-17826107D01*
X6880316Y-17826107D02*
X6880316Y-17626107D01*
X6861268Y-17654679D01*
X6842220Y-17673726D01*
X6823173Y-17683250D01*
X7023173Y-17807059D02*
X7032697Y-17816583D01*
X7023173Y-17826107D01*
X7013649Y-17816583D01*
X7023173Y-17807059D01*
X7023173Y-17826107D01*
X7156506Y-17626107D02*
X7175554Y-17626107D01*
X7194601Y-17635631D01*
X7204125Y-17645155D01*
X7213649Y-17664202D01*
X7223173Y-17702298D01*
X7223173Y-17749917D01*
X7213649Y-17788012D01*
X7204125Y-17807059D01*
X7194601Y-17816583D01*
X7175554Y-17826107D01*
X7156506Y-17826107D01*
X7137459Y-17816583D01*
X7127935Y-17807059D01*
X7118411Y-17788012D01*
X7108887Y-17749917D01*
X7108887Y-17702298D01*
X7118411Y-17664202D01*
X7127935Y-17645155D01*
X7137459Y-17635631D01*
X7156506Y-17626107D01*
X7299363Y-17645155D02*
X7308887Y-17635631D01*
X7327935Y-17626107D01*
X7375554Y-17626107D01*
X7394601Y-17635631D01*
X7404125Y-17645155D01*
X7413649Y-17664202D01*
X7413649Y-17683250D01*
X7404125Y-17711821D01*
X7289840Y-17826107D01*
X7413649Y-17826107D01*
X7537459Y-17626107D02*
X7556506Y-17626107D01*
X7575554Y-17635631D01*
X7585078Y-17645155D01*
X7594601Y-17664202D01*
X7604125Y-17702298D01*
X7604125Y-17749917D01*
X7594601Y-17788012D01*
X7585078Y-17807059D01*
X7575554Y-17816583D01*
X7556506Y-17826107D01*
X7537459Y-17826107D01*
X7518411Y-17816583D01*
X7508887Y-17807059D01*
X7499363Y-17788012D01*
X7489840Y-17749917D01*
X7489840Y-17702298D01*
X7499363Y-17664202D01*
X7508887Y-17645155D01*
X7518411Y-17635631D01*
X7537459Y-17626107D01*
X7689840Y-17826107D02*
X7689840Y-17692774D01*
X7689840Y-17711821D02*
X7699363Y-17702298D01*
X7718411Y-17692774D01*
X7746982Y-17692774D01*
X7766030Y-17702298D01*
X7775554Y-17721345D01*
X7775554Y-17826107D01*
X7775554Y-17721345D02*
X7785078Y-17702298D01*
X7804125Y-17692774D01*
X7832697Y-17692774D01*
X7851744Y-17702298D01*
X7861268Y-17721345D01*
X7861268Y-17826107D01*
X7956506Y-17826107D02*
X7956506Y-17692774D01*
X7956506Y-17711821D02*
X7966030Y-17702298D01*
X7985078Y-17692774D01*
X8013649Y-17692774D01*
X8032697Y-17702298D01*
X8042220Y-17721345D01*
X8042220Y-17826107D01*
X8042220Y-17721345D02*
X8051744Y-17702298D01*
X8070792Y-17692774D01*
X8099363Y-17692774D01*
X8118411Y-17702298D01*
X8127935Y-17721345D01*
X8127935Y-17826107D01*
X8518411Y-17616583D02*
X8346982Y-17873726D01*
X8775554Y-17626107D02*
X8794602Y-17626107D01*
X8813649Y-17635631D01*
X8823173Y-17645155D01*
X8832697Y-17664202D01*
X8842221Y-17702298D01*
X8842221Y-17749917D01*
X8832697Y-17788012D01*
X8823173Y-17807059D01*
X8813649Y-17816583D01*
X8794602Y-17826107D01*
X8775554Y-17826107D01*
X8756506Y-17816583D01*
X8746982Y-17807059D01*
X8737459Y-17788012D01*
X8727935Y-17749917D01*
X8727935Y-17702298D01*
X8737459Y-17664202D01*
X8746982Y-17645155D01*
X8756506Y-17635631D01*
X8775554Y-17626107D01*
X8927935Y-17807059D02*
X8937459Y-17816583D01*
X8927935Y-17826107D01*
X8918411Y-17816583D01*
X8927935Y-17807059D01*
X8927935Y-17826107D01*
X9061268Y-17626107D02*
X9080316Y-17626107D01*
X9099363Y-17635631D01*
X9108887Y-17645155D01*
X9118411Y-17664202D01*
X9127935Y-17702298D01*
X9127935Y-17749917D01*
X9118411Y-17788012D01*
X9108887Y-17807059D01*
X9099363Y-17816583D01*
X9080316Y-17826107D01*
X9061268Y-17826107D01*
X9042221Y-17816583D01*
X9032697Y-17807059D01*
X9023173Y-17788012D01*
X9013649Y-17749917D01*
X9013649Y-17702298D01*
X9023173Y-17664202D01*
X9032697Y-17645155D01*
X9042221Y-17635631D01*
X9061268Y-17626107D01*
X9299363Y-17692774D02*
X9299363Y-17826107D01*
X9251744Y-17616583D02*
X9204125Y-17759440D01*
X9327935Y-17759440D01*
X9442221Y-17626107D02*
X9461268Y-17626107D01*
X9480316Y-17635631D01*
X9489840Y-17645155D01*
X9499363Y-17664202D01*
X9508887Y-17702298D01*
X9508887Y-17749917D01*
X9499363Y-17788012D01*
X9489840Y-17807059D01*
X9480316Y-17816583D01*
X9461268Y-17826107D01*
X9442221Y-17826107D01*
X9423173Y-17816583D01*
X9413649Y-17807059D01*
X9404125Y-17788012D01*
X9394602Y-17749917D01*
X9394602Y-17702298D01*
X9404125Y-17664202D01*
X9413649Y-17645155D01*
X9423173Y-17635631D01*
X9442221Y-17626107D01*
X9585078Y-17645155D02*
X9594602Y-17635631D01*
X9613649Y-17626107D01*
X9661268Y-17626107D01*
X9680316Y-17635631D01*
X9689840Y-17645155D01*
X9699363Y-17664202D01*
X9699363Y-17683250D01*
X9689840Y-17711821D01*
X9575554Y-17826107D01*
X9699363Y-17826107D01*
X9775554Y-17626107D02*
X9775554Y-17664202D01*
X9851744Y-17626107D02*
X9851744Y-17664202D01*
X10146982Y-17902298D02*
X10137459Y-17892774D01*
X10118411Y-17864202D01*
X10108887Y-17845155D01*
X10099363Y-17816583D01*
X10089840Y-17768964D01*
X10089840Y-17730869D01*
X10099363Y-17683250D01*
X10108887Y-17654679D01*
X10118411Y-17635631D01*
X10137459Y-17607059D01*
X10146982Y-17597536D01*
X10204125Y-17626107D02*
X10327935Y-17626107D01*
X10261268Y-17702298D01*
X10289840Y-17702298D01*
X10308887Y-17711821D01*
X10318411Y-17721345D01*
X10327935Y-17740393D01*
X10327935Y-17788012D01*
X10318411Y-17807059D01*
X10308887Y-17816583D01*
X10289840Y-17826107D01*
X10232697Y-17826107D01*
X10213649Y-17816583D01*
X10204125Y-17807059D01*
X10566030Y-17826107D02*
X10566030Y-17626107D01*
X10651744Y-17826107D02*
X10651744Y-17721345D01*
X10642221Y-17702298D01*
X10623173Y-17692774D01*
X10594602Y-17692774D01*
X10575554Y-17702298D01*
X10566030Y-17711821D01*
X10775554Y-17826107D02*
X10756506Y-17816583D01*
X10746982Y-17807059D01*
X10737459Y-17788012D01*
X10737459Y-17730869D01*
X10746982Y-17711821D01*
X10756506Y-17702298D01*
X10775554Y-17692774D01*
X10804125Y-17692774D01*
X10823173Y-17702298D01*
X10832697Y-17711821D01*
X10842221Y-17730869D01*
X10842221Y-17788012D01*
X10832697Y-17807059D01*
X10823173Y-17816583D01*
X10804125Y-17826107D01*
X10775554Y-17826107D01*
X10956506Y-17826107D02*
X10937459Y-17816583D01*
X10927935Y-17797536D01*
X10927935Y-17626107D01*
X11108887Y-17816583D02*
X11089840Y-17826107D01*
X11051744Y-17826107D01*
X11032697Y-17816583D01*
X11023173Y-17797536D01*
X11023173Y-17721345D01*
X11032697Y-17702298D01*
X11051744Y-17692774D01*
X11089840Y-17692774D01*
X11108887Y-17702298D01*
X11118411Y-17721345D01*
X11118411Y-17740393D01*
X11023173Y-17759440D01*
X11194601Y-17816583D02*
X11213649Y-17826107D01*
X11251744Y-17826107D01*
X11270792Y-17816583D01*
X11280316Y-17797536D01*
X11280316Y-17788012D01*
X11270792Y-17768964D01*
X11251744Y-17759440D01*
X11223173Y-17759440D01*
X11204125Y-17749917D01*
X11194601Y-17730869D01*
X11194601Y-17721345D01*
X11204125Y-17702298D01*
X11223173Y-17692774D01*
X11251744Y-17692774D01*
X11270792Y-17702298D01*
X11346982Y-17902298D02*
X11356506Y-17892774D01*
X11375554Y-17864202D01*
X11385078Y-17845155D01*
X11394601Y-17816583D01*
X11404125Y-17768964D01*
X11404125Y-17730869D01*
X11394601Y-17683250D01*
X11385078Y-17654679D01*
X11375554Y-17635631D01*
X11356506Y-17607059D01*
X11346982Y-17597536D01*
M02*
