%TF.GenerationSoftware,KiCad,Pcbnew,(6.0.7)*%
%TF.CreationDate,2022-10-30T14:33:08-06:00*%
%TF.ProjectId,attiny_rfid_light,61747469-6e79-45f7-9266-69645f6c6967,rev?*%
%TF.SameCoordinates,Original*%
%TF.FileFunction,Copper,L2,Bot*%
%TF.FilePolarity,Positive*%
%FSLAX46Y46*%
G04 Gerber Fmt 4.6, Leading zero omitted, Abs format (unit mm)*
G04 Created by KiCad (PCBNEW (6.0.7)) date 2022-10-30 14:33:08*
%MOMM*%
%LPD*%
G01*
G04 APERTURE LIST*
%TA.AperFunction,EtchedComponent*%
%ADD10C,0.300000*%
%TD*%
%TA.AperFunction,ComponentPad*%
%ADD11O,1.900000X1.200000*%
%TD*%
%TA.AperFunction,ComponentPad*%
%ADD12C,1.450000*%
%TD*%
%TA.AperFunction,ComponentPad*%
%ADD13R,1.730000X2.030000*%
%TD*%
%TA.AperFunction,ComponentPad*%
%ADD14O,1.730000X2.030000*%
%TD*%
%TA.AperFunction,SMDPad,CuDef*%
%ADD15C,1.524000*%
%TD*%
%TA.AperFunction,ComponentPad*%
%ADD16C,1.524000*%
%TD*%
%TA.AperFunction,ComponentPad*%
%ADD17C,1.600000*%
%TD*%
%TA.AperFunction,ComponentPad*%
%ADD18R,1.700000X1.700000*%
%TD*%
%TA.AperFunction,ComponentPad*%
%ADD19O,1.700000X1.700000*%
%TD*%
%TA.AperFunction,ViaPad*%
%ADD20C,0.800000*%
%TD*%
%TA.AperFunction,Conductor*%
%ADD21C,0.250000*%
%TD*%
G04 APERTURE END LIST*
D10*
X84068000Y-73977800D02*
X84068000Y-112948800D01*
X112476000Y-101882800D02*
X112476000Y-84540800D01*
X136117000Y-125523800D02*
X136117000Y-60899800D01*
X88092000Y-108924800D02*
X119518000Y-108924800D01*
X72499000Y-62408800D02*
X72499000Y-124517800D01*
X97146000Y-99870800D02*
X110464000Y-99870800D01*
X115494000Y-81522800D02*
X91613000Y-81522800D01*
X110464000Y-86552800D02*
X96643000Y-86552800D01*
X92116000Y-82025800D02*
X92116000Y-104900800D01*
X84571000Y-112445800D02*
X123039000Y-112445800D01*
X94631000Y-84540800D02*
X94631000Y-102385800D01*
X137123000Y-126529800D02*
X137123000Y-59893800D01*
X114991000Y-104397800D02*
X114991000Y-82025800D01*
X120021000Y-109427800D02*
X120021000Y-76995800D01*
X134608000Y-124014800D02*
X134608000Y-62408800D01*
X113985000Y-83031800D02*
X93122000Y-83031800D01*
X110967000Y-100373800D02*
X110967000Y-86049800D01*
X109961000Y-87055800D02*
X97146000Y-87055800D01*
X127566000Y-69450800D02*
X79541000Y-69450800D01*
X98655000Y-98361800D02*
X102791500Y-97133234D01*
X114488000Y-82528800D02*
X92619000Y-82528800D01*
X123542000Y-112948800D02*
X123542000Y-73474800D01*
X83062000Y-113954800D02*
X124548000Y-113954800D01*
X132093000Y-121499800D02*
X132093000Y-64923800D01*
X136620000Y-126026800D02*
X136620000Y-60396800D01*
X95637000Y-101379800D02*
X111973000Y-101379800D01*
X133602000Y-123008800D02*
X133602000Y-63414800D01*
X121027000Y-75989800D02*
X86080000Y-75989800D01*
X134105000Y-62911800D02*
X73002000Y-62911800D01*
X76020000Y-65929800D02*
X76020000Y-120996800D01*
X69481000Y-127535800D02*
X138129000Y-127535800D01*
X69984000Y-59893800D02*
X69984000Y-127032800D01*
X109961000Y-99367800D02*
X109961000Y-87055800D01*
X73505000Y-123511800D02*
X134105000Y-123511800D01*
X137123000Y-59893800D02*
X69984000Y-59893800D01*
X71996000Y-61905800D02*
X71996000Y-125020800D01*
X119518000Y-108924800D02*
X119518000Y-77498800D01*
X80547000Y-116469800D02*
X127063000Y-116469800D01*
X121530000Y-75486800D02*
X85577000Y-75486800D01*
X70487000Y-60396800D02*
X70487000Y-126529800D01*
X72499000Y-124517800D02*
X135111000Y-124517800D01*
X125554000Y-71462800D02*
X81553000Y-71462800D01*
X116500000Y-105906800D02*
X116500000Y-80516800D01*
X128572000Y-117978800D02*
X128572000Y-68444800D01*
X87589000Y-109427800D02*
X120021000Y-109427800D01*
X73505000Y-63414800D02*
X73505000Y-123511800D01*
X112979000Y-102385800D02*
X112979000Y-84037800D01*
X112979000Y-84037800D02*
X94128000Y-84037800D01*
X74511000Y-122505800D02*
X133099000Y-122505800D01*
X126560000Y-115966800D02*
X126560000Y-70456800D01*
X138129000Y-127535800D02*
X138129000Y-58887800D01*
X88595000Y-108421800D02*
X119015000Y-108421800D01*
X97146000Y-87055800D02*
X97146000Y-99870800D01*
X81050000Y-115966800D02*
X126560000Y-115966800D01*
X124548000Y-72468800D02*
X82559000Y-72468800D01*
X125554000Y-114960800D02*
X125554000Y-71462800D01*
X90104000Y-106912800D02*
X117506000Y-106912800D01*
X98152000Y-88061800D02*
X98152000Y-98864800D01*
X137626000Y-127032800D02*
X137626000Y-59390800D01*
X121530000Y-110936800D02*
X121530000Y-75486800D01*
X113482000Y-102888800D02*
X113482000Y-83534800D01*
X74008000Y-63917800D02*
X74008000Y-123008800D01*
X70487000Y-126529800D02*
X137123000Y-126529800D01*
X94128000Y-84037800D02*
X94128000Y-102888800D01*
X78535000Y-68444800D02*
X78535000Y-118481800D01*
X94128000Y-102888800D02*
X113482000Y-102888800D01*
X134608000Y-62408800D02*
X72499000Y-62408800D01*
X122536000Y-111942800D02*
X122536000Y-74480800D01*
X86583000Y-76492800D02*
X86583000Y-110433800D01*
X78535000Y-118481800D02*
X129075000Y-118481800D01*
X89098000Y-79007800D02*
X89098000Y-107918800D01*
X78032000Y-118984800D02*
X129578000Y-118984800D01*
X79038000Y-68947800D02*
X79038000Y-117978800D01*
X74511000Y-64420800D02*
X74511000Y-122505800D01*
X68978000Y-128038800D02*
X138632000Y-128038800D01*
X73002000Y-62911800D02*
X73002000Y-124014800D01*
X79541000Y-69450800D02*
X79541000Y-117475800D01*
X119015000Y-108421800D02*
X119015000Y-78001800D01*
X128572000Y-68444800D02*
X78535000Y-68444800D01*
X111973000Y-85043800D02*
X95134000Y-85043800D01*
X75517000Y-65426800D02*
X75517000Y-121499800D01*
X97649000Y-87558800D02*
X97649000Y-99367800D01*
X115997000Y-81019800D02*
X91110000Y-81019800D01*
X114488000Y-103894800D02*
X114488000Y-82528800D01*
X137626000Y-59390800D02*
X69481000Y-59390800D01*
X122536000Y-74480800D02*
X84571000Y-74480800D01*
X113482000Y-83534800D02*
X93625000Y-83534800D01*
X136117000Y-60899800D02*
X70990000Y-60899800D01*
X133602000Y-63414800D02*
X73505000Y-63414800D01*
X82559000Y-72468800D02*
X82559000Y-114457800D01*
X83565000Y-73474800D02*
X83565000Y-113451800D01*
X88092000Y-78001800D02*
X88092000Y-108924800D01*
X90607000Y-80516800D02*
X90607000Y-106409800D01*
X130081000Y-119487800D02*
X130081000Y-66935800D01*
X128069000Y-117475800D02*
X128069000Y-68947800D01*
X71493000Y-125523800D02*
X136117000Y-125523800D01*
X92619000Y-82528800D02*
X92619000Y-104397800D01*
X124548000Y-113954800D02*
X124548000Y-72468800D01*
X133099000Y-122505800D02*
X133099000Y-63917800D01*
X79038000Y-117978800D02*
X128572000Y-117978800D01*
X86080000Y-110936800D02*
X121530000Y-110936800D01*
X129075000Y-67941800D02*
X78032000Y-67941800D01*
X119518000Y-77498800D02*
X87589000Y-77498800D01*
X136620000Y-60396800D02*
X70487000Y-60396800D01*
X122033000Y-111439800D02*
X122033000Y-74983800D01*
X111470000Y-85546800D02*
X95637000Y-85546800D01*
X126057000Y-70959800D02*
X81050000Y-70959800D01*
X121027000Y-110433800D02*
X121027000Y-75989800D01*
X81553000Y-115463800D02*
X126057000Y-115463800D01*
X132596000Y-64420800D02*
X74511000Y-64420800D01*
X80547000Y-70456800D02*
X80547000Y-116469800D01*
X84571000Y-74480800D02*
X84571000Y-112445800D01*
X89601000Y-107415800D02*
X118009000Y-107415800D01*
X83062000Y-72971800D02*
X83062000Y-113954800D01*
X124045000Y-72971800D02*
X83062000Y-72971800D01*
X126560000Y-70456800D02*
X80547000Y-70456800D01*
X93625000Y-83534800D02*
X93625000Y-103391800D01*
X87086000Y-109930800D02*
X120524000Y-109930800D01*
X95637000Y-85546800D02*
X95637000Y-101379800D01*
X138632000Y-58384800D02*
X68475000Y-58384800D01*
X131087000Y-65929800D02*
X76020000Y-65929800D01*
X120524000Y-109930800D02*
X120524000Y-76492800D01*
X93625000Y-103391800D02*
X113985000Y-103391800D01*
X68475000Y-58384800D02*
X68475000Y-128541800D01*
X85074000Y-111942800D02*
X122536000Y-111942800D01*
X87589000Y-77498800D02*
X87589000Y-109427800D01*
X134105000Y-123511800D02*
X134105000Y-62911800D01*
X127063000Y-116469800D02*
X127063000Y-69953800D01*
X82056000Y-114960800D02*
X125554000Y-114960800D01*
X91110000Y-81019800D02*
X91110000Y-105906800D01*
X132093000Y-64923800D02*
X75014000Y-64923800D01*
X130584000Y-119990800D02*
X130584000Y-66432800D01*
X80044000Y-116972800D02*
X127566000Y-116972800D01*
X94631000Y-102385800D02*
X112979000Y-102385800D01*
X130584000Y-66432800D02*
X76523000Y-66432800D01*
X93122000Y-103894800D02*
X114488000Y-103894800D01*
X111973000Y-101379800D02*
X111973000Y-85043800D01*
X68978000Y-58887800D02*
X68978000Y-128038800D01*
X118009000Y-107415800D02*
X118009000Y-79007800D01*
X77529000Y-119487800D02*
X130081000Y-119487800D01*
X78032000Y-67941800D02*
X78032000Y-118984800D01*
X83565000Y-113451800D02*
X124045000Y-113451800D01*
X133099000Y-63917800D02*
X74008000Y-63917800D01*
X73002000Y-124014800D02*
X134608000Y-124014800D01*
X89098000Y-107918800D02*
X118512000Y-107918800D01*
X131590000Y-65426800D02*
X75517000Y-65426800D01*
X135111000Y-124517800D02*
X135111000Y-61905800D01*
X131590000Y-120996800D02*
X131590000Y-65426800D01*
X81050000Y-70959800D02*
X81050000Y-115966800D01*
X75014000Y-122002800D02*
X132596000Y-122002800D01*
X96643000Y-100373800D02*
X110967000Y-100373800D01*
X76523000Y-66432800D02*
X76523000Y-120493800D01*
X85074000Y-74983800D02*
X85074000Y-111942800D01*
X86583000Y-110433800D02*
X121027000Y-110433800D01*
X124045000Y-113451800D02*
X124045000Y-72971800D01*
X113985000Y-103391800D02*
X113985000Y-83031800D01*
X77529000Y-67438800D02*
X77529000Y-119487800D01*
X76020000Y-120996800D02*
X131590000Y-120996800D01*
X92619000Y-104397800D02*
X114991000Y-104397800D01*
X79541000Y-117475800D02*
X128069000Y-117475800D01*
X118009000Y-79007800D02*
X89098000Y-79007800D01*
X96643000Y-86552800D02*
X96643000Y-100373800D01*
X95134000Y-85043800D02*
X95134000Y-101882800D01*
X112476000Y-84540800D02*
X94631000Y-84540800D01*
X93122000Y-83031800D02*
X93122000Y-103894800D01*
X81553000Y-71462800D02*
X81553000Y-115463800D01*
X97649000Y-99367800D02*
X109961000Y-99367800D01*
X138628120Y-128541800D02*
X138628120Y-130052194D01*
X85577000Y-75486800D02*
X85577000Y-111439800D01*
X80044000Y-69953800D02*
X80044000Y-116972800D01*
X71493000Y-61402800D02*
X71493000Y-125523800D01*
X123039000Y-73977800D02*
X84068000Y-73977800D01*
X98152000Y-98864800D02*
X109458000Y-98864800D01*
X115997000Y-105403800D02*
X115997000Y-81019800D01*
X86080000Y-75989800D02*
X86080000Y-110936800D01*
X71996000Y-125020800D02*
X135614000Y-125020800D01*
X108955000Y-98361800D02*
X108955000Y-88061800D01*
X69984000Y-127032800D02*
X137626000Y-127032800D01*
X130081000Y-66935800D02*
X77026000Y-66935800D01*
X116500000Y-80516800D02*
X90607000Y-80516800D01*
X90607000Y-106409800D02*
X117003000Y-106409800D01*
X77026000Y-119990800D02*
X130584000Y-119990800D01*
X128069000Y-68947800D02*
X79038000Y-68947800D01*
X138632000Y-128038800D02*
X138632000Y-58384800D01*
X91110000Y-105906800D02*
X116500000Y-105906800D01*
X122033000Y-74983800D02*
X85074000Y-74983800D01*
X90104000Y-80013800D02*
X90104000Y-106912800D01*
X129578000Y-67438800D02*
X77529000Y-67438800D01*
X110967000Y-86049800D02*
X96140000Y-86049800D01*
X114991000Y-82025800D02*
X92116000Y-82025800D01*
X82056000Y-71965800D02*
X82056000Y-114960800D01*
X118512000Y-78504800D02*
X88595000Y-78504800D01*
X119015000Y-78001800D02*
X88092000Y-78001800D01*
X75517000Y-121499800D02*
X132093000Y-121499800D01*
X69481000Y-59390800D02*
X69481000Y-127535800D01*
X95134000Y-101882800D02*
X112476000Y-101882800D01*
X88595000Y-78504800D02*
X88595000Y-108421800D01*
X117506000Y-79510800D02*
X89601000Y-79510800D01*
X89601000Y-79510800D02*
X89601000Y-107415800D01*
X91613000Y-105403800D02*
X115997000Y-105403800D01*
X117003000Y-106409800D02*
X117003000Y-80013800D01*
X91613000Y-81522800D02*
X91613000Y-105403800D01*
X70990000Y-60899800D02*
X70990000Y-126026800D01*
X126057000Y-115463800D02*
X126057000Y-70959800D01*
X117003000Y-80013800D02*
X90104000Y-80013800D01*
X109458000Y-87558800D02*
X97649000Y-87558800D01*
X135614000Y-61402800D02*
X71493000Y-61402800D01*
X70990000Y-126026800D02*
X136620000Y-126026800D01*
X87086000Y-76995800D02*
X87086000Y-109930800D01*
X110464000Y-99870800D02*
X110464000Y-86552800D01*
X125051000Y-71965800D02*
X82056000Y-71965800D01*
X123039000Y-112445800D02*
X123039000Y-73977800D01*
X123542000Y-73474800D02*
X83565000Y-73474800D01*
X111470000Y-100876800D02*
X111470000Y-85546800D01*
X135614000Y-125020800D02*
X135614000Y-61402800D01*
X129578000Y-118984800D02*
X129578000Y-67438800D01*
X84068000Y-112948800D02*
X123542000Y-112948800D01*
X96140000Y-100876800D02*
X111470000Y-100876800D01*
X127566000Y-116972800D02*
X127566000Y-69450800D01*
X118512000Y-107918800D02*
X118512000Y-78504800D01*
X77026000Y-66935800D02*
X77026000Y-119990800D01*
X131087000Y-120493800D02*
X131087000Y-65929800D01*
X138129000Y-58887800D02*
X68978000Y-58887800D01*
X68475000Y-128541800D02*
X138632000Y-128541800D01*
X132596000Y-122002800D02*
X132596000Y-64420800D01*
X127063000Y-69953800D02*
X80044000Y-69953800D01*
X82559000Y-114457800D02*
X125051000Y-114457800D01*
X125051000Y-114457800D02*
X125051000Y-71965800D01*
X76523000Y-120493800D02*
X131087000Y-120493800D01*
X120524000Y-76492800D02*
X86583000Y-76492800D01*
X129075000Y-118481800D02*
X129075000Y-67941800D01*
X117506000Y-106912800D02*
X117506000Y-79510800D01*
X108955000Y-88061800D02*
X98152000Y-88061800D01*
X96140000Y-86049800D02*
X96140000Y-100876800D01*
X74008000Y-123008800D02*
X133602000Y-123008800D01*
X120021000Y-76995800D02*
X87086000Y-76995800D01*
X135111000Y-61905800D02*
X71996000Y-61905800D01*
X98655000Y-98361800D02*
X108955000Y-98361800D01*
X75014000Y-64923800D02*
X75014000Y-122002800D01*
X85577000Y-111439800D02*
X122033000Y-111439800D01*
X115494000Y-104900800D02*
X115494000Y-81522800D01*
X109458000Y-98864800D02*
X109458000Y-87558800D01*
X92116000Y-104900800D02*
X115494000Y-104900800D01*
D11*
X67342500Y-138740000D03*
D12*
X70042500Y-139740000D03*
D11*
X67342500Y-145740000D03*
D12*
X70042500Y-144740000D03*
D13*
X75542400Y-132194400D03*
D14*
X78082400Y-132194400D03*
X80622400Y-132194400D03*
D15*
X138658783Y-130381698D03*
D16*
X103553500Y-97133234D03*
D17*
X136881100Y-137160000D03*
X138881100Y-137160000D03*
D18*
X115658600Y-152313700D03*
D19*
X118198600Y-152313700D03*
X120738600Y-152313700D03*
X123278600Y-152313700D03*
X125818600Y-152313700D03*
X128358600Y-152313700D03*
X130898600Y-152313700D03*
X133438600Y-152313700D03*
D20*
X78524520Y-153672079D03*
X72173574Y-131373204D03*
X139324260Y-147358061D03*
X139433155Y-140759028D03*
X138736228Y-133375952D03*
X135577050Y-131302714D03*
X132432350Y-148923017D03*
X120702120Y-135894974D03*
X113264655Y-135495647D03*
X106680000Y-152400000D03*
X99060000Y-152400000D03*
X109220000Y-132080000D03*
X91440000Y-134620000D03*
X88900000Y-134620000D03*
X86360000Y-144780000D03*
X88900000Y-149860000D03*
X86360000Y-149860000D03*
X78740000Y-137160000D03*
X73660000Y-137160000D03*
X73660000Y-149860000D03*
X71120000Y-149860000D03*
X71120000Y-137160000D03*
X111335600Y-152249800D03*
X131913500Y-137782000D03*
X96743200Y-137782000D03*
X133095000Y-134540000D03*
X129373500Y-139738400D03*
X94294400Y-139738400D03*
X96392100Y-148534100D03*
X97647100Y-148710800D03*
X97785800Y-141241500D03*
X95461300Y-140498600D03*
X115009700Y-146205500D03*
X130123400Y-143247600D03*
X112930300Y-147991000D03*
X94288500Y-147457700D03*
D21*
X117023300Y-151518300D02*
X116643400Y-151138400D01*
X118198600Y-152313700D02*
X117023300Y-152313700D01*
X116643400Y-151138400D02*
X112447000Y-151138400D01*
X117023300Y-152313700D02*
X117023300Y-151518300D01*
X112447000Y-151138400D02*
X111335600Y-152249800D01*
X122730700Y-153497800D02*
X133957700Y-153497800D01*
X121326300Y-152313700D02*
X121913900Y-152313700D01*
X119563300Y-151946400D02*
X119563300Y-152313700D01*
X121326300Y-152313700D02*
X120738600Y-152313700D01*
X121913900Y-152681000D02*
X122730700Y-153497800D01*
X121913900Y-152313700D02*
X121913900Y-152681000D01*
X136881100Y-150574400D02*
X136881100Y-137160000D01*
X80622400Y-134817300D02*
X96493200Y-150688100D01*
X80622400Y-132194400D02*
X80622400Y-134817300D01*
X118305000Y-150688100D02*
X119563300Y-151946400D01*
X96493200Y-150688100D02*
X118305000Y-150688100D01*
X133957700Y-153497800D02*
X136881100Y-150574400D01*
X120738600Y-152313700D02*
X119563300Y-152313700D01*
X131913500Y-137782000D02*
X96743200Y-137782000D01*
X133095000Y-134540000D02*
X134500500Y-134540000D01*
X134500500Y-134540000D02*
X138658800Y-130381700D01*
X94294400Y-139738400D02*
X129373500Y-139738400D01*
X125818600Y-152313700D02*
X124643300Y-152313700D01*
X124643300Y-151946400D02*
X122314000Y-149617100D01*
X124643300Y-152313700D02*
X124643300Y-151946400D01*
X122314000Y-149617100D02*
X97475100Y-149617100D01*
X97475100Y-149617100D02*
X96392100Y-148534100D01*
X127183300Y-151946400D02*
X124403700Y-149166800D01*
X98103100Y-149166800D02*
X97647100Y-148710800D01*
X128358600Y-152313700D02*
X127183300Y-152313700D01*
X127183300Y-152313700D02*
X127183300Y-151946400D01*
X124403700Y-149166800D02*
X98103100Y-149166800D01*
X105260700Y-148716400D02*
X97785800Y-141241500D01*
X130898600Y-152313700D02*
X129723300Y-152313700D01*
X126493300Y-148716400D02*
X105260700Y-148716400D01*
X129723300Y-151946400D02*
X126493300Y-148716400D01*
X129723300Y-152313700D02*
X129723300Y-151946400D01*
X109302800Y-140498600D02*
X95461300Y-140498600D01*
X117967600Y-143247600D02*
X115009700Y-146205500D01*
X130123400Y-143247600D02*
X117967600Y-143247600D01*
X115009700Y-146205500D02*
X109302800Y-140498600D01*
X128307900Y-147991000D02*
X112930300Y-147991000D01*
X132263300Y-152313700D02*
X132263300Y-151946400D01*
X132263300Y-151946400D02*
X128307900Y-147991000D01*
X133438600Y-152313700D02*
X132263300Y-152313700D01*
X121032400Y-150067500D02*
X123278600Y-152313700D01*
X96898300Y-150067500D02*
X121032400Y-150067500D01*
X94288500Y-147457700D02*
X96898300Y-150067500D01*
%TA.AperFunction,Conductor*%
G36*
X140316225Y-129550402D02*
G01*
X140362725Y-129604052D01*
X140374118Y-129656409D01*
X140374118Y-136721229D01*
X140354116Y-136789350D01*
X140300460Y-136835843D01*
X140230186Y-136845947D01*
X140165606Y-136816453D01*
X140126411Y-136753840D01*
X140116336Y-136716239D01*
X140112590Y-136705947D01*
X140020514Y-136508489D01*
X140015031Y-136498994D01*
X139978591Y-136446952D01*
X139968112Y-136438576D01*
X139954666Y-136445644D01*
X139253122Y-137147188D01*
X139245508Y-137161132D01*
X139245639Y-137162965D01*
X139249890Y-137169580D01*
X139955387Y-137875077D01*
X139967162Y-137881507D01*
X139979177Y-137872211D01*
X140015031Y-137821006D01*
X140020514Y-137811511D01*
X140112590Y-137614053D01*
X140116336Y-137603761D01*
X140126411Y-137566160D01*
X140163363Y-137505537D01*
X140227224Y-137474516D01*
X140297718Y-137482944D01*
X140352465Y-137528147D01*
X140374118Y-137598771D01*
X140374118Y-154381809D01*
X140354116Y-154449930D01*
X140300460Y-154496423D01*
X140248118Y-154507809D01*
X66485277Y-154507809D01*
X66417156Y-154487807D01*
X66370663Y-154434151D01*
X66359277Y-154381809D01*
X66359277Y-152413221D01*
X66837857Y-152413221D01*
X66838438Y-152418241D01*
X66838438Y-152418245D01*
X66851183Y-152528388D01*
X66866683Y-152662352D01*
X66868062Y-152667226D01*
X66868063Y-152667230D01*
X66927827Y-152878431D01*
X66934969Y-152903670D01*
X66937103Y-152908245D01*
X66937105Y-152908252D01*
X67038822Y-153126384D01*
X67040959Y-153130966D01*
X67043801Y-153135147D01*
X67043801Y-153135148D01*
X67179080Y-153334205D01*
X67179083Y-153334209D01*
X67181926Y-153338392D01*
X67185403Y-153342069D01*
X67185404Y-153342070D01*
X67285713Y-153448144D01*
X67354242Y-153520612D01*
X67358268Y-153523690D01*
X67358269Y-153523691D01*
X67549456Y-153669865D01*
X67549460Y-153669868D01*
X67553476Y-153672938D01*
X67774501Y-153791450D01*
X67779282Y-153793096D01*
X67779286Y-153793098D01*
X68005013Y-153870822D01*
X68011631Y-153873101D01*
X68109739Y-153890047D01*
X68254855Y-153915113D01*
X68254861Y-153915114D01*
X68258765Y-153915788D01*
X68262726Y-153915968D01*
X68262727Y-153915968D01*
X68287406Y-153917089D01*
X68287425Y-153917089D01*
X68288825Y-153917153D01*
X68463490Y-153917153D01*
X68465998Y-153916951D01*
X68466003Y-153916951D01*
X68645419Y-153902516D01*
X68645424Y-153902515D01*
X68650460Y-153902110D01*
X68655368Y-153900905D01*
X68655371Y-153900904D01*
X68889100Y-153843494D01*
X68894014Y-153842287D01*
X68898666Y-153840312D01*
X68898670Y-153840311D01*
X69120216Y-153746270D01*
X69120217Y-153746270D01*
X69124871Y-153744294D01*
X69268917Y-153653584D01*
X69332809Y-153613349D01*
X69332810Y-153613348D01*
X69337090Y-153610653D01*
X69525213Y-153444800D01*
X69684399Y-153251004D01*
X69709213Y-153208369D01*
X114300601Y-153208369D01*
X114300971Y-153215190D01*
X114306495Y-153266052D01*
X114310121Y-153281304D01*
X114355276Y-153401754D01*
X114363814Y-153417349D01*
X114440315Y-153519424D01*
X114452876Y-153531985D01*
X114554951Y-153608486D01*
X114570546Y-153617024D01*
X114690994Y-153662178D01*
X114706249Y-153665805D01*
X114757114Y-153671331D01*
X114763928Y-153671700D01*
X115386485Y-153671700D01*
X115401724Y-153667225D01*
X115402929Y-153665835D01*
X115404600Y-153658152D01*
X115404600Y-152585815D01*
X115400125Y-152570576D01*
X115398735Y-152569371D01*
X115391052Y-152567700D01*
X114318716Y-152567700D01*
X114303477Y-152572175D01*
X114302272Y-152573565D01*
X114300601Y-152581248D01*
X114300601Y-153208369D01*
X69709213Y-153208369D01*
X69810553Y-153034249D01*
X69815757Y-153020694D01*
X69898618Y-152804834D01*
X69900430Y-152800114D01*
X69901496Y-152795014D01*
X69950681Y-152559574D01*
X69951716Y-152554620D01*
X69952908Y-152528388D01*
X69958137Y-152413221D01*
X69963093Y-152304085D01*
X69959567Y-152273606D01*
X69934849Y-152059987D01*
X69934267Y-152054954D01*
X69897056Y-151923451D01*
X69867359Y-151818505D01*
X69867358Y-151818503D01*
X69865981Y-151813636D01*
X69863847Y-151809061D01*
X69863845Y-151809054D01*
X69762128Y-151590922D01*
X69762126Y-151590918D01*
X69759991Y-151586340D01*
X69734979Y-151549536D01*
X69621870Y-151383101D01*
X69621867Y-151383097D01*
X69619024Y-151378914D01*
X69552153Y-151308199D01*
X69450188Y-151200374D01*
X69446708Y-151196694D01*
X69406889Y-151166250D01*
X69251494Y-151047441D01*
X69251490Y-151047438D01*
X69247474Y-151044368D01*
X69026449Y-150925856D01*
X69021668Y-150924210D01*
X69021664Y-150924208D01*
X68794108Y-150845854D01*
X68789319Y-150844205D01*
X68685786Y-150826322D01*
X68546095Y-150802193D01*
X68546089Y-150802192D01*
X68542185Y-150801518D01*
X68538224Y-150801338D01*
X68538223Y-150801338D01*
X68513544Y-150800217D01*
X68513525Y-150800217D01*
X68512125Y-150800153D01*
X68337460Y-150800153D01*
X68334952Y-150800355D01*
X68334947Y-150800355D01*
X68155531Y-150814790D01*
X68155526Y-150814791D01*
X68150490Y-150815196D01*
X68145582Y-150816401D01*
X68145579Y-150816402D01*
X67994907Y-150853411D01*
X67906936Y-150875019D01*
X67902284Y-150876994D01*
X67902280Y-150876995D01*
X67714906Y-150956531D01*
X67676079Y-150973012D01*
X67582719Y-151031804D01*
X67473563Y-151100543D01*
X67463860Y-151106653D01*
X67275737Y-151272506D01*
X67116551Y-151466302D01*
X66990397Y-151683057D01*
X66988584Y-151687780D01*
X66988583Y-151687782D01*
X66965843Y-151747021D01*
X66900520Y-151917192D01*
X66899487Y-151922138D01*
X66899485Y-151922144D01*
X66871098Y-152058029D01*
X66849234Y-152162686D01*
X66849005Y-152167735D01*
X66849004Y-152167741D01*
X66846001Y-152233874D01*
X66837857Y-152413221D01*
X66359277Y-152413221D01*
X66359277Y-146866574D01*
X66379279Y-146798453D01*
X66432935Y-146751960D01*
X66503209Y-146741856D01*
X66532373Y-146749707D01*
X66676237Y-146807686D01*
X66883837Y-146848228D01*
X66889399Y-146848500D01*
X67745346Y-146848500D01*
X67903066Y-146833452D01*
X68106034Y-146773908D01*
X68148649Y-146751960D01*
X68288749Y-146679804D01*
X68288752Y-146679802D01*
X68294080Y-146677058D01*
X68460420Y-146546396D01*
X68464352Y-146541865D01*
X68464355Y-146541862D01*
X68595121Y-146391167D01*
X68599052Y-146386637D01*
X68602052Y-146381451D01*
X68602055Y-146381447D01*
X68701967Y-146208742D01*
X68704973Y-146203546D01*
X68774361Y-146003729D01*
X68789225Y-145901216D01*
X68803852Y-145800336D01*
X68803852Y-145800333D01*
X68804713Y-145794396D01*
X68794933Y-145583101D01*
X68776509Y-145506653D01*
X68779994Y-145435742D01*
X68821263Y-145377972D01*
X68887214Y-145351685D01*
X68956907Y-145365226D01*
X69002215Y-145404861D01*
X69093975Y-145535907D01*
X69246593Y-145688525D01*
X69423394Y-145812323D01*
X69428376Y-145814646D01*
X69428381Y-145814649D01*
X69614025Y-145901216D01*
X69619007Y-145903539D01*
X69624315Y-145904961D01*
X69624317Y-145904962D01*
X69822172Y-145957977D01*
X69822174Y-145957977D01*
X69827487Y-145959401D01*
X70042500Y-145978212D01*
X70257513Y-145959401D01*
X70262826Y-145957977D01*
X70262828Y-145957977D01*
X70460683Y-145904962D01*
X70460685Y-145904961D01*
X70465993Y-145903539D01*
X70470975Y-145901216D01*
X70656619Y-145814649D01*
X70656624Y-145814646D01*
X70661606Y-145812323D01*
X70838407Y-145688525D01*
X70991025Y-145535907D01*
X71114823Y-145359106D01*
X71117146Y-145354124D01*
X71117149Y-145354119D01*
X71203716Y-145168475D01*
X71203717Y-145168474D01*
X71206039Y-145163493D01*
X71209506Y-145150556D01*
X71260477Y-144960328D01*
X71260477Y-144960326D01*
X71261901Y-144955013D01*
X71280712Y-144740000D01*
X71261901Y-144524987D01*
X71206039Y-144316507D01*
X71131240Y-144156100D01*
X71117149Y-144125881D01*
X71117146Y-144125876D01*
X71114823Y-144120894D01*
X70991025Y-143944093D01*
X70838407Y-143791475D01*
X70820343Y-143778826D01*
X70760594Y-143736990D01*
X70661606Y-143667677D01*
X70656624Y-143665354D01*
X70656619Y-143665351D01*
X70470975Y-143578784D01*
X70470974Y-143578783D01*
X70465993Y-143576461D01*
X70460685Y-143575039D01*
X70460683Y-143575038D01*
X70262828Y-143522023D01*
X70262826Y-143522023D01*
X70257513Y-143520599D01*
X70042500Y-143501788D01*
X69827487Y-143520599D01*
X69822174Y-143522023D01*
X69822172Y-143522023D01*
X69624317Y-143575038D01*
X69624315Y-143575039D01*
X69619007Y-143576461D01*
X69614026Y-143578783D01*
X69614025Y-143578784D01*
X69428381Y-143665351D01*
X69428376Y-143665354D01*
X69423394Y-143667677D01*
X69324406Y-143736990D01*
X69264658Y-143778826D01*
X69246593Y-143791475D01*
X69093975Y-143944093D01*
X68970177Y-144120894D01*
X68967854Y-144125876D01*
X68967851Y-144125881D01*
X68953760Y-144156100D01*
X68878961Y-144316507D01*
X68823099Y-144524987D01*
X68804288Y-144740000D01*
X68823099Y-144955013D01*
X68824523Y-144960326D01*
X68824523Y-144960328D01*
X68840722Y-145020784D01*
X68839032Y-145091761D01*
X68799238Y-145150556D01*
X68733973Y-145178504D01*
X68663960Y-145166730D01*
X68616245Y-145126295D01*
X68591749Y-145091761D01*
X68535446Y-145012389D01*
X68382650Y-144866119D01*
X68204952Y-144751380D01*
X68106314Y-144711628D01*
X68014332Y-144674558D01*
X68014329Y-144674557D01*
X68008763Y-144672314D01*
X67801163Y-144631772D01*
X67795601Y-144631500D01*
X66939654Y-144631500D01*
X66781934Y-144646548D01*
X66578966Y-144706092D01*
X66542967Y-144724633D01*
X66473251Y-144738041D01*
X66407350Y-144711628D01*
X66366191Y-144653780D01*
X66359277Y-144612616D01*
X66359277Y-139866574D01*
X66379279Y-139798453D01*
X66432935Y-139751960D01*
X66503209Y-139741856D01*
X66532373Y-139749707D01*
X66676237Y-139807686D01*
X66883837Y-139848228D01*
X66889399Y-139848500D01*
X67745346Y-139848500D01*
X67903066Y-139833452D01*
X68106034Y-139773908D01*
X68148649Y-139751960D01*
X68288749Y-139679804D01*
X68288752Y-139679802D01*
X68294080Y-139677058D01*
X68460420Y-139546396D01*
X68464352Y-139541865D01*
X68464355Y-139541862D01*
X68595121Y-139391167D01*
X68599052Y-139386637D01*
X68607814Y-139371492D01*
X68659241Y-139322545D01*
X68728967Y-139309172D01*
X68794854Y-139335619D01*
X68835983Y-139393489D01*
X68838582Y-139467203D01*
X68824524Y-139519665D01*
X68824523Y-139519672D01*
X68823099Y-139524987D01*
X68804288Y-139740000D01*
X68823099Y-139955013D01*
X68878961Y-140163493D01*
X68881283Y-140168474D01*
X68881284Y-140168475D01*
X68967851Y-140354119D01*
X68967854Y-140354124D01*
X68970177Y-140359106D01*
X69093975Y-140535907D01*
X69246593Y-140688525D01*
X69251101Y-140691682D01*
X69251104Y-140691684D01*
X69324406Y-140743010D01*
X69423394Y-140812323D01*
X69428376Y-140814646D01*
X69428381Y-140814649D01*
X69614025Y-140901216D01*
X69619007Y-140903539D01*
X69624315Y-140904961D01*
X69624317Y-140904962D01*
X69822172Y-140957977D01*
X69822174Y-140957977D01*
X69827487Y-140959401D01*
X70042500Y-140978212D01*
X70257513Y-140959401D01*
X70262826Y-140957977D01*
X70262828Y-140957977D01*
X70460683Y-140904962D01*
X70460685Y-140904961D01*
X70465993Y-140903539D01*
X70470975Y-140901216D01*
X70656619Y-140814649D01*
X70656624Y-140814646D01*
X70661606Y-140812323D01*
X70760594Y-140743010D01*
X70833896Y-140691684D01*
X70833899Y-140691682D01*
X70838407Y-140688525D01*
X70991025Y-140535907D01*
X71114823Y-140359106D01*
X71117146Y-140354124D01*
X71117149Y-140354119D01*
X71203716Y-140168475D01*
X71203717Y-140168474D01*
X71206039Y-140163493D01*
X71261901Y-139955013D01*
X71280712Y-139740000D01*
X71261901Y-139524987D01*
X71206039Y-139316507D01*
X71155056Y-139207174D01*
X71117149Y-139125881D01*
X71117146Y-139125876D01*
X71114823Y-139120894D01*
X71015988Y-138979743D01*
X70994184Y-138948604D01*
X70994182Y-138948601D01*
X70991025Y-138944093D01*
X70838407Y-138791475D01*
X70661606Y-138667677D01*
X70656624Y-138665354D01*
X70656619Y-138665351D01*
X70470975Y-138578784D01*
X70470974Y-138578783D01*
X70465993Y-138576461D01*
X70460685Y-138575039D01*
X70460683Y-138575038D01*
X70262828Y-138522023D01*
X70262826Y-138522023D01*
X70257513Y-138520599D01*
X70042500Y-138501788D01*
X69827487Y-138520599D01*
X69822174Y-138522023D01*
X69822172Y-138522023D01*
X69624317Y-138575038D01*
X69624315Y-138575039D01*
X69619007Y-138576461D01*
X69614026Y-138578783D01*
X69614025Y-138578784D01*
X69428381Y-138665351D01*
X69428376Y-138665354D01*
X69423394Y-138667677D01*
X69246593Y-138791475D01*
X69093975Y-138944093D01*
X69090818Y-138948601D01*
X69090816Y-138948604D01*
X69069012Y-138979743D01*
X69007487Y-139067611D01*
X69005748Y-139070094D01*
X68950291Y-139114422D01*
X68879672Y-139121731D01*
X68816311Y-139089700D01*
X68780326Y-139028499D01*
X68777839Y-138979743D01*
X68803852Y-138800336D01*
X68803852Y-138800333D01*
X68804713Y-138794396D01*
X68794933Y-138583101D01*
X68759362Y-138435502D01*
X68746781Y-138383299D01*
X68746780Y-138383297D01*
X68745375Y-138377466D01*
X68657826Y-138184913D01*
X68535446Y-138012389D01*
X68382650Y-137866119D01*
X68204952Y-137751380D01*
X68106314Y-137711628D01*
X68014332Y-137674558D01*
X68014329Y-137674557D01*
X68008763Y-137672314D01*
X67801163Y-137631772D01*
X67795601Y-137631500D01*
X66939654Y-137631500D01*
X66781934Y-137646548D01*
X66578966Y-137706092D01*
X66542967Y-137724633D01*
X66473251Y-137738041D01*
X66407350Y-137711628D01*
X66366191Y-137653780D01*
X66359277Y-137612616D01*
X66359277Y-132134568D01*
X67017382Y-132134568D01*
X67046208Y-132383699D01*
X67047587Y-132388573D01*
X67047588Y-132388577D01*
X67113116Y-132620148D01*
X67114494Y-132625017D01*
X67116628Y-132629592D01*
X67116630Y-132629599D01*
X67197150Y-132802273D01*
X67220484Y-132852313D01*
X67223326Y-132856494D01*
X67223326Y-132856495D01*
X67358605Y-133055552D01*
X67358608Y-133055556D01*
X67361451Y-133059739D01*
X67364928Y-133063416D01*
X67364929Y-133063417D01*
X67465238Y-133169491D01*
X67533767Y-133241959D01*
X67537793Y-133245037D01*
X67537794Y-133245038D01*
X67728981Y-133391212D01*
X67728985Y-133391215D01*
X67733001Y-133394285D01*
X67954026Y-133512797D01*
X67958807Y-133514443D01*
X67958811Y-133514445D01*
X68118470Y-133569420D01*
X68191156Y-133594448D01*
X68294689Y-133612331D01*
X68434380Y-133636460D01*
X68434386Y-133636461D01*
X68438290Y-133637135D01*
X68442251Y-133637315D01*
X68442252Y-133637315D01*
X68466931Y-133638436D01*
X68466950Y-133638436D01*
X68468350Y-133638500D01*
X68643015Y-133638500D01*
X68645523Y-133638298D01*
X68645528Y-133638298D01*
X68824944Y-133623863D01*
X68824949Y-133623862D01*
X68829985Y-133623457D01*
X68834893Y-133622252D01*
X68834896Y-133622251D01*
X69068625Y-133564841D01*
X69073539Y-133563634D01*
X69078191Y-133561659D01*
X69078195Y-133561658D01*
X69299741Y-133467617D01*
X69299742Y-133467617D01*
X69304396Y-133465641D01*
X69516615Y-133332000D01*
X69605010Y-133254069D01*
X74169401Y-133254069D01*
X74169771Y-133260890D01*
X74175295Y-133311752D01*
X74178921Y-133327004D01*
X74224076Y-133447454D01*
X74232614Y-133463049D01*
X74309115Y-133565124D01*
X74321676Y-133577685D01*
X74423751Y-133654186D01*
X74439346Y-133662724D01*
X74559794Y-133707878D01*
X74575049Y-133711505D01*
X74625914Y-133717031D01*
X74632728Y-133717400D01*
X75270285Y-133717400D01*
X75285524Y-133712925D01*
X75286729Y-133711535D01*
X75288400Y-133703852D01*
X75288400Y-133699284D01*
X75796400Y-133699284D01*
X75800875Y-133714523D01*
X75802265Y-133715728D01*
X75809948Y-133717399D01*
X76452069Y-133717399D01*
X76458890Y-133717029D01*
X76509752Y-133711505D01*
X76525004Y-133707879D01*
X76645454Y-133662724D01*
X76661049Y-133654186D01*
X76763124Y-133577685D01*
X76775685Y-133565124D01*
X76852186Y-133463049D01*
X76860724Y-133447454D01*
X76896198Y-133352828D01*
X76938840Y-133296064D01*
X77005401Y-133271364D01*
X77074750Y-133286572D01*
X77105350Y-133310087D01*
X77165316Y-133372948D01*
X77165321Y-133372953D01*
X77169001Y-133376810D01*
X77356009Y-133515948D01*
X77360760Y-133518364D01*
X77360764Y-133518366D01*
X77383297Y-133529822D01*
X77563788Y-133621588D01*
X77786395Y-133690710D01*
X77791684Y-133691411D01*
X78012181Y-133720636D01*
X78012185Y-133720636D01*
X78017465Y-133721336D01*
X78022794Y-133721136D01*
X78022795Y-133721136D01*
X78117524Y-133717579D01*
X78250393Y-133712591D01*
X78478517Y-133664726D01*
X78483476Y-133662768D01*
X78483478Y-133662767D01*
X78660646Y-133592799D01*
X78695314Y-133579108D01*
X78879047Y-133467617D01*
X78890026Y-133460955D01*
X78890029Y-133460953D01*
X78894587Y-133458187D01*
X78965472Y-133396676D01*
X79066604Y-133308918D01*
X79066606Y-133308916D01*
X79070637Y-133305418D01*
X79125688Y-133238279D01*
X79215046Y-133129300D01*
X79215050Y-133129294D01*
X79218430Y-133125172D01*
X79243345Y-133081402D01*
X79294427Y-133032096D01*
X79364057Y-133018234D01*
X79430128Y-133044217D01*
X79457365Y-133073365D01*
X79548109Y-133208152D01*
X79551788Y-133212009D01*
X79551790Y-133212011D01*
X79591912Y-133254069D01*
X79709001Y-133376810D01*
X79896009Y-133515948D01*
X79900764Y-133518366D01*
X79900768Y-133518368D01*
X79920004Y-133528148D01*
X79971662Y-133576851D01*
X79988900Y-133640465D01*
X79988900Y-134738533D01*
X79988373Y-134749716D01*
X79986698Y-134757209D01*
X79986947Y-134765135D01*
X79986947Y-134765136D01*
X79988838Y-134825286D01*
X79988900Y-134829245D01*
X79988900Y-134857156D01*
X79989397Y-134861090D01*
X79989397Y-134861091D01*
X79989405Y-134861156D01*
X79990338Y-134872993D01*
X79991727Y-134917189D01*
X79997378Y-134936639D01*
X80001387Y-134956000D01*
X80003926Y-134976097D01*
X80006845Y-134983468D01*
X80006845Y-134983470D01*
X80020204Y-135017212D01*
X80024049Y-135028442D01*
X80034171Y-135063283D01*
X80036382Y-135070893D01*
X80040415Y-135077712D01*
X80040417Y-135077717D01*
X80046693Y-135088328D01*
X80055388Y-135106076D01*
X80062848Y-135124917D01*
X80067510Y-135131333D01*
X80067510Y-135131334D01*
X80088836Y-135160687D01*
X80095352Y-135170607D01*
X80097394Y-135174059D01*
X80117858Y-135208662D01*
X80132179Y-135222983D01*
X80145019Y-135238016D01*
X80156928Y-135254407D01*
X80163034Y-135259458D01*
X80191005Y-135282598D01*
X80199784Y-135290588D01*
X95989543Y-151080347D01*
X95997087Y-151088637D01*
X96001200Y-151095118D01*
X96006977Y-151100543D01*
X96050867Y-151141758D01*
X96053709Y-151144513D01*
X96073431Y-151164235D01*
X96076555Y-151166658D01*
X96076559Y-151166662D01*
X96076624Y-151166712D01*
X96085645Y-151174417D01*
X96117879Y-151204686D01*
X96124827Y-151208505D01*
X96124829Y-151208507D01*
X96135632Y-151214446D01*
X96152159Y-151225302D01*
X96161898Y-151232857D01*
X96161900Y-151232858D01*
X96168160Y-151237714D01*
X96208740Y-151255274D01*
X96219388Y-151260491D01*
X96235161Y-151269162D01*
X96258140Y-151281795D01*
X96265816Y-151283766D01*
X96265819Y-151283767D01*
X96277762Y-151286833D01*
X96296466Y-151293237D01*
X96299004Y-151294335D01*
X96315055Y-151301281D01*
X96322878Y-151302520D01*
X96322888Y-151302523D01*
X96358724Y-151308199D01*
X96370344Y-151310605D01*
X96405489Y-151319628D01*
X96413170Y-151321600D01*
X96433424Y-151321600D01*
X96453134Y-151323151D01*
X96473143Y-151326320D01*
X96481035Y-151325574D01*
X96517161Y-151322159D01*
X96529019Y-151321600D01*
X110679738Y-151321600D01*
X110747859Y-151341602D01*
X110794352Y-151395258D01*
X110804456Y-151465532D01*
X110774962Y-151530112D01*
X110753800Y-151549535D01*
X110724347Y-151570934D01*
X110719926Y-151575844D01*
X110719925Y-151575845D01*
X110684103Y-151615630D01*
X110596560Y-151712856D01*
X110501073Y-151878244D01*
X110442058Y-152059872D01*
X110422096Y-152249800D01*
X110422786Y-152256365D01*
X110437686Y-152398126D01*
X110442058Y-152439728D01*
X110501073Y-152621356D01*
X110596560Y-152786744D01*
X110600978Y-152791651D01*
X110600979Y-152791652D01*
X110717429Y-152920983D01*
X110724347Y-152928666D01*
X110749857Y-152947200D01*
X110863166Y-153029524D01*
X110878848Y-153040918D01*
X110884876Y-153043602D01*
X110884878Y-153043603D01*
X110888528Y-153045228D01*
X111053312Y-153118594D01*
X111131192Y-153135148D01*
X111233656Y-153156928D01*
X111233661Y-153156928D01*
X111240113Y-153158300D01*
X111431087Y-153158300D01*
X111437539Y-153156928D01*
X111437544Y-153156928D01*
X111540008Y-153135148D01*
X111617888Y-153118594D01*
X111782672Y-153045228D01*
X111786322Y-153043603D01*
X111786324Y-153043602D01*
X111792352Y-153040918D01*
X111808035Y-153029524D01*
X111921343Y-152947200D01*
X111946853Y-152928666D01*
X111953771Y-152920983D01*
X112070221Y-152791652D01*
X112070222Y-152791651D01*
X112074640Y-152786744D01*
X112170127Y-152621356D01*
X112229142Y-152439728D01*
X112233515Y-152398126D01*
X112243788Y-152300381D01*
X112246507Y-152274508D01*
X112273520Y-152208851D01*
X112282722Y-152198582D01*
X112672501Y-151808804D01*
X112734813Y-151774779D01*
X112761596Y-151771900D01*
X114174600Y-151771900D01*
X114242721Y-151791902D01*
X114289214Y-151845558D01*
X114300600Y-151897900D01*
X114300600Y-152041585D01*
X114305075Y-152056824D01*
X114306465Y-152058029D01*
X114314148Y-152059700D01*
X115786600Y-152059700D01*
X115854721Y-152079702D01*
X115901214Y-152133358D01*
X115912600Y-152185700D01*
X115912600Y-153653584D01*
X115917075Y-153668823D01*
X115918465Y-153670028D01*
X115926148Y-153671699D01*
X116553269Y-153671699D01*
X116560090Y-153671329D01*
X116610952Y-153665805D01*
X116626204Y-153662179D01*
X116746654Y-153617024D01*
X116762249Y-153608486D01*
X116864324Y-153531985D01*
X116876885Y-153519424D01*
X116953386Y-153417349D01*
X116961924Y-153401754D01*
X117002825Y-153292652D01*
X117045467Y-153235888D01*
X117112028Y-153211188D01*
X117181377Y-153226396D01*
X117216044Y-153254384D01*
X117241465Y-153283731D01*
X117241469Y-153283735D01*
X117244850Y-153287638D01*
X117416726Y-153430332D01*
X117609600Y-153543038D01*
X117818292Y-153622730D01*
X117823360Y-153623761D01*
X117823363Y-153623762D01*
X117930617Y-153645583D01*
X118037197Y-153667267D01*
X118042372Y-153667457D01*
X118042374Y-153667457D01*
X118255273Y-153675264D01*
X118255277Y-153675264D01*
X118260437Y-153675453D01*
X118265557Y-153674797D01*
X118265559Y-153674797D01*
X118476888Y-153647725D01*
X118476889Y-153647725D01*
X118482016Y-153647068D01*
X118486966Y-153645583D01*
X118691029Y-153584361D01*
X118691034Y-153584359D01*
X118695984Y-153582874D01*
X118896594Y-153484596D01*
X119078460Y-153354873D01*
X119099201Y-153334205D01*
X119187080Y-153246632D01*
X119236696Y-153197189D01*
X119264641Y-153158300D01*
X119367053Y-153015777D01*
X119368376Y-153016728D01*
X119415245Y-152973557D01*
X119485180Y-152961325D01*
X119550626Y-152988844D01*
X119578475Y-153020694D01*
X119592514Y-153043603D01*
X119638587Y-153118788D01*
X119784850Y-153287638D01*
X119956726Y-153430332D01*
X120149600Y-153543038D01*
X120358292Y-153622730D01*
X120363360Y-153623761D01*
X120363363Y-153623762D01*
X120470617Y-153645583D01*
X120577197Y-153667267D01*
X120582372Y-153667457D01*
X120582374Y-153667457D01*
X120795273Y-153675264D01*
X120795277Y-153675264D01*
X120800437Y-153675453D01*
X120805557Y-153674797D01*
X120805559Y-153674797D01*
X121016888Y-153647725D01*
X121016889Y-153647725D01*
X121022016Y-153647068D01*
X121026966Y-153645583D01*
X121231029Y-153584361D01*
X121231034Y-153584359D01*
X121235984Y-153582874D01*
X121436594Y-153484596D01*
X121512670Y-153430332D01*
X121574469Y-153386252D01*
X121641543Y-153362978D01*
X121710551Y-153379662D01*
X121736732Y-153399736D01*
X122227043Y-153890047D01*
X122234587Y-153898337D01*
X122238700Y-153904818D01*
X122244477Y-153910243D01*
X122288367Y-153951458D01*
X122291209Y-153954213D01*
X122310931Y-153973935D01*
X122314055Y-153976358D01*
X122314059Y-153976362D01*
X122314124Y-153976412D01*
X122323145Y-153984117D01*
X122355379Y-154014386D01*
X122362327Y-154018205D01*
X122362329Y-154018207D01*
X122373132Y-154024146D01*
X122389659Y-154035002D01*
X122399398Y-154042557D01*
X122399400Y-154042558D01*
X122405660Y-154047414D01*
X122446240Y-154064974D01*
X122456888Y-154070191D01*
X122481676Y-154083818D01*
X122495640Y-154091495D01*
X122503316Y-154093466D01*
X122503319Y-154093467D01*
X122515262Y-154096533D01*
X122533967Y-154102937D01*
X122552555Y-154110981D01*
X122560378Y-154112220D01*
X122560388Y-154112223D01*
X122596224Y-154117899D01*
X122607844Y-154120305D01*
X122639659Y-154128473D01*
X122650670Y-154131300D01*
X122670924Y-154131300D01*
X122690634Y-154132851D01*
X122710643Y-154136020D01*
X122718535Y-154135274D01*
X122737280Y-154133502D01*
X122754662Y-154131859D01*
X122766519Y-154131300D01*
X133878933Y-154131300D01*
X133890116Y-154131827D01*
X133897609Y-154133502D01*
X133905535Y-154133253D01*
X133905536Y-154133253D01*
X133965686Y-154131362D01*
X133969645Y-154131300D01*
X133997556Y-154131300D01*
X134001491Y-154130803D01*
X134001556Y-154130795D01*
X134013393Y-154129862D01*
X134045651Y-154128848D01*
X134049670Y-154128722D01*
X134057589Y-154128473D01*
X134077043Y-154122821D01*
X134096400Y-154118813D01*
X134108630Y-154117268D01*
X134108631Y-154117268D01*
X134116497Y-154116274D01*
X134123868Y-154113355D01*
X134123870Y-154113355D01*
X134157612Y-154099996D01*
X134168842Y-154096151D01*
X134203683Y-154086029D01*
X134203684Y-154086029D01*
X134211293Y-154083818D01*
X134218112Y-154079785D01*
X134218117Y-154079783D01*
X134228728Y-154073507D01*
X134246476Y-154064812D01*
X134265317Y-154057352D01*
X134301087Y-154031364D01*
X134311007Y-154024848D01*
X134342235Y-154006380D01*
X134342238Y-154006378D01*
X134349062Y-154002342D01*
X134363383Y-153988021D01*
X134378417Y-153975180D01*
X134380131Y-153973935D01*
X134394807Y-153963272D01*
X134422998Y-153929195D01*
X134430988Y-153920416D01*
X135697789Y-152653615D01*
X136857789Y-152653615D01*
X136886615Y-152902746D01*
X136887994Y-152907620D01*
X136887995Y-152907624D01*
X136952378Y-153135148D01*
X136954901Y-153144064D01*
X136957035Y-153148639D01*
X136957037Y-153148646D01*
X137053203Y-153354873D01*
X137060891Y-153371360D01*
X137063733Y-153375541D01*
X137063733Y-153375542D01*
X137199012Y-153574599D01*
X137199015Y-153574603D01*
X137201858Y-153578786D01*
X137205335Y-153582463D01*
X137205336Y-153582464D01*
X137305645Y-153688538D01*
X137374174Y-153761006D01*
X137378200Y-153764084D01*
X137378201Y-153764085D01*
X137569388Y-153910259D01*
X137569392Y-153910262D01*
X137573408Y-153913332D01*
X137577866Y-153915722D01*
X137577867Y-153915723D01*
X137644513Y-153951458D01*
X137794433Y-154031844D01*
X137799214Y-154033490D01*
X137799218Y-154033492D01*
X138015119Y-154107833D01*
X138031563Y-154113495D01*
X138131720Y-154130795D01*
X138274787Y-154155507D01*
X138274793Y-154155508D01*
X138278697Y-154156182D01*
X138282658Y-154156362D01*
X138282659Y-154156362D01*
X138307338Y-154157483D01*
X138307357Y-154157483D01*
X138308757Y-154157547D01*
X138483422Y-154157547D01*
X138485930Y-154157345D01*
X138485935Y-154157345D01*
X138665351Y-154142910D01*
X138665356Y-154142909D01*
X138670392Y-154142504D01*
X138675300Y-154141299D01*
X138675303Y-154141298D01*
X138909032Y-154083888D01*
X138913946Y-154082681D01*
X138918598Y-154080706D01*
X138918602Y-154080705D01*
X139140148Y-153986664D01*
X139140149Y-153986664D01*
X139144803Y-153984688D01*
X139357022Y-153851047D01*
X139545145Y-153685194D01*
X139704331Y-153491398D01*
X139830485Y-153274643D01*
X139838059Y-153254914D01*
X139918550Y-153045228D01*
X139920362Y-153040508D01*
X139924502Y-153020694D01*
X139964917Y-152827233D01*
X139971648Y-152795014D01*
X139971916Y-152789127D01*
X139978069Y-152653615D01*
X139983025Y-152544479D01*
X139954199Y-152295348D01*
X139941311Y-152249800D01*
X139887291Y-152058899D01*
X139887290Y-152058897D01*
X139885913Y-152054030D01*
X139883779Y-152049455D01*
X139883777Y-152049448D01*
X139782060Y-151831316D01*
X139782058Y-151831312D01*
X139779923Y-151826734D01*
X139748642Y-151780705D01*
X139641802Y-151623495D01*
X139641799Y-151623491D01*
X139638956Y-151619308D01*
X139538332Y-151512900D01*
X139470120Y-151440768D01*
X139466640Y-151437088D01*
X139385741Y-151375236D01*
X139271426Y-151287835D01*
X139271422Y-151287832D01*
X139267406Y-151284762D01*
X139179662Y-151237714D01*
X139074822Y-151181500D01*
X139046381Y-151166250D01*
X139041600Y-151164604D01*
X139041596Y-151164602D01*
X138814040Y-151086248D01*
X138809251Y-151084599D01*
X138703889Y-151066400D01*
X138566027Y-151042587D01*
X138566021Y-151042586D01*
X138562117Y-151041912D01*
X138558156Y-151041732D01*
X138558155Y-151041732D01*
X138533476Y-151040611D01*
X138533457Y-151040611D01*
X138532057Y-151040547D01*
X138357392Y-151040547D01*
X138354884Y-151040749D01*
X138354879Y-151040749D01*
X138175463Y-151055184D01*
X138175458Y-151055185D01*
X138170422Y-151055590D01*
X138165514Y-151056795D01*
X138165511Y-151056796D01*
X138009494Y-151095118D01*
X137926868Y-151115413D01*
X137922216Y-151117388D01*
X137922212Y-151117389D01*
X137735382Y-151196694D01*
X137696011Y-151213406D01*
X137595956Y-151276414D01*
X137492439Y-151341602D01*
X137483792Y-151347047D01*
X137295669Y-151512900D01*
X137136483Y-151706696D01*
X137010329Y-151923451D01*
X136920452Y-152157586D01*
X136919419Y-152162532D01*
X136919417Y-152162538D01*
X136890621Y-152300381D01*
X136869166Y-152403080D01*
X136868937Y-152408129D01*
X136868936Y-152408135D01*
X136866921Y-152452513D01*
X136857789Y-152653615D01*
X135697789Y-152653615D01*
X137273353Y-151078052D01*
X137281639Y-151070512D01*
X137288118Y-151066400D01*
X137298651Y-151055184D01*
X137334743Y-151016749D01*
X137337498Y-151013907D01*
X137357235Y-150994170D01*
X137359715Y-150990973D01*
X137367420Y-150981951D01*
X137392259Y-150955500D01*
X137397686Y-150949721D01*
X137401505Y-150942775D01*
X137401507Y-150942772D01*
X137407448Y-150931966D01*
X137418299Y-150915447D01*
X137425858Y-150905701D01*
X137430714Y-150899441D01*
X137433859Y-150892172D01*
X137433862Y-150892168D01*
X137448274Y-150858863D01*
X137453491Y-150848213D01*
X137474795Y-150809460D01*
X137476881Y-150801338D01*
X137479833Y-150789838D01*
X137486237Y-150771134D01*
X137491133Y-150759820D01*
X137491133Y-150759819D01*
X137494281Y-150752545D01*
X137495520Y-150744722D01*
X137495523Y-150744712D01*
X137501199Y-150708876D01*
X137503605Y-150697256D01*
X137512628Y-150662111D01*
X137512628Y-150662110D01*
X137514600Y-150654430D01*
X137514600Y-150634176D01*
X137516151Y-150614465D01*
X137518080Y-150602286D01*
X137519320Y-150594457D01*
X137515159Y-150550438D01*
X137514600Y-150538581D01*
X137514600Y-138379394D01*
X137534602Y-138311273D01*
X137568329Y-138276181D01*
X137611343Y-138246062D01*
X138159593Y-138246062D01*
X138168889Y-138258077D01*
X138220094Y-138293931D01*
X138229589Y-138299414D01*
X138427047Y-138391490D01*
X138437339Y-138395236D01*
X138647788Y-138451625D01*
X138658581Y-138453528D01*
X138875625Y-138472517D01*
X138886575Y-138472517D01*
X139103619Y-138453528D01*
X139114412Y-138451625D01*
X139324861Y-138395236D01*
X139335153Y-138391490D01*
X139532611Y-138299414D01*
X139542106Y-138293931D01*
X139594148Y-138257491D01*
X139602524Y-138247012D01*
X139595456Y-138233566D01*
X138893912Y-137532022D01*
X138879968Y-137524408D01*
X138878135Y-137524539D01*
X138871520Y-137528790D01*
X138166023Y-138234287D01*
X138159593Y-138246062D01*
X137611343Y-138246062D01*
X137720889Y-138169357D01*
X137720892Y-138169355D01*
X137725400Y-138166198D01*
X137887298Y-138004300D01*
X137905570Y-137978206D01*
X137981151Y-137870264D01*
X138018623Y-137816749D01*
X138020946Y-137811767D01*
X138020949Y-137811762D01*
X138113061Y-137614225D01*
X138113061Y-137614224D01*
X138115384Y-137609243D01*
X138118227Y-137598635D01*
X138122289Y-137583473D01*
X138154901Y-137526989D01*
X138509078Y-137172812D01*
X138516692Y-137158868D01*
X138516561Y-137157035D01*
X138512310Y-137150420D01*
X138154901Y-136793011D01*
X138122289Y-136736527D01*
X138116807Y-136716067D01*
X138116806Y-136716065D01*
X138115384Y-136710757D01*
X138021066Y-136508489D01*
X138020949Y-136508238D01*
X138020946Y-136508233D01*
X138018623Y-136503251D01*
X137887298Y-136315700D01*
X137725400Y-136153802D01*
X137720892Y-136150645D01*
X137720889Y-136150643D01*
X137609986Y-136072988D01*
X138159676Y-136072988D01*
X138166744Y-136086434D01*
X138868288Y-136787978D01*
X138882232Y-136795592D01*
X138884065Y-136795461D01*
X138890680Y-136791210D01*
X139596177Y-136085713D01*
X139602607Y-136073938D01*
X139593311Y-136061923D01*
X139542106Y-136026069D01*
X139532611Y-136020586D01*
X139335153Y-135928510D01*
X139324861Y-135924764D01*
X139114412Y-135868375D01*
X139103619Y-135866472D01*
X138886575Y-135847483D01*
X138875625Y-135847483D01*
X138658581Y-135866472D01*
X138647788Y-135868375D01*
X138437339Y-135924764D01*
X138427047Y-135928510D01*
X138229589Y-136020586D01*
X138220094Y-136026069D01*
X138168052Y-136062509D01*
X138159676Y-136072988D01*
X137609986Y-136072988D01*
X137595020Y-136062509D01*
X137537849Y-136022477D01*
X137532867Y-136020154D01*
X137532862Y-136020151D01*
X137335325Y-135928039D01*
X137335324Y-135928039D01*
X137330343Y-135925716D01*
X137325035Y-135924294D01*
X137325033Y-135924293D01*
X137114502Y-135867881D01*
X137114500Y-135867881D01*
X137109187Y-135866457D01*
X136881100Y-135846502D01*
X136653013Y-135866457D01*
X136647700Y-135867881D01*
X136647698Y-135867881D01*
X136437167Y-135924293D01*
X136437165Y-135924294D01*
X136431857Y-135925716D01*
X136426876Y-135928039D01*
X136426875Y-135928039D01*
X136229338Y-136020151D01*
X136229333Y-136020154D01*
X136224351Y-136022477D01*
X136167180Y-136062509D01*
X136041311Y-136150643D01*
X136041308Y-136150645D01*
X136036800Y-136153802D01*
X135874902Y-136315700D01*
X135743577Y-136503251D01*
X135741254Y-136508233D01*
X135741251Y-136508238D01*
X135741134Y-136508489D01*
X135646816Y-136710757D01*
X135645394Y-136716065D01*
X135645393Y-136716067D01*
X135591850Y-136915891D01*
X135587557Y-136931913D01*
X135567602Y-137160000D01*
X135587557Y-137388087D01*
X135588981Y-137393400D01*
X135588981Y-137393402D01*
X135643974Y-137598635D01*
X135646816Y-137609243D01*
X135649139Y-137614224D01*
X135649139Y-137614225D01*
X135741251Y-137811762D01*
X135741254Y-137811767D01*
X135743577Y-137816749D01*
X135781049Y-137870264D01*
X135856631Y-137978206D01*
X135874902Y-138004300D01*
X136036800Y-138166198D01*
X136041308Y-138169355D01*
X136041311Y-138169357D01*
X136193871Y-138276181D01*
X136238199Y-138331638D01*
X136247600Y-138379394D01*
X136247600Y-150259806D01*
X136227598Y-150327927D01*
X136210695Y-150348901D01*
X134846600Y-151712995D01*
X134784288Y-151747021D01*
X134713472Y-151741956D01*
X134656637Y-151699409D01*
X134644629Y-151678746D01*
X134644458Y-151678838D01*
X134642019Y-151674290D01*
X134639954Y-151669540D01*
X134589094Y-151590922D01*
X134521422Y-151486317D01*
X134521420Y-151486314D01*
X134518614Y-151481977D01*
X134368270Y-151316751D01*
X134364219Y-151313552D01*
X134364215Y-151313548D01*
X134197014Y-151181500D01*
X134197010Y-151181498D01*
X134192959Y-151178298D01*
X134171881Y-151166662D01*
X134082622Y-151117389D01*
X133997389Y-151070338D01*
X133992520Y-151068614D01*
X133992516Y-151068612D01*
X133791687Y-150997495D01*
X133791683Y-150997494D01*
X133786812Y-150995769D01*
X133781719Y-150994862D01*
X133781716Y-150994861D01*
X133571973Y-150957500D01*
X133571967Y-150957499D01*
X133566884Y-150956594D01*
X133493052Y-150955692D01*
X133348681Y-150953928D01*
X133348679Y-150953928D01*
X133343511Y-150953865D01*
X133122691Y-150987655D01*
X132910356Y-151057057D01*
X132712207Y-151160207D01*
X132708074Y-151163310D01*
X132708071Y-151163312D01*
X132605907Y-151240019D01*
X132539422Y-151264925D01*
X132470026Y-151249933D01*
X132441159Y-151228354D01*
X128811552Y-147598747D01*
X128804012Y-147590461D01*
X128799900Y-147583982D01*
X128750248Y-147537356D01*
X128747407Y-147534602D01*
X128727670Y-147514865D01*
X128724473Y-147512385D01*
X128715451Y-147504680D01*
X128689000Y-147479841D01*
X128683221Y-147474414D01*
X128676275Y-147470595D01*
X128676272Y-147470593D01*
X128665466Y-147464652D01*
X128648947Y-147453801D01*
X128642948Y-147449148D01*
X128632941Y-147441386D01*
X128625672Y-147438241D01*
X128625668Y-147438238D01*
X128592363Y-147423826D01*
X128581713Y-147418609D01*
X128542960Y-147397305D01*
X128523337Y-147392267D01*
X128504634Y-147385863D01*
X128493320Y-147380967D01*
X128493319Y-147380967D01*
X128486045Y-147377819D01*
X128478222Y-147376580D01*
X128478212Y-147376577D01*
X128442376Y-147370901D01*
X128430756Y-147368495D01*
X128395611Y-147359472D01*
X128395610Y-147359472D01*
X128387930Y-147357500D01*
X128367676Y-147357500D01*
X128347965Y-147355949D01*
X128335786Y-147354020D01*
X128327957Y-147352780D01*
X128320065Y-147353526D01*
X128283939Y-147356941D01*
X128272081Y-147357500D01*
X115158421Y-147357500D01*
X115090300Y-147337498D01*
X115043807Y-147283842D01*
X115033703Y-147213568D01*
X115063197Y-147148988D01*
X115122923Y-147110604D01*
X115132224Y-147108253D01*
X115291988Y-147074294D01*
X115298019Y-147071609D01*
X115460422Y-146999303D01*
X115460424Y-146999302D01*
X115466452Y-146996618D01*
X115620953Y-146884366D01*
X115653492Y-146848228D01*
X115744321Y-146747352D01*
X115744322Y-146747351D01*
X115748740Y-146742444D01*
X115835835Y-146591591D01*
X115840923Y-146582779D01*
X115840924Y-146582778D01*
X115844227Y-146577056D01*
X115903242Y-146395428D01*
X115904712Y-146381447D01*
X115920607Y-146230207D01*
X115947620Y-146164550D01*
X115956822Y-146154282D01*
X118193099Y-143918005D01*
X118255411Y-143883979D01*
X118282194Y-143881100D01*
X129415200Y-143881100D01*
X129483321Y-143901102D01*
X129502547Y-143917443D01*
X129502820Y-143917140D01*
X129507732Y-143921563D01*
X129512147Y-143926466D01*
X129666648Y-144038718D01*
X129672676Y-144041402D01*
X129672678Y-144041403D01*
X129835081Y-144113709D01*
X129841112Y-144116394D01*
X129934512Y-144136247D01*
X130021456Y-144154728D01*
X130021461Y-144154728D01*
X130027913Y-144156100D01*
X130218887Y-144156100D01*
X130225339Y-144154728D01*
X130225344Y-144154728D01*
X130312288Y-144136247D01*
X130405688Y-144116394D01*
X130411719Y-144113709D01*
X130574122Y-144041403D01*
X130574124Y-144041402D01*
X130580152Y-144038718D01*
X130734653Y-143926466D01*
X130757491Y-143901102D01*
X130858021Y-143789452D01*
X130858022Y-143789451D01*
X130862440Y-143784544D01*
X130957927Y-143619156D01*
X131016942Y-143437528D01*
X131036904Y-143247600D01*
X131016942Y-143057672D01*
X130957927Y-142876044D01*
X130862440Y-142710656D01*
X130846281Y-142692709D01*
X130739075Y-142573645D01*
X130739074Y-142573644D01*
X130734653Y-142568734D01*
X130580152Y-142456482D01*
X130574124Y-142453798D01*
X130574122Y-142453797D01*
X130411719Y-142381491D01*
X130411718Y-142381491D01*
X130405688Y-142378806D01*
X130312287Y-142358953D01*
X130225344Y-142340472D01*
X130225339Y-142340472D01*
X130218887Y-142339100D01*
X130027913Y-142339100D01*
X130021461Y-142340472D01*
X130021456Y-142340472D01*
X129934513Y-142358953D01*
X129841112Y-142378806D01*
X129835082Y-142381491D01*
X129835081Y-142381491D01*
X129672678Y-142453797D01*
X129672676Y-142453798D01*
X129666648Y-142456482D01*
X129512147Y-142568734D01*
X129507732Y-142573637D01*
X129502820Y-142578060D01*
X129501695Y-142576811D01*
X129448386Y-142609651D01*
X129415200Y-142614100D01*
X118046367Y-142614100D01*
X118035184Y-142613573D01*
X118027691Y-142611898D01*
X118019765Y-142612147D01*
X118019764Y-142612147D01*
X117959614Y-142614038D01*
X117955655Y-142614100D01*
X117927744Y-142614100D01*
X117923810Y-142614597D01*
X117923809Y-142614597D01*
X117923744Y-142614605D01*
X117911907Y-142615538D01*
X117880090Y-142616538D01*
X117875629Y-142616678D01*
X117867710Y-142616927D01*
X117850054Y-142622056D01*
X117848258Y-142622578D01*
X117828906Y-142626586D01*
X117821835Y-142627480D01*
X117808803Y-142629126D01*
X117801434Y-142632043D01*
X117801432Y-142632044D01*
X117767697Y-142645400D01*
X117756469Y-142649245D01*
X117714007Y-142661582D01*
X117707185Y-142665616D01*
X117707179Y-142665619D01*
X117696568Y-142671894D01*
X117678818Y-142680590D01*
X117667356Y-142685128D01*
X117667351Y-142685131D01*
X117659983Y-142688048D01*
X117653568Y-142692709D01*
X117624225Y-142714027D01*
X117614307Y-142720543D01*
X117595619Y-142731595D01*
X117576237Y-142743058D01*
X117561913Y-142757382D01*
X117546881Y-142770221D01*
X117530493Y-142782128D01*
X117502312Y-142816193D01*
X117494322Y-142824973D01*
X115098795Y-145220500D01*
X115036483Y-145254526D01*
X114965668Y-145249461D01*
X114920605Y-145220500D01*
X110287100Y-140586995D01*
X110253074Y-140524683D01*
X110258139Y-140453868D01*
X110300686Y-140397032D01*
X110367206Y-140372221D01*
X110376195Y-140371900D01*
X128665300Y-140371900D01*
X128733421Y-140391902D01*
X128752647Y-140408243D01*
X128752920Y-140407940D01*
X128757832Y-140412363D01*
X128762247Y-140417266D01*
X128916748Y-140529518D01*
X128922776Y-140532202D01*
X128922778Y-140532203D01*
X129045844Y-140586995D01*
X129091212Y-140607194D01*
X129184613Y-140627047D01*
X129271556Y-140645528D01*
X129271561Y-140645528D01*
X129278013Y-140646900D01*
X129468987Y-140646900D01*
X129475439Y-140645528D01*
X129475444Y-140645528D01*
X129562387Y-140627047D01*
X129655788Y-140607194D01*
X129701156Y-140586995D01*
X129824222Y-140532203D01*
X129824224Y-140532202D01*
X129830252Y-140529518D01*
X129984753Y-140417266D01*
X130025601Y-140371900D01*
X130108121Y-140280252D01*
X130108122Y-140280251D01*
X130112540Y-140275344D01*
X130208027Y-140109956D01*
X130267042Y-139928328D01*
X130285816Y-139749708D01*
X130286314Y-139744965D01*
X130287004Y-139738400D01*
X130280557Y-139677058D01*
X130267732Y-139555035D01*
X130267732Y-139555033D01*
X130267042Y-139548472D01*
X130208027Y-139366844D01*
X130176089Y-139311525D01*
X130115841Y-139207174D01*
X130112540Y-139201456D01*
X130040756Y-139121731D01*
X129989175Y-139064445D01*
X129989174Y-139064444D01*
X129984753Y-139059534D01*
X129830252Y-138947282D01*
X129824224Y-138944598D01*
X129824222Y-138944597D01*
X129661819Y-138872291D01*
X129661818Y-138872291D01*
X129655788Y-138869606D01*
X129562388Y-138849753D01*
X129475444Y-138831272D01*
X129475439Y-138831272D01*
X129468987Y-138829900D01*
X129278013Y-138829900D01*
X129271561Y-138831272D01*
X129271556Y-138831272D01*
X129184612Y-138849753D01*
X129091212Y-138869606D01*
X129085182Y-138872291D01*
X129085181Y-138872291D01*
X128922778Y-138944597D01*
X128922776Y-138944598D01*
X128916748Y-138947282D01*
X128762247Y-139059534D01*
X128757832Y-139064437D01*
X128752920Y-139068860D01*
X128751795Y-139067611D01*
X128698486Y-139100451D01*
X128665300Y-139104900D01*
X95002600Y-139104900D01*
X94934479Y-139084898D01*
X94915253Y-139068557D01*
X94914980Y-139068860D01*
X94910068Y-139064437D01*
X94905653Y-139059534D01*
X94751152Y-138947282D01*
X94745124Y-138944598D01*
X94745122Y-138944597D01*
X94582719Y-138872291D01*
X94582718Y-138872291D01*
X94576688Y-138869606D01*
X94483288Y-138849753D01*
X94396344Y-138831272D01*
X94396339Y-138831272D01*
X94389887Y-138829900D01*
X94198913Y-138829900D01*
X94192461Y-138831272D01*
X94192456Y-138831272D01*
X94105512Y-138849753D01*
X94012112Y-138869606D01*
X94006082Y-138872291D01*
X94006081Y-138872291D01*
X93843678Y-138944597D01*
X93843676Y-138944598D01*
X93837648Y-138947282D01*
X93683147Y-139059534D01*
X93678726Y-139064444D01*
X93678725Y-139064445D01*
X93627145Y-139121731D01*
X93555360Y-139201456D01*
X93552059Y-139207174D01*
X93491812Y-139311525D01*
X93459873Y-139366844D01*
X93400858Y-139548472D01*
X93400168Y-139555033D01*
X93400168Y-139555035D01*
X93387343Y-139677058D01*
X93380896Y-139738400D01*
X93381586Y-139744965D01*
X93382085Y-139749708D01*
X93400858Y-139928328D01*
X93459873Y-140109956D01*
X93555360Y-140275344D01*
X93559778Y-140280251D01*
X93559779Y-140280252D01*
X93642299Y-140371900D01*
X93683147Y-140417266D01*
X93837648Y-140529518D01*
X93843676Y-140532202D01*
X93843678Y-140532203D01*
X93966744Y-140586995D01*
X94012112Y-140607194D01*
X94105513Y-140627047D01*
X94192456Y-140645528D01*
X94192461Y-140645528D01*
X94198913Y-140646900D01*
X94389887Y-140646900D01*
X94401095Y-140644518D01*
X94432645Y-140637812D01*
X94503436Y-140643215D01*
X94560068Y-140686032D01*
X94578673Y-140722122D01*
X94626773Y-140870156D01*
X94630076Y-140875878D01*
X94630077Y-140875879D01*
X94646047Y-140903539D01*
X94722260Y-141035544D01*
X94850047Y-141177466D01*
X95004548Y-141289718D01*
X95010576Y-141292402D01*
X95010578Y-141292403D01*
X95133644Y-141347195D01*
X95179012Y-141367394D01*
X95272413Y-141387247D01*
X95359356Y-141405728D01*
X95359361Y-141405728D01*
X95365813Y-141407100D01*
X95556787Y-141407100D01*
X95563239Y-141405728D01*
X95563244Y-141405728D01*
X95650187Y-141387247D01*
X95743588Y-141367394D01*
X95788956Y-141347195D01*
X95912022Y-141292403D01*
X95912024Y-141292402D01*
X95918052Y-141289718D01*
X95962500Y-141257425D01*
X96050971Y-141193146D01*
X96072553Y-141177466D01*
X96076968Y-141172563D01*
X96081880Y-141168140D01*
X96083005Y-141169389D01*
X96136314Y-141136549D01*
X96169500Y-141132100D01*
X96747347Y-141132100D01*
X96815468Y-141152102D01*
X96861961Y-141205758D01*
X96872656Y-141244927D01*
X96892258Y-141431428D01*
X96951273Y-141613056D01*
X97046760Y-141778444D01*
X97174547Y-141920366D01*
X97329048Y-142032618D01*
X97335076Y-142035302D01*
X97335078Y-142035303D01*
X97497481Y-142107609D01*
X97503512Y-142110294D01*
X97596912Y-142130147D01*
X97683856Y-142148628D01*
X97683861Y-142148628D01*
X97690313Y-142150000D01*
X97746206Y-142150000D01*
X97814327Y-142170002D01*
X97835301Y-142186905D01*
X103966600Y-148318205D01*
X104000626Y-148380517D01*
X103995561Y-148451332D01*
X103953014Y-148508168D01*
X103886494Y-148532979D01*
X103877505Y-148533300D01*
X98636224Y-148533300D01*
X98568103Y-148513298D01*
X98521610Y-148459642D01*
X98516391Y-148446236D01*
X98481627Y-148339244D01*
X98386140Y-148173856D01*
X98258353Y-148031934D01*
X98159207Y-147959900D01*
X98109194Y-147923563D01*
X98109193Y-147923562D01*
X98103852Y-147919682D01*
X98097824Y-147916998D01*
X98097822Y-147916997D01*
X97935419Y-147844691D01*
X97935418Y-147844691D01*
X97929388Y-147842006D01*
X97835988Y-147822153D01*
X97749044Y-147803672D01*
X97749039Y-147803672D01*
X97742587Y-147802300D01*
X97551613Y-147802300D01*
X97545161Y-147803672D01*
X97545156Y-147803672D01*
X97458212Y-147822153D01*
X97364812Y-147842006D01*
X97358782Y-147844691D01*
X97358781Y-147844691D01*
X97196379Y-147916997D01*
X97190348Y-147919682D01*
X97190133Y-147919198D01*
X97125334Y-147934918D01*
X97058242Y-147911697D01*
X97037693Y-147893372D01*
X97007768Y-147860137D01*
X97007766Y-147860136D01*
X97003353Y-147855234D01*
X96848852Y-147742982D01*
X96842824Y-147740298D01*
X96842822Y-147740297D01*
X96680419Y-147667991D01*
X96680418Y-147667991D01*
X96674388Y-147665306D01*
X96580988Y-147645453D01*
X96494044Y-147626972D01*
X96494039Y-147626972D01*
X96487587Y-147625600D01*
X96296613Y-147625600D01*
X96290161Y-147626972D01*
X96290156Y-147626972D01*
X96203212Y-147645453D01*
X96109812Y-147665306D01*
X96103782Y-147667991D01*
X96103781Y-147667991D01*
X95941378Y-147740297D01*
X95941376Y-147740298D01*
X95935348Y-147742982D01*
X95780847Y-147855234D01*
X95776434Y-147860136D01*
X95776432Y-147860137D01*
X95775449Y-147861229D01*
X95774722Y-147861677D01*
X95771520Y-147864560D01*
X95770993Y-147863974D01*
X95715002Y-147898468D01*
X95644019Y-147897116D01*
X95592718Y-147866013D01*
X95235622Y-147508917D01*
X95201596Y-147446605D01*
X95199407Y-147432992D01*
X95182732Y-147274335D01*
X95182732Y-147274333D01*
X95182042Y-147267772D01*
X95123027Y-147086144D01*
X95116186Y-147074294D01*
X95030841Y-146926474D01*
X95027540Y-146920756D01*
X94990353Y-146879455D01*
X94904175Y-146783745D01*
X94904174Y-146783744D01*
X94899753Y-146778834D01*
X94800657Y-146706836D01*
X94750594Y-146670463D01*
X94750593Y-146670462D01*
X94745252Y-146666582D01*
X94739224Y-146663898D01*
X94739222Y-146663897D01*
X94576819Y-146591591D01*
X94576818Y-146591591D01*
X94570788Y-146588906D01*
X94477387Y-146569053D01*
X94390444Y-146550572D01*
X94390439Y-146550572D01*
X94383987Y-146549200D01*
X94193013Y-146549200D01*
X94186561Y-146550572D01*
X94186556Y-146550572D01*
X94099613Y-146569053D01*
X94006212Y-146588906D01*
X94000182Y-146591591D01*
X94000181Y-146591591D01*
X93837778Y-146663897D01*
X93837776Y-146663898D01*
X93831748Y-146666582D01*
X93826407Y-146670462D01*
X93826406Y-146670463D01*
X93776343Y-146706836D01*
X93677247Y-146778834D01*
X93672826Y-146783744D01*
X93672557Y-146784043D01*
X93672358Y-146784166D01*
X93667923Y-146788159D01*
X93667192Y-146787348D01*
X93612109Y-146821280D01*
X93541125Y-146819926D01*
X93489829Y-146788824D01*
X84483005Y-137782000D01*
X95829696Y-137782000D01*
X95830386Y-137788565D01*
X95834510Y-137827798D01*
X95849658Y-137971928D01*
X95908673Y-138153556D01*
X96004160Y-138318944D01*
X96008578Y-138323851D01*
X96008579Y-138323852D01*
X96091099Y-138415500D01*
X96131947Y-138460866D01*
X96286448Y-138573118D01*
X96292476Y-138575802D01*
X96292478Y-138575803D01*
X96308870Y-138583101D01*
X96460912Y-138650794D01*
X96540340Y-138667677D01*
X96641256Y-138689128D01*
X96641261Y-138689128D01*
X96647713Y-138690500D01*
X96838687Y-138690500D01*
X96845139Y-138689128D01*
X96845144Y-138689128D01*
X96946060Y-138667677D01*
X97025488Y-138650794D01*
X97177530Y-138583101D01*
X97193922Y-138575803D01*
X97193924Y-138575802D01*
X97199952Y-138573118D01*
X97354453Y-138460866D01*
X97358868Y-138455963D01*
X97363780Y-138451540D01*
X97364905Y-138452789D01*
X97418214Y-138419949D01*
X97451400Y-138415500D01*
X131205300Y-138415500D01*
X131273421Y-138435502D01*
X131292647Y-138451843D01*
X131292920Y-138451540D01*
X131297832Y-138455963D01*
X131302247Y-138460866D01*
X131456748Y-138573118D01*
X131462776Y-138575802D01*
X131462778Y-138575803D01*
X131479170Y-138583101D01*
X131631212Y-138650794D01*
X131710640Y-138667677D01*
X131811556Y-138689128D01*
X131811561Y-138689128D01*
X131818013Y-138690500D01*
X132008987Y-138690500D01*
X132015439Y-138689128D01*
X132015444Y-138689128D01*
X132116360Y-138667677D01*
X132195788Y-138650794D01*
X132347830Y-138583101D01*
X132364222Y-138575803D01*
X132364224Y-138575802D01*
X132370252Y-138573118D01*
X132524753Y-138460866D01*
X132565601Y-138415500D01*
X132648121Y-138323852D01*
X132648122Y-138323851D01*
X132652540Y-138318944D01*
X132748027Y-138153556D01*
X132807042Y-137971928D01*
X132822191Y-137827798D01*
X132826314Y-137788565D01*
X132827004Y-137782000D01*
X132822384Y-137738041D01*
X132807732Y-137598635D01*
X132807732Y-137598633D01*
X132807042Y-137592072D01*
X132748027Y-137410444D01*
X132652540Y-137245056D01*
X132567330Y-137150420D01*
X132529175Y-137108045D01*
X132529174Y-137108044D01*
X132524753Y-137103134D01*
X132370252Y-136990882D01*
X132364224Y-136988198D01*
X132364222Y-136988197D01*
X132201819Y-136915891D01*
X132201818Y-136915891D01*
X132195788Y-136913206D01*
X132102388Y-136893353D01*
X132015444Y-136874872D01*
X132015439Y-136874872D01*
X132008987Y-136873500D01*
X131818013Y-136873500D01*
X131811561Y-136874872D01*
X131811556Y-136874872D01*
X131724612Y-136893353D01*
X131631212Y-136913206D01*
X131625182Y-136915891D01*
X131625181Y-136915891D01*
X131462778Y-136988197D01*
X131462776Y-136988198D01*
X131456748Y-136990882D01*
X131302247Y-137103134D01*
X131297832Y-137108037D01*
X131292920Y-137112460D01*
X131291795Y-137111211D01*
X131238486Y-137144051D01*
X131205300Y-137148500D01*
X97451400Y-137148500D01*
X97383279Y-137128498D01*
X97364053Y-137112157D01*
X97363780Y-137112460D01*
X97358868Y-137108037D01*
X97354453Y-137103134D01*
X97199952Y-136990882D01*
X97193924Y-136988198D01*
X97193922Y-136988197D01*
X97031519Y-136915891D01*
X97031518Y-136915891D01*
X97025488Y-136913206D01*
X96932088Y-136893353D01*
X96845144Y-136874872D01*
X96845139Y-136874872D01*
X96838687Y-136873500D01*
X96647713Y-136873500D01*
X96641261Y-136874872D01*
X96641256Y-136874872D01*
X96554312Y-136893353D01*
X96460912Y-136913206D01*
X96454882Y-136915891D01*
X96454881Y-136915891D01*
X96292478Y-136988197D01*
X96292476Y-136988198D01*
X96286448Y-136990882D01*
X96131947Y-137103134D01*
X96127526Y-137108044D01*
X96127525Y-137108045D01*
X96089371Y-137150420D01*
X96004160Y-137245056D01*
X95908673Y-137410444D01*
X95849658Y-137592072D01*
X95848968Y-137598633D01*
X95848968Y-137598635D01*
X95834316Y-137738041D01*
X95829696Y-137782000D01*
X84483005Y-137782000D01*
X81292805Y-134591800D01*
X81258779Y-134529488D01*
X81255900Y-134502705D01*
X81255900Y-133637541D01*
X81275902Y-133569420D01*
X81316535Y-133529822D01*
X81430026Y-133460955D01*
X81430029Y-133460953D01*
X81434587Y-133458187D01*
X81505472Y-133396676D01*
X81606604Y-133308918D01*
X81606606Y-133308916D01*
X81610637Y-133305418D01*
X81665688Y-133238279D01*
X81755046Y-133129300D01*
X81755050Y-133129294D01*
X81758430Y-133125172D01*
X81873740Y-132922600D01*
X81892778Y-132870153D01*
X81951451Y-132708512D01*
X81951452Y-132708508D01*
X81953271Y-132703497D01*
X81966634Y-132629599D01*
X81994010Y-132478209D01*
X81994011Y-132478202D01*
X81994748Y-132474125D01*
X81995900Y-132449698D01*
X81995900Y-132134568D01*
X112737382Y-132134568D01*
X112766208Y-132383699D01*
X112767587Y-132388573D01*
X112767588Y-132388577D01*
X112833116Y-132620148D01*
X112834494Y-132625017D01*
X112836628Y-132629592D01*
X112836630Y-132629599D01*
X112917150Y-132802273D01*
X112940484Y-132852313D01*
X112943326Y-132856494D01*
X112943326Y-132856495D01*
X113078605Y-133055552D01*
X113078608Y-133055556D01*
X113081451Y-133059739D01*
X113084928Y-133063416D01*
X113084929Y-133063417D01*
X113185238Y-133169491D01*
X113253767Y-133241959D01*
X113257793Y-133245037D01*
X113257794Y-133245038D01*
X113448981Y-133391212D01*
X113448985Y-133391215D01*
X113453001Y-133394285D01*
X113674026Y-133512797D01*
X113678807Y-133514443D01*
X113678811Y-133514445D01*
X113838470Y-133569420D01*
X113911156Y-133594448D01*
X114014689Y-133612331D01*
X114154380Y-133636460D01*
X114154386Y-133636461D01*
X114158290Y-133637135D01*
X114162251Y-133637315D01*
X114162252Y-133637315D01*
X114186931Y-133638436D01*
X114186950Y-133638436D01*
X114188350Y-133638500D01*
X114363015Y-133638500D01*
X114365523Y-133638298D01*
X114365528Y-133638298D01*
X114544944Y-133623863D01*
X114544949Y-133623862D01*
X114549985Y-133623457D01*
X114554893Y-133622252D01*
X114554896Y-133622251D01*
X114788625Y-133564841D01*
X114793539Y-133563634D01*
X114798191Y-133561659D01*
X114798195Y-133561658D01*
X115019741Y-133467617D01*
X115019742Y-133467617D01*
X115024396Y-133465641D01*
X115236615Y-133332000D01*
X115424738Y-133166147D01*
X115583924Y-132972351D01*
X115710078Y-132755596D01*
X115799955Y-132521461D01*
X115814284Y-132452875D01*
X115850206Y-132280921D01*
X115851241Y-132275967D01*
X115862618Y-132025432D01*
X115852447Y-131937524D01*
X115845684Y-131879079D01*
X115833792Y-131776301D01*
X115794810Y-131638539D01*
X115766884Y-131539852D01*
X115766883Y-131539850D01*
X115765506Y-131534983D01*
X115763372Y-131530408D01*
X115763370Y-131530401D01*
X115661653Y-131312269D01*
X115661651Y-131312265D01*
X115659516Y-131307687D01*
X115656674Y-131303505D01*
X115521395Y-131104448D01*
X115521392Y-131104444D01*
X115518549Y-131100261D01*
X115417925Y-130993853D01*
X115349713Y-130921721D01*
X115346233Y-130918041D01*
X115342206Y-130914962D01*
X115151019Y-130768788D01*
X115151015Y-130768785D01*
X115146999Y-130765715D01*
X115069339Y-130724074D01*
X114930435Y-130649595D01*
X114925974Y-130647203D01*
X114921193Y-130645557D01*
X114921189Y-130645555D01*
X114693633Y-130567201D01*
X114688844Y-130565552D01*
X114585311Y-130547669D01*
X114445620Y-130523540D01*
X114445614Y-130523539D01*
X114441710Y-130522865D01*
X114437749Y-130522685D01*
X114437748Y-130522685D01*
X114413069Y-130521564D01*
X114413050Y-130521564D01*
X114411650Y-130521500D01*
X114236985Y-130521500D01*
X114234477Y-130521702D01*
X114234472Y-130521702D01*
X114055056Y-130536137D01*
X114055051Y-130536138D01*
X114050015Y-130536543D01*
X114045107Y-130537748D01*
X114045104Y-130537749D01*
X113813326Y-130594680D01*
X113806461Y-130596366D01*
X113801809Y-130598341D01*
X113801805Y-130598342D01*
X113597775Y-130684948D01*
X113575604Y-130694359D01*
X113525238Y-130726076D01*
X113395569Y-130807733D01*
X113363385Y-130828000D01*
X113175262Y-130993853D01*
X113172052Y-130997761D01*
X113021827Y-131180648D01*
X113016076Y-131187649D01*
X112889922Y-131404404D01*
X112800045Y-131638539D01*
X112799012Y-131643485D01*
X112799010Y-131643491D01*
X112772284Y-131771423D01*
X112748759Y-131884033D01*
X112748530Y-131889082D01*
X112748529Y-131889088D01*
X112746330Y-131937524D01*
X112737382Y-132134568D01*
X81995900Y-132134568D01*
X81995900Y-131985873D01*
X81981159Y-131812143D01*
X81979818Y-131806975D01*
X81923941Y-131591692D01*
X81923939Y-131591688D01*
X81922600Y-131586527D01*
X81892022Y-131518647D01*
X81829055Y-131378864D01*
X81829054Y-131378861D01*
X81826865Y-131374003D01*
X81696691Y-131180648D01*
X81652886Y-131134728D01*
X81577379Y-131055577D01*
X81535799Y-131011990D01*
X81348791Y-130872852D01*
X81344040Y-130870436D01*
X81344036Y-130870434D01*
X81220711Y-130807733D01*
X81141012Y-130767212D01*
X80918405Y-130698090D01*
X80890255Y-130694359D01*
X80692619Y-130668164D01*
X80692615Y-130668164D01*
X80687335Y-130667464D01*
X80682006Y-130667664D01*
X80682005Y-130667664D01*
X80587276Y-130671221D01*
X80454407Y-130676209D01*
X80226283Y-130724074D01*
X80221324Y-130726032D01*
X80221322Y-130726033D01*
X80199594Y-130734614D01*
X80009486Y-130809692D01*
X79973803Y-130831345D01*
X79814774Y-130927845D01*
X79814771Y-130927847D01*
X79810213Y-130930613D01*
X79806185Y-130934108D01*
X79806184Y-130934109D01*
X79693824Y-131031611D01*
X79634163Y-131083382D01*
X79630776Y-131087513D01*
X79489754Y-131259500D01*
X79489750Y-131259506D01*
X79486370Y-131263628D01*
X79483730Y-131268266D01*
X79461455Y-131307398D01*
X79410373Y-131356704D01*
X79340743Y-131370566D01*
X79274672Y-131344583D01*
X79247433Y-131315433D01*
X79242219Y-131307687D01*
X79164348Y-131192021D01*
X79159671Y-131185074D01*
X79159669Y-131185072D01*
X79156691Y-131180648D01*
X79112886Y-131134728D01*
X79037379Y-131055577D01*
X78995799Y-131011990D01*
X78808791Y-130872852D01*
X78804040Y-130870436D01*
X78804036Y-130870434D01*
X78680711Y-130807733D01*
X78601012Y-130767212D01*
X78378405Y-130698090D01*
X78350255Y-130694359D01*
X78152619Y-130668164D01*
X78152615Y-130668164D01*
X78147335Y-130667464D01*
X78142006Y-130667664D01*
X78142005Y-130667664D01*
X78047276Y-130671221D01*
X77914407Y-130676209D01*
X77686283Y-130724074D01*
X77681324Y-130726032D01*
X77681322Y-130726033D01*
X77659594Y-130734614D01*
X77469486Y-130809692D01*
X77433803Y-130831345D01*
X77274774Y-130927845D01*
X77274771Y-130927847D01*
X77270213Y-130930613D01*
X77266181Y-130934112D01*
X77266178Y-130934114D01*
X77095125Y-131082546D01*
X77030566Y-131112086D01*
X76960285Y-131102032D01*
X76906596Y-131055577D01*
X76894563Y-131031611D01*
X76860724Y-130941346D01*
X76852186Y-130925751D01*
X76775685Y-130823676D01*
X76763124Y-130811115D01*
X76661049Y-130734614D01*
X76645454Y-130726076D01*
X76525006Y-130680922D01*
X76509751Y-130677295D01*
X76458886Y-130671769D01*
X76452072Y-130671400D01*
X75814515Y-130671400D01*
X75799276Y-130675875D01*
X75798071Y-130677265D01*
X75796400Y-130684948D01*
X75796400Y-133699284D01*
X75288400Y-133699284D01*
X75288400Y-132466515D01*
X75283925Y-132451276D01*
X75282535Y-132450071D01*
X75274852Y-132448400D01*
X74187516Y-132448400D01*
X74172277Y-132452875D01*
X74171072Y-132454265D01*
X74169401Y-132461948D01*
X74169401Y-133254069D01*
X69605010Y-133254069D01*
X69704738Y-133166147D01*
X69863924Y-132972351D01*
X69990078Y-132755596D01*
X70079955Y-132521461D01*
X70094284Y-132452875D01*
X70130206Y-132280921D01*
X70131241Y-132275967D01*
X70142618Y-132025432D01*
X70132447Y-131937524D01*
X70130684Y-131922285D01*
X74169400Y-131922285D01*
X74173875Y-131937524D01*
X74175265Y-131938729D01*
X74182948Y-131940400D01*
X75270285Y-131940400D01*
X75285524Y-131935925D01*
X75286729Y-131934535D01*
X75288400Y-131926852D01*
X75288400Y-130689516D01*
X75283925Y-130674277D01*
X75282535Y-130673072D01*
X75274852Y-130671401D01*
X74632731Y-130671401D01*
X74625910Y-130671771D01*
X74575048Y-130677295D01*
X74559796Y-130680921D01*
X74439346Y-130726076D01*
X74423751Y-130734614D01*
X74321676Y-130811115D01*
X74309115Y-130823676D01*
X74232614Y-130925751D01*
X74224076Y-130941346D01*
X74178922Y-131061794D01*
X74175295Y-131077049D01*
X74169769Y-131127914D01*
X74169400Y-131134728D01*
X74169400Y-131922285D01*
X70130684Y-131922285D01*
X70125684Y-131879079D01*
X70113792Y-131776301D01*
X70074810Y-131638539D01*
X70046884Y-131539852D01*
X70046883Y-131539850D01*
X70045506Y-131534983D01*
X70043372Y-131530408D01*
X70043370Y-131530401D01*
X69941653Y-131312269D01*
X69941651Y-131312265D01*
X69939516Y-131307687D01*
X69936674Y-131303505D01*
X69801395Y-131104448D01*
X69801392Y-131104444D01*
X69798549Y-131100261D01*
X69697925Y-130993853D01*
X69629713Y-130921721D01*
X69626233Y-130918041D01*
X69622206Y-130914962D01*
X69431019Y-130768788D01*
X69431015Y-130768785D01*
X69426999Y-130765715D01*
X69349339Y-130724074D01*
X69210435Y-130649595D01*
X69205974Y-130647203D01*
X69201193Y-130645557D01*
X69201189Y-130645555D01*
X68973633Y-130567201D01*
X68968844Y-130565552D01*
X68865311Y-130547669D01*
X68725620Y-130523540D01*
X68725614Y-130523539D01*
X68721710Y-130522865D01*
X68717749Y-130522685D01*
X68717748Y-130522685D01*
X68693069Y-130521564D01*
X68693050Y-130521564D01*
X68691650Y-130521500D01*
X68516985Y-130521500D01*
X68514477Y-130521702D01*
X68514472Y-130521702D01*
X68335056Y-130536137D01*
X68335051Y-130536138D01*
X68330015Y-130536543D01*
X68325107Y-130537748D01*
X68325104Y-130537749D01*
X68093326Y-130594680D01*
X68086461Y-130596366D01*
X68081809Y-130598341D01*
X68081805Y-130598342D01*
X67877775Y-130684948D01*
X67855604Y-130694359D01*
X67805238Y-130726076D01*
X67675569Y-130807733D01*
X67643385Y-130828000D01*
X67455262Y-130993853D01*
X67452052Y-130997761D01*
X67301827Y-131180648D01*
X67296076Y-131187649D01*
X67169922Y-131404404D01*
X67080045Y-131638539D01*
X67079012Y-131643485D01*
X67079010Y-131643491D01*
X67052284Y-131771423D01*
X67028759Y-131884033D01*
X67028530Y-131889082D01*
X67028529Y-131889088D01*
X67026330Y-131937524D01*
X67017382Y-132134568D01*
X66359277Y-132134568D01*
X66359277Y-129665943D01*
X66379279Y-129597822D01*
X66432935Y-129551329D01*
X66485261Y-129539943D01*
X95647130Y-129536174D01*
X137461559Y-129530770D01*
X137529679Y-129550762D01*
X137576179Y-129604412D01*
X137586292Y-129674685D01*
X137564787Y-129729037D01*
X137557453Y-129739511D01*
X137557450Y-129739516D01*
X137554295Y-129744022D01*
X137551972Y-129749004D01*
X137551969Y-129749009D01*
X137462666Y-129940520D01*
X137460343Y-129945502D01*
X137402805Y-130160235D01*
X137383430Y-130381698D01*
X137402805Y-130603161D01*
X137404229Y-130608474D01*
X137404230Y-130608481D01*
X137413272Y-130642227D01*
X137411583Y-130713203D01*
X137380661Y-130763934D01*
X134275000Y-133869595D01*
X134212688Y-133903621D01*
X134185905Y-133906500D01*
X133803200Y-133906500D01*
X133735079Y-133886498D01*
X133715853Y-133870157D01*
X133715580Y-133870460D01*
X133710668Y-133866037D01*
X133706253Y-133861134D01*
X133551752Y-133748882D01*
X133545724Y-133746198D01*
X133545722Y-133746197D01*
X133383319Y-133673891D01*
X133383318Y-133673891D01*
X133377288Y-133671206D01*
X133283887Y-133651353D01*
X133196944Y-133632872D01*
X133196939Y-133632872D01*
X133190487Y-133631500D01*
X132999513Y-133631500D01*
X132993061Y-133632872D01*
X132993056Y-133632872D01*
X132906113Y-133651353D01*
X132812712Y-133671206D01*
X132806682Y-133673891D01*
X132806681Y-133673891D01*
X132644278Y-133746197D01*
X132644276Y-133746198D01*
X132638248Y-133748882D01*
X132483747Y-133861134D01*
X132479326Y-133866044D01*
X132479325Y-133866045D01*
X132445492Y-133903621D01*
X132355960Y-134003056D01*
X132260473Y-134168444D01*
X132201458Y-134350072D01*
X132181496Y-134540000D01*
X132182186Y-134546565D01*
X132183062Y-134554895D01*
X132201458Y-134729928D01*
X132260473Y-134911556D01*
X132355960Y-135076944D01*
X132360378Y-135081851D01*
X132360379Y-135081852D01*
X132442452Y-135173003D01*
X132483747Y-135218866D01*
X132638248Y-135331118D01*
X132644276Y-135333802D01*
X132644278Y-135333803D01*
X132806681Y-135406109D01*
X132812712Y-135408794D01*
X132906113Y-135428647D01*
X132993056Y-135447128D01*
X132993061Y-135447128D01*
X132999513Y-135448500D01*
X133190487Y-135448500D01*
X133196939Y-135447128D01*
X133196944Y-135447128D01*
X133283887Y-135428647D01*
X133377288Y-135408794D01*
X133383319Y-135406109D01*
X133545722Y-135333803D01*
X133545724Y-135333802D01*
X133551752Y-135331118D01*
X133613333Y-135286377D01*
X133700586Y-135222983D01*
X133706253Y-135218866D01*
X133710668Y-135213963D01*
X133715580Y-135209540D01*
X133716705Y-135210789D01*
X133770014Y-135177949D01*
X133803200Y-135173500D01*
X134421733Y-135173500D01*
X134432916Y-135174027D01*
X134440409Y-135175702D01*
X134448335Y-135175453D01*
X134448336Y-135175453D01*
X134508486Y-135173562D01*
X134512445Y-135173500D01*
X134540356Y-135173500D01*
X134544291Y-135173003D01*
X134544356Y-135172995D01*
X134556193Y-135172062D01*
X134588451Y-135171048D01*
X134592470Y-135170922D01*
X134600389Y-135170673D01*
X134619843Y-135165021D01*
X134639200Y-135161013D01*
X134651430Y-135159468D01*
X134651431Y-135159468D01*
X134659297Y-135158474D01*
X134666668Y-135155555D01*
X134666670Y-135155555D01*
X134700412Y-135142196D01*
X134711642Y-135138351D01*
X134746483Y-135128229D01*
X134746484Y-135128229D01*
X134754093Y-135126018D01*
X134760912Y-135121985D01*
X134760917Y-135121983D01*
X134771528Y-135115707D01*
X134789276Y-135107012D01*
X134808117Y-135099552D01*
X134843887Y-135073564D01*
X134853807Y-135067048D01*
X134885035Y-135048580D01*
X134885038Y-135048578D01*
X134891862Y-135044542D01*
X134906183Y-135030221D01*
X134921217Y-135017380D01*
X134931194Y-135010131D01*
X134937607Y-135005472D01*
X134965798Y-134971395D01*
X134973788Y-134962616D01*
X138276576Y-131659828D01*
X138338888Y-131625802D01*
X138398282Y-131627216D01*
X138420817Y-131633254D01*
X138437320Y-131637676D01*
X138658783Y-131657051D01*
X138880246Y-131637676D01*
X139023834Y-131599201D01*
X139089669Y-131581561D01*
X139089671Y-131581560D01*
X139094979Y-131580138D01*
X139181373Y-131539852D01*
X139291473Y-131488512D01*
X139291478Y-131488509D01*
X139296460Y-131486186D01*
X139398288Y-131414885D01*
X139474053Y-131361834D01*
X139474056Y-131361832D01*
X139478564Y-131358675D01*
X139635760Y-131201479D01*
X139647247Y-131185075D01*
X139760114Y-131023883D01*
X139760115Y-131023881D01*
X139763271Y-131019374D01*
X139765594Y-131014392D01*
X139765597Y-131014387D01*
X139854900Y-130822876D01*
X139854901Y-130822875D01*
X139857223Y-130817894D01*
X139859040Y-130811115D01*
X139894905Y-130677265D01*
X139914761Y-130603161D01*
X139934136Y-130381698D01*
X139914761Y-130160235D01*
X139857223Y-129945502D01*
X139854900Y-129940520D01*
X139765597Y-129749009D01*
X139765594Y-129749004D01*
X139763271Y-129744022D01*
X139752564Y-129728731D01*
X139729876Y-129661457D01*
X139747161Y-129592597D01*
X139798930Y-129544013D01*
X139855759Y-129530460D01*
X140248104Y-129530410D01*
X140316225Y-129550402D01*
G37*
%TD.AperFunction*%
M02*
