%TF.GenerationSoftware,KiCad,Pcbnew,(6.0.7)*%
%TF.CreationDate,2022-10-30T14:33:08-06:00*%
%TF.ProjectId,attiny_rfid_light,61747469-6e79-45f7-9266-69645f6c6967,rev?*%
%TF.SameCoordinates,Original*%
%TF.FileFunction,Paste,Top*%
%TF.FilePolarity,Positive*%
%FSLAX46Y46*%
G04 Gerber Fmt 4.6, Leading zero omitted, Abs format (unit mm)*
G04 Created by KiCad (PCBNEW (6.0.7)) date 2022-10-30 14:33:08*
%MOMM*%
%LPD*%
G01*
G04 APERTURE LIST*
G04 Aperture macros list*
%AMRoundRect*
0 Rectangle with rounded corners*
0 $1 Rounding radius*
0 $2 $3 $4 $5 $6 $7 $8 $9 X,Y pos of 4 corners*
0 Add a 4 corners polygon primitive as box body*
4,1,4,$2,$3,$4,$5,$6,$7,$8,$9,$2,$3,0*
0 Add four circle primitives for the rounded corners*
1,1,$1+$1,$2,$3*
1,1,$1+$1,$4,$5*
1,1,$1+$1,$6,$7*
1,1,$1+$1,$8,$9*
0 Add four rect primitives between the rounded corners*
20,1,$1+$1,$2,$3,$4,$5,0*
20,1,$1+$1,$4,$5,$6,$7,0*
20,1,$1+$1,$6,$7,$8,$9,0*
20,1,$1+$1,$8,$9,$2,$3,0*%
G04 Aperture macros list end*
%ADD10R,1.350000X0.400000*%
%ADD11R,1.900000X1.500000*%
%ADD12R,1.500000X2.000000*%
%ADD13R,3.800000X2.000000*%
%ADD14RoundRect,0.250000X-0.337500X-0.475000X0.337500X-0.475000X0.337500X0.475000X-0.337500X0.475000X0*%
%ADD15C,1.524000*%
%ADD16RoundRect,0.250000X-0.350000X-0.450000X0.350000X-0.450000X0.350000X0.450000X-0.350000X0.450000X0*%
%ADD17RoundRect,0.250000X0.350000X0.450000X-0.350000X0.450000X-0.350000X-0.450000X0.350000X-0.450000X0*%
%ADD18RoundRect,0.250000X0.475000X-0.337500X0.475000X0.337500X-0.475000X0.337500X-0.475000X-0.337500X0*%
%ADD19R,0.650000X1.550000*%
%ADD20RoundRect,0.250000X0.337500X0.475000X-0.337500X0.475000X-0.337500X-0.475000X0.337500X-0.475000X0*%
%ADD21R,2.000000X0.900000*%
%ADD22R,0.900000X2.000000*%
%ADD23R,5.000000X5.000000*%
G04 APERTURE END LIST*
D10*
X70042500Y-140940000D03*
X70042500Y-141590000D03*
X70042500Y-142240000D03*
X70042500Y-142890000D03*
X70042500Y-143540000D03*
D11*
X67342500Y-143240000D03*
X67342500Y-141240000D03*
D12*
X80382400Y-144284400D03*
X78082400Y-144284400D03*
D13*
X78082400Y-150584400D03*
D12*
X75782400Y-144284400D03*
D14*
X114791300Y-138482300D03*
X116866300Y-138482300D03*
X135593300Y-145825100D03*
X137668300Y-145825100D03*
D15*
X138663196Y-130386600D03*
D14*
X124334300Y-146336500D03*
X126409300Y-146336500D03*
X125313300Y-133036400D03*
X127388300Y-133036400D03*
X86457600Y-152494800D03*
X88532600Y-152494800D03*
X135593300Y-142240000D03*
X137668300Y-142240000D03*
D16*
X86495100Y-139700000D03*
X88495100Y-139700000D03*
D17*
X116847100Y-143316300D03*
X114847100Y-143316300D03*
D14*
X120415600Y-133060600D03*
X122490600Y-133060600D03*
D16*
X115009700Y-147538400D03*
X117009700Y-147538400D03*
D14*
X125316000Y-130527600D03*
X127391000Y-130527600D03*
D18*
X120966100Y-143619500D03*
X120966100Y-141544500D03*
D14*
X130881600Y-130649900D03*
X132956600Y-130649900D03*
D19*
X133183500Y-136397000D03*
X131913500Y-136397000D03*
X130643500Y-136397000D03*
X129373500Y-136397000D03*
X128103500Y-136397000D03*
X126833500Y-136397000D03*
X125563500Y-136397000D03*
X124293500Y-136397000D03*
X124293500Y-141847000D03*
X125563500Y-141847000D03*
X126833500Y-141847000D03*
X128103500Y-141847000D03*
X129373500Y-141847000D03*
X130643500Y-141847000D03*
X131913500Y-141847000D03*
X133183500Y-141847000D03*
D20*
X137647300Y-149213800D03*
X135572300Y-149213800D03*
D14*
X130088900Y-146336500D03*
X132163900Y-146336500D03*
D16*
X86360000Y-137160000D03*
X88360000Y-137160000D03*
D14*
X130942800Y-133036400D03*
X133017800Y-133036400D03*
D21*
X109688200Y-153519800D03*
X109688200Y-152249800D03*
X109688200Y-150979800D03*
X109688200Y-149709800D03*
X109688200Y-148439800D03*
X109688200Y-147169800D03*
X109688200Y-145899800D03*
X109688200Y-144629800D03*
X109688200Y-143359800D03*
X109688200Y-142089800D03*
X109688200Y-140819800D03*
X109688200Y-139549800D03*
X109688200Y-138279800D03*
X109688200Y-137009800D03*
D22*
X106903200Y-136009800D03*
X105633200Y-136009800D03*
X104363200Y-136009800D03*
X103093200Y-136009800D03*
X101823200Y-136009800D03*
X100553200Y-136009800D03*
X99283200Y-136009800D03*
X98013200Y-136009800D03*
X96743200Y-136009800D03*
X95473200Y-136009800D03*
D21*
X92688200Y-137009800D03*
X92688200Y-138279800D03*
X92688200Y-139549800D03*
X92688200Y-140819800D03*
X92688200Y-142089800D03*
X92688200Y-143359800D03*
X92688200Y-144629800D03*
X92688200Y-145899800D03*
X92688200Y-147169800D03*
X92688200Y-148439800D03*
X92688200Y-149709800D03*
X92688200Y-150979800D03*
X92688200Y-152249800D03*
X92688200Y-153519800D03*
D23*
X102188200Y-146019800D03*
D16*
X83820000Y-132080000D03*
X85820000Y-132080000D03*
M02*
