M48
; DRILL file {KiCad (6.0.7)} date Sun Oct 30 14:33:12 2022
; FORMAT={-:-/ absolute / metric / decimal}
; #@! TF.CreationDate,2022-10-30T14:33:12-06:00
; #@! TF.GenerationSoftware,Kicad,Pcbnew,(6.0.7)
; #@! TF.FileFunction,Plated,1,2,PTH
FMAT,2
METRIC
; #@! TA.AperFunction,Plated,PTH,ViaDrill
T1C0.400
; #@! TA.AperFunction,Plated,PTH,ComponentDrill
T2C0.600
; #@! TA.AperFunction,Plated,PTH,ComponentDrill
T3C0.762
; #@! TA.AperFunction,Plated,PTH,ComponentDrill
T4C0.800
; #@! TA.AperFunction,Plated,PTH,ComponentDrill
T5C0.850
; #@! TA.AperFunction,Plated,PTH,ComponentDrill
T6C1.000
; #@! TA.AperFunction,Plated,PTH,ComponentDrill
T7C1.020
%
G90
G05
T1
X71.12Y-137.16
X71.12Y-149.86
X72.174Y-131.373
X73.66Y-137.16
X73.66Y-149.86
X78.525Y-153.672
X78.74Y-137.16
X86.36Y-144.78
X86.36Y-149.86
X88.9Y-134.62
X88.9Y-149.86
X91.44Y-134.62
X94.288Y-147.458
X94.294Y-139.738
X95.461Y-140.499
X96.392Y-148.534
X96.743Y-137.782
X97.647Y-148.711
X97.786Y-141.242
X99.06Y-152.4
X106.68Y-152.4
X109.22Y-132.08
X111.336Y-152.25
X112.93Y-147.991
X113.265Y-135.496
X115.01Y-146.206
X120.702Y-135.895
X129.374Y-139.738
X130.123Y-143.248
X131.913Y-137.782
X132.432Y-148.923
X133.095Y-134.54
X135.577Y-131.303
X138.736Y-133.376
X139.324Y-147.358
X139.433Y-140.759
T3
X103.553Y-97.133
T4
X136.881Y-137.16
X138.881Y-137.16
T5
X70.042Y-139.74
X70.042Y-144.74
T6
X115.659Y-152.314
X118.199Y-152.314
X120.739Y-152.314
X123.279Y-152.314
X125.819Y-152.314
X128.359Y-152.314
X130.899Y-152.314
X133.439Y-152.314
T7
X75.542Y-132.194
X78.082Y-132.194
X80.622Y-132.194
T2
X66.992Y-138.74G85X67.692Y-138.74
G05
X67.692Y-145.74G85X66.992Y-145.74
G05
T0
M30
