  0
SECTION
  2
HEADER
  9
$ANGBASE
  50
0.0
  9
$ANGDIR
  70
1
  9
$MEASUREMENT
  70
1
  0
ENDSEC
  0
SECTION
  2
TABLES
  0
TABLE
  2
LTYPE
  70
4
  0
LTYPE
  5
40F
  2
CONTINUOUS
  70
0
  3
Solid line
  72
65
  73
0
  40
0.0
  0
LTYPE
  5
410
  2
DASHDOT
 70
0
  3
Dash Dot ____ _ ____ _
 72
65
 73
4
 40
2.0
 49
1.25
 49
-0.25
 49
0.25
 49
-0.25
  0
LTYPE
  5
411
  2
DASHED
 70
0
  3
Dashed __ __ __ __ __
 72
65
 73
2
 40
0.75
 49
0.5
 49
-0.25
  0
LTYPE
  5
43B
  2
DOTTED
 70
0
  3
Dotted .  .  .  .
 72
65
 73
2
 40
0.2
 49
0.0
 49
-0.2
  0
ENDTAB
  0
TABLE
  2
STYLE
  70
4
  0
STYLE
  2
KICAD
  70
0
  40
0
  41
1
  42
1
  50
0
  71
0
  3
isocp.shx
  0
STYLE
  2
KICADB
  70
0
  40
0
  41
1
  42
1
  50
0
  71
0
  3
isocp.shx
  0
STYLE
  2
KICADI
  70
0
  40
0
  41
1
  42
1
  50
15
  71
0
  3
isocp.shx
  0
STYLE
  2
KICADBI
  70
0
  40
0
  41
1
  42
1
  50
15
  71
0
  3
isocp.shx
  0
ENDTAB
  0
TABLE
  2
LAYER
  70
1
  0
LAYER
  2
BLACK
  70
0
  62
7
  6
CONTINUOUS
  0
ENDTAB
  0
ENDSEC
  0
SECTION
  2
ENTITIES
0
LINE
8
BLACK
6
CONTINUOUS
10
98.7298
20
-88.6315
11
108.353
21
-88.6315
0
LINE
8
BLACK
6
CONTINUOUS
10
108.353
20
-95.9838
11
98.7298
21
-95.9838
0
LINE
8
BLACK
6
CONTINUOUS
10
98.7298
20
-95.9838
11
98.7298
21
-88.6315
0
LINE
8
BLACK
6
CONTINUOUS
10
65.8508
20
-55.9563
11
140.883
21
-55.9563
0
LINE
8
BLACK
6
CONTINUOUS
10
140.883
20
-55.9563
11
140.883
21
-155.016
0
LINE
8
BLACK
6
CONTINUOUS
10
140.883
20
-155.016
11
65.8508
21
-155.016
0
LINE
8
BLACK
6
CONTINUOUS
10
65.8508
20
-155.016
11
65.8508
21
-55.9563
0
LINE
8
BLACK
6
CONTINUOUS
10
108.353
20
-88.6315
11
108.353
21
-95.9838
0
LINE
8
BLACK
6
CONTINUOUS
10
66.7557
20
-136.829
11
67.1557
21
-137.229
0
LINE
8
BLACK
6
CONTINUOUS
10
67.1557
20
-136.829
11
66.7557
21
-137.229
0
LINE
8
BLACK
6
CONTINUOUS
10
68.1179
20
-147.735
11
68.5179
21
-148.135
0
LINE
8
BLACK
6
CONTINUOUS
10
68.5179
20
-147.735
11
68.1179
21
-148.135
0
LINE
8
BLACK
6
CONTINUOUS
10
71.1345
20
-141.04
11
71.5345
21
-141.44
0
LINE
8
BLACK
6
CONTINUOUS
10
71.5345
20
-141.04
11
71.1345
21
-141.44
0
LINE
8
BLACK
6
CONTINUOUS
10
71.991
20
-153.284
11
72.391
21
-153.684
0
LINE
8
BLACK
6
CONTINUOUS
10
72.391
20
-153.284
11
71.991
21
-153.684
0
LINE
8
BLACK
6
CONTINUOUS
10
76.7261
20
-144.571
11
77.1261
21
-144.971
0
LINE
8
BLACK
6
CONTINUOUS
10
77.1261
20
-144.571
11
76.7261
21
-144.971
0
LINE
8
BLACK
6
CONTINUOUS
10
76.7325
20
-138.556
11
77.1325
21
-138.956
0
LINE
8
BLACK
6
CONTINUOUS
10
77.1325
20
-138.556
11
76.7325
21
-138.956
0
LINE
8
BLACK
6
CONTINUOUS
10
76.7517
20
-136.848
11
77.1517
21
-137.248
0
LINE
8
BLACK
6
CONTINUOUS
10
77.1517
20
-136.848
11
76.7517
21
-137.248
0
LINE
8
BLACK
6
CONTINUOUS
10
76.7561
20
-142.931
11
77.1561
21
-143.331
0
LINE
8
BLACK
6
CONTINUOUS
10
77.1561
20
-142.931
11
76.7561
21
-143.331
0
LINE
8
BLACK
6
CONTINUOUS
10
76.8761
20
-145.969
11
77.2761
21
-146.369
0
LINE
8
BLACK
6
CONTINUOUS
10
77.2761
20
-145.969
11
76.8761
21
-146.369
0
LINE
8
BLACK
6
CONTINUOUS
10
77.1737
20
-148.195
11
77.5737
21
-148.595
0
LINE
8
BLACK
6
CONTINUOUS
10
77.5737
20
-148.195
11
77.1737
21
-148.595
0
LINE
8
BLACK
6
CONTINUOUS
10
77.6105
20
-153.299
11
78.0105
21
-153.699
0
LINE
8
BLACK
6
CONTINUOUS
10
78.0105
20
-153.299
11
77.6105
21
-153.699
0
LINE
8
BLACK
6
CONTINUOUS
10
78.5478
20
-148.302
11
78.9478
21
-148.702
0
LINE
8
BLACK
6
CONTINUOUS
10
78.9478
20
-148.302
11
78.5478
21
-148.702
0
LINE
8
BLACK
6
CONTINUOUS
10
79.175
20
-136.937
11
79.575
21
-137.337
0
LINE
8
BLACK
6
CONTINUOUS
10
79.575
20
-136.937
11
79.175
21
-137.337
0
LINE
8
BLACK
6
CONTINUOUS
10
88.1793
20
-138.6
11
88.5793
21
-139
0
LINE
8
BLACK
6
CONTINUOUS
10
88.5793
20
-138.6
11
88.1793
21
-139
0
LINE
8
BLACK
6
CONTINUOUS
10
89.8483
20
-152.112
11
90.2484
21
-152.512
0
LINE
8
BLACK
6
CONTINUOUS
10
90.2484
20
-152.112
11
89.8483
21
-152.512
0
LINE
8
BLACK
6
CONTINUOUS
10
93.7289
20
-150.233
11
94.1289
21
-150.633
0
LINE
8
BLACK
6
CONTINUOUS
10
94.1289
20
-150.233
11
93.7289
21
-150.633
0
LINE
8
BLACK
6
CONTINUOUS
10
93.7338
20
-140.135
11
94.1338
21
-140.535
0
LINE
8
BLACK
6
CONTINUOUS
10
94.1338
20
-140.135
11
93.7338
21
-140.535
0
LINE
8
BLACK
6
CONTINUOUS
10
94.3681
20
-141.794
11
94.7681
21
-142.194
0
LINE
8
BLACK
6
CONTINUOUS
10
94.7681
20
-141.794
11
94.3681
21
-142.194
0
LINE
8
BLACK
6
CONTINUOUS
10
94.3834
20
-146.676
11
94.7834
21
-147.076
0
LINE
8
BLACK
6
CONTINUOUS
10
94.7834
20
-146.676
11
94.3834
21
-147.076
0
LINE
8
BLACK
6
CONTINUOUS
10
95.6764
20
-135.787
11
96.0764
21
-136.187
0
LINE
8
BLACK
6
CONTINUOUS
10
96.0764
20
-135.787
11
95.6764
21
-136.187
0
LINE
8
BLACK
6
CONTINUOUS
10
97.1605
20
-141.635
11
97.5605
21
-142.035
0
LINE
8
BLACK
6
CONTINUOUS
10
97.5605
20
-141.635
11
97.1605
21
-142.035
0
LINE
8
BLACK
6
CONTINUOUS
10
108.252
20
-133.701
11
108.652
21
-134.101
0
LINE
8
BLACK
6
CONTINUOUS
10
108.652
20
-133.701
11
108.252
21
-134.101
0
LINE
8
BLACK
6
CONTINUOUS
10
117.995
20
-141.635
11
118.395
21
-142.035
0
LINE
8
BLACK
6
CONTINUOUS
10
118.395
20
-141.635
11
117.995
21
-142.035
0
LINE
8
BLACK
6
CONTINUOUS
10
128.439
20
-139.755
11
128.839
21
-140.155
0
LINE
8
BLACK
6
CONTINUOUS
10
128.839
20
-139.755
11
128.439
21
-140.155
0
LINE
8
BLACK
6
CONTINUOUS
10
130.269
20
-134.649
11
130.669
21
-135.049
0
LINE
8
BLACK
6
CONTINUOUS
10
130.669
20
-134.649
11
130.269
21
-135.049
0
LINE
8
BLACK
6
CONTINUOUS
10
130.344
20
-140.252
11
130.743
21
-140.652
0
LINE
8
BLACK
6
CONTINUOUS
10
130.743
20
-140.252
11
130.344
21
-140.652
0
LINE
8
BLACK
6
CONTINUOUS
10
131.713
20
-134.807
11
132.113
21
-135.207
0
LINE
8
BLACK
6
CONTINUOUS
10
132.113
20
-134.807
11
131.713
21
-135.207
0
LINE
8
BLACK
6
CONTINUOUS
10
131.88
20
-144.58
11
132.28
21
-144.98
0
LINE
8
BLACK
6
CONTINUOUS
10
132.28
20
-144.58
11
131.88
21
-144.98
0
LINE
8
BLACK
6
CONTINUOUS
10
131.88
20
-149.66
11
132.28
21
-150.06
0
LINE
8
BLACK
6
CONTINUOUS
10
132.28
20
-149.66
11
131.88
21
-150.06
0
LINE
8
BLACK
6
CONTINUOUS
10
133.759
20
-133.04
11
134.159
21
-133.44
0
LINE
8
BLACK
6
CONTINUOUS
10
134.159
20
-133.04
11
133.759
21
-133.44
0
LINE
8
BLACK
6
CONTINUOUS
10
134.406
20
-134.641
11
134.806
21
-135.041
0
LINE
8
BLACK
6
CONTINUOUS
10
134.806
20
-134.641
11
134.406
21
-135.041
0
LINE
8
BLACK
6
CONTINUOUS
10
134.42
20
-136.96
11
134.82
21
-137.36
0
LINE
8
BLACK
6
CONTINUOUS
10
134.82
20
-136.96
11
134.42
21
-137.36
0
LINE
8
BLACK
6
CONTINUOUS
10
139.5
20
-149.66
11
139.9
21
-150.06
0
LINE
8
BLACK
6
CONTINUOUS
10
139.9
20
-149.66
11
139.5
21
-150.06
0
LINE
8
BLACK
6
CONTINUOUS
10
139.575
20
-141.096
11
139.975
21
-141.496
0
LINE
8
BLACK
6
CONTINUOUS
10
139.975
20
-141.096
11
139.575
21
-141.496
0
CIRCLE
8
BLACK
10
103.553
20
-97.1332
40
0.381
0
LINE
8
BLACK
6
CONTINUOUS
10
96.52
20
-151.9
11
96.52
21
-152.9
0
LINE
8
BLACK
6
CONTINUOUS
10
96.02
20
-152.4
11
97.02
21
-152.4
0
LINE
8
BLACK
6
CONTINUOUS
10
99.06
20
-151.9
11
99.06
21
-152.9
0
LINE
8
BLACK
6
CONTINUOUS
10
98.56
20
-152.4
11
99.56
21
-152.4
0
LINE
8
BLACK
6
CONTINUOUS
10
101.6
20
-151.9
11
101.6
21
-152.9
0
LINE
8
BLACK
6
CONTINUOUS
10
101.1
20
-152.4
11
102.1
21
-152.4
0
LINE
8
BLACK
6
CONTINUOUS
10
104.14
20
-151.9
11
104.14
21
-152.9
0
LINE
8
BLACK
6
CONTINUOUS
10
103.64
20
-152.4
11
104.64
21
-152.4
0
LINE
8
BLACK
6
CONTINUOUS
10
106.68
20
-151.9
11
106.68
21
-152.9
0
LINE
8
BLACK
6
CONTINUOUS
10
106.18
20
-152.4
11
107.18
21
-152.4
0
LINE
8
BLACK
6
CONTINUOUS
10
109.22
20
-151.9
11
109.22
21
-152.9
0
LINE
8
BLACK
6
CONTINUOUS
10
108.72
20
-152.4
11
109.72
21
-152.4
0
LINE
8
BLACK
6
CONTINUOUS
10
111.76
20
-151.9
11
111.76
21
-152.9
0
LINE
8
BLACK
6
CONTINUOUS
10
111.26
20
-152.4
11
112.26
21
-152.4
0
LINE
8
BLACK
6
CONTINUOUS
10
114.3
20
-151.9
11
114.3
21
-152.9
0
LINE
8
BLACK
6
CONTINUOUS
10
113.8
20
-152.4
11
114.8
21
-152.4
0
LINE
8
BLACK
6
CONTINUOUS
10
116.84
20
-151.9
11
116.84
21
-152.9
0
LINE
8
BLACK
6
CONTINUOUS
10
116.34
20
-152.4
11
117.34
21
-152.4
0
LINE
8
BLACK
6
CONTINUOUS
10
119.38
20
-151.9
11
119.38
21
-152.9
0
LINE
8
BLACK
6
CONTINUOUS
10
118.88
20
-152.4
11
119.88
21
-152.4
0
LINE
8
BLACK
6
CONTINUOUS
10
121.92
20
-151.9
11
121.92
21
-152.9
0
LINE
8
BLACK
6
CONTINUOUS
10
121.42
20
-152.4
11
122.42
21
-152.4
0
LINE
8
BLACK
6
CONTINUOUS
10
124.46
20
-151.9
11
124.46
21
-152.9
0
LINE
8
BLACK
6
CONTINUOUS
10
123.96
20
-152.4
11
124.96
21
-152.4
0
LINE
8
BLACK
6
CONTINUOUS
10
127
20
-151.9
11
127
21
-152.9
0
LINE
8
BLACK
6
CONTINUOUS
10
126.5
20
-152.4
11
127.5
21
-152.4
0
LINE
8
BLACK
6
CONTINUOUS
10
129.54
20
-151.9
11
129.54
21
-152.9
0
LINE
8
BLACK
6
CONTINUOUS
10
129.04
20
-152.4
11
130.04
21
-152.4
0
LINE
8
BLACK
6
CONTINUOUS
10
132.08
20
-151.9
11
132.08
21
-152.9
0
LINE
8
BLACK
6
CONTINUOUS
10
131.58
20
-152.4
11
132.58
21
-152.4
0
LINE
8
BLACK
6
CONTINUOUS
10
134.62
20
-151.9
11
134.62
21
-152.9
0
LINE
8
BLACK
6
CONTINUOUS
10
134.12
20
-152.4
11
135.12
21
-152.4
0
LINE
8
BLACK
6
CONTINUOUS
10
98.1263
20
-132.604
11
98.1263
21
-131.883
0
LINE
8
BLACK
6
CONTINUOUS
10
98.1263
20
-131.883
11
97.4051
21
-131.883
0
LINE
8
BLACK
6
CONTINUOUS
10
97.4051
20
-131.883
11
97.4051
21
-132.604
0
LINE
8
BLACK
6
CONTINUOUS
10
97.4051
20
-132.604
11
98.1263
21
-132.604
0
LINE
8
BLACK
6
CONTINUOUS
10
100.666
20
-132.604
11
100.666
21
-131.883
0
LINE
8
BLACK
6
CONTINUOUS
10
100.666
20
-131.883
11
99.9451
21
-131.883
0
LINE
8
BLACK
6
CONTINUOUS
10
99.9451
20
-131.883
11
99.9451
21
-132.604
0
LINE
8
BLACK
6
CONTINUOUS
10
99.9451
20
-132.604
11
100.666
21
-132.604
0
LINE
8
BLACK
6
CONTINUOUS
10
103.206
20
-132.604
11
103.206
21
-131.883
0
LINE
8
BLACK
6
CONTINUOUS
10
103.206
20
-131.883
11
102.485
21
-131.883
0
LINE
8
BLACK
6
CONTINUOUS
10
102.485
20
-131.883
11
102.485
21
-132.604
0
LINE
8
BLACK
6
CONTINUOUS
10
102.485
20
-132.604
11
103.206
21
-132.604
0
LINE
8
BLACK
6
CONTINUOUS
10
68.327
20
-158.221
11
68.327
21
-156.221
0
LINE
8
BLACK
6
CONTINUOUS
10
68.327
20
-156.221
11
68.8032
21
-156.221
0
LINE
8
BLACK
6
CONTINUOUS
10
68.8032
20
-156.221
11
69.0889
21
-156.316
0
LINE
8
BLACK
6
CONTINUOUS
10
69.0889
20
-156.316
11
69.2793
21
-156.507
0
LINE
8
BLACK
6
CONTINUOUS
10
69.2793
20
-156.507
11
69.3746
21
-156.697
0
LINE
8
BLACK
6
CONTINUOUS
10
69.3746
20
-156.697
11
69.4698
21
-157.078
0
LINE
8
BLACK
6
CONTINUOUS
10
69.4698
20
-157.078
11
69.4698
21
-157.364
0
LINE
8
BLACK
6
CONTINUOUS
10
69.4698
20
-157.364
11
69.3746
21
-157.745
0
LINE
8
BLACK
6
CONTINUOUS
10
69.3746
20
-157.745
11
69.2793
21
-157.935
0
LINE
8
BLACK
6
CONTINUOUS
10
69.2793
20
-157.935
11
69.0889
21
-158.126
0
LINE
8
BLACK
6
CONTINUOUS
10
69.0889
20
-158.126
11
68.8032
21
-158.221
0
LINE
8
BLACK
6
CONTINUOUS
10
68.8032
20
-158.221
11
68.327
21
-158.221
0
LINE
8
BLACK
6
CONTINUOUS
10
70.327
20
-158.221
11
70.327
21
-156.888
0
LINE
8
BLACK
6
CONTINUOUS
10
70.327
20
-157.269
11
70.4222
21
-157.078
0
LINE
8
BLACK
6
CONTINUOUS
10
70.4222
20
-157.078
11
70.5174
21
-156.983
0
LINE
8
BLACK
6
CONTINUOUS
10
70.5174
20
-156.983
11
70.7079
21
-156.888
0
LINE
8
BLACK
6
CONTINUOUS
10
70.7079
20
-156.888
11
70.8984
21
-156.888
0
LINE
8
BLACK
6
CONTINUOUS
10
71.5651
20
-158.221
11
71.5651
21
-156.888
0
LINE
8
BLACK
6
CONTINUOUS
10
71.5651
20
-156.221
11
71.4698
21
-156.316
0
LINE
8
BLACK
6
CONTINUOUS
10
71.4698
20
-156.316
11
71.5651
21
-156.412
0
LINE
8
BLACK
6
CONTINUOUS
10
71.5651
20
-156.412
11
71.6603
21
-156.316
0
LINE
8
BLACK
6
CONTINUOUS
10
71.6603
20
-156.316
11
71.5651
21
-156.221
0
LINE
8
BLACK
6
CONTINUOUS
10
71.5651
20
-156.221
11
71.5651
21
-156.412
0
LINE
8
BLACK
6
CONTINUOUS
10
72.8032
20
-158.221
11
72.6127
21
-158.126
0
LINE
8
BLACK
6
CONTINUOUS
10
72.6127
20
-158.126
11
72.5174
21
-157.935
0
LINE
8
BLACK
6
CONTINUOUS
10
72.5174
20
-157.935
11
72.5174
21
-156.221
0
LINE
8
BLACK
6
CONTINUOUS
10
73.8508
20
-158.221
11
73.6603
21
-158.126
0
LINE
8
BLACK
6
CONTINUOUS
10
73.6603
20
-158.126
11
73.5651
21
-157.935
0
LINE
8
BLACK
6
CONTINUOUS
10
73.5651
20
-157.935
11
73.5651
21
-156.221
0
LINE
8
BLACK
6
CONTINUOUS
10
76.1365
20
-158.221
11
76.1365
21
-156.221
0
LINE
8
BLACK
6
CONTINUOUS
10
76.1365
20
-156.221
11
76.8032
21
-157.65
0
LINE
8
BLACK
6
CONTINUOUS
10
76.8032
20
-157.65
11
77.4698
21
-156.221
0
LINE
8
BLACK
6
CONTINUOUS
10
77.4698
20
-156.221
11
77.4698
21
-158.221
0
LINE
8
BLACK
6
CONTINUOUS
10
79.2793
20
-158.221
11
79.2793
21
-157.173
0
LINE
8
BLACK
6
CONTINUOUS
10
79.2793
20
-157.173
11
79.1841
21
-156.983
0
LINE
8
BLACK
6
CONTINUOUS
10
79.1841
20
-156.983
11
78.9936
21
-156.888
0
LINE
8
BLACK
6
CONTINUOUS
10
78.9936
20
-156.888
11
78.6127
21
-156.888
0
LINE
8
BLACK
6
CONTINUOUS
10
78.6127
20
-156.888
11
78.4222
21
-156.983
0
LINE
8
BLACK
6
CONTINUOUS
10
79.2793
20
-158.126
11
79.0889
21
-158.221
0
LINE
8
BLACK
6
CONTINUOUS
10
79.0889
20
-158.221
11
78.6127
21
-158.221
0
LINE
8
BLACK
6
CONTINUOUS
10
78.6127
20
-158.221
11
78.4222
21
-158.126
0
LINE
8
BLACK
6
CONTINUOUS
10
78.4222
20
-158.126
11
78.327
21
-157.935
0
LINE
8
BLACK
6
CONTINUOUS
10
78.327
20
-157.935
11
78.327
21
-157.745
0
LINE
8
BLACK
6
CONTINUOUS
10
78.327
20
-157.745
11
78.4222
21
-157.554
0
LINE
8
BLACK
6
CONTINUOUS
10
78.4222
20
-157.554
11
78.6127
21
-157.459
0
LINE
8
BLACK
6
CONTINUOUS
10
78.6127
20
-157.459
11
79.0889
21
-157.459
0
LINE
8
BLACK
6
CONTINUOUS
10
79.0889
20
-157.459
11
79.2793
21
-157.364
0
LINE
8
BLACK
6
CONTINUOUS
10
80.2317
20
-156.888
11
80.2317
21
-158.888
0
LINE
8
BLACK
6
CONTINUOUS
10
80.2317
20
-156.983
11
80.4222
21
-156.888
0
LINE
8
BLACK
6
CONTINUOUS
10
80.4222
20
-156.888
11
80.8032
21
-156.888
0
LINE
8
BLACK
6
CONTINUOUS
10
80.8032
20
-156.888
11
80.9936
21
-156.983
0
LINE
8
BLACK
6
CONTINUOUS
10
80.9936
20
-156.983
11
81.0889
21
-157.078
0
LINE
8
BLACK
6
CONTINUOUS
10
81.0889
20
-157.078
11
81.1841
21
-157.269
0
LINE
8
BLACK
6
CONTINUOUS
10
81.1841
20
-157.269
11
81.1841
21
-157.84
0
LINE
8
BLACK
6
CONTINUOUS
10
81.1841
20
-157.84
11
81.0889
21
-158.031
0
LINE
8
BLACK
6
CONTINUOUS
10
81.0889
20
-158.031
11
80.9936
21
-158.126
0
LINE
8
BLACK
6
CONTINUOUS
10
80.9936
20
-158.126
11
80.8032
21
-158.221
0
LINE
8
BLACK
6
CONTINUOUS
10
80.8032
20
-158.221
11
80.4222
21
-158.221
0
LINE
8
BLACK
6
CONTINUOUS
10
80.4222
20
-158.221
11
80.2317
21
-158.126
0
LINE
8
BLACK
6
CONTINUOUS
10
82.0413
20
-158.031
11
82.1365
21
-158.126
0
LINE
8
BLACK
6
CONTINUOUS
10
82.1365
20
-158.126
11
82.0413
21
-158.221
0
LINE
8
BLACK
6
CONTINUOUS
10
82.0413
20
-158.221
11
81.946
21
-158.126
0
LINE
8
BLACK
6
CONTINUOUS
10
81.946
20
-158.126
11
82.0413
21
-158.031
0
LINE
8
BLACK
6
CONTINUOUS
10
82.0413
20
-158.031
11
82.0413
21
-158.221
0
LINE
8
BLACK
6
CONTINUOUS
10
82.0413
20
-156.983
11
82.1365
21
-157.078
0
LINE
8
BLACK
6
CONTINUOUS
10
82.1365
20
-157.078
11
82.0413
21
-157.173
0
LINE
8
BLACK
6
CONTINUOUS
10
82.0413
20
-157.173
11
81.946
21
-157.078
0
LINE
8
BLACK
6
CONTINUOUS
10
81.946
20
-157.078
11
82.0413
21
-156.983
0
LINE
8
BLACK
6
CONTINUOUS
10
82.0413
20
-156.983
11
82.0413
21
-157.173
0
LINE
8
BLACK
6
CONTINUOUS
10
65.3508
20
-161.316
11
65.7508
21
-161.716
0
LINE
8
BLACK
6
CONTINUOUS
10
65.7508
20
-161.316
11
65.3508
21
-161.716
0
LINE
8
BLACK
6
CONTINUOUS
10
68.7079
20
-160.421
11
68.8984
21
-160.421
0
LINE
8
BLACK
6
CONTINUOUS
10
68.8984
20
-160.421
11
69.0889
21
-160.516
0
LINE
8
BLACK
6
CONTINUOUS
10
69.0889
20
-160.516
11
69.1841
21
-160.612
0
LINE
8
BLACK
6
CONTINUOUS
10
69.1841
20
-160.612
11
69.2793
21
-160.802
0
LINE
8
BLACK
6
CONTINUOUS
10
69.2793
20
-160.802
11
69.3746
21
-161.183
0
LINE
8
BLACK
6
CONTINUOUS
10
69.3746
20
-161.183
11
69.3746
21
-161.659
0
LINE
8
BLACK
6
CONTINUOUS
10
69.3746
20
-161.659
11
69.2793
21
-162.04
0
LINE
8
BLACK
6
CONTINUOUS
10
69.2793
20
-162.04
11
69.1841
21
-162.231
0
LINE
8
BLACK
6
CONTINUOUS
10
69.1841
20
-162.231
11
69.0889
21
-162.326
0
LINE
8
BLACK
6
CONTINUOUS
10
69.0889
20
-162.326
11
68.8984
21
-162.421
0
LINE
8
BLACK
6
CONTINUOUS
10
68.8984
20
-162.421
11
68.7079
21
-162.421
0
LINE
8
BLACK
6
CONTINUOUS
10
68.7079
20
-162.421
11
68.5174
21
-162.326
0
LINE
8
BLACK
6
CONTINUOUS
10
68.5174
20
-162.326
11
68.4222
21
-162.231
0
LINE
8
BLACK
6
CONTINUOUS
10
68.4222
20
-162.231
11
68.327
21
-162.04
0
LINE
8
BLACK
6
CONTINUOUS
10
68.327
20
-162.04
11
68.2317
21
-161.659
0
LINE
8
BLACK
6
CONTINUOUS
10
68.2317
20
-161.659
11
68.2317
21
-161.183
0
LINE
8
BLACK
6
CONTINUOUS
10
68.2317
20
-161.183
11
68.327
21
-160.802
0
LINE
8
BLACK
6
CONTINUOUS
10
68.327
20
-160.802
11
68.4222
21
-160.612
0
LINE
8
BLACK
6
CONTINUOUS
10
68.4222
20
-160.612
11
68.5174
21
-160.516
0
LINE
8
BLACK
6
CONTINUOUS
10
68.5174
20
-160.516
11
68.7079
21
-160.421
0
LINE
8
BLACK
6
CONTINUOUS
10
70.2317
20
-162.231
11
70.327
21
-162.326
0
LINE
8
BLACK
6
CONTINUOUS
10
70.327
20
-162.326
11
70.2317
21
-162.421
0
LINE
8
BLACK
6
CONTINUOUS
10
70.2317
20
-162.421
11
70.1365
21
-162.326
0
LINE
8
BLACK
6
CONTINUOUS
10
70.1365
20
-162.326
11
70.2317
21
-162.231
0
LINE
8
BLACK
6
CONTINUOUS
10
70.2317
20
-162.231
11
70.2317
21
-162.421
0
LINE
8
BLACK
6
CONTINUOUS
10
72.0413
20
-161.088
11
72.0413
21
-162.421
0
LINE
8
BLACK
6
CONTINUOUS
10
71.5651
20
-160.326
11
71.0889
21
-161.754
0
LINE
8
BLACK
6
CONTINUOUS
10
71.0889
20
-161.754
11
72.327
21
-161.754
0
LINE
8
BLACK
6
CONTINUOUS
10
73.4698
20
-160.421
11
73.6603
21
-160.421
0
LINE
8
BLACK
6
CONTINUOUS
10
73.6603
20
-160.421
11
73.8508
21
-160.516
0
LINE
8
BLACK
6
CONTINUOUS
10
73.8508
20
-160.516
11
73.946
21
-160.612
0
LINE
8
BLACK
6
CONTINUOUS
10
73.946
20
-160.612
11
74.0413
21
-160.802
0
LINE
8
BLACK
6
CONTINUOUS
10
74.0413
20
-160.802
11
74.1365
21
-161.183
0
LINE
8
BLACK
6
CONTINUOUS
10
74.1365
20
-161.183
11
74.1365
21
-161.659
0
LINE
8
BLACK
6
CONTINUOUS
10
74.1365
20
-161.659
11
74.0413
21
-162.04
0
LINE
8
BLACK
6
CONTINUOUS
10
74.0413
20
-162.04
11
73.946
21
-162.231
0
LINE
8
BLACK
6
CONTINUOUS
10
73.946
20
-162.231
11
73.8508
21
-162.326
0
LINE
8
BLACK
6
CONTINUOUS
10
73.8508
20
-162.326
11
73.6603
21
-162.421
0
LINE
8
BLACK
6
CONTINUOUS
10
73.6603
20
-162.421
11
73.4698
21
-162.421
0
LINE
8
BLACK
6
CONTINUOUS
10
73.4698
20
-162.421
11
73.2793
21
-162.326
0
LINE
8
BLACK
6
CONTINUOUS
10
73.2793
20
-162.326
11
73.1841
21
-162.231
0
LINE
8
BLACK
6
CONTINUOUS
10
73.1841
20
-162.231
11
73.0889
21
-162.04
0
LINE
8
BLACK
6
CONTINUOUS
10
73.0889
20
-162.04
11
72.9936
21
-161.659
0
LINE
8
BLACK
6
CONTINUOUS
10
72.9936
20
-161.659
11
72.9936
21
-161.183
0
LINE
8
BLACK
6
CONTINUOUS
10
72.9936
20
-161.183
11
73.0889
21
-160.802
0
LINE
8
BLACK
6
CONTINUOUS
10
73.0889
20
-160.802
11
73.1841
21
-160.612
0
LINE
8
BLACK
6
CONTINUOUS
10
73.1841
20
-160.612
11
73.2793
21
-160.516
0
LINE
8
BLACK
6
CONTINUOUS
10
73.2793
20
-160.516
11
73.4698
21
-160.421
0
LINE
8
BLACK
6
CONTINUOUS
10
75.3746
20
-160.421
11
75.5651
21
-160.421
0
LINE
8
BLACK
6
CONTINUOUS
10
75.5651
20
-160.421
11
75.7555
21
-160.516
0
LINE
8
BLACK
6
CONTINUOUS
10
75.7555
20
-160.516
11
75.8508
21
-160.612
0
LINE
8
BLACK
6
CONTINUOUS
10
75.8508
20
-160.612
11
75.946
21
-160.802
0
LINE
8
BLACK
6
CONTINUOUS
10
75.946
20
-160.802
11
76.0413
21
-161.183
0
LINE
8
BLACK
6
CONTINUOUS
10
76.0413
20
-161.183
11
76.0413
21
-161.659
0
LINE
8
BLACK
6
CONTINUOUS
10
76.0413
20
-161.659
11
75.946
21
-162.04
0
LINE
8
BLACK
6
CONTINUOUS
10
75.946
20
-162.04
11
75.8508
21
-162.231
0
LINE
8
BLACK
6
CONTINUOUS
10
75.8508
20
-162.231
11
75.7555
21
-162.326
0
LINE
8
BLACK
6
CONTINUOUS
10
75.7555
20
-162.326
11
75.5651
21
-162.421
0
LINE
8
BLACK
6
CONTINUOUS
10
75.5651
20
-162.421
11
75.3746
21
-162.421
0
LINE
8
BLACK
6
CONTINUOUS
10
75.3746
20
-162.421
11
75.1841
21
-162.326
0
LINE
8
BLACK
6
CONTINUOUS
10
75.1841
20
-162.326
11
75.0889
21
-162.231
0
LINE
8
BLACK
6
CONTINUOUS
10
75.0889
20
-162.231
11
74.9936
21
-162.04
0
LINE
8
BLACK
6
CONTINUOUS
10
74.9936
20
-162.04
11
74.8984
21
-161.659
0
LINE
8
BLACK
6
CONTINUOUS
10
74.8984
20
-161.659
11
74.8984
21
-161.183
0
LINE
8
BLACK
6
CONTINUOUS
10
74.8984
20
-161.183
11
74.9936
21
-160.802
0
LINE
8
BLACK
6
CONTINUOUS
10
74.9936
20
-160.802
11
75.0889
21
-160.612
0
LINE
8
BLACK
6
CONTINUOUS
10
75.0889
20
-160.612
11
75.1841
21
-160.516
0
LINE
8
BLACK
6
CONTINUOUS
10
75.1841
20
-160.516
11
75.3746
21
-160.421
0
LINE
8
BLACK
6
CONTINUOUS
10
76.8984
20
-162.421
11
76.8984
21
-161.088
0
LINE
8
BLACK
6
CONTINUOUS
10
76.8984
20
-161.278
11
76.9936
21
-161.183
0
LINE
8
BLACK
6
CONTINUOUS
10
76.9936
20
-161.183
11
77.1841
21
-161.088
0
LINE
8
BLACK
6
CONTINUOUS
10
77.1841
20
-161.088
11
77.4698
21
-161.088
0
LINE
8
BLACK
6
CONTINUOUS
10
77.4698
20
-161.088
11
77.6603
21
-161.183
0
LINE
8
BLACK
6
CONTINUOUS
10
77.6603
20
-161.183
11
77.7555
21
-161.373
0
LINE
8
BLACK
6
CONTINUOUS
10
77.7555
20
-161.373
11
77.7555
21
-162.421
0
LINE
8
BLACK
6
CONTINUOUS
10
77.7555
20
-161.373
11
77.8508
21
-161.183
0
LINE
8
BLACK
6
CONTINUOUS
10
77.8508
20
-161.183
11
78.0413
21
-161.088
0
LINE
8
BLACK
6
CONTINUOUS
10
78.0413
20
-161.088
11
78.327
21
-161.088
0
LINE
8
BLACK
6
CONTINUOUS
10
78.327
20
-161.088
11
78.5174
21
-161.183
0
LINE
8
BLACK
6
CONTINUOUS
10
78.5174
20
-161.183
11
78.6127
21
-161.373
0
LINE
8
BLACK
6
CONTINUOUS
10
78.6127
20
-161.373
11
78.6127
21
-162.421
0
LINE
8
BLACK
6
CONTINUOUS
10
79.5651
20
-162.421
11
79.5651
21
-161.088
0
LINE
8
BLACK
6
CONTINUOUS
10
79.5651
20
-161.278
11
79.6603
21
-161.183
0
LINE
8
BLACK
6
CONTINUOUS
10
79.6603
20
-161.183
11
79.8508
21
-161.088
0
LINE
8
BLACK
6
CONTINUOUS
10
79.8508
20
-161.088
11
80.1365
21
-161.088
0
LINE
8
BLACK
6
CONTINUOUS
10
80.1365
20
-161.088
11
80.327
21
-161.183
0
LINE
8
BLACK
6
CONTINUOUS
10
80.327
20
-161.183
11
80.4222
21
-161.373
0
LINE
8
BLACK
6
CONTINUOUS
10
80.4222
20
-161.373
11
80.4222
21
-162.421
0
LINE
8
BLACK
6
CONTINUOUS
10
80.4222
20
-161.373
11
80.5174
21
-161.183
0
LINE
8
BLACK
6
CONTINUOUS
10
80.5174
20
-161.183
11
80.7079
21
-161.088
0
LINE
8
BLACK
6
CONTINUOUS
10
80.7079
20
-161.088
11
80.9936
21
-161.088
0
LINE
8
BLACK
6
CONTINUOUS
10
80.9936
20
-161.088
11
81.1841
21
-161.183
0
LINE
8
BLACK
6
CONTINUOUS
10
81.1841
20
-161.183
11
81.2793
21
-161.373
0
LINE
8
BLACK
6
CONTINUOUS
10
81.2793
20
-161.373
11
81.2793
21
-162.421
0
LINE
8
BLACK
6
CONTINUOUS
10
85.1841
20
-160.326
11
83.4698
21
-162.897
0
LINE
8
BLACK
6
CONTINUOUS
10
87.7555
20
-160.421
11
87.946
21
-160.421
0
LINE
8
BLACK
6
CONTINUOUS
10
87.946
20
-160.421
11
88.1365
21
-160.516
0
LINE
8
BLACK
6
CONTINUOUS
10
88.1365
20
-160.516
11
88.2317
21
-160.612
0
LINE
8
BLACK
6
CONTINUOUS
10
88.2317
20
-160.612
11
88.327
21
-160.802
0
LINE
8
BLACK
6
CONTINUOUS
10
88.327
20
-160.802
11
88.4222
21
-161.183
0
LINE
8
BLACK
6
CONTINUOUS
10
88.4222
20
-161.183
11
88.4222
21
-161.659
0
LINE
8
BLACK
6
CONTINUOUS
10
88.4222
20
-161.659
11
88.327
21
-162.04
0
LINE
8
BLACK
6
CONTINUOUS
10
88.327
20
-162.04
11
88.2317
21
-162.231
0
LINE
8
BLACK
6
CONTINUOUS
10
88.2317
20
-162.231
11
88.1365
21
-162.326
0
LINE
8
BLACK
6
CONTINUOUS
10
88.1365
20
-162.326
11
87.946
21
-162.421
0
LINE
8
BLACK
6
CONTINUOUS
10
87.946
20
-162.421
11
87.7555
21
-162.421
0
LINE
8
BLACK
6
CONTINUOUS
10
87.7555
20
-162.421
11
87.5651
21
-162.326
0
LINE
8
BLACK
6
CONTINUOUS
10
87.5651
20
-162.326
11
87.4698
21
-162.231
0
LINE
8
BLACK
6
CONTINUOUS
10
87.4698
20
-162.231
11
87.3746
21
-162.04
0
LINE
8
BLACK
6
CONTINUOUS
10
87.3746
20
-162.04
11
87.2793
21
-161.659
0
LINE
8
BLACK
6
CONTINUOUS
10
87.2793
20
-161.659
11
87.2793
21
-161.183
0
LINE
8
BLACK
6
CONTINUOUS
10
87.2793
20
-161.183
11
87.3746
21
-160.802
0
LINE
8
BLACK
6
CONTINUOUS
10
87.3746
20
-160.802
11
87.4698
21
-160.612
0
LINE
8
BLACK
6
CONTINUOUS
10
87.4698
20
-160.612
11
87.5651
21
-160.516
0
LINE
8
BLACK
6
CONTINUOUS
10
87.5651
20
-160.516
11
87.7555
21
-160.421
0
LINE
8
BLACK
6
CONTINUOUS
10
89.2793
20
-162.231
11
89.3746
21
-162.326
0
LINE
8
BLACK
6
CONTINUOUS
10
89.3746
20
-162.326
11
89.2793
21
-162.421
0
LINE
8
BLACK
6
CONTINUOUS
10
89.2793
20
-162.421
11
89.1841
21
-162.326
0
LINE
8
BLACK
6
CONTINUOUS
10
89.1841
20
-162.326
11
89.2793
21
-162.231
0
LINE
8
BLACK
6
CONTINUOUS
10
89.2793
20
-162.231
11
89.2793
21
-162.421
0
LINE
8
BLACK
6
CONTINUOUS
10
90.6127
20
-160.421
11
90.8032
21
-160.421
0
LINE
8
BLACK
6
CONTINUOUS
10
90.8032
20
-160.421
11
90.9936
21
-160.516
0
LINE
8
BLACK
6
CONTINUOUS
10
90.9936
20
-160.516
11
91.0889
21
-160.612
0
LINE
8
BLACK
6
CONTINUOUS
10
91.0889
20
-160.612
11
91.1841
21
-160.802
0
LINE
8
BLACK
6
CONTINUOUS
10
91.1841
20
-160.802
11
91.2793
21
-161.183
0
LINE
8
BLACK
6
CONTINUOUS
10
91.2793
20
-161.183
11
91.2793
21
-161.659
0
LINE
8
BLACK
6
CONTINUOUS
10
91.2793
20
-161.659
11
91.1841
21
-162.04
0
LINE
8
BLACK
6
CONTINUOUS
10
91.1841
20
-162.04
11
91.0889
21
-162.231
0
LINE
8
BLACK
6
CONTINUOUS
10
91.0889
20
-162.231
11
90.9936
21
-162.326
0
LINE
8
BLACK
6
CONTINUOUS
10
90.9936
20
-162.326
11
90.8032
21
-162.421
0
LINE
8
BLACK
6
CONTINUOUS
10
90.8032
20
-162.421
11
90.6127
21
-162.421
0
LINE
8
BLACK
6
CONTINUOUS
10
90.6127
20
-162.421
11
90.4222
21
-162.326
0
LINE
8
BLACK
6
CONTINUOUS
10
90.4222
20
-162.326
11
90.327
21
-162.231
0
LINE
8
BLACK
6
CONTINUOUS
10
90.327
20
-162.231
11
90.2317
21
-162.04
0
LINE
8
BLACK
6
CONTINUOUS
10
90.2317
20
-162.04
11
90.1365
21
-161.659
0
LINE
8
BLACK
6
CONTINUOUS
10
90.1365
20
-161.659
11
90.1365
21
-161.183
0
LINE
8
BLACK
6
CONTINUOUS
10
90.1365
20
-161.183
11
90.2317
21
-160.802
0
LINE
8
BLACK
6
CONTINUOUS
10
90.2317
20
-160.802
11
90.327
21
-160.612
0
LINE
8
BLACK
6
CONTINUOUS
10
90.327
20
-160.612
11
90.4222
21
-160.516
0
LINE
8
BLACK
6
CONTINUOUS
10
90.4222
20
-160.516
11
90.6127
21
-160.421
0
LINE
8
BLACK
6
CONTINUOUS
10
93.1841
20
-162.421
11
92.0413
21
-162.421
0
LINE
8
BLACK
6
CONTINUOUS
10
92.6127
20
-162.421
11
92.6127
21
-160.421
0
LINE
8
BLACK
6
CONTINUOUS
10
92.6127
20
-160.421
11
92.4222
21
-160.707
0
LINE
8
BLACK
6
CONTINUOUS
10
92.4222
20
-160.707
11
92.2317
21
-160.897
0
LINE
8
BLACK
6
CONTINUOUS
10
92.2317
20
-160.897
11
92.0413
21
-160.992
0
LINE
8
BLACK
6
CONTINUOUS
10
94.9936
20
-160.421
11
94.0413
21
-160.421
0
LINE
8
BLACK
6
CONTINUOUS
10
94.0413
20
-160.421
11
93.946
21
-161.373
0
LINE
8
BLACK
6
CONTINUOUS
10
93.946
20
-161.373
11
94.0413
21
-161.278
0
LINE
8
BLACK
6
CONTINUOUS
10
94.0413
20
-161.278
11
94.2317
21
-161.183
0
LINE
8
BLACK
6
CONTINUOUS
10
94.2317
20
-161.183
11
94.7079
21
-161.183
0
LINE
8
BLACK
6
CONTINUOUS
10
94.7079
20
-161.183
11
94.8984
21
-161.278
0
LINE
8
BLACK
6
CONTINUOUS
10
94.8984
20
-161.278
11
94.9936
21
-161.373
0
LINE
8
BLACK
6
CONTINUOUS
10
94.9936
20
-161.373
11
95.0889
21
-161.564
0
LINE
8
BLACK
6
CONTINUOUS
10
95.0889
20
-161.564
11
95.0889
21
-162.04
0
LINE
8
BLACK
6
CONTINUOUS
10
95.0889
20
-162.04
11
94.9936
21
-162.231
0
LINE
8
BLACK
6
CONTINUOUS
10
94.9936
20
-162.231
11
94.8984
21
-162.326
0
LINE
8
BLACK
6
CONTINUOUS
10
94.8984
20
-162.326
11
94.7079
21
-162.421
0
LINE
8
BLACK
6
CONTINUOUS
10
94.7079
20
-162.421
11
94.2317
21
-162.421
0
LINE
8
BLACK
6
CONTINUOUS
10
94.2317
20
-162.421
11
94.0413
21
-162.326
0
LINE
8
BLACK
6
CONTINUOUS
10
94.0413
20
-162.326
11
93.946
21
-162.231
0
LINE
8
BLACK
6
CONTINUOUS
10
95.7555
20
-160.421
11
97.0889
21
-160.421
0
LINE
8
BLACK
6
CONTINUOUS
10
97.0889
20
-160.421
11
96.2317
21
-162.421
0
LINE
8
BLACK
6
CONTINUOUS
10
97.7555
20
-160.421
11
97.7555
21
-160.802
0
LINE
8
BLACK
6
CONTINUOUS
10
98.5174
20
-160.421
11
98.5174
21
-160.802
0
LINE
8
BLACK
6
CONTINUOUS
10
101.47
20
-163.183
11
101.375
21
-163.088
0
LINE
8
BLACK
6
CONTINUOUS
10
101.375
20
-163.088
11
101.184
21
-162.802
0
LINE
8
BLACK
6
CONTINUOUS
10
101.184
20
-162.802
11
101.089
21
-162.612
0
LINE
8
BLACK
6
CONTINUOUS
10
101.089
20
-162.612
11
100.994
21
-162.326
0
LINE
8
BLACK
6
CONTINUOUS
10
100.994
20
-162.326
11
100.898
21
-161.85
0
LINE
8
BLACK
6
CONTINUOUS
10
100.898
20
-161.85
11
100.898
21
-161.469
0
LINE
8
BLACK
6
CONTINUOUS
10
100.898
20
-161.469
11
100.994
21
-160.992
0
LINE
8
BLACK
6
CONTINUOUS
10
100.994
20
-160.992
11
101.089
21
-160.707
0
LINE
8
BLACK
6
CONTINUOUS
10
101.089
20
-160.707
11
101.184
21
-160.516
0
LINE
8
BLACK
6
CONTINUOUS
10
101.184
20
-160.516
11
101.375
21
-160.231
0
LINE
8
BLACK
6
CONTINUOUS
10
101.375
20
-160.231
11
101.47
21
-160.135
0
LINE
8
BLACK
6
CONTINUOUS
10
102.041
20
-160.421
11
103.279
21
-160.421
0
LINE
8
BLACK
6
CONTINUOUS
10
103.279
20
-160.421
11
102.613
21
-161.183
0
LINE
8
BLACK
6
CONTINUOUS
10
102.613
20
-161.183
11
102.898
21
-161.183
0
LINE
8
BLACK
6
CONTINUOUS
10
102.898
20
-161.183
11
103.089
21
-161.278
0
LINE
8
BLACK
6
CONTINUOUS
10
103.089
20
-161.278
11
103.184
21
-161.373
0
LINE
8
BLACK
6
CONTINUOUS
10
103.184
20
-161.373
11
103.279
21
-161.564
0
LINE
8
BLACK
6
CONTINUOUS
10
103.279
20
-161.564
11
103.279
21
-162.04
0
LINE
8
BLACK
6
CONTINUOUS
10
103.279
20
-162.04
11
103.184
21
-162.231
0
LINE
8
BLACK
6
CONTINUOUS
10
103.184
20
-162.231
11
103.089
21
-162.326
0
LINE
8
BLACK
6
CONTINUOUS
10
103.089
20
-162.326
11
102.898
21
-162.421
0
LINE
8
BLACK
6
CONTINUOUS
10
102.898
20
-162.421
11
102.327
21
-162.421
0
LINE
8
BLACK
6
CONTINUOUS
10
102.327
20
-162.421
11
102.136
21
-162.326
0
LINE
8
BLACK
6
CONTINUOUS
10
102.136
20
-162.326
11
102.041
21
-162.231
0
LINE
8
BLACK
6
CONTINUOUS
10
104.994
20
-161.088
11
104.994
21
-162.421
0
LINE
8
BLACK
6
CONTINUOUS
10
104.517
20
-160.326
11
104.041
21
-161.754
0
LINE
8
BLACK
6
CONTINUOUS
10
104.041
20
-161.754
11
105.279
21
-161.754
0
LINE
8
BLACK
6
CONTINUOUS
10
107.565
20
-162.421
11
107.565
21
-160.421
0
LINE
8
BLACK
6
CONTINUOUS
10
108.422
20
-162.421
11
108.422
21
-161.373
0
LINE
8
BLACK
6
CONTINUOUS
10
108.422
20
-161.373
11
108.327
21
-161.183
0
LINE
8
BLACK
6
CONTINUOUS
10
108.327
20
-161.183
11
108.136
21
-161.088
0
LINE
8
BLACK
6
CONTINUOUS
10
108.136
20
-161.088
11
107.851
21
-161.088
0
LINE
8
BLACK
6
CONTINUOUS
10
107.851
20
-161.088
11
107.66
21
-161.183
0
LINE
8
BLACK
6
CONTINUOUS
10
107.66
20
-161.183
11
107.565
21
-161.278
0
LINE
8
BLACK
6
CONTINUOUS
10
109.66
20
-162.421
11
109.47
21
-162.326
0
LINE
8
BLACK
6
CONTINUOUS
10
109.47
20
-162.326
11
109.375
21
-162.231
0
LINE
8
BLACK
6
CONTINUOUS
10
109.375
20
-162.231
11
109.279
21
-162.04
0
LINE
8
BLACK
6
CONTINUOUS
10
109.279
20
-162.04
11
109.279
21
-161.469
0
LINE
8
BLACK
6
CONTINUOUS
10
109.279
20
-161.469
11
109.375
21
-161.278
0
LINE
8
BLACK
6
CONTINUOUS
10
109.375
20
-161.278
11
109.47
21
-161.183
0
LINE
8
BLACK
6
CONTINUOUS
10
109.47
20
-161.183
11
109.66
21
-161.088
0
LINE
8
BLACK
6
CONTINUOUS
10
109.66
20
-161.088
11
109.946
21
-161.088
0
LINE
8
BLACK
6
CONTINUOUS
10
109.946
20
-161.088
11
110.136
21
-161.183
0
LINE
8
BLACK
6
CONTINUOUS
10
110.136
20
-161.183
11
110.232
21
-161.278
0
LINE
8
BLACK
6
CONTINUOUS
10
110.232
20
-161.278
11
110.327
21
-161.469
0
LINE
8
BLACK
6
CONTINUOUS
10
110.327
20
-161.469
11
110.327
21
-162.04
0
LINE
8
BLACK
6
CONTINUOUS
10
110.327
20
-162.04
11
110.232
21
-162.231
0
LINE
8
BLACK
6
CONTINUOUS
10
110.232
20
-162.231
11
110.136
21
-162.326
0
LINE
8
BLACK
6
CONTINUOUS
10
110.136
20
-162.326
11
109.946
21
-162.421
0
LINE
8
BLACK
6
CONTINUOUS
10
109.946
20
-162.421
11
109.66
21
-162.421
0
LINE
8
BLACK
6
CONTINUOUS
10
111.47
20
-162.421
11
111.279
21
-162.326
0
LINE
8
BLACK
6
CONTINUOUS
10
111.279
20
-162.326
11
111.184
21
-162.135
0
LINE
8
BLACK
6
CONTINUOUS
10
111.184
20
-162.135
11
111.184
21
-160.421
0
LINE
8
BLACK
6
CONTINUOUS
10
112.994
20
-162.326
11
112.803
21
-162.421
0
LINE
8
BLACK
6
CONTINUOUS
10
112.803
20
-162.421
11
112.422
21
-162.421
0
LINE
8
BLACK
6
CONTINUOUS
10
112.422
20
-162.421
11
112.232
21
-162.326
0
LINE
8
BLACK
6
CONTINUOUS
10
112.232
20
-162.326
11
112.136
21
-162.135
0
LINE
8
BLACK
6
CONTINUOUS
10
112.136
20
-162.135
11
112.136
21
-161.373
0
LINE
8
BLACK
6
CONTINUOUS
10
112.136
20
-161.373
11
112.232
21
-161.183
0
LINE
8
BLACK
6
CONTINUOUS
10
112.232
20
-161.183
11
112.422
21
-161.088
0
LINE
8
BLACK
6
CONTINUOUS
10
112.422
20
-161.088
11
112.803
21
-161.088
0
LINE
8
BLACK
6
CONTINUOUS
10
112.803
20
-161.088
11
112.994
21
-161.183
0
LINE
8
BLACK
6
CONTINUOUS
10
112.994
20
-161.183
11
113.089
21
-161.373
0
LINE
8
BLACK
6
CONTINUOUS
10
113.089
20
-161.373
11
113.089
21
-161.564
0
LINE
8
BLACK
6
CONTINUOUS
10
113.089
20
-161.564
11
112.136
21
-161.754
0
LINE
8
BLACK
6
CONTINUOUS
10
113.851
20
-162.326
11
114.041
21
-162.421
0
LINE
8
BLACK
6
CONTINUOUS
10
114.041
20
-162.421
11
114.422
21
-162.421
0
LINE
8
BLACK
6
CONTINUOUS
10
114.422
20
-162.421
11
114.613
21
-162.326
0
LINE
8
BLACK
6
CONTINUOUS
10
114.613
20
-162.326
11
114.708
21
-162.135
0
LINE
8
BLACK
6
CONTINUOUS
10
114.708
20
-162.135
11
114.708
21
-162.04
0
LINE
8
BLACK
6
CONTINUOUS
10
114.708
20
-162.04
11
114.613
21
-161.85
0
LINE
8
BLACK
6
CONTINUOUS
10
114.613
20
-161.85
11
114.422
21
-161.754
0
LINE
8
BLACK
6
CONTINUOUS
10
114.422
20
-161.754
11
114.136
21
-161.754
0
LINE
8
BLACK
6
CONTINUOUS
10
114.136
20
-161.754
11
113.946
21
-161.659
0
LINE
8
BLACK
6
CONTINUOUS
10
113.946
20
-161.659
11
113.851
21
-161.469
0
LINE
8
BLACK
6
CONTINUOUS
10
113.851
20
-161.469
11
113.851
21
-161.373
0
LINE
8
BLACK
6
CONTINUOUS
10
113.851
20
-161.373
11
113.946
21
-161.183
0
LINE
8
BLACK
6
CONTINUOUS
10
113.946
20
-161.183
11
114.136
21
-161.088
0
LINE
8
BLACK
6
CONTINUOUS
10
114.136
20
-161.088
11
114.422
21
-161.088
0
LINE
8
BLACK
6
CONTINUOUS
10
114.422
20
-161.088
11
114.613
21
-161.183
0
LINE
8
BLACK
6
CONTINUOUS
10
115.375
20
-163.183
11
115.47
21
-163.088
0
LINE
8
BLACK
6
CONTINUOUS
10
115.47
20
-163.088
11
115.66
21
-162.802
0
LINE
8
BLACK
6
CONTINUOUS
10
115.66
20
-162.802
11
115.756
21
-162.612
0
LINE
8
BLACK
6
CONTINUOUS
10
115.756
20
-162.612
11
115.851
21
-162.326
0
LINE
8
BLACK
6
CONTINUOUS
10
115.851
20
-162.326
11
115.946
21
-161.85
0
LINE
8
BLACK
6
CONTINUOUS
10
115.946
20
-161.85
11
115.946
21
-161.469
0
LINE
8
BLACK
6
CONTINUOUS
10
115.946
20
-161.469
11
115.851
21
-160.992
0
LINE
8
BLACK
6
CONTINUOUS
10
115.851
20
-160.992
11
115.756
21
-160.707
0
LINE
8
BLACK
6
CONTINUOUS
10
115.756
20
-160.707
11
115.66
21
-160.516
0
LINE
8
BLACK
6
CONTINUOUS
10
115.66
20
-160.516
11
115.47
21
-160.231
0
LINE
8
BLACK
6
CONTINUOUS
10
115.47
20
-160.231
11
115.375
21
-160.135
0
CIRCLE
8
BLACK
10
65.3698
20
-164.156
40
0.381
0
LINE
8
BLACK
6
CONTINUOUS
10
68.7079
20
-163.061
11
68.8984
21
-163.061
0
LINE
8
BLACK
6
CONTINUOUS
10
68.8984
20
-163.061
11
69.0889
21
-163.156
0
LINE
8
BLACK
6
CONTINUOUS
10
69.0889
20
-163.156
11
69.1841
21
-163.252
0
LINE
8
BLACK
6
CONTINUOUS
10
69.1841
20
-163.252
11
69.2793
21
-163.442
0
LINE
8
BLACK
6
CONTINUOUS
10
69.2793
20
-163.442
11
69.3746
21
-163.823
0
LINE
8
BLACK
6
CONTINUOUS
10
69.3746
20
-163.823
11
69.3746
21
-164.299
0
LINE
8
BLACK
6
CONTINUOUS
10
69.3746
20
-164.299
11
69.2793
21
-164.68
0
LINE
8
BLACK
6
CONTINUOUS
10
69.2793
20
-164.68
11
69.1841
21
-164.871
0
LINE
8
BLACK
6
CONTINUOUS
10
69.1841
20
-164.871
11
69.0889
21
-164.966
0
LINE
8
BLACK
6
CONTINUOUS
10
69.0889
20
-164.966
11
68.8984
21
-165.061
0
LINE
8
BLACK
6
CONTINUOUS
10
68.8984
20
-165.061
11
68.7079
21
-165.061
0
LINE
8
BLACK
6
CONTINUOUS
10
68.7079
20
-165.061
11
68.5174
21
-164.966
0
LINE
8
BLACK
6
CONTINUOUS
10
68.5174
20
-164.966
11
68.4222
21
-164.871
0
LINE
8
BLACK
6
CONTINUOUS
10
68.4222
20
-164.871
11
68.327
21
-164.68
0
LINE
8
BLACK
6
CONTINUOUS
10
68.327
20
-164.68
11
68.2317
21
-164.299
0
LINE
8
BLACK
6
CONTINUOUS
10
68.2317
20
-164.299
11
68.2317
21
-163.823
0
LINE
8
BLACK
6
CONTINUOUS
10
68.2317
20
-163.823
11
68.327
21
-163.442
0
LINE
8
BLACK
6
CONTINUOUS
10
68.327
20
-163.442
11
68.4222
21
-163.252
0
LINE
8
BLACK
6
CONTINUOUS
10
68.4222
20
-163.252
11
68.5174
21
-163.156
0
LINE
8
BLACK
6
CONTINUOUS
10
68.5174
20
-163.156
11
68.7079
21
-163.061
0
LINE
8
BLACK
6
CONTINUOUS
10
70.2317
20
-164.871
11
70.327
21
-164.966
0
LINE
8
BLACK
6
CONTINUOUS
10
70.327
20
-164.966
11
70.2317
21
-165.061
0
LINE
8
BLACK
6
CONTINUOUS
10
70.2317
20
-165.061
11
70.1365
21
-164.966
0
LINE
8
BLACK
6
CONTINUOUS
10
70.1365
20
-164.966
11
70.2317
21
-164.871
0
LINE
8
BLACK
6
CONTINUOUS
10
70.2317
20
-164.871
11
70.2317
21
-165.061
0
LINE
8
BLACK
6
CONTINUOUS
10
70.9936
20
-163.061
11
72.327
21
-163.061
0
LINE
8
BLACK
6
CONTINUOUS
10
72.327
20
-163.061
11
71.4698
21
-165.061
0
LINE
8
BLACK
6
CONTINUOUS
10
73.946
20
-163.061
11
73.5651
21
-163.061
0
LINE
8
BLACK
6
CONTINUOUS
10
73.5651
20
-163.061
11
73.3746
21
-163.156
0
LINE
8
BLACK
6
CONTINUOUS
10
73.3746
20
-163.156
11
73.2793
21
-163.252
0
LINE
8
BLACK
6
CONTINUOUS
10
73.2793
20
-163.252
11
73.0889
21
-163.537
0
LINE
8
BLACK
6
CONTINUOUS
10
73.0889
20
-163.537
11
72.9936
21
-163.918
0
LINE
8
BLACK
6
CONTINUOUS
10
72.9936
20
-163.918
11
72.9936
21
-164.68
0
LINE
8
BLACK
6
CONTINUOUS
10
72.9936
20
-164.68
11
73.0889
21
-164.871
0
LINE
8
BLACK
6
CONTINUOUS
10
73.0889
20
-164.871
11
73.1841
21
-164.966
0
LINE
8
BLACK
6
CONTINUOUS
10
73.1841
20
-164.966
11
73.3746
21
-165.061
0
LINE
8
BLACK
6
CONTINUOUS
10
73.3746
20
-165.061
11
73.7555
21
-165.061
0
LINE
8
BLACK
6
CONTINUOUS
10
73.7555
20
-165.061
11
73.946
21
-164.966
0
LINE
8
BLACK
6
CONTINUOUS
10
73.946
20
-164.966
11
74.0413
21
-164.871
0
LINE
8
BLACK
6
CONTINUOUS
10
74.0413
20
-164.871
11
74.1365
21
-164.68
0
LINE
8
BLACK
6
CONTINUOUS
10
74.1365
20
-164.68
11
74.1365
21
-164.204
0
LINE
8
BLACK
6
CONTINUOUS
10
74.1365
20
-164.204
11
74.0413
21
-164.013
0
LINE
8
BLACK
6
CONTINUOUS
10
74.0413
20
-164.013
11
73.946
21
-163.918
0
LINE
8
BLACK
6
CONTINUOUS
10
73.946
20
-163.918
11
73.7555
21
-163.823
0
LINE
8
BLACK
6
CONTINUOUS
10
73.7555
20
-163.823
11
73.3746
21
-163.823
0
LINE
8
BLACK
6
CONTINUOUS
10
73.3746
20
-163.823
11
73.1841
21
-163.918
0
LINE
8
BLACK
6
CONTINUOUS
10
73.1841
20
-163.918
11
73.0889
21
-164.013
0
LINE
8
BLACK
6
CONTINUOUS
10
73.0889
20
-164.013
11
72.9936
21
-164.204
0
LINE
8
BLACK
6
CONTINUOUS
10
74.8984
20
-163.252
11
74.9936
21
-163.156
0
LINE
8
BLACK
6
CONTINUOUS
10
74.9936
20
-163.156
11
75.1841
21
-163.061
0
LINE
8
BLACK
6
CONTINUOUS
10
75.1841
20
-163.061
11
75.6603
21
-163.061
0
LINE
8
BLACK
6
CONTINUOUS
10
75.6603
20
-163.061
11
75.8508
21
-163.156
0
LINE
8
BLACK
6
CONTINUOUS
10
75.8508
20
-163.156
11
75.946
21
-163.252
0
LINE
8
BLACK
6
CONTINUOUS
10
75.946
20
-163.252
11
76.0413
21
-163.442
0
LINE
8
BLACK
6
CONTINUOUS
10
76.0413
20
-163.442
11
76.0413
21
-163.632
0
LINE
8
BLACK
6
CONTINUOUS
10
76.0413
20
-163.632
11
75.946
21
-163.918
0
LINE
8
BLACK
6
CONTINUOUS
10
75.946
20
-163.918
11
74.8032
21
-165.061
0
LINE
8
BLACK
6
CONTINUOUS
10
74.8032
20
-165.061
11
76.0413
21
-165.061
0
LINE
8
BLACK
6
CONTINUOUS
10
76.8984
20
-165.061
11
76.8984
21
-163.728
0
LINE
8
BLACK
6
CONTINUOUS
10
76.8984
20
-163.918
11
76.9936
21
-163.823
0
LINE
8
BLACK
6
CONTINUOUS
10
76.9936
20
-163.823
11
77.1841
21
-163.728
0
LINE
8
BLACK
6
CONTINUOUS
10
77.1841
20
-163.728
11
77.4698
21
-163.728
0
LINE
8
BLACK
6
CONTINUOUS
10
77.4698
20
-163.728
11
77.6603
21
-163.823
0
LINE
8
BLACK
6
CONTINUOUS
10
77.6603
20
-163.823
11
77.7555
21
-164.013
0
LINE
8
BLACK
6
CONTINUOUS
10
77.7555
20
-164.013
11
77.7555
21
-165.061
0
LINE
8
BLACK
6
CONTINUOUS
10
77.7555
20
-164.013
11
77.8508
21
-163.823
0
LINE
8
BLACK
6
CONTINUOUS
10
77.8508
20
-163.823
11
78.0413
21
-163.728
0
LINE
8
BLACK
6
CONTINUOUS
10
78.0413
20
-163.728
11
78.327
21
-163.728
0
LINE
8
BLACK
6
CONTINUOUS
10
78.327
20
-163.728
11
78.5174
21
-163.823
0
LINE
8
BLACK
6
CONTINUOUS
10
78.5174
20
-163.823
11
78.6127
21
-164.013
0
LINE
8
BLACK
6
CONTINUOUS
10
78.6127
20
-164.013
11
78.6127
21
-165.061
0
LINE
8
BLACK
6
CONTINUOUS
10
79.5651
20
-165.061
11
79.5651
21
-163.728
0
LINE
8
BLACK
6
CONTINUOUS
10
79.5651
20
-163.918
11
79.6603
21
-163.823
0
LINE
8
BLACK
6
CONTINUOUS
10
79.6603
20
-163.823
11
79.8508
21
-163.728
0
LINE
8
BLACK
6
CONTINUOUS
10
79.8508
20
-163.728
11
80.1365
21
-163.728
0
LINE
8
BLACK
6
CONTINUOUS
10
80.1365
20
-163.728
11
80.327
21
-163.823
0
LINE
8
BLACK
6
CONTINUOUS
10
80.327
20
-163.823
11
80.4222
21
-164.013
0
LINE
8
BLACK
6
CONTINUOUS
10
80.4222
20
-164.013
11
80.4222
21
-165.061
0
LINE
8
BLACK
6
CONTINUOUS
10
80.4222
20
-164.013
11
80.5174
21
-163.823
0
LINE
8
BLACK
6
CONTINUOUS
10
80.5174
20
-163.823
11
80.7079
21
-163.728
0
LINE
8
BLACK
6
CONTINUOUS
10
80.7079
20
-163.728
11
80.9936
21
-163.728
0
LINE
8
BLACK
6
CONTINUOUS
10
80.9936
20
-163.728
11
81.1841
21
-163.823
0
LINE
8
BLACK
6
CONTINUOUS
10
81.1841
20
-163.823
11
81.2793
21
-164.013
0
LINE
8
BLACK
6
CONTINUOUS
10
81.2793
20
-164.013
11
81.2793
21
-165.061
0
LINE
8
BLACK
6
CONTINUOUS
10
85.1841
20
-162.966
11
83.4698
21
-165.537
0
LINE
8
BLACK
6
CONTINUOUS
10
87.7555
20
-163.061
11
87.946
21
-163.061
0
LINE
8
BLACK
6
CONTINUOUS
10
87.946
20
-163.061
11
88.1365
21
-163.156
0
LINE
8
BLACK
6
CONTINUOUS
10
88.1365
20
-163.156
11
88.2317
21
-163.252
0
LINE
8
BLACK
6
CONTINUOUS
10
88.2317
20
-163.252
11
88.327
21
-163.442
0
LINE
8
BLACK
6
CONTINUOUS
10
88.327
20
-163.442
11
88.4222
21
-163.823
0
LINE
8
BLACK
6
CONTINUOUS
10
88.4222
20
-163.823
11
88.4222
21
-164.299
0
LINE
8
BLACK
6
CONTINUOUS
10
88.4222
20
-164.299
11
88.327
21
-164.68
0
LINE
8
BLACK
6
CONTINUOUS
10
88.327
20
-164.68
11
88.2317
21
-164.871
0
LINE
8
BLACK
6
CONTINUOUS
10
88.2317
20
-164.871
11
88.1365
21
-164.966
0
LINE
8
BLACK
6
CONTINUOUS
10
88.1365
20
-164.966
11
87.946
21
-165.061
0
LINE
8
BLACK
6
CONTINUOUS
10
87.946
20
-165.061
11
87.7555
21
-165.061
0
LINE
8
BLACK
6
CONTINUOUS
10
87.7555
20
-165.061
11
87.5651
21
-164.966
0
LINE
8
BLACK
6
CONTINUOUS
10
87.5651
20
-164.966
11
87.4698
21
-164.871
0
LINE
8
BLACK
6
CONTINUOUS
10
87.4698
20
-164.871
11
87.3746
21
-164.68
0
LINE
8
BLACK
6
CONTINUOUS
10
87.3746
20
-164.68
11
87.2793
21
-164.299
0
LINE
8
BLACK
6
CONTINUOUS
10
87.2793
20
-164.299
11
87.2793
21
-163.823
0
LINE
8
BLACK
6
CONTINUOUS
10
87.2793
20
-163.823
11
87.3746
21
-163.442
0
LINE
8
BLACK
6
CONTINUOUS
10
87.3746
20
-163.442
11
87.4698
21
-163.252
0
LINE
8
BLACK
6
CONTINUOUS
10
87.4698
20
-163.252
11
87.5651
21
-163.156
0
LINE
8
BLACK
6
CONTINUOUS
10
87.5651
20
-163.156
11
87.7555
21
-163.061
0
LINE
8
BLACK
6
CONTINUOUS
10
89.2793
20
-164.871
11
89.3746
21
-164.966
0
LINE
8
BLACK
6
CONTINUOUS
10
89.3746
20
-164.966
11
89.2793
21
-165.061
0
LINE
8
BLACK
6
CONTINUOUS
10
89.2793
20
-165.061
11
89.1841
21
-164.966
0
LINE
8
BLACK
6
CONTINUOUS
10
89.1841
20
-164.966
11
89.2793
21
-164.871
0
LINE
8
BLACK
6
CONTINUOUS
10
89.2793
20
-164.871
11
89.2793
21
-165.061
0
LINE
8
BLACK
6
CONTINUOUS
10
90.6127
20
-163.061
11
90.8032
21
-163.061
0
LINE
8
BLACK
6
CONTINUOUS
10
90.8032
20
-163.061
11
90.9936
21
-163.156
0
LINE
8
BLACK
6
CONTINUOUS
10
90.9936
20
-163.156
11
91.0889
21
-163.252
0
LINE
8
BLACK
6
CONTINUOUS
10
91.0889
20
-163.252
11
91.1841
21
-163.442
0
LINE
8
BLACK
6
CONTINUOUS
10
91.1841
20
-163.442
11
91.2793
21
-163.823
0
LINE
8
BLACK
6
CONTINUOUS
10
91.2793
20
-163.823
11
91.2793
21
-164.299
0
LINE
8
BLACK
6
CONTINUOUS
10
91.2793
20
-164.299
11
91.1841
21
-164.68
0
LINE
8
BLACK
6
CONTINUOUS
10
91.1841
20
-164.68
11
91.0889
21
-164.871
0
LINE
8
BLACK
6
CONTINUOUS
10
91.0889
20
-164.871
11
90.9936
21
-164.966
0
LINE
8
BLACK
6
CONTINUOUS
10
90.9936
20
-164.966
11
90.8032
21
-165.061
0
LINE
8
BLACK
6
CONTINUOUS
10
90.8032
20
-165.061
11
90.6127
21
-165.061
0
LINE
8
BLACK
6
CONTINUOUS
10
90.6127
20
-165.061
11
90.4222
21
-164.966
0
LINE
8
BLACK
6
CONTINUOUS
10
90.4222
20
-164.966
11
90.327
21
-164.871
0
LINE
8
BLACK
6
CONTINUOUS
10
90.327
20
-164.871
11
90.2317
21
-164.68
0
LINE
8
BLACK
6
CONTINUOUS
10
90.2317
20
-164.68
11
90.1365
21
-164.299
0
LINE
8
BLACK
6
CONTINUOUS
10
90.1365
20
-164.299
11
90.1365
21
-163.823
0
LINE
8
BLACK
6
CONTINUOUS
10
90.1365
20
-163.823
11
90.2317
21
-163.442
0
LINE
8
BLACK
6
CONTINUOUS
10
90.2317
20
-163.442
11
90.327
21
-163.252
0
LINE
8
BLACK
6
CONTINUOUS
10
90.327
20
-163.252
11
90.4222
21
-163.156
0
LINE
8
BLACK
6
CONTINUOUS
10
90.4222
20
-163.156
11
90.6127
21
-163.061
0
LINE
8
BLACK
6
CONTINUOUS
10
91.946
20
-163.061
11
93.1841
21
-163.061
0
LINE
8
BLACK
6
CONTINUOUS
10
93.1841
20
-163.061
11
92.5174
21
-163.823
0
LINE
8
BLACK
6
CONTINUOUS
10
92.5174
20
-163.823
11
92.8032
21
-163.823
0
LINE
8
BLACK
6
CONTINUOUS
10
92.8032
20
-163.823
11
92.9936
21
-163.918
0
LINE
8
BLACK
6
CONTINUOUS
10
92.9936
20
-163.918
11
93.0889
21
-164.013
0
LINE
8
BLACK
6
CONTINUOUS
10
93.0889
20
-164.013
11
93.1841
21
-164.204
0
LINE
8
BLACK
6
CONTINUOUS
10
93.1841
20
-164.204
11
93.1841
21
-164.68
0
LINE
8
BLACK
6
CONTINUOUS
10
93.1841
20
-164.68
11
93.0889
21
-164.871
0
LINE
8
BLACK
6
CONTINUOUS
10
93.0889
20
-164.871
11
92.9936
21
-164.966
0
LINE
8
BLACK
6
CONTINUOUS
10
92.9936
20
-164.966
11
92.8032
21
-165.061
0
LINE
8
BLACK
6
CONTINUOUS
10
92.8032
20
-165.061
11
92.2317
21
-165.061
0
LINE
8
BLACK
6
CONTINUOUS
10
92.2317
20
-165.061
11
92.0413
21
-164.966
0
LINE
8
BLACK
6
CONTINUOUS
10
92.0413
20
-164.966
11
91.946
21
-164.871
0
LINE
8
BLACK
6
CONTINUOUS
10
94.4222
20
-163.061
11
94.6127
21
-163.061
0
LINE
8
BLACK
6
CONTINUOUS
10
94.6127
20
-163.061
11
94.8032
21
-163.156
0
LINE
8
BLACK
6
CONTINUOUS
10
94.8032
20
-163.156
11
94.8984
21
-163.252
0
LINE
8
BLACK
6
CONTINUOUS
10
94.8984
20
-163.252
11
94.9936
21
-163.442
0
LINE
8
BLACK
6
CONTINUOUS
10
94.9936
20
-163.442
11
95.0889
21
-163.823
0
LINE
8
BLACK
6
CONTINUOUS
10
95.0889
20
-163.823
11
95.0889
21
-164.299
0
LINE
8
BLACK
6
CONTINUOUS
10
95.0889
20
-164.299
11
94.9936
21
-164.68
0
LINE
8
BLACK
6
CONTINUOUS
10
94.9936
20
-164.68
11
94.8984
21
-164.871
0
LINE
8
BLACK
6
CONTINUOUS
10
94.8984
20
-164.871
11
94.8032
21
-164.966
0
LINE
8
BLACK
6
CONTINUOUS
10
94.8032
20
-164.966
11
94.6127
21
-165.061
0
LINE
8
BLACK
6
CONTINUOUS
10
94.6127
20
-165.061
11
94.4222
21
-165.061
0
LINE
8
BLACK
6
CONTINUOUS
10
94.4222
20
-165.061
11
94.2317
21
-164.966
0
LINE
8
BLACK
6
CONTINUOUS
10
94.2317
20
-164.966
11
94.1365
21
-164.871
0
LINE
8
BLACK
6
CONTINUOUS
10
94.1365
20
-164.871
11
94.0413
21
-164.68
0
LINE
8
BLACK
6
CONTINUOUS
10
94.0413
20
-164.68
11
93.946
21
-164.299
0
LINE
8
BLACK
6
CONTINUOUS
10
93.946
20
-164.299
11
93.946
21
-163.823
0
LINE
8
BLACK
6
CONTINUOUS
10
93.946
20
-163.823
11
94.0413
21
-163.442
0
LINE
8
BLACK
6
CONTINUOUS
10
94.0413
20
-163.442
11
94.1365
21
-163.252
0
LINE
8
BLACK
6
CONTINUOUS
10
94.1365
20
-163.252
11
94.2317
21
-163.156
0
LINE
8
BLACK
6
CONTINUOUS
10
94.2317
20
-163.156
11
94.4222
21
-163.061
0
LINE
8
BLACK
6
CONTINUOUS
10
96.327
20
-163.061
11
96.5174
21
-163.061
0
LINE
8
BLACK
6
CONTINUOUS
10
96.5174
20
-163.061
11
96.7079
21
-163.156
0
LINE
8
BLACK
6
CONTINUOUS
10
96.7079
20
-163.156
11
96.8032
21
-163.252
0
LINE
8
BLACK
6
CONTINUOUS
10
96.8032
20
-163.252
11
96.8984
21
-163.442
0
LINE
8
BLACK
6
CONTINUOUS
10
96.8984
20
-163.442
11
96.9936
21
-163.823
0
LINE
8
BLACK
6
CONTINUOUS
10
96.9936
20
-163.823
11
96.9936
21
-164.299
0
LINE
8
BLACK
6
CONTINUOUS
10
96.9936
20
-164.299
11
96.8984
21
-164.68
0
LINE
8
BLACK
6
CONTINUOUS
10
96.8984
20
-164.68
11
96.8032
21
-164.871
0
LINE
8
BLACK
6
CONTINUOUS
10
96.8032
20
-164.871
11
96.7079
21
-164.966
0
LINE
8
BLACK
6
CONTINUOUS
10
96.7079
20
-164.966
11
96.5174
21
-165.061
0
LINE
8
BLACK
6
CONTINUOUS
10
96.5174
20
-165.061
11
96.327
21
-165.061
0
LINE
8
BLACK
6
CONTINUOUS
10
96.327
20
-165.061
11
96.1365
21
-164.966
0
LINE
8
BLACK
6
CONTINUOUS
10
96.1365
20
-164.966
11
96.0413
21
-164.871
0
LINE
8
BLACK
6
CONTINUOUS
10
96.0413
20
-164.871
11
95.946
21
-164.68
0
LINE
8
BLACK
6
CONTINUOUS
10
95.946
20
-164.68
11
95.8508
21
-164.299
0
LINE
8
BLACK
6
CONTINUOUS
10
95.8508
20
-164.299
11
95.8508
21
-163.823
0
LINE
8
BLACK
6
CONTINUOUS
10
95.8508
20
-163.823
11
95.946
21
-163.442
0
LINE
8
BLACK
6
CONTINUOUS
10
95.946
20
-163.442
11
96.0413
21
-163.252
0
LINE
8
BLACK
6
CONTINUOUS
10
96.0413
20
-163.252
11
96.1365
21
-163.156
0
LINE
8
BLACK
6
CONTINUOUS
10
96.1365
20
-163.156
11
96.327
21
-163.061
0
LINE
8
BLACK
6
CONTINUOUS
10
97.7555
20
-163.061
11
97.7555
21
-163.442
0
LINE
8
BLACK
6
CONTINUOUS
10
98.5174
20
-163.061
11
98.5174
21
-163.442
0
LINE
8
BLACK
6
CONTINUOUS
10
101.47
20
-165.823
11
101.375
21
-165.728
0
LINE
8
BLACK
6
CONTINUOUS
10
101.375
20
-165.728
11
101.184
21
-165.442
0
LINE
8
BLACK
6
CONTINUOUS
10
101.184
20
-165.442
11
101.089
21
-165.252
0
LINE
8
BLACK
6
CONTINUOUS
10
101.089
20
-165.252
11
100.994
21
-164.966
0
LINE
8
BLACK
6
CONTINUOUS
10
100.994
20
-164.966
11
100.898
21
-164.49
0
LINE
8
BLACK
6
CONTINUOUS
10
100.898
20
-164.49
11
100.898
21
-164.109
0
LINE
8
BLACK
6
CONTINUOUS
10
100.898
20
-164.109
11
100.994
21
-163.632
0
LINE
8
BLACK
6
CONTINUOUS
10
100.994
20
-163.632
11
101.089
21
-163.347
0
LINE
8
BLACK
6
CONTINUOUS
10
101.089
20
-163.347
11
101.184
21
-163.156
0
LINE
8
BLACK
6
CONTINUOUS
10
101.184
20
-163.156
11
101.375
21
-162.871
0
LINE
8
BLACK
6
CONTINUOUS
10
101.375
20
-162.871
11
101.47
21
-162.775
0
LINE
8
BLACK
6
CONTINUOUS
10
103.279
20
-165.061
11
102.136
21
-165.061
0
LINE
8
BLACK
6
CONTINUOUS
10
102.708
20
-165.061
11
102.708
21
-163.061
0
LINE
8
BLACK
6
CONTINUOUS
10
102.708
20
-163.061
11
102.517
21
-163.347
0
LINE
8
BLACK
6
CONTINUOUS
10
102.517
20
-163.347
11
102.327
21
-163.537
0
LINE
8
BLACK
6
CONTINUOUS
10
102.327
20
-163.537
11
102.136
21
-163.632
0
LINE
8
BLACK
6
CONTINUOUS
10
105.66
20
-165.061
11
105.66
21
-163.061
0
LINE
8
BLACK
6
CONTINUOUS
10
106.517
20
-165.061
11
106.517
21
-164.013
0
LINE
8
BLACK
6
CONTINUOUS
10
106.517
20
-164.013
11
106.422
21
-163.823
0
LINE
8
BLACK
6
CONTINUOUS
10
106.422
20
-163.823
11
106.232
21
-163.728
0
LINE
8
BLACK
6
CONTINUOUS
10
106.232
20
-163.728
11
105.946
21
-163.728
0
LINE
8
BLACK
6
CONTINUOUS
10
105.946
20
-163.728
11
105.756
21
-163.823
0
LINE
8
BLACK
6
CONTINUOUS
10
105.756
20
-163.823
11
105.66
21
-163.918
0
LINE
8
BLACK
6
CONTINUOUS
10
107.756
20
-165.061
11
107.565
21
-164.966
0
LINE
8
BLACK
6
CONTINUOUS
10
107.565
20
-164.966
11
107.47
21
-164.871
0
LINE
8
BLACK
6
CONTINUOUS
10
107.47
20
-164.871
11
107.375
21
-164.68
0
LINE
8
BLACK
6
CONTINUOUS
10
107.375
20
-164.68
11
107.375
21
-164.109
0
LINE
8
BLACK
6
CONTINUOUS
10
107.375
20
-164.109
11
107.47
21
-163.918
0
LINE
8
BLACK
6
CONTINUOUS
10
107.47
20
-163.918
11
107.565
21
-163.823
0
LINE
8
BLACK
6
CONTINUOUS
10
107.565
20
-163.823
11
107.756
21
-163.728
0
LINE
8
BLACK
6
CONTINUOUS
10
107.756
20
-163.728
11
108.041
21
-163.728
0
LINE
8
BLACK
6
CONTINUOUS
10
108.041
20
-163.728
11
108.232
21
-163.823
0
LINE
8
BLACK
6
CONTINUOUS
10
108.232
20
-163.823
11
108.327
21
-163.918
0
LINE
8
BLACK
6
CONTINUOUS
10
108.327
20
-163.918
11
108.422
21
-164.109
0
LINE
8
BLACK
6
CONTINUOUS
10
108.422
20
-164.109
11
108.422
21
-164.68
0
LINE
8
BLACK
6
CONTINUOUS
10
108.422
20
-164.68
11
108.327
21
-164.871
0
LINE
8
BLACK
6
CONTINUOUS
10
108.327
20
-164.871
11
108.232
21
-164.966
0
LINE
8
BLACK
6
CONTINUOUS
10
108.232
20
-164.966
11
108.041
21
-165.061
0
LINE
8
BLACK
6
CONTINUOUS
10
108.041
20
-165.061
11
107.756
21
-165.061
0
LINE
8
BLACK
6
CONTINUOUS
10
109.565
20
-165.061
11
109.375
21
-164.966
0
LINE
8
BLACK
6
CONTINUOUS
10
109.375
20
-164.966
11
109.279
21
-164.775
0
LINE
8
BLACK
6
CONTINUOUS
10
109.279
20
-164.775
11
109.279
21
-163.061
0
LINE
8
BLACK
6
CONTINUOUS
10
111.089
20
-164.966
11
110.898
21
-165.061
0
LINE
8
BLACK
6
CONTINUOUS
10
110.898
20
-165.061
11
110.517
21
-165.061
0
LINE
8
BLACK
6
CONTINUOUS
10
110.517
20
-165.061
11
110.327
21
-164.966
0
LINE
8
BLACK
6
CONTINUOUS
10
110.327
20
-164.966
11
110.232
21
-164.775
0
LINE
8
BLACK
6
CONTINUOUS
10
110.232
20
-164.775
11
110.232
21
-164.013
0
LINE
8
BLACK
6
CONTINUOUS
10
110.232
20
-164.013
11
110.327
21
-163.823
0
LINE
8
BLACK
6
CONTINUOUS
10
110.327
20
-163.823
11
110.517
21
-163.728
0
LINE
8
BLACK
6
CONTINUOUS
10
110.517
20
-163.728
11
110.898
21
-163.728
0
LINE
8
BLACK
6
CONTINUOUS
10
110.898
20
-163.728
11
111.089
21
-163.823
0
LINE
8
BLACK
6
CONTINUOUS
10
111.089
20
-163.823
11
111.184
21
-164.013
0
LINE
8
BLACK
6
CONTINUOUS
10
111.184
20
-164.013
11
111.184
21
-164.204
0
LINE
8
BLACK
6
CONTINUOUS
10
111.184
20
-164.204
11
110.232
21
-164.394
0
LINE
8
BLACK
6
CONTINUOUS
10
111.851
20
-165.823
11
111.946
21
-165.728
0
LINE
8
BLACK
6
CONTINUOUS
10
111.946
20
-165.728
11
112.136
21
-165.442
0
LINE
8
BLACK
6
CONTINUOUS
10
112.136
20
-165.442
11
112.232
21
-165.252
0
LINE
8
BLACK
6
CONTINUOUS
10
112.232
20
-165.252
11
112.327
21
-164.966
0
LINE
8
BLACK
6
CONTINUOUS
10
112.327
20
-164.966
11
112.422
21
-164.49
0
LINE
8
BLACK
6
CONTINUOUS
10
112.422
20
-164.49
11
112.422
21
-164.109
0
LINE
8
BLACK
6
CONTINUOUS
10
112.422
20
-164.109
11
112.327
21
-163.632
0
LINE
8
BLACK
6
CONTINUOUS
10
112.327
20
-163.632
11
112.232
21
-163.347
0
LINE
8
BLACK
6
CONTINUOUS
10
112.232
20
-163.347
11
112.136
21
-163.156
0
LINE
8
BLACK
6
CONTINUOUS
10
112.136
20
-163.156
11
111.946
21
-162.871
0
LINE
8
BLACK
6
CONTINUOUS
10
111.946
20
-162.871
11
111.851
21
-162.775
0
LINE
8
BLACK
6
CONTINUOUS
10
65.2508
20
-166.296
11
65.2508
21
-167.296
0
LINE
8
BLACK
6
CONTINUOUS
10
64.7508
20
-166.796
11
65.7508
21
-166.796
0
LINE
8
BLACK
6
CONTINUOUS
10
69.3746
20
-167.701
11
68.2317
21
-167.701
0
LINE
8
BLACK
6
CONTINUOUS
10
68.8032
20
-167.701
11
68.8032
21
-165.701
0
LINE
8
BLACK
6
CONTINUOUS
10
68.8032
20
-165.701
11
68.6127
21
-165.987
0
LINE
8
BLACK
6
CONTINUOUS
10
68.6127
20
-165.987
11
68.4222
21
-166.177
0
LINE
8
BLACK
6
CONTINUOUS
10
68.4222
20
-166.177
11
68.2317
21
-166.272
0
LINE
8
BLACK
6
CONTINUOUS
10
70.2317
20
-167.511
11
70.327
21
-167.606
0
LINE
8
BLACK
6
CONTINUOUS
10
70.327
20
-167.606
11
70.2317
21
-167.701
0
LINE
8
BLACK
6
CONTINUOUS
10
70.2317
20
-167.701
11
70.1365
21
-167.606
0
LINE
8
BLACK
6
CONTINUOUS
10
70.1365
20
-167.606
11
70.2317
21
-167.511
0
LINE
8
BLACK
6
CONTINUOUS
10
70.2317
20
-167.511
11
70.2317
21
-167.701
0
LINE
8
BLACK
6
CONTINUOUS
10
71.5651
20
-165.701
11
71.7555
21
-165.701
0
LINE
8
BLACK
6
CONTINUOUS
10
71.7555
20
-165.701
11
71.946
21
-165.796
0
LINE
8
BLACK
6
CONTINUOUS
10
71.946
20
-165.796
11
72.0413
21
-165.892
0
LINE
8
BLACK
6
CONTINUOUS
10
72.0413
20
-165.892
11
72.1365
21
-166.082
0
LINE
8
BLACK
6
CONTINUOUS
10
72.1365
20
-166.082
11
72.2317
21
-166.463
0
LINE
8
BLACK
6
CONTINUOUS
10
72.2317
20
-166.463
11
72.2317
21
-166.939
0
LINE
8
BLACK
6
CONTINUOUS
10
72.2317
20
-166.939
11
72.1365
21
-167.32
0
LINE
8
BLACK
6
CONTINUOUS
10
72.1365
20
-167.32
11
72.0413
21
-167.511
0
LINE
8
BLACK
6
CONTINUOUS
10
72.0413
20
-167.511
11
71.946
21
-167.606
0
LINE
8
BLACK
6
CONTINUOUS
10
71.946
20
-167.606
11
71.7555
21
-167.701
0
LINE
8
BLACK
6
CONTINUOUS
10
71.7555
20
-167.701
11
71.5651
21
-167.701
0
LINE
8
BLACK
6
CONTINUOUS
10
71.5651
20
-167.701
11
71.3746
21
-167.606
0
LINE
8
BLACK
6
CONTINUOUS
10
71.3746
20
-167.606
11
71.2793
21
-167.511
0
LINE
8
BLACK
6
CONTINUOUS
10
71.2793
20
-167.511
11
71.1841
21
-167.32
0
LINE
8
BLACK
6
CONTINUOUS
10
71.1841
20
-167.32
11
71.0889
21
-166.939
0
LINE
8
BLACK
6
CONTINUOUS
10
71.0889
20
-166.939
11
71.0889
21
-166.463
0
LINE
8
BLACK
6
CONTINUOUS
10
71.0889
20
-166.463
11
71.1841
21
-166.082
0
LINE
8
BLACK
6
CONTINUOUS
10
71.1841
20
-166.082
11
71.2793
21
-165.892
0
LINE
8
BLACK
6
CONTINUOUS
10
71.2793
20
-165.892
11
71.3746
21
-165.796
0
LINE
8
BLACK
6
CONTINUOUS
10
71.3746
20
-165.796
11
71.5651
21
-165.701
0
LINE
8
BLACK
6
CONTINUOUS
10
73.4698
20
-165.701
11
73.6603
21
-165.701
0
LINE
8
BLACK
6
CONTINUOUS
10
73.6603
20
-165.701
11
73.8508
21
-165.796
0
LINE
8
BLACK
6
CONTINUOUS
10
73.8508
20
-165.796
11
73.946
21
-165.892
0
LINE
8
BLACK
6
CONTINUOUS
10
73.946
20
-165.892
11
74.0413
21
-166.082
0
LINE
8
BLACK
6
CONTINUOUS
10
74.0413
20
-166.082
11
74.1365
21
-166.463
0
LINE
8
BLACK
6
CONTINUOUS
10
74.1365
20
-166.463
11
74.1365
21
-166.939
0
LINE
8
BLACK
6
CONTINUOUS
10
74.1365
20
-166.939
11
74.0413
21
-167.32
0
LINE
8
BLACK
6
CONTINUOUS
10
74.0413
20
-167.32
11
73.946
21
-167.511
0
LINE
8
BLACK
6
CONTINUOUS
10
73.946
20
-167.511
11
73.8508
21
-167.606
0
LINE
8
BLACK
6
CONTINUOUS
10
73.8508
20
-167.606
11
73.6603
21
-167.701
0
LINE
8
BLACK
6
CONTINUOUS
10
73.6603
20
-167.701
11
73.4698
21
-167.701
0
LINE
8
BLACK
6
CONTINUOUS
10
73.4698
20
-167.701
11
73.2793
21
-167.606
0
LINE
8
BLACK
6
CONTINUOUS
10
73.2793
20
-167.606
11
73.1841
21
-167.511
0
LINE
8
BLACK
6
CONTINUOUS
10
73.1841
20
-167.511
11
73.0889
21
-167.32
0
LINE
8
BLACK
6
CONTINUOUS
10
73.0889
20
-167.32
11
72.9936
21
-166.939
0
LINE
8
BLACK
6
CONTINUOUS
10
72.9936
20
-166.939
11
72.9936
21
-166.463
0
LINE
8
BLACK
6
CONTINUOUS
10
72.9936
20
-166.463
11
73.0889
21
-166.082
0
LINE
8
BLACK
6
CONTINUOUS
10
73.0889
20
-166.082
11
73.1841
21
-165.892
0
LINE
8
BLACK
6
CONTINUOUS
10
73.1841
20
-165.892
11
73.2793
21
-165.796
0
LINE
8
BLACK
6
CONTINUOUS
10
73.2793
20
-165.796
11
73.4698
21
-165.701
0
LINE
8
BLACK
6
CONTINUOUS
10
75.3746
20
-165.701
11
75.5651
21
-165.701
0
LINE
8
BLACK
6
CONTINUOUS
10
75.5651
20
-165.701
11
75.7555
21
-165.796
0
LINE
8
BLACK
6
CONTINUOUS
10
75.7555
20
-165.796
11
75.8508
21
-165.892
0
LINE
8
BLACK
6
CONTINUOUS
10
75.8508
20
-165.892
11
75.946
21
-166.082
0
LINE
8
BLACK
6
CONTINUOUS
10
75.946
20
-166.082
11
76.0413
21
-166.463
0
LINE
8
BLACK
6
CONTINUOUS
10
76.0413
20
-166.463
11
76.0413
21
-166.939
0
LINE
8
BLACK
6
CONTINUOUS
10
76.0413
20
-166.939
11
75.946
21
-167.32
0
LINE
8
BLACK
6
CONTINUOUS
10
75.946
20
-167.32
11
75.8508
21
-167.511
0
LINE
8
BLACK
6
CONTINUOUS
10
75.8508
20
-167.511
11
75.7555
21
-167.606
0
LINE
8
BLACK
6
CONTINUOUS
10
75.7555
20
-167.606
11
75.5651
21
-167.701
0
LINE
8
BLACK
6
CONTINUOUS
10
75.5651
20
-167.701
11
75.3746
21
-167.701
0
LINE
8
BLACK
6
CONTINUOUS
10
75.3746
20
-167.701
11
75.1841
21
-167.606
0
LINE
8
BLACK
6
CONTINUOUS
10
75.1841
20
-167.606
11
75.0889
21
-167.511
0
LINE
8
BLACK
6
CONTINUOUS
10
75.0889
20
-167.511
11
74.9936
21
-167.32
0
LINE
8
BLACK
6
CONTINUOUS
10
74.9936
20
-167.32
11
74.8984
21
-166.939
0
LINE
8
BLACK
6
CONTINUOUS
10
74.8984
20
-166.939
11
74.8984
21
-166.463
0
LINE
8
BLACK
6
CONTINUOUS
10
74.8984
20
-166.463
11
74.9936
21
-166.082
0
LINE
8
BLACK
6
CONTINUOUS
10
74.9936
20
-166.082
11
75.0889
21
-165.892
0
LINE
8
BLACK
6
CONTINUOUS
10
75.0889
20
-165.892
11
75.1841
21
-165.796
0
LINE
8
BLACK
6
CONTINUOUS
10
75.1841
20
-165.796
11
75.3746
21
-165.701
0
LINE
8
BLACK
6
CONTINUOUS
10
76.8984
20
-167.701
11
76.8984
21
-166.368
0
LINE
8
BLACK
6
CONTINUOUS
10
76.8984
20
-166.558
11
76.9936
21
-166.463
0
LINE
8
BLACK
6
CONTINUOUS
10
76.9936
20
-166.463
11
77.1841
21
-166.368
0
LINE
8
BLACK
6
CONTINUOUS
10
77.1841
20
-166.368
11
77.4698
21
-166.368
0
LINE
8
BLACK
6
CONTINUOUS
10
77.4698
20
-166.368
11
77.6603
21
-166.463
0
LINE
8
BLACK
6
CONTINUOUS
10
77.6603
20
-166.463
11
77.7555
21
-166.653
0
LINE
8
BLACK
6
CONTINUOUS
10
77.7555
20
-166.653
11
77.7555
21
-167.701
0
LINE
8
BLACK
6
CONTINUOUS
10
77.7555
20
-166.653
11
77.8508
21
-166.463
0
LINE
8
BLACK
6
CONTINUOUS
10
77.8508
20
-166.463
11
78.0413
21
-166.368
0
LINE
8
BLACK
6
CONTINUOUS
10
78.0413
20
-166.368
11
78.327
21
-166.368
0
LINE
8
BLACK
6
CONTINUOUS
10
78.327
20
-166.368
11
78.5174
21
-166.463
0
LINE
8
BLACK
6
CONTINUOUS
10
78.5174
20
-166.463
11
78.6127
21
-166.653
0
LINE
8
BLACK
6
CONTINUOUS
10
78.6127
20
-166.653
11
78.6127
21
-167.701
0
LINE
8
BLACK
6
CONTINUOUS
10
79.5651
20
-167.701
11
79.5651
21
-166.368
0
LINE
8
BLACK
6
CONTINUOUS
10
79.5651
20
-166.558
11
79.6603
21
-166.463
0
LINE
8
BLACK
6
CONTINUOUS
10
79.6603
20
-166.463
11
79.8508
21
-166.368
0
LINE
8
BLACK
6
CONTINUOUS
10
79.8508
20
-166.368
11
80.1365
21
-166.368
0
LINE
8
BLACK
6
CONTINUOUS
10
80.1365
20
-166.368
11
80.327
21
-166.463
0
LINE
8
BLACK
6
CONTINUOUS
10
80.327
20
-166.463
11
80.4222
21
-166.653
0
LINE
8
BLACK
6
CONTINUOUS
10
80.4222
20
-166.653
11
80.4222
21
-167.701
0
LINE
8
BLACK
6
CONTINUOUS
10
80.4222
20
-166.653
11
80.5174
21
-166.463
0
LINE
8
BLACK
6
CONTINUOUS
10
80.5174
20
-166.463
11
80.7079
21
-166.368
0
LINE
8
BLACK
6
CONTINUOUS
10
80.7079
20
-166.368
11
80.9936
21
-166.368
0
LINE
8
BLACK
6
CONTINUOUS
10
80.9936
20
-166.368
11
81.1841
21
-166.463
0
LINE
8
BLACK
6
CONTINUOUS
10
81.1841
20
-166.463
11
81.2793
21
-166.653
0
LINE
8
BLACK
6
CONTINUOUS
10
81.2793
20
-166.653
11
81.2793
21
-167.701
0
LINE
8
BLACK
6
CONTINUOUS
10
85.1841
20
-165.606
11
83.4698
21
-168.177
0
LINE
8
BLACK
6
CONTINUOUS
10
87.7555
20
-165.701
11
87.946
21
-165.701
0
LINE
8
BLACK
6
CONTINUOUS
10
87.946
20
-165.701
11
88.1365
21
-165.796
0
LINE
8
BLACK
6
CONTINUOUS
10
88.1365
20
-165.796
11
88.2317
21
-165.892
0
LINE
8
BLACK
6
CONTINUOUS
10
88.2317
20
-165.892
11
88.327
21
-166.082
0
LINE
8
BLACK
6
CONTINUOUS
10
88.327
20
-166.082
11
88.4222
21
-166.463
0
LINE
8
BLACK
6
CONTINUOUS
10
88.4222
20
-166.463
11
88.4222
21
-166.939
0
LINE
8
BLACK
6
CONTINUOUS
10
88.4222
20
-166.939
11
88.327
21
-167.32
0
LINE
8
BLACK
6
CONTINUOUS
10
88.327
20
-167.32
11
88.2317
21
-167.511
0
LINE
8
BLACK
6
CONTINUOUS
10
88.2317
20
-167.511
11
88.1365
21
-167.606
0
LINE
8
BLACK
6
CONTINUOUS
10
88.1365
20
-167.606
11
87.946
21
-167.701
0
LINE
8
BLACK
6
CONTINUOUS
10
87.946
20
-167.701
11
87.7555
21
-167.701
0
LINE
8
BLACK
6
CONTINUOUS
10
87.7555
20
-167.701
11
87.5651
21
-167.606
0
LINE
8
BLACK
6
CONTINUOUS
10
87.5651
20
-167.606
11
87.4698
21
-167.511
0
LINE
8
BLACK
6
CONTINUOUS
10
87.4698
20
-167.511
11
87.3746
21
-167.32
0
LINE
8
BLACK
6
CONTINUOUS
10
87.3746
20
-167.32
11
87.2793
21
-166.939
0
LINE
8
BLACK
6
CONTINUOUS
10
87.2793
20
-166.939
11
87.2793
21
-166.463
0
LINE
8
BLACK
6
CONTINUOUS
10
87.2793
20
-166.463
11
87.3746
21
-166.082
0
LINE
8
BLACK
6
CONTINUOUS
10
87.3746
20
-166.082
11
87.4698
21
-165.892
0
LINE
8
BLACK
6
CONTINUOUS
10
87.4698
20
-165.892
11
87.5651
21
-165.796
0
LINE
8
BLACK
6
CONTINUOUS
10
87.5651
20
-165.796
11
87.7555
21
-165.701
0
LINE
8
BLACK
6
CONTINUOUS
10
89.2793
20
-167.511
11
89.3746
21
-167.606
0
LINE
8
BLACK
6
CONTINUOUS
10
89.3746
20
-167.606
11
89.2793
21
-167.701
0
LINE
8
BLACK
6
CONTINUOUS
10
89.2793
20
-167.701
11
89.1841
21
-167.606
0
LINE
8
BLACK
6
CONTINUOUS
10
89.1841
20
-167.606
11
89.2793
21
-167.511
0
LINE
8
BLACK
6
CONTINUOUS
10
89.2793
20
-167.511
11
89.2793
21
-167.701
0
LINE
8
BLACK
6
CONTINUOUS
10
90.6127
20
-165.701
11
90.8032
21
-165.701
0
LINE
8
BLACK
6
CONTINUOUS
10
90.8032
20
-165.701
11
90.9936
21
-165.796
0
LINE
8
BLACK
6
CONTINUOUS
10
90.9936
20
-165.796
11
91.0889
21
-165.892
0
LINE
8
BLACK
6
CONTINUOUS
10
91.0889
20
-165.892
11
91.1841
21
-166.082
0
LINE
8
BLACK
6
CONTINUOUS
10
91.1841
20
-166.082
11
91.2793
21
-166.463
0
LINE
8
BLACK
6
CONTINUOUS
10
91.2793
20
-166.463
11
91.2793
21
-166.939
0
LINE
8
BLACK
6
CONTINUOUS
10
91.2793
20
-166.939
11
91.1841
21
-167.32
0
LINE
8
BLACK
6
CONTINUOUS
10
91.1841
20
-167.32
11
91.0889
21
-167.511
0
LINE
8
BLACK
6
CONTINUOUS
10
91.0889
20
-167.511
11
90.9936
21
-167.606
0
LINE
8
BLACK
6
CONTINUOUS
10
90.9936
20
-167.606
11
90.8032
21
-167.701
0
LINE
8
BLACK
6
CONTINUOUS
10
90.8032
20
-167.701
11
90.6127
21
-167.701
0
LINE
8
BLACK
6
CONTINUOUS
10
90.6127
20
-167.701
11
90.4222
21
-167.606
0
LINE
8
BLACK
6
CONTINUOUS
10
90.4222
20
-167.606
11
90.327
21
-167.511
0
LINE
8
BLACK
6
CONTINUOUS
10
90.327
20
-167.511
11
90.2317
21
-167.32
0
LINE
8
BLACK
6
CONTINUOUS
10
90.2317
20
-167.32
11
90.1365
21
-166.939
0
LINE
8
BLACK
6
CONTINUOUS
10
90.1365
20
-166.939
11
90.1365
21
-166.463
0
LINE
8
BLACK
6
CONTINUOUS
10
90.1365
20
-166.463
11
90.2317
21
-166.082
0
LINE
8
BLACK
6
CONTINUOUS
10
90.2317
20
-166.082
11
90.327
21
-165.892
0
LINE
8
BLACK
6
CONTINUOUS
10
90.327
20
-165.892
11
90.4222
21
-165.796
0
LINE
8
BLACK
6
CONTINUOUS
10
90.4222
20
-165.796
11
90.6127
21
-165.701
0
LINE
8
BLACK
6
CONTINUOUS
10
91.946
20
-165.701
11
93.1841
21
-165.701
0
LINE
8
BLACK
6
CONTINUOUS
10
93.1841
20
-165.701
11
92.5174
21
-166.463
0
LINE
8
BLACK
6
CONTINUOUS
10
92.5174
20
-166.463
11
92.8032
21
-166.463
0
LINE
8
BLACK
6
CONTINUOUS
10
92.8032
20
-166.463
11
92.9936
21
-166.558
0
LINE
8
BLACK
6
CONTINUOUS
10
92.9936
20
-166.558
11
93.0889
21
-166.653
0
LINE
8
BLACK
6
CONTINUOUS
10
93.0889
20
-166.653
11
93.1841
21
-166.844
0
LINE
8
BLACK
6
CONTINUOUS
10
93.1841
20
-166.844
11
93.1841
21
-167.32
0
LINE
8
BLACK
6
CONTINUOUS
10
93.1841
20
-167.32
11
93.0889
21
-167.511
0
LINE
8
BLACK
6
CONTINUOUS
10
93.0889
20
-167.511
11
92.9936
21
-167.606
0
LINE
8
BLACK
6
CONTINUOUS
10
92.9936
20
-167.606
11
92.8032
21
-167.701
0
LINE
8
BLACK
6
CONTINUOUS
10
92.8032
20
-167.701
11
92.2317
21
-167.701
0
LINE
8
BLACK
6
CONTINUOUS
10
92.2317
20
-167.701
11
92.0413
21
-167.606
0
LINE
8
BLACK
6
CONTINUOUS
10
92.0413
20
-167.606
11
91.946
21
-167.511
0
LINE
8
BLACK
6
CONTINUOUS
10
94.1365
20
-167.701
11
94.5174
21
-167.701
0
LINE
8
BLACK
6
CONTINUOUS
10
94.5174
20
-167.701
11
94.7079
21
-167.606
0
LINE
8
BLACK
6
CONTINUOUS
10
94.7079
20
-167.606
11
94.8032
21
-167.511
0
LINE
8
BLACK
6
CONTINUOUS
10
94.8032
20
-167.511
11
94.9936
21
-167.225
0
LINE
8
BLACK
6
CONTINUOUS
10
94.9936
20
-167.225
11
95.0889
21
-166.844
0
LINE
8
BLACK
6
CONTINUOUS
10
95.0889
20
-166.844
11
95.0889
21
-166.082
0
LINE
8
BLACK
6
CONTINUOUS
10
95.0889
20
-166.082
11
94.9936
21
-165.892
0
LINE
8
BLACK
6
CONTINUOUS
10
94.9936
20
-165.892
11
94.8984
21
-165.796
0
LINE
8
BLACK
6
CONTINUOUS
10
94.8984
20
-165.796
11
94.7079
21
-165.701
0
LINE
8
BLACK
6
CONTINUOUS
10
94.7079
20
-165.701
11
94.327
21
-165.701
0
LINE
8
BLACK
6
CONTINUOUS
10
94.327
20
-165.701
11
94.1365
21
-165.796
0
LINE
8
BLACK
6
CONTINUOUS
10
94.1365
20
-165.796
11
94.0413
21
-165.892
0
LINE
8
BLACK
6
CONTINUOUS
10
94.0413
20
-165.892
11
93.946
21
-166.082
0
LINE
8
BLACK
6
CONTINUOUS
10
93.946
20
-166.082
11
93.946
21
-166.558
0
LINE
8
BLACK
6
CONTINUOUS
10
93.946
20
-166.558
11
94.0413
21
-166.749
0
LINE
8
BLACK
6
CONTINUOUS
10
94.0413
20
-166.749
11
94.1365
21
-166.844
0
LINE
8
BLACK
6
CONTINUOUS
10
94.1365
20
-166.844
11
94.327
21
-166.939
0
LINE
8
BLACK
6
CONTINUOUS
10
94.327
20
-166.939
11
94.7079
21
-166.939
0
LINE
8
BLACK
6
CONTINUOUS
10
94.7079
20
-166.939
11
94.8984
21
-166.844
0
LINE
8
BLACK
6
CONTINUOUS
10
94.8984
20
-166.844
11
94.9936
21
-166.749
0
LINE
8
BLACK
6
CONTINUOUS
10
94.9936
20
-166.749
11
95.0889
21
-166.558
0
LINE
8
BLACK
6
CONTINUOUS
10
96.8032
20
-166.368
11
96.8032
21
-167.701
0
LINE
8
BLACK
6
CONTINUOUS
10
96.327
20
-165.606
11
95.8508
21
-167.034
0
LINE
8
BLACK
6
CONTINUOUS
10
95.8508
20
-167.034
11
97.0889
21
-167.034
0
LINE
8
BLACK
6
CONTINUOUS
10
97.7555
20
-165.701
11
97.7555
21
-166.082
0
LINE
8
BLACK
6
CONTINUOUS
10
98.5174
20
-165.701
11
98.5174
21
-166.082
0
LINE
8
BLACK
6
CONTINUOUS
10
101.47
20
-168.463
11
101.375
21
-168.368
0
LINE
8
BLACK
6
CONTINUOUS
10
101.375
20
-168.368
11
101.184
21
-168.082
0
LINE
8
BLACK
6
CONTINUOUS
10
101.184
20
-168.082
11
101.089
21
-167.892
0
LINE
8
BLACK
6
CONTINUOUS
10
101.089
20
-167.892
11
100.994
21
-167.606
0
LINE
8
BLACK
6
CONTINUOUS
10
100.994
20
-167.606
11
100.898
21
-167.13
0
LINE
8
BLACK
6
CONTINUOUS
10
100.898
20
-167.13
11
100.898
21
-166.749
0
LINE
8
BLACK
6
CONTINUOUS
10
100.898
20
-166.749
11
100.994
21
-166.272
0
LINE
8
BLACK
6
CONTINUOUS
10
100.994
20
-166.272
11
101.089
21
-165.987
0
LINE
8
BLACK
6
CONTINUOUS
10
101.089
20
-165.987
11
101.184
21
-165.796
0
LINE
8
BLACK
6
CONTINUOUS
10
101.184
20
-165.796
11
101.375
21
-165.511
0
LINE
8
BLACK
6
CONTINUOUS
10
101.375
20
-165.511
11
101.47
21
-165.415
0
LINE
8
BLACK
6
CONTINUOUS
10
103.279
20
-167.701
11
102.136
21
-167.701
0
LINE
8
BLACK
6
CONTINUOUS
10
102.708
20
-167.701
11
102.708
21
-165.701
0
LINE
8
BLACK
6
CONTINUOUS
10
102.708
20
-165.701
11
102.517
21
-165.987
0
LINE
8
BLACK
6
CONTINUOUS
10
102.517
20
-165.987
11
102.327
21
-166.177
0
LINE
8
BLACK
6
CONTINUOUS
10
102.327
20
-166.177
11
102.136
21
-166.272
0
LINE
8
BLACK
6
CONTINUOUS
10
104.994
20
-165.701
11
104.613
21
-165.701
0
LINE
8
BLACK
6
CONTINUOUS
10
104.613
20
-165.701
11
104.422
21
-165.796
0
LINE
8
BLACK
6
CONTINUOUS
10
104.422
20
-165.796
11
104.327
21
-165.892
0
LINE
8
BLACK
6
CONTINUOUS
10
104.327
20
-165.892
11
104.136
21
-166.177
0
LINE
8
BLACK
6
CONTINUOUS
10
104.136
20
-166.177
11
104.041
21
-166.558
0
LINE
8
BLACK
6
CONTINUOUS
10
104.041
20
-166.558
11
104.041
21
-167.32
0
LINE
8
BLACK
6
CONTINUOUS
10
104.041
20
-167.32
11
104.136
21
-167.511
0
LINE
8
BLACK
6
CONTINUOUS
10
104.136
20
-167.511
11
104.232
21
-167.606
0
LINE
8
BLACK
6
CONTINUOUS
10
104.232
20
-167.606
11
104.422
21
-167.701
0
LINE
8
BLACK
6
CONTINUOUS
10
104.422
20
-167.701
11
104.803
21
-167.701
0
LINE
8
BLACK
6
CONTINUOUS
10
104.803
20
-167.701
11
104.994
21
-167.606
0
LINE
8
BLACK
6
CONTINUOUS
10
104.994
20
-167.606
11
105.089
21
-167.511
0
LINE
8
BLACK
6
CONTINUOUS
10
105.089
20
-167.511
11
105.184
21
-167.32
0
LINE
8
BLACK
6
CONTINUOUS
10
105.184
20
-167.32
11
105.184
21
-166.844
0
LINE
8
BLACK
6
CONTINUOUS
10
105.184
20
-166.844
11
105.089
21
-166.653
0
LINE
8
BLACK
6
CONTINUOUS
10
105.089
20
-166.653
11
104.994
21
-166.558
0
LINE
8
BLACK
6
CONTINUOUS
10
104.994
20
-166.558
11
104.803
21
-166.463
0
LINE
8
BLACK
6
CONTINUOUS
10
104.803
20
-166.463
11
104.422
21
-166.463
0
LINE
8
BLACK
6
CONTINUOUS
10
104.422
20
-166.463
11
104.232
21
-166.558
0
LINE
8
BLACK
6
CONTINUOUS
10
104.232
20
-166.558
11
104.136
21
-166.653
0
LINE
8
BLACK
6
CONTINUOUS
10
104.136
20
-166.653
11
104.041
21
-166.844
0
LINE
8
BLACK
6
CONTINUOUS
10
107.565
20
-167.701
11
107.565
21
-165.701
0
LINE
8
BLACK
6
CONTINUOUS
10
108.422
20
-167.701
11
108.422
21
-166.653
0
LINE
8
BLACK
6
CONTINUOUS
10
108.422
20
-166.653
11
108.327
21
-166.463
0
LINE
8
BLACK
6
CONTINUOUS
10
108.327
20
-166.463
11
108.136
21
-166.368
0
LINE
8
BLACK
6
CONTINUOUS
10
108.136
20
-166.368
11
107.851
21
-166.368
0
LINE
8
BLACK
6
CONTINUOUS
10
107.851
20
-166.368
11
107.66
21
-166.463
0
LINE
8
BLACK
6
CONTINUOUS
10
107.66
20
-166.463
11
107.565
21
-166.558
0
LINE
8
BLACK
6
CONTINUOUS
10
109.66
20
-167.701
11
109.47
21
-167.606
0
LINE
8
BLACK
6
CONTINUOUS
10
109.47
20
-167.606
11
109.375
21
-167.511
0
LINE
8
BLACK
6
CONTINUOUS
10
109.375
20
-167.511
11
109.279
21
-167.32
0
LINE
8
BLACK
6
CONTINUOUS
10
109.279
20
-167.32
11
109.279
21
-166.749
0
LINE
8
BLACK
6
CONTINUOUS
10
109.279
20
-166.749
11
109.375
21
-166.558
0
LINE
8
BLACK
6
CONTINUOUS
10
109.375
20
-166.558
11
109.47
21
-166.463
0
LINE
8
BLACK
6
CONTINUOUS
10
109.47
20
-166.463
11
109.66
21
-166.368
0
LINE
8
BLACK
6
CONTINUOUS
10
109.66
20
-166.368
11
109.946
21
-166.368
0
LINE
8
BLACK
6
CONTINUOUS
10
109.946
20
-166.368
11
110.136
21
-166.463
0
LINE
8
BLACK
6
CONTINUOUS
10
110.136
20
-166.463
11
110.232
21
-166.558
0
LINE
8
BLACK
6
CONTINUOUS
10
110.232
20
-166.558
11
110.327
21
-166.749
0
LINE
8
BLACK
6
CONTINUOUS
10
110.327
20
-166.749
11
110.327
21
-167.32
0
LINE
8
BLACK
6
CONTINUOUS
10
110.327
20
-167.32
11
110.232
21
-167.511
0
LINE
8
BLACK
6
CONTINUOUS
10
110.232
20
-167.511
11
110.136
21
-167.606
0
LINE
8
BLACK
6
CONTINUOUS
10
110.136
20
-167.606
11
109.946
21
-167.701
0
LINE
8
BLACK
6
CONTINUOUS
10
109.946
20
-167.701
11
109.66
21
-167.701
0
LINE
8
BLACK
6
CONTINUOUS
10
111.47
20
-167.701
11
111.279
21
-167.606
0
LINE
8
BLACK
6
CONTINUOUS
10
111.279
20
-167.606
11
111.184
21
-167.415
0
LINE
8
BLACK
6
CONTINUOUS
10
111.184
20
-167.415
11
111.184
21
-165.701
0
LINE
8
BLACK
6
CONTINUOUS
10
112.994
20
-167.606
11
112.803
21
-167.701
0
LINE
8
BLACK
6
CONTINUOUS
10
112.803
20
-167.701
11
112.422
21
-167.701
0
LINE
8
BLACK
6
CONTINUOUS
10
112.422
20
-167.701
11
112.232
21
-167.606
0
LINE
8
BLACK
6
CONTINUOUS
10
112.232
20
-167.606
11
112.136
21
-167.415
0
LINE
8
BLACK
6
CONTINUOUS
10
112.136
20
-167.415
11
112.136
21
-166.653
0
LINE
8
BLACK
6
CONTINUOUS
10
112.136
20
-166.653
11
112.232
21
-166.463
0
LINE
8
BLACK
6
CONTINUOUS
10
112.232
20
-166.463
11
112.422
21
-166.368
0
LINE
8
BLACK
6
CONTINUOUS
10
112.422
20
-166.368
11
112.803
21
-166.368
0
LINE
8
BLACK
6
CONTINUOUS
10
112.803
20
-166.368
11
112.994
21
-166.463
0
LINE
8
BLACK
6
CONTINUOUS
10
112.994
20
-166.463
11
113.089
21
-166.653
0
LINE
8
BLACK
6
CONTINUOUS
10
113.089
20
-166.653
11
113.089
21
-166.844
0
LINE
8
BLACK
6
CONTINUOUS
10
113.089
20
-166.844
11
112.136
21
-167.034
0
LINE
8
BLACK
6
CONTINUOUS
10
113.851
20
-167.606
11
114.041
21
-167.701
0
LINE
8
BLACK
6
CONTINUOUS
10
114.041
20
-167.701
11
114.422
21
-167.701
0
LINE
8
BLACK
6
CONTINUOUS
10
114.422
20
-167.701
11
114.613
21
-167.606
0
LINE
8
BLACK
6
CONTINUOUS
10
114.613
20
-167.606
11
114.708
21
-167.415
0
LINE
8
BLACK
6
CONTINUOUS
10
114.708
20
-167.415
11
114.708
21
-167.32
0
LINE
8
BLACK
6
CONTINUOUS
10
114.708
20
-167.32
11
114.613
21
-167.13
0
LINE
8
BLACK
6
CONTINUOUS
10
114.613
20
-167.13
11
114.422
21
-167.034
0
LINE
8
BLACK
6
CONTINUOUS
10
114.422
20
-167.034
11
114.136
21
-167.034
0
LINE
8
BLACK
6
CONTINUOUS
10
114.136
20
-167.034
11
113.946
21
-166.939
0
LINE
8
BLACK
6
CONTINUOUS
10
113.946
20
-166.939
11
113.851
21
-166.749
0
LINE
8
BLACK
6
CONTINUOUS
10
113.851
20
-166.749
11
113.851
21
-166.653
0
LINE
8
BLACK
6
CONTINUOUS
10
113.851
20
-166.653
11
113.946
21
-166.463
0
LINE
8
BLACK
6
CONTINUOUS
10
113.946
20
-166.463
11
114.136
21
-166.368
0
LINE
8
BLACK
6
CONTINUOUS
10
114.136
20
-166.368
11
114.422
21
-166.368
0
LINE
8
BLACK
6
CONTINUOUS
10
114.422
20
-166.368
11
114.613
21
-166.463
0
LINE
8
BLACK
6
CONTINUOUS
10
115.375
20
-168.463
11
115.47
21
-168.368
0
LINE
8
BLACK
6
CONTINUOUS
10
115.47
20
-168.368
11
115.66
21
-168.082
0
LINE
8
BLACK
6
CONTINUOUS
10
115.66
20
-168.082
11
115.756
21
-167.892
0
LINE
8
BLACK
6
CONTINUOUS
10
115.756
20
-167.892
11
115.851
21
-167.606
0
LINE
8
BLACK
6
CONTINUOUS
10
115.851
20
-167.606
11
115.946
21
-167.13
0
LINE
8
BLACK
6
CONTINUOUS
10
115.946
20
-167.13
11
115.946
21
-166.749
0
LINE
8
BLACK
6
CONTINUOUS
10
115.946
20
-166.749
11
115.851
21
-166.272
0
LINE
8
BLACK
6
CONTINUOUS
10
115.851
20
-166.272
11
115.756
21
-165.987
0
LINE
8
BLACK
6
CONTINUOUS
10
115.756
20
-165.987
11
115.66
21
-165.796
0
LINE
8
BLACK
6
CONTINUOUS
10
115.66
20
-165.796
11
115.47
21
-165.511
0
LINE
8
BLACK
6
CONTINUOUS
10
115.47
20
-165.511
11
115.375
21
-165.415
0
LINE
8
BLACK
6
CONTINUOUS
10
65.6014
20
-169.797
11
65.6014
21
-169.076
0
LINE
8
BLACK
6
CONTINUOUS
10
65.6014
20
-169.076
11
64.8801
21
-169.076
0
LINE
8
BLACK
6
CONTINUOUS
10
64.8801
20
-169.076
11
64.8801
21
-169.797
0
LINE
8
BLACK
6
CONTINUOUS
10
64.8801
20
-169.797
11
65.6014
21
-169.797
0
LINE
8
BLACK
6
CONTINUOUS
10
69.3746
20
-170.341
11
68.2317
21
-170.341
0
LINE
8
BLACK
6
CONTINUOUS
10
68.8032
20
-170.341
11
68.8032
21
-168.341
0
LINE
8
BLACK
6
CONTINUOUS
10
68.8032
20
-168.341
11
68.6127
21
-168.627
0
LINE
8
BLACK
6
CONTINUOUS
10
68.6127
20
-168.627
11
68.4222
21
-168.817
0
LINE
8
BLACK
6
CONTINUOUS
10
68.4222
20
-168.817
11
68.2317
21
-168.912
0
LINE
8
BLACK
6
CONTINUOUS
10
70.2317
20
-170.151
11
70.327
21
-170.246
0
LINE
8
BLACK
6
CONTINUOUS
10
70.327
20
-170.246
11
70.2317
21
-170.341
0
LINE
8
BLACK
6
CONTINUOUS
10
70.2317
20
-170.341
11
70.1365
21
-170.246
0
LINE
8
BLACK
6
CONTINUOUS
10
70.1365
20
-170.246
11
70.2317
21
-170.151
0
LINE
8
BLACK
6
CONTINUOUS
10
70.2317
20
-170.151
11
70.2317
21
-170.341
0
LINE
8
BLACK
6
CONTINUOUS
10
71.5651
20
-168.341
11
71.7555
21
-168.341
0
LINE
8
BLACK
6
CONTINUOUS
10
71.7555
20
-168.341
11
71.946
21
-168.436
0
LINE
8
BLACK
6
CONTINUOUS
10
71.946
20
-168.436
11
72.0413
21
-168.532
0
LINE
8
BLACK
6
CONTINUOUS
10
72.0413
20
-168.532
11
72.1365
21
-168.722
0
LINE
8
BLACK
6
CONTINUOUS
10
72.1365
20
-168.722
11
72.2317
21
-169.103
0
LINE
8
BLACK
6
CONTINUOUS
10
72.2317
20
-169.103
11
72.2317
21
-169.579
0
LINE
8
BLACK
6
CONTINUOUS
10
72.2317
20
-169.579
11
72.1365
21
-169.96
0
LINE
8
BLACK
6
CONTINUOUS
10
72.1365
20
-169.96
11
72.0413
21
-170.151
0
LINE
8
BLACK
6
CONTINUOUS
10
72.0413
20
-170.151
11
71.946
21
-170.246
0
LINE
8
BLACK
6
CONTINUOUS
10
71.946
20
-170.246
11
71.7555
21
-170.341
0
LINE
8
BLACK
6
CONTINUOUS
10
71.7555
20
-170.341
11
71.5651
21
-170.341
0
LINE
8
BLACK
6
CONTINUOUS
10
71.5651
20
-170.341
11
71.3746
21
-170.246
0
LINE
8
BLACK
6
CONTINUOUS
10
71.3746
20
-170.246
11
71.2793
21
-170.151
0
LINE
8
BLACK
6
CONTINUOUS
10
71.2793
20
-170.151
11
71.1841
21
-169.96
0
LINE
8
BLACK
6
CONTINUOUS
10
71.1841
20
-169.96
11
71.0889
21
-169.579
0
LINE
8
BLACK
6
CONTINUOUS
10
71.0889
20
-169.579
11
71.0889
21
-169.103
0
LINE
8
BLACK
6
CONTINUOUS
10
71.0889
20
-169.103
11
71.1841
21
-168.722
0
LINE
8
BLACK
6
CONTINUOUS
10
71.1841
20
-168.722
11
71.2793
21
-168.532
0
LINE
8
BLACK
6
CONTINUOUS
10
71.2793
20
-168.532
11
71.3746
21
-168.436
0
LINE
8
BLACK
6
CONTINUOUS
10
71.3746
20
-168.436
11
71.5651
21
-168.341
0
LINE
8
BLACK
6
CONTINUOUS
10
72.9936
20
-168.532
11
73.0889
21
-168.436
0
LINE
8
BLACK
6
CONTINUOUS
10
73.0889
20
-168.436
11
73.2793
21
-168.341
0
LINE
8
BLACK
6
CONTINUOUS
10
73.2793
20
-168.341
11
73.7555
21
-168.341
0
LINE
8
BLACK
6
CONTINUOUS
10
73.7555
20
-168.341
11
73.946
21
-168.436
0
LINE
8
BLACK
6
CONTINUOUS
10
73.946
20
-168.436
11
74.0413
21
-168.532
0
LINE
8
BLACK
6
CONTINUOUS
10
74.0413
20
-168.532
11
74.1365
21
-168.722
0
LINE
8
BLACK
6
CONTINUOUS
10
74.1365
20
-168.722
11
74.1365
21
-168.912
0
LINE
8
BLACK
6
CONTINUOUS
10
74.1365
20
-168.912
11
74.0413
21
-169.198
0
LINE
8
BLACK
6
CONTINUOUS
10
74.0413
20
-169.198
11
72.8984
21
-170.341
0
LINE
8
BLACK
6
CONTINUOUS
10
72.8984
20
-170.341
11
74.1365
21
-170.341
0
LINE
8
BLACK
6
CONTINUOUS
10
75.3746
20
-168.341
11
75.5651
21
-168.341
0
LINE
8
BLACK
6
CONTINUOUS
10
75.5651
20
-168.341
11
75.7555
21
-168.436
0
LINE
8
BLACK
6
CONTINUOUS
10
75.7555
20
-168.436
11
75.8508
21
-168.532
0
LINE
8
BLACK
6
CONTINUOUS
10
75.8508
20
-168.532
11
75.946
21
-168.722
0
LINE
8
BLACK
6
CONTINUOUS
10
75.946
20
-168.722
11
76.0413
21
-169.103
0
LINE
8
BLACK
6
CONTINUOUS
10
76.0413
20
-169.103
11
76.0413
21
-169.579
0
LINE
8
BLACK
6
CONTINUOUS
10
76.0413
20
-169.579
11
75.946
21
-169.96
0
LINE
8
BLACK
6
CONTINUOUS
10
75.946
20
-169.96
11
75.8508
21
-170.151
0
LINE
8
BLACK
6
CONTINUOUS
10
75.8508
20
-170.151
11
75.7555
21
-170.246
0
LINE
8
BLACK
6
CONTINUOUS
10
75.7555
20
-170.246
11
75.5651
21
-170.341
0
LINE
8
BLACK
6
CONTINUOUS
10
75.5651
20
-170.341
11
75.3746
21
-170.341
0
LINE
8
BLACK
6
CONTINUOUS
10
75.3746
20
-170.341
11
75.1841
21
-170.246
0
LINE
8
BLACK
6
CONTINUOUS
10
75.1841
20
-170.246
11
75.0889
21
-170.151
0
LINE
8
BLACK
6
CONTINUOUS
10
75.0889
20
-170.151
11
74.9936
21
-169.96
0
LINE
8
BLACK
6
CONTINUOUS
10
74.9936
20
-169.96
11
74.8984
21
-169.579
0
LINE
8
BLACK
6
CONTINUOUS
10
74.8984
20
-169.579
11
74.8984
21
-169.103
0
LINE
8
BLACK
6
CONTINUOUS
10
74.8984
20
-169.103
11
74.9936
21
-168.722
0
LINE
8
BLACK
6
CONTINUOUS
10
74.9936
20
-168.722
11
75.0889
21
-168.532
0
LINE
8
BLACK
6
CONTINUOUS
10
75.0889
20
-168.532
11
75.1841
21
-168.436
0
LINE
8
BLACK
6
CONTINUOUS
10
75.1841
20
-168.436
11
75.3746
21
-168.341
0
LINE
8
BLACK
6
CONTINUOUS
10
76.8984
20
-170.341
11
76.8984
21
-169.008
0
LINE
8
BLACK
6
CONTINUOUS
10
76.8984
20
-169.198
11
76.9936
21
-169.103
0
LINE
8
BLACK
6
CONTINUOUS
10
76.9936
20
-169.103
11
77.1841
21
-169.008
0
LINE
8
BLACK
6
CONTINUOUS
10
77.1841
20
-169.008
11
77.4698
21
-169.008
0
LINE
8
BLACK
6
CONTINUOUS
10
77.4698
20
-169.008
11
77.6603
21
-169.103
0
LINE
8
BLACK
6
CONTINUOUS
10
77.6603
20
-169.103
11
77.7555
21
-169.293
0
LINE
8
BLACK
6
CONTINUOUS
10
77.7555
20
-169.293
11
77.7555
21
-170.341
0
LINE
8
BLACK
6
CONTINUOUS
10
77.7555
20
-169.293
11
77.8508
21
-169.103
0
LINE
8
BLACK
6
CONTINUOUS
10
77.8508
20
-169.103
11
78.0413
21
-169.008
0
LINE
8
BLACK
6
CONTINUOUS
10
78.0413
20
-169.008
11
78.327
21
-169.008
0
LINE
8
BLACK
6
CONTINUOUS
10
78.327
20
-169.008
11
78.5174
21
-169.103
0
LINE
8
BLACK
6
CONTINUOUS
10
78.5174
20
-169.103
11
78.6127
21
-169.293
0
LINE
8
BLACK
6
CONTINUOUS
10
78.6127
20
-169.293
11
78.6127
21
-170.341
0
LINE
8
BLACK
6
CONTINUOUS
10
79.5651
20
-170.341
11
79.5651
21
-169.008
0
LINE
8
BLACK
6
CONTINUOUS
10
79.5651
20
-169.198
11
79.6603
21
-169.103
0
LINE
8
BLACK
6
CONTINUOUS
10
79.6603
20
-169.103
11
79.8508
21
-169.008
0
LINE
8
BLACK
6
CONTINUOUS
10
79.8508
20
-169.008
11
80.1365
21
-169.008
0
LINE
8
BLACK
6
CONTINUOUS
10
80.1365
20
-169.008
11
80.327
21
-169.103
0
LINE
8
BLACK
6
CONTINUOUS
10
80.327
20
-169.103
11
80.4222
21
-169.293
0
LINE
8
BLACK
6
CONTINUOUS
10
80.4222
20
-169.293
11
80.4222
21
-170.341
0
LINE
8
BLACK
6
CONTINUOUS
10
80.4222
20
-169.293
11
80.5174
21
-169.103
0
LINE
8
BLACK
6
CONTINUOUS
10
80.5174
20
-169.103
11
80.7079
21
-169.008
0
LINE
8
BLACK
6
CONTINUOUS
10
80.7079
20
-169.008
11
80.9936
21
-169.008
0
LINE
8
BLACK
6
CONTINUOUS
10
80.9936
20
-169.008
11
81.1841
21
-169.103
0
LINE
8
BLACK
6
CONTINUOUS
10
81.1841
20
-169.103
11
81.2793
21
-169.293
0
LINE
8
BLACK
6
CONTINUOUS
10
81.2793
20
-169.293
11
81.2793
21
-170.341
0
LINE
8
BLACK
6
CONTINUOUS
10
85.1841
20
-168.246
11
83.4698
21
-170.817
0
LINE
8
BLACK
6
CONTINUOUS
10
87.7555
20
-168.341
11
87.946
21
-168.341
0
LINE
8
BLACK
6
CONTINUOUS
10
87.946
20
-168.341
11
88.1365
21
-168.436
0
LINE
8
BLACK
6
CONTINUOUS
10
88.1365
20
-168.436
11
88.2317
21
-168.532
0
LINE
8
BLACK
6
CONTINUOUS
10
88.2317
20
-168.532
11
88.327
21
-168.722
0
LINE
8
BLACK
6
CONTINUOUS
10
88.327
20
-168.722
11
88.4222
21
-169.103
0
LINE
8
BLACK
6
CONTINUOUS
10
88.4222
20
-169.103
11
88.4222
21
-169.579
0
LINE
8
BLACK
6
CONTINUOUS
10
88.4222
20
-169.579
11
88.327
21
-169.96
0
LINE
8
BLACK
6
CONTINUOUS
10
88.327
20
-169.96
11
88.2317
21
-170.151
0
LINE
8
BLACK
6
CONTINUOUS
10
88.2317
20
-170.151
11
88.1365
21
-170.246
0
LINE
8
BLACK
6
CONTINUOUS
10
88.1365
20
-170.246
11
87.946
21
-170.341
0
LINE
8
BLACK
6
CONTINUOUS
10
87.946
20
-170.341
11
87.7555
21
-170.341
0
LINE
8
BLACK
6
CONTINUOUS
10
87.7555
20
-170.341
11
87.5651
21
-170.246
0
LINE
8
BLACK
6
CONTINUOUS
10
87.5651
20
-170.246
11
87.4698
21
-170.151
0
LINE
8
BLACK
6
CONTINUOUS
10
87.4698
20
-170.151
11
87.3746
21
-169.96
0
LINE
8
BLACK
6
CONTINUOUS
10
87.3746
20
-169.96
11
87.2793
21
-169.579
0
LINE
8
BLACK
6
CONTINUOUS
10
87.2793
20
-169.579
11
87.2793
21
-169.103
0
LINE
8
BLACK
6
CONTINUOUS
10
87.2793
20
-169.103
11
87.3746
21
-168.722
0
LINE
8
BLACK
6
CONTINUOUS
10
87.3746
20
-168.722
11
87.4698
21
-168.532
0
LINE
8
BLACK
6
CONTINUOUS
10
87.4698
20
-168.532
11
87.5651
21
-168.436
0
LINE
8
BLACK
6
CONTINUOUS
10
87.5651
20
-168.436
11
87.7555
21
-168.341
0
LINE
8
BLACK
6
CONTINUOUS
10
89.2793
20
-170.151
11
89.3746
21
-170.246
0
LINE
8
BLACK
6
CONTINUOUS
10
89.3746
20
-170.246
11
89.2793
21
-170.341
0
LINE
8
BLACK
6
CONTINUOUS
10
89.2793
20
-170.341
11
89.1841
21
-170.246
0
LINE
8
BLACK
6
CONTINUOUS
10
89.1841
20
-170.246
11
89.2793
21
-170.151
0
LINE
8
BLACK
6
CONTINUOUS
10
89.2793
20
-170.151
11
89.2793
21
-170.341
0
LINE
8
BLACK
6
CONTINUOUS
10
90.6127
20
-168.341
11
90.8032
21
-168.341
0
LINE
8
BLACK
6
CONTINUOUS
10
90.8032
20
-168.341
11
90.9936
21
-168.436
0
LINE
8
BLACK
6
CONTINUOUS
10
90.9936
20
-168.436
11
91.0889
21
-168.532
0
LINE
8
BLACK
6
CONTINUOUS
10
91.0889
20
-168.532
11
91.1841
21
-168.722
0
LINE
8
BLACK
6
CONTINUOUS
10
91.1841
20
-168.722
11
91.2793
21
-169.103
0
LINE
8
BLACK
6
CONTINUOUS
10
91.2793
20
-169.103
11
91.2793
21
-169.579
0
LINE
8
BLACK
6
CONTINUOUS
10
91.2793
20
-169.579
11
91.1841
21
-169.96
0
LINE
8
BLACK
6
CONTINUOUS
10
91.1841
20
-169.96
11
91.0889
21
-170.151
0
LINE
8
BLACK
6
CONTINUOUS
10
91.0889
20
-170.151
11
90.9936
21
-170.246
0
LINE
8
BLACK
6
CONTINUOUS
10
90.9936
20
-170.246
11
90.8032
21
-170.341
0
LINE
8
BLACK
6
CONTINUOUS
10
90.8032
20
-170.341
11
90.6127
21
-170.341
0
LINE
8
BLACK
6
CONTINUOUS
10
90.6127
20
-170.341
11
90.4222
21
-170.246
0
LINE
8
BLACK
6
CONTINUOUS
10
90.4222
20
-170.246
11
90.327
21
-170.151
0
LINE
8
BLACK
6
CONTINUOUS
10
90.327
20
-170.151
11
90.2317
21
-169.96
0
LINE
8
BLACK
6
CONTINUOUS
10
90.2317
20
-169.96
11
90.1365
21
-169.579
0
LINE
8
BLACK
6
CONTINUOUS
10
90.1365
20
-169.579
11
90.1365
21
-169.103
0
LINE
8
BLACK
6
CONTINUOUS
10
90.1365
20
-169.103
11
90.2317
21
-168.722
0
LINE
8
BLACK
6
CONTINUOUS
10
90.2317
20
-168.722
11
90.327
21
-168.532
0
LINE
8
BLACK
6
CONTINUOUS
10
90.327
20
-168.532
11
90.4222
21
-168.436
0
LINE
8
BLACK
6
CONTINUOUS
10
90.4222
20
-168.436
11
90.6127
21
-168.341
0
LINE
8
BLACK
6
CONTINUOUS
10
92.9936
20
-169.008
11
92.9936
21
-170.341
0
LINE
8
BLACK
6
CONTINUOUS
10
92.5174
20
-168.246
11
92.0413
21
-169.674
0
LINE
8
BLACK
6
CONTINUOUS
10
92.0413
20
-169.674
11
93.2793
21
-169.674
0
LINE
8
BLACK
6
CONTINUOUS
10
94.4222
20
-168.341
11
94.6127
21
-168.341
0
LINE
8
BLACK
6
CONTINUOUS
10
94.6127
20
-168.341
11
94.8032
21
-168.436
0
LINE
8
BLACK
6
CONTINUOUS
10
94.8032
20
-168.436
11
94.8984
21
-168.532
0
LINE
8
BLACK
6
CONTINUOUS
10
94.8984
20
-168.532
11
94.9936
21
-168.722
0
LINE
8
BLACK
6
CONTINUOUS
10
94.9936
20
-168.722
11
95.0889
21
-169.103
0
LINE
8
BLACK
6
CONTINUOUS
10
95.0889
20
-169.103
11
95.0889
21
-169.579
0
LINE
8
BLACK
6
CONTINUOUS
10
95.0889
20
-169.579
11
94.9936
21
-169.96
0
LINE
8
BLACK
6
CONTINUOUS
10
94.9936
20
-169.96
11
94.8984
21
-170.151
0
LINE
8
BLACK
6
CONTINUOUS
10
94.8984
20
-170.151
11
94.8032
21
-170.246
0
LINE
8
BLACK
6
CONTINUOUS
10
94.8032
20
-170.246
11
94.6127
21
-170.341
0
LINE
8
BLACK
6
CONTINUOUS
10
94.6127
20
-170.341
11
94.4222
21
-170.341
0
LINE
8
BLACK
6
CONTINUOUS
10
94.4222
20
-170.341
11
94.2317
21
-170.246
0
LINE
8
BLACK
6
CONTINUOUS
10
94.2317
20
-170.246
11
94.1365
21
-170.151
0
LINE
8
BLACK
6
CONTINUOUS
10
94.1365
20
-170.151
11
94.0413
21
-169.96
0
LINE
8
BLACK
6
CONTINUOUS
10
94.0413
20
-169.96
11
93.946
21
-169.579
0
LINE
8
BLACK
6
CONTINUOUS
10
93.946
20
-169.579
11
93.946
21
-169.103
0
LINE
8
BLACK
6
CONTINUOUS
10
93.946
20
-169.103
11
94.0413
21
-168.722
0
LINE
8
BLACK
6
CONTINUOUS
10
94.0413
20
-168.722
11
94.1365
21
-168.532
0
LINE
8
BLACK
6
CONTINUOUS
10
94.1365
20
-168.532
11
94.2317
21
-168.436
0
LINE
8
BLACK
6
CONTINUOUS
10
94.2317
20
-168.436
11
94.4222
21
-168.341
0
LINE
8
BLACK
6
CONTINUOUS
10
95.8508
20
-168.532
11
95.946
21
-168.436
0
LINE
8
BLACK
6
CONTINUOUS
10
95.946
20
-168.436
11
96.1365
21
-168.341
0
LINE
8
BLACK
6
CONTINUOUS
10
96.1365
20
-168.341
11
96.6127
21
-168.341
0
LINE
8
BLACK
6
CONTINUOUS
10
96.6127
20
-168.341
11
96.8032
21
-168.436
0
LINE
8
BLACK
6
CONTINUOUS
10
96.8032
20
-168.436
11
96.8984
21
-168.532
0
LINE
8
BLACK
6
CONTINUOUS
10
96.8984
20
-168.532
11
96.9936
21
-168.722
0
LINE
8
BLACK
6
CONTINUOUS
10
96.9936
20
-168.722
11
96.9936
21
-168.912
0
LINE
8
BLACK
6
CONTINUOUS
10
96.9936
20
-168.912
11
96.8984
21
-169.198
0
LINE
8
BLACK
6
CONTINUOUS
10
96.8984
20
-169.198
11
95.7555
21
-170.341
0
LINE
8
BLACK
6
CONTINUOUS
10
95.7555
20
-170.341
11
96.9936
21
-170.341
0
LINE
8
BLACK
6
CONTINUOUS
10
97.7555
20
-168.341
11
97.7555
21
-168.722
0
LINE
8
BLACK
6
CONTINUOUS
10
98.5174
20
-168.341
11
98.5174
21
-168.722
0
LINE
8
BLACK
6
CONTINUOUS
10
101.47
20
-171.103
11
101.375
21
-171.008
0
LINE
8
BLACK
6
CONTINUOUS
10
101.375
20
-171.008
11
101.184
21
-170.722
0
LINE
8
BLACK
6
CONTINUOUS
10
101.184
20
-170.722
11
101.089
21
-170.532
0
LINE
8
BLACK
6
CONTINUOUS
10
101.089
20
-170.532
11
100.994
21
-170.246
0
LINE
8
BLACK
6
CONTINUOUS
10
100.994
20
-170.246
11
100.898
21
-169.77
0
LINE
8
BLACK
6
CONTINUOUS
10
100.898
20
-169.77
11
100.898
21
-169.389
0
LINE
8
BLACK
6
CONTINUOUS
10
100.898
20
-169.389
11
100.994
21
-168.912
0
LINE
8
BLACK
6
CONTINUOUS
10
100.994
20
-168.912
11
101.089
21
-168.627
0
LINE
8
BLACK
6
CONTINUOUS
10
101.089
20
-168.627
11
101.184
21
-168.436
0
LINE
8
BLACK
6
CONTINUOUS
10
101.184
20
-168.436
11
101.375
21
-168.151
0
LINE
8
BLACK
6
CONTINUOUS
10
101.375
20
-168.151
11
101.47
21
-168.055
0
LINE
8
BLACK
6
CONTINUOUS
10
102.041
20
-168.341
11
103.279
21
-168.341
0
LINE
8
BLACK
6
CONTINUOUS
10
103.279
20
-168.341
11
102.613
21
-169.103
0
LINE
8
BLACK
6
CONTINUOUS
10
102.613
20
-169.103
11
102.898
21
-169.103
0
LINE
8
BLACK
6
CONTINUOUS
10
102.898
20
-169.103
11
103.089
21
-169.198
0
LINE
8
BLACK
6
CONTINUOUS
10
103.089
20
-169.198
11
103.184
21
-169.293
0
LINE
8
BLACK
6
CONTINUOUS
10
103.184
20
-169.293
11
103.279
21
-169.484
0
LINE
8
BLACK
6
CONTINUOUS
10
103.279
20
-169.484
11
103.279
21
-169.96
0
LINE
8
BLACK
6
CONTINUOUS
10
103.279
20
-169.96
11
103.184
21
-170.151
0
LINE
8
BLACK
6
CONTINUOUS
10
103.184
20
-170.151
11
103.089
21
-170.246
0
LINE
8
BLACK
6
CONTINUOUS
10
103.089
20
-170.246
11
102.898
21
-170.341
0
LINE
8
BLACK
6
CONTINUOUS
10
102.898
20
-170.341
11
102.327
21
-170.341
0
LINE
8
BLACK
6
CONTINUOUS
10
102.327
20
-170.341
11
102.136
21
-170.246
0
LINE
8
BLACK
6
CONTINUOUS
10
102.136
20
-170.246
11
102.041
21
-170.151
0
LINE
8
BLACK
6
CONTINUOUS
10
105.66
20
-170.341
11
105.66
21
-168.341
0
LINE
8
BLACK
6
CONTINUOUS
10
106.517
20
-170.341
11
106.517
21
-169.293
0
LINE
8
BLACK
6
CONTINUOUS
10
106.517
20
-169.293
11
106.422
21
-169.103
0
LINE
8
BLACK
6
CONTINUOUS
10
106.422
20
-169.103
11
106.232
21
-169.008
0
LINE
8
BLACK
6
CONTINUOUS
10
106.232
20
-169.008
11
105.946
21
-169.008
0
LINE
8
BLACK
6
CONTINUOUS
10
105.946
20
-169.008
11
105.756
21
-169.103
0
LINE
8
BLACK
6
CONTINUOUS
10
105.756
20
-169.103
11
105.66
21
-169.198
0
LINE
8
BLACK
6
CONTINUOUS
10
107.756
20
-170.341
11
107.565
21
-170.246
0
LINE
8
BLACK
6
CONTINUOUS
10
107.565
20
-170.246
11
107.47
21
-170.151
0
LINE
8
BLACK
6
CONTINUOUS
10
107.47
20
-170.151
11
107.375
21
-169.96
0
LINE
8
BLACK
6
CONTINUOUS
10
107.375
20
-169.96
11
107.375
21
-169.389
0
LINE
8
BLACK
6
CONTINUOUS
10
107.375
20
-169.389
11
107.47
21
-169.198
0
LINE
8
BLACK
6
CONTINUOUS
10
107.47
20
-169.198
11
107.565
21
-169.103
0
LINE
8
BLACK
6
CONTINUOUS
10
107.565
20
-169.103
11
107.756
21
-169.008
0
LINE
8
BLACK
6
CONTINUOUS
10
107.756
20
-169.008
11
108.041
21
-169.008
0
LINE
8
BLACK
6
CONTINUOUS
10
108.041
20
-169.008
11
108.232
21
-169.103
0
LINE
8
BLACK
6
CONTINUOUS
10
108.232
20
-169.103
11
108.327
21
-169.198
0
LINE
8
BLACK
6
CONTINUOUS
10
108.327
20
-169.198
11
108.422
21
-169.389
0
LINE
8
BLACK
6
CONTINUOUS
10
108.422
20
-169.389
11
108.422
21
-169.96
0
LINE
8
BLACK
6
CONTINUOUS
10
108.422
20
-169.96
11
108.327
21
-170.151
0
LINE
8
BLACK
6
CONTINUOUS
10
108.327
20
-170.151
11
108.232
21
-170.246
0
LINE
8
BLACK
6
CONTINUOUS
10
108.232
20
-170.246
11
108.041
21
-170.341
0
LINE
8
BLACK
6
CONTINUOUS
10
108.041
20
-170.341
11
107.756
21
-170.341
0
LINE
8
BLACK
6
CONTINUOUS
10
109.565
20
-170.341
11
109.375
21
-170.246
0
LINE
8
BLACK
6
CONTINUOUS
10
109.375
20
-170.246
11
109.279
21
-170.055
0
LINE
8
BLACK
6
CONTINUOUS
10
109.279
20
-170.055
11
109.279
21
-168.341
0
LINE
8
BLACK
6
CONTINUOUS
10
111.089
20
-170.246
11
110.898
21
-170.341
0
LINE
8
BLACK
6
CONTINUOUS
10
110.898
20
-170.341
11
110.517
21
-170.341
0
LINE
8
BLACK
6
CONTINUOUS
10
110.517
20
-170.341
11
110.327
21
-170.246
0
LINE
8
BLACK
6
CONTINUOUS
10
110.327
20
-170.246
11
110.232
21
-170.055
0
LINE
8
BLACK
6
CONTINUOUS
10
110.232
20
-170.055
11
110.232
21
-169.293
0
LINE
8
BLACK
6
CONTINUOUS
10
110.232
20
-169.293
11
110.327
21
-169.103
0
LINE
8
BLACK
6
CONTINUOUS
10
110.327
20
-169.103
11
110.517
21
-169.008
0
LINE
8
BLACK
6
CONTINUOUS
10
110.517
20
-169.008
11
110.898
21
-169.008
0
LINE
8
BLACK
6
CONTINUOUS
10
110.898
20
-169.008
11
111.089
21
-169.103
0
LINE
8
BLACK
6
CONTINUOUS
10
111.089
20
-169.103
11
111.184
21
-169.293
0
LINE
8
BLACK
6
CONTINUOUS
10
111.184
20
-169.293
11
111.184
21
-169.484
0
LINE
8
BLACK
6
CONTINUOUS
10
111.184
20
-169.484
11
110.232
21
-169.674
0
LINE
8
BLACK
6
CONTINUOUS
10
111.946
20
-170.246
11
112.136
21
-170.341
0
LINE
8
BLACK
6
CONTINUOUS
10
112.136
20
-170.341
11
112.517
21
-170.341
0
LINE
8
BLACK
6
CONTINUOUS
10
112.517
20
-170.341
11
112.708
21
-170.246
0
LINE
8
BLACK
6
CONTINUOUS
10
112.708
20
-170.246
11
112.803
21
-170.055
0
LINE
8
BLACK
6
CONTINUOUS
10
112.803
20
-170.055
11
112.803
21
-169.96
0
LINE
8
BLACK
6
CONTINUOUS
10
112.803
20
-169.96
11
112.708
21
-169.77
0
LINE
8
BLACK
6
CONTINUOUS
10
112.708
20
-169.77
11
112.517
21
-169.674
0
LINE
8
BLACK
6
CONTINUOUS
10
112.517
20
-169.674
11
112.232
21
-169.674
0
LINE
8
BLACK
6
CONTINUOUS
10
112.232
20
-169.674
11
112.041
21
-169.579
0
LINE
8
BLACK
6
CONTINUOUS
10
112.041
20
-169.579
11
111.946
21
-169.389
0
LINE
8
BLACK
6
CONTINUOUS
10
111.946
20
-169.389
11
111.946
21
-169.293
0
LINE
8
BLACK
6
CONTINUOUS
10
111.946
20
-169.293
11
112.041
21
-169.103
0
LINE
8
BLACK
6
CONTINUOUS
10
112.041
20
-169.103
11
112.232
21
-169.008
0
LINE
8
BLACK
6
CONTINUOUS
10
112.232
20
-169.008
11
112.517
21
-169.008
0
LINE
8
BLACK
6
CONTINUOUS
10
112.517
20
-169.008
11
112.708
21
-169.103
0
LINE
8
BLACK
6
CONTINUOUS
10
113.47
20
-171.103
11
113.565
21
-171.008
0
LINE
8
BLACK
6
CONTINUOUS
10
113.565
20
-171.008
11
113.756
21
-170.722
0
LINE
8
BLACK
6
CONTINUOUS
10
113.756
20
-170.722
11
113.851
21
-170.532
0
LINE
8
BLACK
6
CONTINUOUS
10
113.851
20
-170.532
11
113.946
21
-170.246
0
LINE
8
BLACK
6
CONTINUOUS
10
113.946
20
-170.246
11
114.041
21
-169.77
0
LINE
8
BLACK
6
CONTINUOUS
10
114.041
20
-169.77
11
114.041
21
-169.389
0
LINE
8
BLACK
6
CONTINUOUS
10
114.041
20
-169.389
11
113.946
21
-168.912
0
LINE
8
BLACK
6
CONTINUOUS
10
113.946
20
-168.912
11
113.851
21
-168.627
0
LINE
8
BLACK
6
CONTINUOUS
10
113.851
20
-168.627
11
113.756
21
-168.436
0
LINE
8
BLACK
6
CONTINUOUS
10
113.756
20
-168.436
11
113.565
21
-168.151
0
LINE
8
BLACK
6
CONTINUOUS
10
113.565
20
-168.151
11
113.47
21
-168.055
  0
ENDSEC
  0
EOF
