M48
; DRILL file {KiCad (6.0.7)} date Tue Nov 29 16:33:56 2022
; FORMAT={-:-/ absolute / metric / decimal}
; #@! TF.CreationDate,2022-11-29T16:33:56-07:00
; #@! TF.GenerationSoftware,Kicad,Pcbnew,(6.0.7)
; #@! TF.FileFunction,Plated,1,2,PTH
FMAT,2
METRIC
; #@! TA.AperFunction,Plated,PTH,ViaDrill
T1C0.400
; #@! TA.AperFunction,Plated,PTH,ComponentDrill
T2C0.762
; #@! TA.AperFunction,Plated,PTH,ComponentDrill
T3C1.000
; #@! TA.AperFunction,Plated,PTH,ComponentDrill
T4C1.020
%
G90
G05
T1
X66.956Y-137.029
X68.318Y-147.935
X71.334Y-141.24
X72.191Y-153.484
X76.926Y-144.771
X76.932Y-138.756
X76.952Y-137.048
X76.956Y-143.131
X77.076Y-146.169
X77.374Y-148.395
X77.81Y-153.499
X78.748Y-148.502
X79.375Y-137.137
X88.379Y-138.8
X90.048Y-152.312
X93.929Y-150.433
X93.934Y-140.335
X94.568Y-141.994
X94.583Y-146.876
X95.876Y-135.987
X97.361Y-141.835
X108.452Y-133.901
X118.195Y-141.835
X128.639Y-139.956
X130.469Y-134.849
X130.543Y-140.452
X131.913Y-135.007
X132.08Y-144.78
X132.08Y-149.86
X133.959Y-133.24
X134.606Y-134.841
X134.62Y-137.16
X139.7Y-149.86
X139.775Y-141.296
T2
X103.553Y-97.133
T3
X96.52Y-152.4
X99.06Y-152.4
X101.6Y-152.4
X104.14Y-152.4
X106.68Y-152.4
X109.22Y-152.4
X111.76Y-152.4
X114.3Y-152.4
X116.84Y-152.4
X119.38Y-152.4
X121.92Y-152.4
X124.46Y-152.4
X127.0Y-152.4
X129.54Y-152.4
X132.08Y-152.4
X134.62Y-152.4
T4
X97.766Y-132.243
X100.306Y-132.243
X102.846Y-132.243
T0
M30
