  0
SECTION
  2
HEADER
  9
$ANGBASE
  50
0.0
  9
$ANGDIR
  70
1
  9
$MEASUREMENT
  70
1
  0
ENDSEC
  0
SECTION
  2
TABLES
  0
TABLE
  2
LTYPE
  70
4
  0
LTYPE
  5
40F
  2
CONTINUOUS
  70
0
  3
Solid line
  72
65
  73
0
  40
0.0
  0
LTYPE
  5
410
  2
DASHDOT
 70
0
  3
Dash Dot ____ _ ____ _
 72
65
 73
4
 40
2.0
 49
1.25
 49
-0.25
 49
0.25
 49
-0.25
  0
LTYPE
  5
411
  2
DASHED
 70
0
  3
Dashed __ __ __ __ __
 72
65
 73
2
 40
0.75
 49
0.5
 49
-0.25
  0
LTYPE
  5
43B
  2
DOTTED
 70
0
  3
Dotted .  .  .  .
 72
65
 73
2
 40
0.2
 49
0.0
 49
-0.2
  0
ENDTAB
  0
TABLE
  2
STYLE
  70
4
  0
STYLE
  2
KICAD
  70
0
  40
0
  41
1
  42
1
  50
0
  71
0
  3
isocp.shx
  0
STYLE
  2
KICADB
  70
0
  40
0
  41
1
  42
1
  50
0
  71
0
  3
isocp.shx
  0
STYLE
  2
KICADI
  70
0
  40
0
  41
1
  42
1
  50
15
  71
0
  3
isocp.shx
  0
STYLE
  2
KICADBI
  70
0
  40
0
  41
1
  42
1
  50
15
  71
0
  3
isocp.shx
  0
ENDTAB
  0
TABLE
  2
LAYER
  70
1
  0
LAYER
  2
BLACK
  70
0
  62
7
  6
CONTINUOUS
  0
ENDTAB
  0
ENDSEC
  0
SECTION
  2
ENTITIES
0
LINE
8
BLACK
6
CONTINUOUS
10
98.7298
20
-88.6315
11
108.353
21
-88.6315
0
LINE
8
BLACK
6
CONTINUOUS
10
108.353
20
-95.9838
11
98.7298
21
-95.9838
0
LINE
8
BLACK
6
CONTINUOUS
10
98.7298
20
-95.9838
11
98.7298
21
-88.6315
0
LINE
8
BLACK
6
CONTINUOUS
10
65.8508
20
-55.9563
11
140.883
21
-55.9563
0
LINE
8
BLACK
6
CONTINUOUS
10
140.883
20
-55.9563
11
140.883
21
-155.016
0
LINE
8
BLACK
6
CONTINUOUS
10
140.883
20
-155.016
11
65.8508
21
-155.016
0
LINE
8
BLACK
6
CONTINUOUS
10
65.8508
20
-155.016
11
65.8508
21
-55.9563
0
LINE
8
BLACK
6
CONTINUOUS
10
108.353
20
-88.6315
11
108.353
21
-95.9838
0
LINE
8
BLACK
6
CONTINUOUS
10
67.3505
20
-151.309
11
69.4505
21
-153.409
0
LINE
8
BLACK
6
CONTINUOUS
10
69.4505
20
-151.309
11
67.3505
21
-153.409
0
LINE
8
BLACK
6
CONTINUOUS
10
67.53
20
-131.03
11
69.63
21
-133.13
0
LINE
8
BLACK
6
CONTINUOUS
10
69.63
20
-131.03
11
67.53
21
-133.13
0
LINE
8
BLACK
6
CONTINUOUS
10
113.25
20
-131.03
11
115.35
21
-133.13
0
LINE
8
BLACK
6
CONTINUOUS
10
115.35
20
-131.03
11
113.25
21
-133.13
0
LINE
8
BLACK
6
CONTINUOUS
10
137.37
20
-151.549
11
139.47
21
-153.649
0
LINE
8
BLACK
6
CONTINUOUS
10
139.47
20
-151.549
11
137.37
21
-153.649
0
LINE
8
BLACK
6
CONTINUOUS
10
68.327
20
-158.221
11
68.327
21
-156.221
0
LINE
8
BLACK
6
CONTINUOUS
10
68.327
20
-156.221
11
68.8032
21
-156.221
0
LINE
8
BLACK
6
CONTINUOUS
10
68.8032
20
-156.221
11
69.0889
21
-156.316
0
LINE
8
BLACK
6
CONTINUOUS
10
69.0889
20
-156.316
11
69.2793
21
-156.507
0
LINE
8
BLACK
6
CONTINUOUS
10
69.2793
20
-156.507
11
69.3746
21
-156.697
0
LINE
8
BLACK
6
CONTINUOUS
10
69.3746
20
-156.697
11
69.4698
21
-157.078
0
LINE
8
BLACK
6
CONTINUOUS
10
69.4698
20
-157.078
11
69.4698
21
-157.364
0
LINE
8
BLACK
6
CONTINUOUS
10
69.4698
20
-157.364
11
69.3746
21
-157.745
0
LINE
8
BLACK
6
CONTINUOUS
10
69.3746
20
-157.745
11
69.2793
21
-157.935
0
LINE
8
BLACK
6
CONTINUOUS
10
69.2793
20
-157.935
11
69.0889
21
-158.126
0
LINE
8
BLACK
6
CONTINUOUS
10
69.0889
20
-158.126
11
68.8032
21
-158.221
0
LINE
8
BLACK
6
CONTINUOUS
10
68.8032
20
-158.221
11
68.327
21
-158.221
0
LINE
8
BLACK
6
CONTINUOUS
10
70.327
20
-158.221
11
70.327
21
-156.888
0
LINE
8
BLACK
6
CONTINUOUS
10
70.327
20
-157.269
11
70.4222
21
-157.078
0
LINE
8
BLACK
6
CONTINUOUS
10
70.4222
20
-157.078
11
70.5174
21
-156.983
0
LINE
8
BLACK
6
CONTINUOUS
10
70.5174
20
-156.983
11
70.7079
21
-156.888
0
LINE
8
BLACK
6
CONTINUOUS
10
70.7079
20
-156.888
11
70.8984
21
-156.888
0
LINE
8
BLACK
6
CONTINUOUS
10
71.5651
20
-158.221
11
71.5651
21
-156.888
0
LINE
8
BLACK
6
CONTINUOUS
10
71.5651
20
-156.221
11
71.4698
21
-156.316
0
LINE
8
BLACK
6
CONTINUOUS
10
71.4698
20
-156.316
11
71.5651
21
-156.412
0
LINE
8
BLACK
6
CONTINUOUS
10
71.5651
20
-156.412
11
71.6603
21
-156.316
0
LINE
8
BLACK
6
CONTINUOUS
10
71.6603
20
-156.316
11
71.5651
21
-156.221
0
LINE
8
BLACK
6
CONTINUOUS
10
71.5651
20
-156.221
11
71.5651
21
-156.412
0
LINE
8
BLACK
6
CONTINUOUS
10
72.8032
20
-158.221
11
72.6127
21
-158.126
0
LINE
8
BLACK
6
CONTINUOUS
10
72.6127
20
-158.126
11
72.5174
21
-157.935
0
LINE
8
BLACK
6
CONTINUOUS
10
72.5174
20
-157.935
11
72.5174
21
-156.221
0
LINE
8
BLACK
6
CONTINUOUS
10
73.8508
20
-158.221
11
73.6603
21
-158.126
0
LINE
8
BLACK
6
CONTINUOUS
10
73.6603
20
-158.126
11
73.5651
21
-157.935
0
LINE
8
BLACK
6
CONTINUOUS
10
73.5651
20
-157.935
11
73.5651
21
-156.221
0
LINE
8
BLACK
6
CONTINUOUS
10
76.1365
20
-158.221
11
76.1365
21
-156.221
0
LINE
8
BLACK
6
CONTINUOUS
10
76.1365
20
-156.221
11
76.8032
21
-157.65
0
LINE
8
BLACK
6
CONTINUOUS
10
76.8032
20
-157.65
11
77.4698
21
-156.221
0
LINE
8
BLACK
6
CONTINUOUS
10
77.4698
20
-156.221
11
77.4698
21
-158.221
0
LINE
8
BLACK
6
CONTINUOUS
10
79.2793
20
-158.221
11
79.2793
21
-157.173
0
LINE
8
BLACK
6
CONTINUOUS
10
79.2793
20
-157.173
11
79.1841
21
-156.983
0
LINE
8
BLACK
6
CONTINUOUS
10
79.1841
20
-156.983
11
78.9936
21
-156.888
0
LINE
8
BLACK
6
CONTINUOUS
10
78.9936
20
-156.888
11
78.6127
21
-156.888
0
LINE
8
BLACK
6
CONTINUOUS
10
78.6127
20
-156.888
11
78.4222
21
-156.983
0
LINE
8
BLACK
6
CONTINUOUS
10
79.2793
20
-158.126
11
79.0889
21
-158.221
0
LINE
8
BLACK
6
CONTINUOUS
10
79.0889
20
-158.221
11
78.6127
21
-158.221
0
LINE
8
BLACK
6
CONTINUOUS
10
78.6127
20
-158.221
11
78.4222
21
-158.126
0
LINE
8
BLACK
6
CONTINUOUS
10
78.4222
20
-158.126
11
78.327
21
-157.935
0
LINE
8
BLACK
6
CONTINUOUS
10
78.327
20
-157.935
11
78.327
21
-157.745
0
LINE
8
BLACK
6
CONTINUOUS
10
78.327
20
-157.745
11
78.4222
21
-157.554
0
LINE
8
BLACK
6
CONTINUOUS
10
78.4222
20
-157.554
11
78.6127
21
-157.459
0
LINE
8
BLACK
6
CONTINUOUS
10
78.6127
20
-157.459
11
79.0889
21
-157.459
0
LINE
8
BLACK
6
CONTINUOUS
10
79.0889
20
-157.459
11
79.2793
21
-157.364
0
LINE
8
BLACK
6
CONTINUOUS
10
80.2317
20
-156.888
11
80.2317
21
-158.888
0
LINE
8
BLACK
6
CONTINUOUS
10
80.2317
20
-156.983
11
80.4222
21
-156.888
0
LINE
8
BLACK
6
CONTINUOUS
10
80.4222
20
-156.888
11
80.8032
21
-156.888
0
LINE
8
BLACK
6
CONTINUOUS
10
80.8032
20
-156.888
11
80.9936
21
-156.983
0
LINE
8
BLACK
6
CONTINUOUS
10
80.9936
20
-156.983
11
81.0889
21
-157.078
0
LINE
8
BLACK
6
CONTINUOUS
10
81.0889
20
-157.078
11
81.1841
21
-157.269
0
LINE
8
BLACK
6
CONTINUOUS
10
81.1841
20
-157.269
11
81.1841
21
-157.84
0
LINE
8
BLACK
6
CONTINUOUS
10
81.1841
20
-157.84
11
81.0889
21
-158.031
0
LINE
8
BLACK
6
CONTINUOUS
10
81.0889
20
-158.031
11
80.9936
21
-158.126
0
LINE
8
BLACK
6
CONTINUOUS
10
80.9936
20
-158.126
11
80.8032
21
-158.221
0
LINE
8
BLACK
6
CONTINUOUS
10
80.8032
20
-158.221
11
80.4222
21
-158.221
0
LINE
8
BLACK
6
CONTINUOUS
10
80.4222
20
-158.221
11
80.2317
21
-158.126
0
LINE
8
BLACK
6
CONTINUOUS
10
82.0413
20
-158.031
11
82.1365
21
-158.126
0
LINE
8
BLACK
6
CONTINUOUS
10
82.1365
20
-158.126
11
82.0413
21
-158.221
0
LINE
8
BLACK
6
CONTINUOUS
10
82.0413
20
-158.221
11
81.946
21
-158.126
0
LINE
8
BLACK
6
CONTINUOUS
10
81.946
20
-158.126
11
82.0413
21
-158.031
0
LINE
8
BLACK
6
CONTINUOUS
10
82.0413
20
-158.031
11
82.0413
21
-158.221
0
LINE
8
BLACK
6
CONTINUOUS
10
82.0413
20
-156.983
11
82.1365
21
-157.078
0
LINE
8
BLACK
6
CONTINUOUS
10
82.1365
20
-157.078
11
82.0413
21
-157.173
0
LINE
8
BLACK
6
CONTINUOUS
10
82.0413
20
-157.173
11
81.946
21
-157.078
0
LINE
8
BLACK
6
CONTINUOUS
10
81.946
20
-157.078
11
82.0413
21
-156.983
0
LINE
8
BLACK
6
CONTINUOUS
10
82.0413
20
-156.983
11
82.0413
21
-157.173
0
LINE
8
BLACK
6
CONTINUOUS
10
63.7508
20
-160.516
11
65.7508
21
-162.516
0
LINE
8
BLACK
6
CONTINUOUS
10
65.7508
20
-160.516
11
63.7508
21
-162.516
0
LINE
8
BLACK
6
CONTINUOUS
10
68.2317
20
-160.612
11
68.327
21
-160.516
0
LINE
8
BLACK
6
CONTINUOUS
10
68.327
20
-160.516
11
68.5174
21
-160.421
0
LINE
8
BLACK
6
CONTINUOUS
10
68.5174
20
-160.421
11
68.9936
21
-160.421
0
LINE
8
BLACK
6
CONTINUOUS
10
68.9936
20
-160.421
11
69.1841
21
-160.516
0
LINE
8
BLACK
6
CONTINUOUS
10
69.1841
20
-160.516
11
69.2793
21
-160.612
0
LINE
8
BLACK
6
CONTINUOUS
10
69.2793
20
-160.612
11
69.3746
21
-160.802
0
LINE
8
BLACK
6
CONTINUOUS
10
69.3746
20
-160.802
11
69.3746
21
-160.992
0
LINE
8
BLACK
6
CONTINUOUS
10
69.3746
20
-160.992
11
69.2793
21
-161.278
0
LINE
8
BLACK
6
CONTINUOUS
10
69.2793
20
-161.278
11
68.1365
21
-162.421
0
LINE
8
BLACK
6
CONTINUOUS
10
68.1365
20
-162.421
11
69.3746
21
-162.421
0
LINE
8
BLACK
6
CONTINUOUS
10
70.2317
20
-162.231
11
70.327
21
-162.326
0
LINE
8
BLACK
6
CONTINUOUS
10
70.327
20
-162.326
11
70.2317
21
-162.421
0
LINE
8
BLACK
6
CONTINUOUS
10
70.2317
20
-162.421
11
70.1365
21
-162.326
0
LINE
8
BLACK
6
CONTINUOUS
10
70.1365
20
-162.326
11
70.2317
21
-162.231
0
LINE
8
BLACK
6
CONTINUOUS
10
70.2317
20
-162.231
11
70.2317
21
-162.421
0
LINE
8
BLACK
6
CONTINUOUS
10
72.2317
20
-162.421
11
71.0889
21
-162.421
0
LINE
8
BLACK
6
CONTINUOUS
10
71.6603
20
-162.421
11
71.6603
21
-160.421
0
LINE
8
BLACK
6
CONTINUOUS
10
71.6603
20
-160.421
11
71.4698
21
-160.707
0
LINE
8
BLACK
6
CONTINUOUS
10
71.4698
20
-160.707
11
71.2793
21
-160.897
0
LINE
8
BLACK
6
CONTINUOUS
10
71.2793
20
-160.897
11
71.0889
21
-160.992
0
LINE
8
BLACK
6
CONTINUOUS
10
73.4698
20
-160.421
11
73.6603
21
-160.421
0
LINE
8
BLACK
6
CONTINUOUS
10
73.6603
20
-160.421
11
73.8508
21
-160.516
0
LINE
8
BLACK
6
CONTINUOUS
10
73.8508
20
-160.516
11
73.946
21
-160.612
0
LINE
8
BLACK
6
CONTINUOUS
10
73.946
20
-160.612
11
74.0413
21
-160.802
0
LINE
8
BLACK
6
CONTINUOUS
10
74.0413
20
-160.802
11
74.1365
21
-161.183
0
LINE
8
BLACK
6
CONTINUOUS
10
74.1365
20
-161.183
11
74.1365
21
-161.659
0
LINE
8
BLACK
6
CONTINUOUS
10
74.1365
20
-161.659
11
74.0413
21
-162.04
0
LINE
8
BLACK
6
CONTINUOUS
10
74.0413
20
-162.04
11
73.946
21
-162.231
0
LINE
8
BLACK
6
CONTINUOUS
10
73.946
20
-162.231
11
73.8508
21
-162.326
0
LINE
8
BLACK
6
CONTINUOUS
10
73.8508
20
-162.326
11
73.6603
21
-162.421
0
LINE
8
BLACK
6
CONTINUOUS
10
73.6603
20
-162.421
11
73.4698
21
-162.421
0
LINE
8
BLACK
6
CONTINUOUS
10
73.4698
20
-162.421
11
73.2793
21
-162.326
0
LINE
8
BLACK
6
CONTINUOUS
10
73.2793
20
-162.326
11
73.1841
21
-162.231
0
LINE
8
BLACK
6
CONTINUOUS
10
73.1841
20
-162.231
11
73.0889
21
-162.04
0
LINE
8
BLACK
6
CONTINUOUS
10
73.0889
20
-162.04
11
72.9936
21
-161.659
0
LINE
8
BLACK
6
CONTINUOUS
10
72.9936
20
-161.659
11
72.9936
21
-161.183
0
LINE
8
BLACK
6
CONTINUOUS
10
72.9936
20
-161.183
11
73.0889
21
-160.802
0
LINE
8
BLACK
6
CONTINUOUS
10
73.0889
20
-160.802
11
73.1841
21
-160.612
0
LINE
8
BLACK
6
CONTINUOUS
10
73.1841
20
-160.612
11
73.2793
21
-160.516
0
LINE
8
BLACK
6
CONTINUOUS
10
73.2793
20
-160.516
11
73.4698
21
-160.421
0
LINE
8
BLACK
6
CONTINUOUS
10
75.3746
20
-160.421
11
75.5651
21
-160.421
0
LINE
8
BLACK
6
CONTINUOUS
10
75.5651
20
-160.421
11
75.7555
21
-160.516
0
LINE
8
BLACK
6
CONTINUOUS
10
75.7555
20
-160.516
11
75.8508
21
-160.612
0
LINE
8
BLACK
6
CONTINUOUS
10
75.8508
20
-160.612
11
75.946
21
-160.802
0
LINE
8
BLACK
6
CONTINUOUS
10
75.946
20
-160.802
11
76.0413
21
-161.183
0
LINE
8
BLACK
6
CONTINUOUS
10
76.0413
20
-161.183
11
76.0413
21
-161.659
0
LINE
8
BLACK
6
CONTINUOUS
10
76.0413
20
-161.659
11
75.946
21
-162.04
0
LINE
8
BLACK
6
CONTINUOUS
10
75.946
20
-162.04
11
75.8508
21
-162.231
0
LINE
8
BLACK
6
CONTINUOUS
10
75.8508
20
-162.231
11
75.7555
21
-162.326
0
LINE
8
BLACK
6
CONTINUOUS
10
75.7555
20
-162.326
11
75.5651
21
-162.421
0
LINE
8
BLACK
6
CONTINUOUS
10
75.5651
20
-162.421
11
75.3746
21
-162.421
0
LINE
8
BLACK
6
CONTINUOUS
10
75.3746
20
-162.421
11
75.1841
21
-162.326
0
LINE
8
BLACK
6
CONTINUOUS
10
75.1841
20
-162.326
11
75.0889
21
-162.231
0
LINE
8
BLACK
6
CONTINUOUS
10
75.0889
20
-162.231
11
74.9936
21
-162.04
0
LINE
8
BLACK
6
CONTINUOUS
10
74.9936
20
-162.04
11
74.8984
21
-161.659
0
LINE
8
BLACK
6
CONTINUOUS
10
74.8984
20
-161.659
11
74.8984
21
-161.183
0
LINE
8
BLACK
6
CONTINUOUS
10
74.8984
20
-161.183
11
74.9936
21
-160.802
0
LINE
8
BLACK
6
CONTINUOUS
10
74.9936
20
-160.802
11
75.0889
21
-160.612
0
LINE
8
BLACK
6
CONTINUOUS
10
75.0889
20
-160.612
11
75.1841
21
-160.516
0
LINE
8
BLACK
6
CONTINUOUS
10
75.1841
20
-160.516
11
75.3746
21
-160.421
0
LINE
8
BLACK
6
CONTINUOUS
10
76.8984
20
-162.421
11
76.8984
21
-161.088
0
LINE
8
BLACK
6
CONTINUOUS
10
76.8984
20
-161.278
11
76.9936
21
-161.183
0
LINE
8
BLACK
6
CONTINUOUS
10
76.9936
20
-161.183
11
77.1841
21
-161.088
0
LINE
8
BLACK
6
CONTINUOUS
10
77.1841
20
-161.088
11
77.4698
21
-161.088
0
LINE
8
BLACK
6
CONTINUOUS
10
77.4698
20
-161.088
11
77.6603
21
-161.183
0
LINE
8
BLACK
6
CONTINUOUS
10
77.6603
20
-161.183
11
77.7555
21
-161.373
0
LINE
8
BLACK
6
CONTINUOUS
10
77.7555
20
-161.373
11
77.7555
21
-162.421
0
LINE
8
BLACK
6
CONTINUOUS
10
77.7555
20
-161.373
11
77.8508
21
-161.183
0
LINE
8
BLACK
6
CONTINUOUS
10
77.8508
20
-161.183
11
78.0413
21
-161.088
0
LINE
8
BLACK
6
CONTINUOUS
10
78.0413
20
-161.088
11
78.327
21
-161.088
0
LINE
8
BLACK
6
CONTINUOUS
10
78.327
20
-161.088
11
78.5174
21
-161.183
0
LINE
8
BLACK
6
CONTINUOUS
10
78.5174
20
-161.183
11
78.6127
21
-161.373
0
LINE
8
BLACK
6
CONTINUOUS
10
78.6127
20
-161.373
11
78.6127
21
-162.421
0
LINE
8
BLACK
6
CONTINUOUS
10
79.5651
20
-162.421
11
79.5651
21
-161.088
0
LINE
8
BLACK
6
CONTINUOUS
10
79.5651
20
-161.278
11
79.6603
21
-161.183
0
LINE
8
BLACK
6
CONTINUOUS
10
79.6603
20
-161.183
11
79.8508
21
-161.088
0
LINE
8
BLACK
6
CONTINUOUS
10
79.8508
20
-161.088
11
80.1365
21
-161.088
0
LINE
8
BLACK
6
CONTINUOUS
10
80.1365
20
-161.088
11
80.327
21
-161.183
0
LINE
8
BLACK
6
CONTINUOUS
10
80.327
20
-161.183
11
80.4222
21
-161.373
0
LINE
8
BLACK
6
CONTINUOUS
10
80.4222
20
-161.373
11
80.4222
21
-162.421
0
LINE
8
BLACK
6
CONTINUOUS
10
80.4222
20
-161.373
11
80.5174
21
-161.183
0
LINE
8
BLACK
6
CONTINUOUS
10
80.5174
20
-161.183
11
80.7079
21
-161.088
0
LINE
8
BLACK
6
CONTINUOUS
10
80.7079
20
-161.088
11
80.9936
21
-161.088
0
LINE
8
BLACK
6
CONTINUOUS
10
80.9936
20
-161.088
11
81.1841
21
-161.183
0
LINE
8
BLACK
6
CONTINUOUS
10
81.1841
20
-161.183
11
81.2793
21
-161.373
0
LINE
8
BLACK
6
CONTINUOUS
10
81.2793
20
-161.373
11
81.2793
21
-162.421
0
LINE
8
BLACK
6
CONTINUOUS
10
85.1841
20
-160.326
11
83.4698
21
-162.897
0
LINE
8
BLACK
6
CONTINUOUS
10
87.7555
20
-160.421
11
87.946
21
-160.421
0
LINE
8
BLACK
6
CONTINUOUS
10
87.946
20
-160.421
11
88.1365
21
-160.516
0
LINE
8
BLACK
6
CONTINUOUS
10
88.1365
20
-160.516
11
88.2317
21
-160.612
0
LINE
8
BLACK
6
CONTINUOUS
10
88.2317
20
-160.612
11
88.327
21
-160.802
0
LINE
8
BLACK
6
CONTINUOUS
10
88.327
20
-160.802
11
88.4222
21
-161.183
0
LINE
8
BLACK
6
CONTINUOUS
10
88.4222
20
-161.183
11
88.4222
21
-161.659
0
LINE
8
BLACK
6
CONTINUOUS
10
88.4222
20
-161.659
11
88.327
21
-162.04
0
LINE
8
BLACK
6
CONTINUOUS
10
88.327
20
-162.04
11
88.2317
21
-162.231
0
LINE
8
BLACK
6
CONTINUOUS
10
88.2317
20
-162.231
11
88.1365
21
-162.326
0
LINE
8
BLACK
6
CONTINUOUS
10
88.1365
20
-162.326
11
87.946
21
-162.421
0
LINE
8
BLACK
6
CONTINUOUS
10
87.946
20
-162.421
11
87.7555
21
-162.421
0
LINE
8
BLACK
6
CONTINUOUS
10
87.7555
20
-162.421
11
87.5651
21
-162.326
0
LINE
8
BLACK
6
CONTINUOUS
10
87.5651
20
-162.326
11
87.4698
21
-162.231
0
LINE
8
BLACK
6
CONTINUOUS
10
87.4698
20
-162.231
11
87.3746
21
-162.04
0
LINE
8
BLACK
6
CONTINUOUS
10
87.3746
20
-162.04
11
87.2793
21
-161.659
0
LINE
8
BLACK
6
CONTINUOUS
10
87.2793
20
-161.659
11
87.2793
21
-161.183
0
LINE
8
BLACK
6
CONTINUOUS
10
87.2793
20
-161.183
11
87.3746
21
-160.802
0
LINE
8
BLACK
6
CONTINUOUS
10
87.3746
20
-160.802
11
87.4698
21
-160.612
0
LINE
8
BLACK
6
CONTINUOUS
10
87.4698
20
-160.612
11
87.5651
21
-160.516
0
LINE
8
BLACK
6
CONTINUOUS
10
87.5651
20
-160.516
11
87.7555
21
-160.421
0
LINE
8
BLACK
6
CONTINUOUS
10
89.2793
20
-162.231
11
89.3746
21
-162.326
0
LINE
8
BLACK
6
CONTINUOUS
10
89.3746
20
-162.326
11
89.2793
21
-162.421
0
LINE
8
BLACK
6
CONTINUOUS
10
89.2793
20
-162.421
11
89.1841
21
-162.326
0
LINE
8
BLACK
6
CONTINUOUS
10
89.1841
20
-162.326
11
89.2793
21
-162.231
0
LINE
8
BLACK
6
CONTINUOUS
10
89.2793
20
-162.231
11
89.2793
21
-162.421
0
LINE
8
BLACK
6
CONTINUOUS
10
90.6127
20
-160.421
11
90.8032
21
-160.421
0
LINE
8
BLACK
6
CONTINUOUS
10
90.8032
20
-160.421
11
90.9936
21
-160.516
0
LINE
8
BLACK
6
CONTINUOUS
10
90.9936
20
-160.516
11
91.0889
21
-160.612
0
LINE
8
BLACK
6
CONTINUOUS
10
91.0889
20
-160.612
11
91.1841
21
-160.802
0
LINE
8
BLACK
6
CONTINUOUS
10
91.1841
20
-160.802
11
91.2793
21
-161.183
0
LINE
8
BLACK
6
CONTINUOUS
10
91.2793
20
-161.183
11
91.2793
21
-161.659
0
LINE
8
BLACK
6
CONTINUOUS
10
91.2793
20
-161.659
11
91.1841
21
-162.04
0
LINE
8
BLACK
6
CONTINUOUS
10
91.1841
20
-162.04
11
91.0889
21
-162.231
0
LINE
8
BLACK
6
CONTINUOUS
10
91.0889
20
-162.231
11
90.9936
21
-162.326
0
LINE
8
BLACK
6
CONTINUOUS
10
90.9936
20
-162.326
11
90.8032
21
-162.421
0
LINE
8
BLACK
6
CONTINUOUS
10
90.8032
20
-162.421
11
90.6127
21
-162.421
0
LINE
8
BLACK
6
CONTINUOUS
10
90.6127
20
-162.421
11
90.4222
21
-162.326
0
LINE
8
BLACK
6
CONTINUOUS
10
90.4222
20
-162.326
11
90.327
21
-162.231
0
LINE
8
BLACK
6
CONTINUOUS
10
90.327
20
-162.231
11
90.2317
21
-162.04
0
LINE
8
BLACK
6
CONTINUOUS
10
90.2317
20
-162.04
11
90.1365
21
-161.659
0
LINE
8
BLACK
6
CONTINUOUS
10
90.1365
20
-161.659
11
90.1365
21
-161.183
0
LINE
8
BLACK
6
CONTINUOUS
10
90.1365
20
-161.183
11
90.2317
21
-160.802
0
LINE
8
BLACK
6
CONTINUOUS
10
90.2317
20
-160.802
11
90.327
21
-160.612
0
LINE
8
BLACK
6
CONTINUOUS
10
90.327
20
-160.612
11
90.4222
21
-160.516
0
LINE
8
BLACK
6
CONTINUOUS
10
90.4222
20
-160.516
11
90.6127
21
-160.421
0
LINE
8
BLACK
6
CONTINUOUS
10
92.4222
20
-161.278
11
92.2317
21
-161.183
0
LINE
8
BLACK
6
CONTINUOUS
10
92.2317
20
-161.183
11
92.1365
21
-161.088
0
LINE
8
BLACK
6
CONTINUOUS
10
92.1365
20
-161.088
11
92.0413
21
-160.897
0
LINE
8
BLACK
6
CONTINUOUS
10
92.0413
20
-160.897
11
92.0413
21
-160.802
0
LINE
8
BLACK
6
CONTINUOUS
10
92.0413
20
-160.802
11
92.1365
21
-160.612
0
LINE
8
BLACK
6
CONTINUOUS
10
92.1365
20
-160.612
11
92.2317
21
-160.516
0
LINE
8
BLACK
6
CONTINUOUS
10
92.2317
20
-160.516
11
92.4222
21
-160.421
0
LINE
8
BLACK
6
CONTINUOUS
10
92.4222
20
-160.421
11
92.8032
21
-160.421
0
LINE
8
BLACK
6
CONTINUOUS
10
92.8032
20
-160.421
11
92.9936
21
-160.516
0
LINE
8
BLACK
6
CONTINUOUS
10
92.9936
20
-160.516
11
93.0889
21
-160.612
0
LINE
8
BLACK
6
CONTINUOUS
10
93.0889
20
-160.612
11
93.1841
21
-160.802
0
LINE
8
BLACK
6
CONTINUOUS
10
93.1841
20
-160.802
11
93.1841
21
-160.897
0
LINE
8
BLACK
6
CONTINUOUS
10
93.1841
20
-160.897
11
93.0889
21
-161.088
0
LINE
8
BLACK
6
CONTINUOUS
10
93.0889
20
-161.088
11
92.9936
21
-161.183
0
LINE
8
BLACK
6
CONTINUOUS
10
92.9936
20
-161.183
11
92.8032
21
-161.278
0
LINE
8
BLACK
6
CONTINUOUS
10
92.8032
20
-161.278
11
92.4222
21
-161.278
0
LINE
8
BLACK
6
CONTINUOUS
10
92.4222
20
-161.278
11
92.2317
21
-161.373
0
LINE
8
BLACK
6
CONTINUOUS
10
92.2317
20
-161.373
11
92.1365
21
-161.469
0
LINE
8
BLACK
6
CONTINUOUS
10
92.1365
20
-161.469
11
92.0413
21
-161.659
0
LINE
8
BLACK
6
CONTINUOUS
10
92.0413
20
-161.659
11
92.0413
21
-162.04
0
LINE
8
BLACK
6
CONTINUOUS
10
92.0413
20
-162.04
11
92.1365
21
-162.231
0
LINE
8
BLACK
6
CONTINUOUS
10
92.1365
20
-162.231
11
92.2317
21
-162.326
0
LINE
8
BLACK
6
CONTINUOUS
10
92.2317
20
-162.326
11
92.4222
21
-162.421
0
LINE
8
BLACK
6
CONTINUOUS
10
92.4222
20
-162.421
11
92.8032
21
-162.421
0
LINE
8
BLACK
6
CONTINUOUS
10
92.8032
20
-162.421
11
92.9936
21
-162.326
0
LINE
8
BLACK
6
CONTINUOUS
10
92.9936
20
-162.326
11
93.0889
21
-162.231
0
LINE
8
BLACK
6
CONTINUOUS
10
93.0889
20
-162.231
11
93.1841
21
-162.04
0
LINE
8
BLACK
6
CONTINUOUS
10
93.1841
20
-162.04
11
93.1841
21
-161.659
0
LINE
8
BLACK
6
CONTINUOUS
10
93.1841
20
-161.659
11
93.0889
21
-161.469
0
LINE
8
BLACK
6
CONTINUOUS
10
93.0889
20
-161.469
11
92.9936
21
-161.373
0
LINE
8
BLACK
6
CONTINUOUS
10
92.9936
20
-161.373
11
92.8032
21
-161.278
0
LINE
8
BLACK
6
CONTINUOUS
10
93.946
20
-160.612
11
94.0413
21
-160.516
0
LINE
8
BLACK
6
CONTINUOUS
10
94.0413
20
-160.516
11
94.2317
21
-160.421
0
LINE
8
BLACK
6
CONTINUOUS
10
94.2317
20
-160.421
11
94.7079
21
-160.421
0
LINE
8
BLACK
6
CONTINUOUS
10
94.7079
20
-160.421
11
94.8984
21
-160.516
0
LINE
8
BLACK
6
CONTINUOUS
10
94.8984
20
-160.516
11
94.9936
21
-160.612
0
LINE
8
BLACK
6
CONTINUOUS
10
94.9936
20
-160.612
11
95.0889
21
-160.802
0
LINE
8
BLACK
6
CONTINUOUS
10
95.0889
20
-160.802
11
95.0889
21
-160.992
0
LINE
8
BLACK
6
CONTINUOUS
10
95.0889
20
-160.992
11
94.9936
21
-161.278
0
LINE
8
BLACK
6
CONTINUOUS
10
94.9936
20
-161.278
11
93.8508
21
-162.421
0
LINE
8
BLACK
6
CONTINUOUS
10
93.8508
20
-162.421
11
95.0889
21
-162.421
0
LINE
8
BLACK
6
CONTINUOUS
10
95.7555
20
-160.421
11
97.0889
21
-160.421
0
LINE
8
BLACK
6
CONTINUOUS
10
97.0889
20
-160.421
11
96.2317
21
-162.421
0
LINE
8
BLACK
6
CONTINUOUS
10
97.7555
20
-160.421
11
97.7555
21
-160.802
0
LINE
8
BLACK
6
CONTINUOUS
10
98.5174
20
-160.421
11
98.5174
21
-160.802
0
LINE
8
BLACK
6
CONTINUOUS
10
101.47
20
-163.183
11
101.375
21
-163.088
0
LINE
8
BLACK
6
CONTINUOUS
10
101.375
20
-163.088
11
101.184
21
-162.802
0
LINE
8
BLACK
6
CONTINUOUS
10
101.184
20
-162.802
11
101.089
21
-162.612
0
LINE
8
BLACK
6
CONTINUOUS
10
101.089
20
-162.612
11
100.994
21
-162.326
0
LINE
8
BLACK
6
CONTINUOUS
10
100.994
20
-162.326
11
100.898
21
-161.85
0
LINE
8
BLACK
6
CONTINUOUS
10
100.898
20
-161.85
11
100.898
21
-161.469
0
LINE
8
BLACK
6
CONTINUOUS
10
100.898
20
-161.469
11
100.994
21
-160.992
0
LINE
8
BLACK
6
CONTINUOUS
10
100.994
20
-160.992
11
101.089
21
-160.707
0
LINE
8
BLACK
6
CONTINUOUS
10
101.089
20
-160.707
11
101.184
21
-160.516
0
LINE
8
BLACK
6
CONTINUOUS
10
101.184
20
-160.516
11
101.375
21
-160.231
0
LINE
8
BLACK
6
CONTINUOUS
10
101.375
20
-160.231
11
101.47
21
-160.135
0
LINE
8
BLACK
6
CONTINUOUS
10
103.089
20
-161.088
11
103.089
21
-162.421
0
LINE
8
BLACK
6
CONTINUOUS
10
102.613
20
-160.326
11
102.136
21
-161.754
0
LINE
8
BLACK
6
CONTINUOUS
10
102.136
20
-161.754
11
103.375
21
-161.754
0
LINE
8
BLACK
6
CONTINUOUS
10
105.66
20
-162.421
11
105.66
21
-160.421
0
LINE
8
BLACK
6
CONTINUOUS
10
106.517
20
-162.421
11
106.517
21
-161.373
0
LINE
8
BLACK
6
CONTINUOUS
10
106.517
20
-161.373
11
106.422
21
-161.183
0
LINE
8
BLACK
6
CONTINUOUS
10
106.422
20
-161.183
11
106.232
21
-161.088
0
LINE
8
BLACK
6
CONTINUOUS
10
106.232
20
-161.088
11
105.946
21
-161.088
0
LINE
8
BLACK
6
CONTINUOUS
10
105.946
20
-161.088
11
105.756
21
-161.183
0
LINE
8
BLACK
6
CONTINUOUS
10
105.756
20
-161.183
11
105.66
21
-161.278
0
LINE
8
BLACK
6
CONTINUOUS
10
107.756
20
-162.421
11
107.565
21
-162.326
0
LINE
8
BLACK
6
CONTINUOUS
10
107.565
20
-162.326
11
107.47
21
-162.231
0
LINE
8
BLACK
6
CONTINUOUS
10
107.47
20
-162.231
11
107.375
21
-162.04
0
LINE
8
BLACK
6
CONTINUOUS
10
107.375
20
-162.04
11
107.375
21
-161.469
0
LINE
8
BLACK
6
CONTINUOUS
10
107.375
20
-161.469
11
107.47
21
-161.278
0
LINE
8
BLACK
6
CONTINUOUS
10
107.47
20
-161.278
11
107.565
21
-161.183
0
LINE
8
BLACK
6
CONTINUOUS
10
107.565
20
-161.183
11
107.756
21
-161.088
0
LINE
8
BLACK
6
CONTINUOUS
10
107.756
20
-161.088
11
108.041
21
-161.088
0
LINE
8
BLACK
6
CONTINUOUS
10
108.041
20
-161.088
11
108.232
21
-161.183
0
LINE
8
BLACK
6
CONTINUOUS
10
108.232
20
-161.183
11
108.327
21
-161.278
0
LINE
8
BLACK
6
CONTINUOUS
10
108.327
20
-161.278
11
108.422
21
-161.469
0
LINE
8
BLACK
6
CONTINUOUS
10
108.422
20
-161.469
11
108.422
21
-162.04
0
LINE
8
BLACK
6
CONTINUOUS
10
108.422
20
-162.04
11
108.327
21
-162.231
0
LINE
8
BLACK
6
CONTINUOUS
10
108.327
20
-162.231
11
108.232
21
-162.326
0
LINE
8
BLACK
6
CONTINUOUS
10
108.232
20
-162.326
11
108.041
21
-162.421
0
LINE
8
BLACK
6
CONTINUOUS
10
108.041
20
-162.421
11
107.756
21
-162.421
0
LINE
8
BLACK
6
CONTINUOUS
10
109.565
20
-162.421
11
109.375
21
-162.326
0
LINE
8
BLACK
6
CONTINUOUS
10
109.375
20
-162.326
11
109.279
21
-162.135
0
LINE
8
BLACK
6
CONTINUOUS
10
109.279
20
-162.135
11
109.279
21
-160.421
0
LINE
8
BLACK
6
CONTINUOUS
10
111.089
20
-162.326
11
110.898
21
-162.421
0
LINE
8
BLACK
6
CONTINUOUS
10
110.898
20
-162.421
11
110.517
21
-162.421
0
LINE
8
BLACK
6
CONTINUOUS
10
110.517
20
-162.421
11
110.327
21
-162.326
0
LINE
8
BLACK
6
CONTINUOUS
10
110.327
20
-162.326
11
110.232
21
-162.135
0
LINE
8
BLACK
6
CONTINUOUS
10
110.232
20
-162.135
11
110.232
21
-161.373
0
LINE
8
BLACK
6
CONTINUOUS
10
110.232
20
-161.373
11
110.327
21
-161.183
0
LINE
8
BLACK
6
CONTINUOUS
10
110.327
20
-161.183
11
110.517
21
-161.088
0
LINE
8
BLACK
6
CONTINUOUS
10
110.517
20
-161.088
11
110.898
21
-161.088
0
LINE
8
BLACK
6
CONTINUOUS
10
110.898
20
-161.088
11
111.089
21
-161.183
0
LINE
8
BLACK
6
CONTINUOUS
10
111.089
20
-161.183
11
111.184
21
-161.373
0
LINE
8
BLACK
6
CONTINUOUS
10
111.184
20
-161.373
11
111.184
21
-161.564
0
LINE
8
BLACK
6
CONTINUOUS
10
111.184
20
-161.564
11
110.232
21
-161.754
0
LINE
8
BLACK
6
CONTINUOUS
10
111.946
20
-162.326
11
112.136
21
-162.421
0
LINE
8
BLACK
6
CONTINUOUS
10
112.136
20
-162.421
11
112.517
21
-162.421
0
LINE
8
BLACK
6
CONTINUOUS
10
112.517
20
-162.421
11
112.708
21
-162.326
0
LINE
8
BLACK
6
CONTINUOUS
10
112.708
20
-162.326
11
112.803
21
-162.135
0
LINE
8
BLACK
6
CONTINUOUS
10
112.803
20
-162.135
11
112.803
21
-162.04
0
LINE
8
BLACK
6
CONTINUOUS
10
112.803
20
-162.04
11
112.708
21
-161.85
0
LINE
8
BLACK
6
CONTINUOUS
10
112.708
20
-161.85
11
112.517
21
-161.754
0
LINE
8
BLACK
6
CONTINUOUS
10
112.517
20
-161.754
11
112.232
21
-161.754
0
LINE
8
BLACK
6
CONTINUOUS
10
112.232
20
-161.754
11
112.041
21
-161.659
0
LINE
8
BLACK
6
CONTINUOUS
10
112.041
20
-161.659
11
111.946
21
-161.469
0
LINE
8
BLACK
6
CONTINUOUS
10
111.946
20
-161.469
11
111.946
21
-161.373
0
LINE
8
BLACK
6
CONTINUOUS
10
111.946
20
-161.373
11
112.041
21
-161.183
0
LINE
8
BLACK
6
CONTINUOUS
10
112.041
20
-161.183
11
112.232
21
-161.088
0
LINE
8
BLACK
6
CONTINUOUS
10
112.232
20
-161.088
11
112.517
21
-161.088
0
LINE
8
BLACK
6
CONTINUOUS
10
112.517
20
-161.088
11
112.708
21
-161.183
0
LINE
8
BLACK
6
CONTINUOUS
10
113.47
20
-163.183
11
113.565
21
-163.088
0
LINE
8
BLACK
6
CONTINUOUS
10
113.565
20
-163.088
11
113.756
21
-162.802
0
LINE
8
BLACK
6
CONTINUOUS
10
113.756
20
-162.802
11
113.851
21
-162.612
0
LINE
8
BLACK
6
CONTINUOUS
10
113.851
20
-162.612
11
113.946
21
-162.326
0
LINE
8
BLACK
6
CONTINUOUS
10
113.946
20
-162.326
11
114.041
21
-161.85
0
LINE
8
BLACK
6
CONTINUOUS
10
114.041
20
-161.85
11
114.041
21
-161.469
0
LINE
8
BLACK
6
CONTINUOUS
10
114.041
20
-161.469
11
113.946
21
-160.992
0
LINE
8
BLACK
6
CONTINUOUS
10
113.946
20
-160.992
11
113.851
21
-160.707
0
LINE
8
BLACK
6
CONTINUOUS
10
113.851
20
-160.707
11
113.756
21
-160.516
0
LINE
8
BLACK
6
CONTINUOUS
10
113.756
20
-160.516
11
113.565
21
-160.231
0
LINE
8
BLACK
6
CONTINUOUS
10
113.565
20
-160.231
11
113.47
21
-160.135
0
LINE
8
BLACK
6
CONTINUOUS
10
117.089
20
-163.183
11
116.994
21
-163.088
0
LINE
8
BLACK
6
CONTINUOUS
10
116.994
20
-163.088
11
116.803
21
-162.802
0
LINE
8
BLACK
6
CONTINUOUS
10
116.803
20
-162.802
11
116.708
21
-162.612
0
LINE
8
BLACK
6
CONTINUOUS
10
116.708
20
-162.612
11
116.613
21
-162.326
0
LINE
8
BLACK
6
CONTINUOUS
10
116.613
20
-162.326
11
116.517
21
-161.85
0
LINE
8
BLACK
6
CONTINUOUS
10
116.517
20
-161.85
11
116.517
21
-161.469
0
LINE
8
BLACK
6
CONTINUOUS
10
116.517
20
-161.469
11
116.613
21
-160.992
0
LINE
8
BLACK
6
CONTINUOUS
10
116.613
20
-160.992
11
116.708
21
-160.707
0
LINE
8
BLACK
6
CONTINUOUS
10
116.708
20
-160.707
11
116.803
21
-160.516
0
LINE
8
BLACK
6
CONTINUOUS
10
116.803
20
-160.516
11
116.994
21
-160.231
0
LINE
8
BLACK
6
CONTINUOUS
10
116.994
20
-160.231
11
117.089
21
-160.135
0
LINE
8
BLACK
6
CONTINUOUS
10
117.851
20
-161.088
11
117.851
21
-162.421
0
LINE
8
BLACK
6
CONTINUOUS
10
117.851
20
-161.278
11
117.946
21
-161.183
0
LINE
8
BLACK
6
CONTINUOUS
10
117.946
20
-161.183
11
118.136
21
-161.088
0
LINE
8
BLACK
6
CONTINUOUS
10
118.136
20
-161.088
11
118.422
21
-161.088
0
LINE
8
BLACK
6
CONTINUOUS
10
118.422
20
-161.088
11
118.613
21
-161.183
0
LINE
8
BLACK
6
CONTINUOUS
10
118.613
20
-161.183
11
118.708
21
-161.373
0
LINE
8
BLACK
6
CONTINUOUS
10
118.708
20
-161.373
11
118.708
21
-162.421
0
LINE
8
BLACK
6
CONTINUOUS
10
119.946
20
-162.421
11
119.756
21
-162.326
0
LINE
8
BLACK
6
CONTINUOUS
10
119.756
20
-162.326
11
119.66
21
-162.231
0
LINE
8
BLACK
6
CONTINUOUS
10
119.66
20
-162.231
11
119.565
21
-162.04
0
LINE
8
BLACK
6
CONTINUOUS
10
119.565
20
-162.04
11
119.565
21
-161.469
0
LINE
8
BLACK
6
CONTINUOUS
10
119.565
20
-161.469
11
119.66
21
-161.278
0
LINE
8
BLACK
6
CONTINUOUS
10
119.66
20
-161.278
11
119.756
21
-161.183
0
LINE
8
BLACK
6
CONTINUOUS
10
119.756
20
-161.183
11
119.946
21
-161.088
0
LINE
8
BLACK
6
CONTINUOUS
10
119.946
20
-161.088
11
120.232
21
-161.088
0
LINE
8
BLACK
6
CONTINUOUS
10
120.232
20
-161.088
11
120.422
21
-161.183
0
LINE
8
BLACK
6
CONTINUOUS
10
120.422
20
-161.183
11
120.517
21
-161.278
0
LINE
8
BLACK
6
CONTINUOUS
10
120.517
20
-161.278
11
120.613
21
-161.469
0
LINE
8
BLACK
6
CONTINUOUS
10
120.613
20
-161.469
11
120.613
21
-162.04
0
LINE
8
BLACK
6
CONTINUOUS
10
120.613
20
-162.04
11
120.517
21
-162.231
0
LINE
8
BLACK
6
CONTINUOUS
10
120.517
20
-162.231
11
120.422
21
-162.326
0
LINE
8
BLACK
6
CONTINUOUS
10
120.422
20
-162.326
11
120.232
21
-162.421
0
LINE
8
BLACK
6
CONTINUOUS
10
120.232
20
-162.421
11
119.946
21
-162.421
0
LINE
8
BLACK
6
CONTINUOUS
10
121.184
20
-161.088
11
121.946
21
-161.088
0
LINE
8
BLACK
6
CONTINUOUS
10
121.47
20
-160.421
11
121.47
21
-162.135
0
LINE
8
BLACK
6
CONTINUOUS
10
121.47
20
-162.135
11
121.565
21
-162.326
0
LINE
8
BLACK
6
CONTINUOUS
10
121.565
20
-162.326
11
121.756
21
-162.421
0
LINE
8
BLACK
6
CONTINUOUS
10
121.756
20
-162.421
11
121.946
21
-162.421
0
LINE
8
BLACK
6
CONTINUOUS
10
124.136
20
-161.088
11
124.136
21
-163.088
0
LINE
8
BLACK
6
CONTINUOUS
10
124.136
20
-161.183
11
124.327
21
-161.088
0
LINE
8
BLACK
6
CONTINUOUS
10
124.327
20
-161.088
11
124.708
21
-161.088
0
LINE
8
BLACK
6
CONTINUOUS
10
124.708
20
-161.088
11
124.898
21
-161.183
0
LINE
8
BLACK
6
CONTINUOUS
10
124.898
20
-161.183
11
124.994
21
-161.278
0
LINE
8
BLACK
6
CONTINUOUS
10
124.994
20
-161.278
11
125.089
21
-161.469
0
LINE
8
BLACK
6
CONTINUOUS
10
125.089
20
-161.469
11
125.089
21
-162.04
0
LINE
8
BLACK
6
CONTINUOUS
10
125.089
20
-162.04
11
124.994
21
-162.231
0
LINE
8
BLACK
6
CONTINUOUS
10
124.994
20
-162.231
11
124.898
21
-162.326
0
LINE
8
BLACK
6
CONTINUOUS
10
124.898
20
-162.326
11
124.708
21
-162.421
0
LINE
8
BLACK
6
CONTINUOUS
10
124.708
20
-162.421
11
124.327
21
-162.421
0
LINE
8
BLACK
6
CONTINUOUS
10
124.327
20
-162.421
11
124.136
21
-162.326
0
LINE
8
BLACK
6
CONTINUOUS
10
126.232
20
-162.421
11
126.041
21
-162.326
0
LINE
8
BLACK
6
CONTINUOUS
10
126.041
20
-162.326
11
125.946
21
-162.135
0
LINE
8
BLACK
6
CONTINUOUS
10
125.946
20
-162.135
11
125.946
21
-160.421
0
LINE
8
BLACK
6
CONTINUOUS
10
127.851
20
-162.421
11
127.851
21
-161.373
0
LINE
8
BLACK
6
CONTINUOUS
10
127.851
20
-161.373
11
127.756
21
-161.183
0
LINE
8
BLACK
6
CONTINUOUS
10
127.756
20
-161.183
11
127.565
21
-161.088
0
LINE
8
BLACK
6
CONTINUOUS
10
127.565
20
-161.088
11
127.184
21
-161.088
0
LINE
8
BLACK
6
CONTINUOUS
10
127.184
20
-161.088
11
126.994
21
-161.183
0
LINE
8
BLACK
6
CONTINUOUS
10
127.851
20
-162.326
11
127.66
21
-162.421
0
LINE
8
BLACK
6
CONTINUOUS
10
127.66
20
-162.421
11
127.184
21
-162.421
0
LINE
8
BLACK
6
CONTINUOUS
10
127.184
20
-162.421
11
126.994
21
-162.326
0
LINE
8
BLACK
6
CONTINUOUS
10
126.994
20
-162.326
11
126.898
21
-162.135
0
LINE
8
BLACK
6
CONTINUOUS
10
126.898
20
-162.135
11
126.898
21
-161.945
0
LINE
8
BLACK
6
CONTINUOUS
10
126.898
20
-161.945
11
126.994
21
-161.754
0
LINE
8
BLACK
6
CONTINUOUS
10
126.994
20
-161.754
11
127.184
21
-161.659
0
LINE
8
BLACK
6
CONTINUOUS
10
127.184
20
-161.659
11
127.66
21
-161.659
0
LINE
8
BLACK
6
CONTINUOUS
10
127.66
20
-161.659
11
127.851
21
-161.564
0
LINE
8
BLACK
6
CONTINUOUS
10
128.517
20
-161.088
11
129.279
21
-161.088
0
LINE
8
BLACK
6
CONTINUOUS
10
128.803
20
-160.421
11
128.803
21
-162.135
0
LINE
8
BLACK
6
CONTINUOUS
10
128.803
20
-162.135
11
128.898
21
-162.326
0
LINE
8
BLACK
6
CONTINUOUS
10
128.898
20
-162.326
11
129.089
21
-162.421
0
LINE
8
BLACK
6
CONTINUOUS
10
129.089
20
-162.421
11
129.279
21
-162.421
0
LINE
8
BLACK
6
CONTINUOUS
10
130.708
20
-162.326
11
130.517
21
-162.421
0
LINE
8
BLACK
6
CONTINUOUS
10
130.517
20
-162.421
11
130.136
21
-162.421
0
LINE
8
BLACK
6
CONTINUOUS
10
130.136
20
-162.421
11
129.946
21
-162.326
0
LINE
8
BLACK
6
CONTINUOUS
10
129.946
20
-162.326
11
129.851
21
-162.135
0
LINE
8
BLACK
6
CONTINUOUS
10
129.851
20
-162.135
11
129.851
21
-161.373
0
LINE
8
BLACK
6
CONTINUOUS
10
129.851
20
-161.373
11
129.946
21
-161.183
0
LINE
8
BLACK
6
CONTINUOUS
10
129.946
20
-161.183
11
130.136
21
-161.088
0
LINE
8
BLACK
6
CONTINUOUS
10
130.136
20
-161.088
11
130.517
21
-161.088
0
LINE
8
BLACK
6
CONTINUOUS
10
130.517
20
-161.088
11
130.708
21
-161.183
0
LINE
8
BLACK
6
CONTINUOUS
10
130.708
20
-161.183
11
130.803
21
-161.373
0
LINE
8
BLACK
6
CONTINUOUS
10
130.803
20
-161.373
11
130.803
21
-161.564
0
LINE
8
BLACK
6
CONTINUOUS
10
130.803
20
-161.564
11
129.851
21
-161.754
0
LINE
8
BLACK
6
CONTINUOUS
10
132.517
20
-162.421
11
132.517
21
-160.421
0
LINE
8
BLACK
6
CONTINUOUS
10
132.517
20
-162.326
11
132.327
21
-162.421
0
LINE
8
BLACK
6
CONTINUOUS
10
132.327
20
-162.421
11
131.946
21
-162.421
0
LINE
8
BLACK
6
CONTINUOUS
10
131.946
20
-162.421
11
131.756
21
-162.326
0
LINE
8
BLACK
6
CONTINUOUS
10
131.756
20
-162.326
11
131.66
21
-162.231
0
LINE
8
BLACK
6
CONTINUOUS
10
131.66
20
-162.231
11
131.565
21
-162.04
0
LINE
8
BLACK
6
CONTINUOUS
10
131.565
20
-162.04
11
131.565
21
-161.469
0
LINE
8
BLACK
6
CONTINUOUS
10
131.565
20
-161.469
11
131.66
21
-161.278
0
LINE
8
BLACK
6
CONTINUOUS
10
131.66
20
-161.278
11
131.756
21
-161.183
0
LINE
8
BLACK
6
CONTINUOUS
10
131.756
20
-161.183
11
131.946
21
-161.088
0
LINE
8
BLACK
6
CONTINUOUS
10
131.946
20
-161.088
11
132.327
21
-161.088
0
LINE
8
BLACK
6
CONTINUOUS
10
132.327
20
-161.088
11
132.517
21
-161.183
0
LINE
8
BLACK
6
CONTINUOUS
10
133.279
20
-163.183
11
133.375
21
-163.088
0
LINE
8
BLACK
6
CONTINUOUS
10
133.375
20
-163.088
11
133.565
21
-162.802
0
LINE
8
BLACK
6
CONTINUOUS
10
133.565
20
-162.802
11
133.66
21
-162.612
0
LINE
8
BLACK
6
CONTINUOUS
10
133.66
20
-162.612
11
133.756
21
-162.326
0
LINE
8
BLACK
6
CONTINUOUS
10
133.756
20
-162.326
11
133.851
21
-161.85
0
LINE
8
BLACK
6
CONTINUOUS
10
133.851
20
-161.85
11
133.851
21
-161.469
0
LINE
8
BLACK
6
CONTINUOUS
10
133.851
20
-161.469
11
133.756
21
-160.992
0
LINE
8
BLACK
6
CONTINUOUS
10
133.756
20
-160.992
11
133.66
21
-160.707
0
LINE
8
BLACK
6
CONTINUOUS
10
133.66
20
-160.707
11
133.565
21
-160.516
0
LINE
8
BLACK
6
CONTINUOUS
10
133.565
20
-160.516
11
133.375
21
-160.231
0
LINE
8
BLACK
6
CONTINUOUS
10
133.375
20
-160.231
11
133.279
21
-160.135
  0
ENDSEC
  0
EOF
