%TF.GenerationSoftware,KiCad,Pcbnew,(6.0.7)*%
%TF.CreationDate,2022-11-29T16:34:04-07:00*%
%TF.ProjectId,attiny_rfid_light,61747469-6e79-45f7-9266-69645f6c6967,rev?*%
%TF.SameCoordinates,Original*%
%TF.FileFunction,Drillmap*%
%TF.FilePolarity,Positive*%
%FSLAX45Y45*%
G04 Gerber Fmt 4.5, Leading zero omitted, Abs format (unit mm)*
G04 Created by KiCad (PCBNEW (6.0.7)) date 2022-11-29 16:34:04*
%MOMM*%
%LPD*%
G01*
G04 APERTURE LIST*
%ADD10C,0.100000*%
%ADD11C,0.200000*%
%ADD12C,0.040000*%
%ADD13C,0.076200*%
%ADD14C,0.102000*%
G04 APERTURE END LIST*
D10*
X9872982Y-8863151D02*
X10835262Y-8863151D01*
X10835262Y-9598376D02*
X9872982Y-9598376D01*
X9872982Y-9598376D02*
X9872982Y-8863151D01*
D11*
X6585078Y-5595631D02*
X14088262Y-5595631D01*
X14088262Y-5595631D02*
X14088262Y-15501631D01*
X14088262Y-15501631D02*
X6585078Y-15501631D01*
X6585078Y-15501631D02*
X6585078Y-5595631D01*
D10*
X10835262Y-8863151D02*
X10835262Y-9598376D01*
D11*
D12*
X6675565Y-13682855D02*
X6715565Y-13722855D01*
X6715565Y-13682855D02*
X6675565Y-13722855D01*
X6811791Y-14773540D02*
X6851791Y-14813540D01*
X6851791Y-14773540D02*
X6811791Y-14813540D01*
X7113450Y-14104000D02*
X7153450Y-14144000D01*
X7153450Y-14104000D02*
X7113450Y-14144000D01*
X7199098Y-15328446D02*
X7239098Y-15368446D01*
X7239098Y-15328446D02*
X7199098Y-15368446D01*
X7672610Y-14457140D02*
X7712610Y-14497140D01*
X7712610Y-14457140D02*
X7672610Y-14497140D01*
X7673250Y-13855620D02*
X7713250Y-13895620D01*
X7713250Y-13855620D02*
X7673250Y-13895620D01*
X7675170Y-13684770D02*
X7715170Y-13724770D01*
X7715170Y-13684770D02*
X7675170Y-13724770D01*
X7675610Y-14293120D02*
X7715610Y-14333120D01*
X7715610Y-14293120D02*
X7675610Y-14333120D01*
X7687610Y-14596860D02*
X7727610Y-14636860D01*
X7727610Y-14596860D02*
X7687610Y-14636860D01*
X7717370Y-14819470D02*
X7757370Y-14859470D01*
X7757370Y-14819470D02*
X7717370Y-14859470D01*
X7761046Y-15329854D02*
X7801046Y-15369854D01*
X7801046Y-15329854D02*
X7761046Y-15369854D01*
X7854780Y-14830220D02*
X7894780Y-14870220D01*
X7894780Y-14830220D02*
X7854780Y-14870220D01*
X7917500Y-13693670D02*
X7957500Y-13733670D01*
X7957500Y-13693670D02*
X7917500Y-13733670D01*
X8817930Y-13859970D02*
X8857930Y-13899970D01*
X8857930Y-13859970D02*
X8817930Y-13899970D01*
X8984835Y-15211214D02*
X9024835Y-15251214D01*
X9024835Y-15211214D02*
X8984835Y-15251214D01*
X9372890Y-15023320D02*
X9412890Y-15063320D01*
X9412890Y-15023320D02*
X9372890Y-15063320D01*
X9373380Y-14013500D02*
X9413380Y-14053500D01*
X9413380Y-14013500D02*
X9373380Y-14053500D01*
X9436810Y-14179440D02*
X9476810Y-14219440D01*
X9476810Y-14179440D02*
X9436810Y-14219440D01*
X9438340Y-14667620D02*
X9478340Y-14707620D01*
X9478340Y-14667620D02*
X9438340Y-14707620D01*
X9567640Y-13578710D02*
X9607640Y-13618710D01*
X9607640Y-13578710D02*
X9567640Y-13618710D01*
X9716050Y-14163520D02*
X9756050Y-14203520D01*
X9756050Y-14163520D02*
X9716050Y-14203520D01*
X10825220Y-13370130D02*
X10865220Y-13410130D01*
X10865220Y-13370130D02*
X10825220Y-13410130D01*
X11799460Y-14163530D02*
X11839460Y-14203530D01*
X11839460Y-14163530D02*
X11799460Y-14203530D01*
X12843900Y-13975550D02*
X12883900Y-14015550D01*
X12883900Y-13975550D02*
X12843900Y-14015550D01*
X13026940Y-13464940D02*
X13066940Y-13504940D01*
X13066940Y-13464940D02*
X13026940Y-13504940D01*
X13034350Y-14025200D02*
X13074350Y-14065200D01*
X13074350Y-14025200D02*
X13034350Y-14065200D01*
X13171350Y-13480740D02*
X13211350Y-13520740D01*
X13211350Y-13480740D02*
X13171350Y-13520740D01*
X13188000Y-14458000D02*
X13228000Y-14498000D01*
X13228000Y-14458000D02*
X13188000Y-14498000D01*
X13188000Y-14966000D02*
X13228000Y-15006000D01*
X13228000Y-14966000D02*
X13188000Y-15006000D01*
X13375943Y-13304038D02*
X13415943Y-13344038D01*
X13415943Y-13304038D02*
X13375943Y-13344038D01*
X13440592Y-13464105D02*
X13480592Y-13504105D01*
X13480592Y-13464105D02*
X13440592Y-13504105D01*
X13442000Y-13696000D02*
X13482000Y-13736000D01*
X13482000Y-13696000D02*
X13442000Y-13736000D01*
X13950000Y-14966000D02*
X13990000Y-15006000D01*
X13990000Y-14966000D02*
X13950000Y-15006000D01*
X13957471Y-14109618D02*
X13997471Y-14149618D01*
X13997471Y-14109618D02*
X13957471Y-14149618D01*
D13*
X10393450Y-9713323D02*
G75*
G03*
X10393450Y-9713323I-38100J0D01*
G01*
D10*
X9652000Y-15190000D02*
X9652000Y-15290000D01*
X9602000Y-15240000D02*
X9702000Y-15240000D01*
X9906000Y-15190000D02*
X9906000Y-15290000D01*
X9856000Y-15240000D02*
X9956000Y-15240000D01*
X10160000Y-15190000D02*
X10160000Y-15290000D01*
X10110000Y-15240000D02*
X10210000Y-15240000D01*
X10414000Y-15190000D02*
X10414000Y-15290000D01*
X10364000Y-15240000D02*
X10464000Y-15240000D01*
X10668000Y-15190000D02*
X10668000Y-15290000D01*
X10618000Y-15240000D02*
X10718000Y-15240000D01*
X10922000Y-15190000D02*
X10922000Y-15290000D01*
X10872000Y-15240000D02*
X10972000Y-15240000D01*
X11176000Y-15190000D02*
X11176000Y-15290000D01*
X11126000Y-15240000D02*
X11226000Y-15240000D01*
X11430000Y-15190000D02*
X11430000Y-15290000D01*
X11380000Y-15240000D02*
X11480000Y-15240000D01*
X11684000Y-15190000D02*
X11684000Y-15290000D01*
X11634000Y-15240000D02*
X11734000Y-15240000D01*
X11938000Y-15190000D02*
X11938000Y-15290000D01*
X11888000Y-15240000D02*
X11988000Y-15240000D01*
X12192000Y-15190000D02*
X12192000Y-15290000D01*
X12142000Y-15240000D02*
X12242000Y-15240000D01*
X12446000Y-15190000D02*
X12446000Y-15290000D01*
X12396000Y-15240000D02*
X12496000Y-15240000D01*
X12700000Y-15190000D02*
X12700000Y-15290000D01*
X12650000Y-15240000D02*
X12750000Y-15240000D01*
X12954000Y-15190000D02*
X12954000Y-15290000D01*
X12904000Y-15240000D02*
X13004000Y-15240000D01*
X13208000Y-15190000D02*
X13208000Y-15290000D01*
X13158000Y-15240000D02*
X13258000Y-15240000D01*
X13462000Y-15190000D02*
X13462000Y-15290000D01*
X13412000Y-15240000D02*
X13512000Y-15240000D01*
D14*
X9812633Y-13260393D02*
X9812633Y-13188267D01*
X9740507Y-13188267D01*
X9740507Y-13260393D01*
X9812633Y-13260393D01*
X10066633Y-13260393D02*
X10066633Y-13188267D01*
X9994507Y-13188267D01*
X9994507Y-13260393D01*
X10066633Y-13260393D01*
X10320633Y-13260393D02*
X10320633Y-13188267D01*
X10248507Y-13188267D01*
X10248507Y-13260393D01*
X10320633Y-13260393D01*
D11*
X6832697Y-15822107D02*
X6832697Y-15622107D01*
X6880316Y-15622107D01*
X6908887Y-15631631D01*
X6927935Y-15650678D01*
X6937459Y-15669726D01*
X6946982Y-15707821D01*
X6946982Y-15736393D01*
X6937459Y-15774488D01*
X6927935Y-15793536D01*
X6908887Y-15812583D01*
X6880316Y-15822107D01*
X6832697Y-15822107D01*
X7032697Y-15822107D02*
X7032697Y-15688774D01*
X7032697Y-15726869D02*
X7042220Y-15707821D01*
X7051744Y-15698297D01*
X7070792Y-15688774D01*
X7089840Y-15688774D01*
X7156506Y-15822107D02*
X7156506Y-15688774D01*
X7156506Y-15622107D02*
X7146982Y-15631631D01*
X7156506Y-15641155D01*
X7166030Y-15631631D01*
X7156506Y-15622107D01*
X7156506Y-15641155D01*
X7280316Y-15822107D02*
X7261268Y-15812583D01*
X7251744Y-15793536D01*
X7251744Y-15622107D01*
X7385078Y-15822107D02*
X7366030Y-15812583D01*
X7356506Y-15793536D01*
X7356506Y-15622107D01*
X7613649Y-15822107D02*
X7613649Y-15622107D01*
X7680316Y-15764964D01*
X7746982Y-15622107D01*
X7746982Y-15822107D01*
X7927935Y-15822107D02*
X7927935Y-15717345D01*
X7918411Y-15698297D01*
X7899363Y-15688774D01*
X7861268Y-15688774D01*
X7842220Y-15698297D01*
X7927935Y-15812583D02*
X7908887Y-15822107D01*
X7861268Y-15822107D01*
X7842220Y-15812583D01*
X7832697Y-15793536D01*
X7832697Y-15774488D01*
X7842220Y-15755440D01*
X7861268Y-15745917D01*
X7908887Y-15745917D01*
X7927935Y-15736393D01*
X8023173Y-15688774D02*
X8023173Y-15888774D01*
X8023173Y-15698297D02*
X8042220Y-15688774D01*
X8080316Y-15688774D01*
X8099363Y-15698297D01*
X8108887Y-15707821D01*
X8118411Y-15726869D01*
X8118411Y-15784012D01*
X8108887Y-15803059D01*
X8099363Y-15812583D01*
X8080316Y-15822107D01*
X8042220Y-15822107D01*
X8023173Y-15812583D01*
X8204125Y-15803059D02*
X8213649Y-15812583D01*
X8204125Y-15822107D01*
X8194601Y-15812583D01*
X8204125Y-15803059D01*
X8204125Y-15822107D01*
X8204125Y-15698297D02*
X8213649Y-15707821D01*
X8204125Y-15717345D01*
X8194601Y-15707821D01*
X8204125Y-15698297D01*
X8204125Y-15717345D01*
D12*
X6535078Y-16131631D02*
X6575078Y-16171631D01*
X6575078Y-16131631D02*
X6535078Y-16171631D01*
D11*
X6870792Y-16042107D02*
X6889840Y-16042107D01*
X6908887Y-16051631D01*
X6918411Y-16061155D01*
X6927935Y-16080202D01*
X6937459Y-16118297D01*
X6937459Y-16165917D01*
X6927935Y-16204012D01*
X6918411Y-16223059D01*
X6908887Y-16232583D01*
X6889840Y-16242107D01*
X6870792Y-16242107D01*
X6851744Y-16232583D01*
X6842220Y-16223059D01*
X6832697Y-16204012D01*
X6823173Y-16165917D01*
X6823173Y-16118297D01*
X6832697Y-16080202D01*
X6842220Y-16061155D01*
X6851744Y-16051631D01*
X6870792Y-16042107D01*
X7023173Y-16223059D02*
X7032697Y-16232583D01*
X7023173Y-16242107D01*
X7013649Y-16232583D01*
X7023173Y-16223059D01*
X7023173Y-16242107D01*
X7204125Y-16108774D02*
X7204125Y-16242107D01*
X7156506Y-16032583D02*
X7108887Y-16175440D01*
X7232697Y-16175440D01*
X7346982Y-16042107D02*
X7366030Y-16042107D01*
X7385078Y-16051631D01*
X7394601Y-16061155D01*
X7404125Y-16080202D01*
X7413649Y-16118297D01*
X7413649Y-16165917D01*
X7404125Y-16204012D01*
X7394601Y-16223059D01*
X7385078Y-16232583D01*
X7366030Y-16242107D01*
X7346982Y-16242107D01*
X7327935Y-16232583D01*
X7318411Y-16223059D01*
X7308887Y-16204012D01*
X7299363Y-16165917D01*
X7299363Y-16118297D01*
X7308887Y-16080202D01*
X7318411Y-16061155D01*
X7327935Y-16051631D01*
X7346982Y-16042107D01*
X7537459Y-16042107D02*
X7556506Y-16042107D01*
X7575554Y-16051631D01*
X7585078Y-16061155D01*
X7594601Y-16080202D01*
X7604125Y-16118297D01*
X7604125Y-16165917D01*
X7594601Y-16204012D01*
X7585078Y-16223059D01*
X7575554Y-16232583D01*
X7556506Y-16242107D01*
X7537459Y-16242107D01*
X7518411Y-16232583D01*
X7508887Y-16223059D01*
X7499363Y-16204012D01*
X7489840Y-16165917D01*
X7489840Y-16118297D01*
X7499363Y-16080202D01*
X7508887Y-16061155D01*
X7518411Y-16051631D01*
X7537459Y-16042107D01*
X7689840Y-16242107D02*
X7689840Y-16108774D01*
X7689840Y-16127821D02*
X7699363Y-16118297D01*
X7718411Y-16108774D01*
X7746982Y-16108774D01*
X7766030Y-16118297D01*
X7775554Y-16137345D01*
X7775554Y-16242107D01*
X7775554Y-16137345D02*
X7785078Y-16118297D01*
X7804125Y-16108774D01*
X7832697Y-16108774D01*
X7851744Y-16118297D01*
X7861268Y-16137345D01*
X7861268Y-16242107D01*
X7956506Y-16242107D02*
X7956506Y-16108774D01*
X7956506Y-16127821D02*
X7966030Y-16118297D01*
X7985078Y-16108774D01*
X8013649Y-16108774D01*
X8032697Y-16118297D01*
X8042220Y-16137345D01*
X8042220Y-16242107D01*
X8042220Y-16137345D02*
X8051744Y-16118297D01*
X8070792Y-16108774D01*
X8099363Y-16108774D01*
X8118411Y-16118297D01*
X8127935Y-16137345D01*
X8127935Y-16242107D01*
X8518411Y-16032583D02*
X8346982Y-16289726D01*
X8775554Y-16042107D02*
X8794602Y-16042107D01*
X8813649Y-16051631D01*
X8823173Y-16061155D01*
X8832697Y-16080202D01*
X8842221Y-16118297D01*
X8842221Y-16165917D01*
X8832697Y-16204012D01*
X8823173Y-16223059D01*
X8813649Y-16232583D01*
X8794602Y-16242107D01*
X8775554Y-16242107D01*
X8756506Y-16232583D01*
X8746982Y-16223059D01*
X8737459Y-16204012D01*
X8727935Y-16165917D01*
X8727935Y-16118297D01*
X8737459Y-16080202D01*
X8746982Y-16061155D01*
X8756506Y-16051631D01*
X8775554Y-16042107D01*
X8927935Y-16223059D02*
X8937459Y-16232583D01*
X8927935Y-16242107D01*
X8918411Y-16232583D01*
X8927935Y-16223059D01*
X8927935Y-16242107D01*
X9061268Y-16042107D02*
X9080316Y-16042107D01*
X9099363Y-16051631D01*
X9108887Y-16061155D01*
X9118411Y-16080202D01*
X9127935Y-16118297D01*
X9127935Y-16165917D01*
X9118411Y-16204012D01*
X9108887Y-16223059D01*
X9099363Y-16232583D01*
X9080316Y-16242107D01*
X9061268Y-16242107D01*
X9042221Y-16232583D01*
X9032697Y-16223059D01*
X9023173Y-16204012D01*
X9013649Y-16165917D01*
X9013649Y-16118297D01*
X9023173Y-16080202D01*
X9032697Y-16061155D01*
X9042221Y-16051631D01*
X9061268Y-16042107D01*
X9318411Y-16242107D02*
X9204125Y-16242107D01*
X9261268Y-16242107D02*
X9261268Y-16042107D01*
X9242221Y-16070678D01*
X9223173Y-16089726D01*
X9204125Y-16099250D01*
X9499363Y-16042107D02*
X9404125Y-16042107D01*
X9394602Y-16137345D01*
X9404125Y-16127821D01*
X9423173Y-16118297D01*
X9470792Y-16118297D01*
X9489840Y-16127821D01*
X9499363Y-16137345D01*
X9508887Y-16156393D01*
X9508887Y-16204012D01*
X9499363Y-16223059D01*
X9489840Y-16232583D01*
X9470792Y-16242107D01*
X9423173Y-16242107D01*
X9404125Y-16232583D01*
X9394602Y-16223059D01*
X9575554Y-16042107D02*
X9708887Y-16042107D01*
X9623173Y-16242107D01*
X9775554Y-16042107D02*
X9775554Y-16080202D01*
X9851744Y-16042107D02*
X9851744Y-16080202D01*
X10146982Y-16318297D02*
X10137459Y-16308774D01*
X10118411Y-16280202D01*
X10108887Y-16261155D01*
X10099363Y-16232583D01*
X10089840Y-16184964D01*
X10089840Y-16146869D01*
X10099363Y-16099250D01*
X10108887Y-16070678D01*
X10118411Y-16051631D01*
X10137459Y-16023059D01*
X10146982Y-16013536D01*
X10204125Y-16042107D02*
X10327935Y-16042107D01*
X10261268Y-16118297D01*
X10289840Y-16118297D01*
X10308887Y-16127821D01*
X10318411Y-16137345D01*
X10327935Y-16156393D01*
X10327935Y-16204012D01*
X10318411Y-16223059D01*
X10308887Y-16232583D01*
X10289840Y-16242107D01*
X10232697Y-16242107D01*
X10213649Y-16232583D01*
X10204125Y-16223059D01*
X10499363Y-16108774D02*
X10499363Y-16242107D01*
X10451744Y-16032583D02*
X10404125Y-16175440D01*
X10527935Y-16175440D01*
X10756506Y-16242107D02*
X10756506Y-16042107D01*
X10842221Y-16242107D02*
X10842221Y-16137345D01*
X10832697Y-16118297D01*
X10813649Y-16108774D01*
X10785078Y-16108774D01*
X10766030Y-16118297D01*
X10756506Y-16127821D01*
X10966030Y-16242107D02*
X10946982Y-16232583D01*
X10937459Y-16223059D01*
X10927935Y-16204012D01*
X10927935Y-16146869D01*
X10937459Y-16127821D01*
X10946982Y-16118297D01*
X10966030Y-16108774D01*
X10994602Y-16108774D01*
X11013649Y-16118297D01*
X11023173Y-16127821D01*
X11032697Y-16146869D01*
X11032697Y-16204012D01*
X11023173Y-16223059D01*
X11013649Y-16232583D01*
X10994602Y-16242107D01*
X10966030Y-16242107D01*
X11146982Y-16242107D02*
X11127935Y-16232583D01*
X11118411Y-16213536D01*
X11118411Y-16042107D01*
X11299363Y-16232583D02*
X11280316Y-16242107D01*
X11242220Y-16242107D01*
X11223173Y-16232583D01*
X11213649Y-16213536D01*
X11213649Y-16137345D01*
X11223173Y-16118297D01*
X11242220Y-16108774D01*
X11280316Y-16108774D01*
X11299363Y-16118297D01*
X11308887Y-16137345D01*
X11308887Y-16156393D01*
X11213649Y-16175440D01*
X11385078Y-16232583D02*
X11404125Y-16242107D01*
X11442220Y-16242107D01*
X11461268Y-16232583D01*
X11470792Y-16213536D01*
X11470792Y-16204012D01*
X11461268Y-16184964D01*
X11442220Y-16175440D01*
X11413649Y-16175440D01*
X11394601Y-16165917D01*
X11385078Y-16146869D01*
X11385078Y-16137345D01*
X11394601Y-16118297D01*
X11413649Y-16108774D01*
X11442220Y-16108774D01*
X11461268Y-16118297D01*
X11537459Y-16318297D02*
X11546982Y-16308774D01*
X11566030Y-16280202D01*
X11575554Y-16261155D01*
X11585078Y-16232583D01*
X11594601Y-16184964D01*
X11594601Y-16146869D01*
X11585078Y-16099250D01*
X11575554Y-16070678D01*
X11566030Y-16051631D01*
X11546982Y-16023059D01*
X11537459Y-16013536D01*
D13*
X6575078Y-16415631D02*
G75*
G03*
X6575078Y-16415631I-38100J0D01*
G01*
D11*
X6870792Y-16306107D02*
X6889840Y-16306107D01*
X6908887Y-16315631D01*
X6918411Y-16325155D01*
X6927935Y-16344202D01*
X6937459Y-16382297D01*
X6937459Y-16429917D01*
X6927935Y-16468012D01*
X6918411Y-16487059D01*
X6908887Y-16496583D01*
X6889840Y-16506107D01*
X6870792Y-16506107D01*
X6851744Y-16496583D01*
X6842220Y-16487059D01*
X6832697Y-16468012D01*
X6823173Y-16429917D01*
X6823173Y-16382297D01*
X6832697Y-16344202D01*
X6842220Y-16325155D01*
X6851744Y-16315631D01*
X6870792Y-16306107D01*
X7023173Y-16487059D02*
X7032697Y-16496583D01*
X7023173Y-16506107D01*
X7013649Y-16496583D01*
X7023173Y-16487059D01*
X7023173Y-16506107D01*
X7099363Y-16306107D02*
X7232697Y-16306107D01*
X7146982Y-16506107D01*
X7394601Y-16306107D02*
X7356506Y-16306107D01*
X7337459Y-16315631D01*
X7327935Y-16325155D01*
X7308887Y-16353726D01*
X7299363Y-16391821D01*
X7299363Y-16468012D01*
X7308887Y-16487059D01*
X7318411Y-16496583D01*
X7337459Y-16506107D01*
X7375554Y-16506107D01*
X7394601Y-16496583D01*
X7404125Y-16487059D01*
X7413649Y-16468012D01*
X7413649Y-16420393D01*
X7404125Y-16401345D01*
X7394601Y-16391821D01*
X7375554Y-16382297D01*
X7337459Y-16382297D01*
X7318411Y-16391821D01*
X7308887Y-16401345D01*
X7299363Y-16420393D01*
X7489840Y-16325155D02*
X7499363Y-16315631D01*
X7518411Y-16306107D01*
X7566030Y-16306107D01*
X7585078Y-16315631D01*
X7594601Y-16325155D01*
X7604125Y-16344202D01*
X7604125Y-16363250D01*
X7594601Y-16391821D01*
X7480316Y-16506107D01*
X7604125Y-16506107D01*
X7689840Y-16506107D02*
X7689840Y-16372774D01*
X7689840Y-16391821D02*
X7699363Y-16382297D01*
X7718411Y-16372774D01*
X7746982Y-16372774D01*
X7766030Y-16382297D01*
X7775554Y-16401345D01*
X7775554Y-16506107D01*
X7775554Y-16401345D02*
X7785078Y-16382297D01*
X7804125Y-16372774D01*
X7832697Y-16372774D01*
X7851744Y-16382297D01*
X7861268Y-16401345D01*
X7861268Y-16506107D01*
X7956506Y-16506107D02*
X7956506Y-16372774D01*
X7956506Y-16391821D02*
X7966030Y-16382297D01*
X7985078Y-16372774D01*
X8013649Y-16372774D01*
X8032697Y-16382297D01*
X8042220Y-16401345D01*
X8042220Y-16506107D01*
X8042220Y-16401345D02*
X8051744Y-16382297D01*
X8070792Y-16372774D01*
X8099363Y-16372774D01*
X8118411Y-16382297D01*
X8127935Y-16401345D01*
X8127935Y-16506107D01*
X8518411Y-16296583D02*
X8346982Y-16553726D01*
X8775554Y-16306107D02*
X8794602Y-16306107D01*
X8813649Y-16315631D01*
X8823173Y-16325155D01*
X8832697Y-16344202D01*
X8842221Y-16382297D01*
X8842221Y-16429917D01*
X8832697Y-16468012D01*
X8823173Y-16487059D01*
X8813649Y-16496583D01*
X8794602Y-16506107D01*
X8775554Y-16506107D01*
X8756506Y-16496583D01*
X8746982Y-16487059D01*
X8737459Y-16468012D01*
X8727935Y-16429917D01*
X8727935Y-16382297D01*
X8737459Y-16344202D01*
X8746982Y-16325155D01*
X8756506Y-16315631D01*
X8775554Y-16306107D01*
X8927935Y-16487059D02*
X8937459Y-16496583D01*
X8927935Y-16506107D01*
X8918411Y-16496583D01*
X8927935Y-16487059D01*
X8927935Y-16506107D01*
X9061268Y-16306107D02*
X9080316Y-16306107D01*
X9099363Y-16315631D01*
X9108887Y-16325155D01*
X9118411Y-16344202D01*
X9127935Y-16382297D01*
X9127935Y-16429917D01*
X9118411Y-16468012D01*
X9108887Y-16487059D01*
X9099363Y-16496583D01*
X9080316Y-16506107D01*
X9061268Y-16506107D01*
X9042221Y-16496583D01*
X9032697Y-16487059D01*
X9023173Y-16468012D01*
X9013649Y-16429917D01*
X9013649Y-16382297D01*
X9023173Y-16344202D01*
X9032697Y-16325155D01*
X9042221Y-16315631D01*
X9061268Y-16306107D01*
X9194602Y-16306107D02*
X9318411Y-16306107D01*
X9251744Y-16382297D01*
X9280316Y-16382297D01*
X9299363Y-16391821D01*
X9308887Y-16401345D01*
X9318411Y-16420393D01*
X9318411Y-16468012D01*
X9308887Y-16487059D01*
X9299363Y-16496583D01*
X9280316Y-16506107D01*
X9223173Y-16506107D01*
X9204125Y-16496583D01*
X9194602Y-16487059D01*
X9442221Y-16306107D02*
X9461268Y-16306107D01*
X9480316Y-16315631D01*
X9489840Y-16325155D01*
X9499363Y-16344202D01*
X9508887Y-16382297D01*
X9508887Y-16429917D01*
X9499363Y-16468012D01*
X9489840Y-16487059D01*
X9480316Y-16496583D01*
X9461268Y-16506107D01*
X9442221Y-16506107D01*
X9423173Y-16496583D01*
X9413649Y-16487059D01*
X9404125Y-16468012D01*
X9394602Y-16429917D01*
X9394602Y-16382297D01*
X9404125Y-16344202D01*
X9413649Y-16325155D01*
X9423173Y-16315631D01*
X9442221Y-16306107D01*
X9632697Y-16306107D02*
X9651744Y-16306107D01*
X9670792Y-16315631D01*
X9680316Y-16325155D01*
X9689840Y-16344202D01*
X9699363Y-16382297D01*
X9699363Y-16429917D01*
X9689840Y-16468012D01*
X9680316Y-16487059D01*
X9670792Y-16496583D01*
X9651744Y-16506107D01*
X9632697Y-16506107D01*
X9613649Y-16496583D01*
X9604125Y-16487059D01*
X9594602Y-16468012D01*
X9585078Y-16429917D01*
X9585078Y-16382297D01*
X9594602Y-16344202D01*
X9604125Y-16325155D01*
X9613649Y-16315631D01*
X9632697Y-16306107D01*
X9775554Y-16306107D02*
X9775554Y-16344202D01*
X9851744Y-16306107D02*
X9851744Y-16344202D01*
X10146982Y-16582297D02*
X10137459Y-16572774D01*
X10118411Y-16544202D01*
X10108887Y-16525155D01*
X10099363Y-16496583D01*
X10089840Y-16448964D01*
X10089840Y-16410869D01*
X10099363Y-16363250D01*
X10108887Y-16334678D01*
X10118411Y-16315631D01*
X10137459Y-16287059D01*
X10146982Y-16277536D01*
X10327935Y-16506107D02*
X10213649Y-16506107D01*
X10270792Y-16506107D02*
X10270792Y-16306107D01*
X10251744Y-16334678D01*
X10232697Y-16353726D01*
X10213649Y-16363250D01*
X10566030Y-16506107D02*
X10566030Y-16306107D01*
X10651744Y-16506107D02*
X10651744Y-16401345D01*
X10642221Y-16382297D01*
X10623173Y-16372774D01*
X10594602Y-16372774D01*
X10575554Y-16382297D01*
X10566030Y-16391821D01*
X10775554Y-16506107D02*
X10756506Y-16496583D01*
X10746982Y-16487059D01*
X10737459Y-16468012D01*
X10737459Y-16410869D01*
X10746982Y-16391821D01*
X10756506Y-16382297D01*
X10775554Y-16372774D01*
X10804125Y-16372774D01*
X10823173Y-16382297D01*
X10832697Y-16391821D01*
X10842221Y-16410869D01*
X10842221Y-16468012D01*
X10832697Y-16487059D01*
X10823173Y-16496583D01*
X10804125Y-16506107D01*
X10775554Y-16506107D01*
X10956506Y-16506107D02*
X10937459Y-16496583D01*
X10927935Y-16477536D01*
X10927935Y-16306107D01*
X11108887Y-16496583D02*
X11089840Y-16506107D01*
X11051744Y-16506107D01*
X11032697Y-16496583D01*
X11023173Y-16477536D01*
X11023173Y-16401345D01*
X11032697Y-16382297D01*
X11051744Y-16372774D01*
X11089840Y-16372774D01*
X11108887Y-16382297D01*
X11118411Y-16401345D01*
X11118411Y-16420393D01*
X11023173Y-16439440D01*
X11185078Y-16582297D02*
X11194601Y-16572774D01*
X11213649Y-16544202D01*
X11223173Y-16525155D01*
X11232697Y-16496583D01*
X11242220Y-16448964D01*
X11242220Y-16410869D01*
X11232697Y-16363250D01*
X11223173Y-16334678D01*
X11213649Y-16315631D01*
X11194601Y-16287059D01*
X11185078Y-16277536D01*
D10*
X6525078Y-16629631D02*
X6525078Y-16729631D01*
X6475078Y-16679631D02*
X6575078Y-16679631D01*
D11*
X6937459Y-16770107D02*
X6823173Y-16770107D01*
X6880316Y-16770107D02*
X6880316Y-16570107D01*
X6861268Y-16598678D01*
X6842220Y-16617726D01*
X6823173Y-16627250D01*
X7023173Y-16751059D02*
X7032697Y-16760583D01*
X7023173Y-16770107D01*
X7013649Y-16760583D01*
X7023173Y-16751059D01*
X7023173Y-16770107D01*
X7156506Y-16570107D02*
X7175554Y-16570107D01*
X7194601Y-16579631D01*
X7204125Y-16589155D01*
X7213649Y-16608202D01*
X7223173Y-16646297D01*
X7223173Y-16693917D01*
X7213649Y-16732012D01*
X7204125Y-16751059D01*
X7194601Y-16760583D01*
X7175554Y-16770107D01*
X7156506Y-16770107D01*
X7137459Y-16760583D01*
X7127935Y-16751059D01*
X7118411Y-16732012D01*
X7108887Y-16693917D01*
X7108887Y-16646297D01*
X7118411Y-16608202D01*
X7127935Y-16589155D01*
X7137459Y-16579631D01*
X7156506Y-16570107D01*
X7346982Y-16570107D02*
X7366030Y-16570107D01*
X7385078Y-16579631D01*
X7394601Y-16589155D01*
X7404125Y-16608202D01*
X7413649Y-16646297D01*
X7413649Y-16693917D01*
X7404125Y-16732012D01*
X7394601Y-16751059D01*
X7385078Y-16760583D01*
X7366030Y-16770107D01*
X7346982Y-16770107D01*
X7327935Y-16760583D01*
X7318411Y-16751059D01*
X7308887Y-16732012D01*
X7299363Y-16693917D01*
X7299363Y-16646297D01*
X7308887Y-16608202D01*
X7318411Y-16589155D01*
X7327935Y-16579631D01*
X7346982Y-16570107D01*
X7537459Y-16570107D02*
X7556506Y-16570107D01*
X7575554Y-16579631D01*
X7585078Y-16589155D01*
X7594601Y-16608202D01*
X7604125Y-16646297D01*
X7604125Y-16693917D01*
X7594601Y-16732012D01*
X7585078Y-16751059D01*
X7575554Y-16760583D01*
X7556506Y-16770107D01*
X7537459Y-16770107D01*
X7518411Y-16760583D01*
X7508887Y-16751059D01*
X7499363Y-16732012D01*
X7489840Y-16693917D01*
X7489840Y-16646297D01*
X7499363Y-16608202D01*
X7508887Y-16589155D01*
X7518411Y-16579631D01*
X7537459Y-16570107D01*
X7689840Y-16770107D02*
X7689840Y-16636774D01*
X7689840Y-16655821D02*
X7699363Y-16646297D01*
X7718411Y-16636774D01*
X7746982Y-16636774D01*
X7766030Y-16646297D01*
X7775554Y-16665345D01*
X7775554Y-16770107D01*
X7775554Y-16665345D02*
X7785078Y-16646297D01*
X7804125Y-16636774D01*
X7832697Y-16636774D01*
X7851744Y-16646297D01*
X7861268Y-16665345D01*
X7861268Y-16770107D01*
X7956506Y-16770107D02*
X7956506Y-16636774D01*
X7956506Y-16655821D02*
X7966030Y-16646297D01*
X7985078Y-16636774D01*
X8013649Y-16636774D01*
X8032697Y-16646297D01*
X8042220Y-16665345D01*
X8042220Y-16770107D01*
X8042220Y-16665345D02*
X8051744Y-16646297D01*
X8070792Y-16636774D01*
X8099363Y-16636774D01*
X8118411Y-16646297D01*
X8127935Y-16665345D01*
X8127935Y-16770107D01*
X8518411Y-16560583D02*
X8346982Y-16817726D01*
X8775554Y-16570107D02*
X8794602Y-16570107D01*
X8813649Y-16579631D01*
X8823173Y-16589155D01*
X8832697Y-16608202D01*
X8842221Y-16646297D01*
X8842221Y-16693917D01*
X8832697Y-16732012D01*
X8823173Y-16751059D01*
X8813649Y-16760583D01*
X8794602Y-16770107D01*
X8775554Y-16770107D01*
X8756506Y-16760583D01*
X8746982Y-16751059D01*
X8737459Y-16732012D01*
X8727935Y-16693917D01*
X8727935Y-16646297D01*
X8737459Y-16608202D01*
X8746982Y-16589155D01*
X8756506Y-16579631D01*
X8775554Y-16570107D01*
X8927935Y-16751059D02*
X8937459Y-16760583D01*
X8927935Y-16770107D01*
X8918411Y-16760583D01*
X8927935Y-16751059D01*
X8927935Y-16770107D01*
X9061268Y-16570107D02*
X9080316Y-16570107D01*
X9099363Y-16579631D01*
X9108887Y-16589155D01*
X9118411Y-16608202D01*
X9127935Y-16646297D01*
X9127935Y-16693917D01*
X9118411Y-16732012D01*
X9108887Y-16751059D01*
X9099363Y-16760583D01*
X9080316Y-16770107D01*
X9061268Y-16770107D01*
X9042221Y-16760583D01*
X9032697Y-16751059D01*
X9023173Y-16732012D01*
X9013649Y-16693917D01*
X9013649Y-16646297D01*
X9023173Y-16608202D01*
X9032697Y-16589155D01*
X9042221Y-16579631D01*
X9061268Y-16570107D01*
X9194602Y-16570107D02*
X9318411Y-16570107D01*
X9251744Y-16646297D01*
X9280316Y-16646297D01*
X9299363Y-16655821D01*
X9308887Y-16665345D01*
X9318411Y-16684393D01*
X9318411Y-16732012D01*
X9308887Y-16751059D01*
X9299363Y-16760583D01*
X9280316Y-16770107D01*
X9223173Y-16770107D01*
X9204125Y-16760583D01*
X9194602Y-16751059D01*
X9413649Y-16770107D02*
X9451744Y-16770107D01*
X9470792Y-16760583D01*
X9480316Y-16751059D01*
X9499363Y-16722488D01*
X9508887Y-16684393D01*
X9508887Y-16608202D01*
X9499363Y-16589155D01*
X9489840Y-16579631D01*
X9470792Y-16570107D01*
X9432697Y-16570107D01*
X9413649Y-16579631D01*
X9404125Y-16589155D01*
X9394602Y-16608202D01*
X9394602Y-16655821D01*
X9404125Y-16674869D01*
X9413649Y-16684393D01*
X9432697Y-16693917D01*
X9470792Y-16693917D01*
X9489840Y-16684393D01*
X9499363Y-16674869D01*
X9508887Y-16655821D01*
X9680316Y-16636774D02*
X9680316Y-16770107D01*
X9632697Y-16560583D02*
X9585078Y-16703440D01*
X9708887Y-16703440D01*
X9775554Y-16570107D02*
X9775554Y-16608202D01*
X9851744Y-16570107D02*
X9851744Y-16608202D01*
X10146982Y-16846298D02*
X10137459Y-16836774D01*
X10118411Y-16808202D01*
X10108887Y-16789155D01*
X10099363Y-16760583D01*
X10089840Y-16712964D01*
X10089840Y-16674869D01*
X10099363Y-16627250D01*
X10108887Y-16598678D01*
X10118411Y-16579631D01*
X10137459Y-16551059D01*
X10146982Y-16541536D01*
X10327935Y-16770107D02*
X10213649Y-16770107D01*
X10270792Y-16770107D02*
X10270792Y-16570107D01*
X10251744Y-16598678D01*
X10232697Y-16617726D01*
X10213649Y-16627250D01*
X10499363Y-16570107D02*
X10461268Y-16570107D01*
X10442221Y-16579631D01*
X10432697Y-16589155D01*
X10413649Y-16617726D01*
X10404125Y-16655821D01*
X10404125Y-16732012D01*
X10413649Y-16751059D01*
X10423173Y-16760583D01*
X10442221Y-16770107D01*
X10480316Y-16770107D01*
X10499363Y-16760583D01*
X10508887Y-16751059D01*
X10518411Y-16732012D01*
X10518411Y-16684393D01*
X10508887Y-16665345D01*
X10499363Y-16655821D01*
X10480316Y-16646297D01*
X10442221Y-16646297D01*
X10423173Y-16655821D01*
X10413649Y-16665345D01*
X10404125Y-16684393D01*
X10756506Y-16770107D02*
X10756506Y-16570107D01*
X10842221Y-16770107D02*
X10842221Y-16665345D01*
X10832697Y-16646297D01*
X10813649Y-16636774D01*
X10785078Y-16636774D01*
X10766030Y-16646297D01*
X10756506Y-16655821D01*
X10966030Y-16770107D02*
X10946982Y-16760583D01*
X10937459Y-16751059D01*
X10927935Y-16732012D01*
X10927935Y-16674869D01*
X10937459Y-16655821D01*
X10946982Y-16646297D01*
X10966030Y-16636774D01*
X10994602Y-16636774D01*
X11013649Y-16646297D01*
X11023173Y-16655821D01*
X11032697Y-16674869D01*
X11032697Y-16732012D01*
X11023173Y-16751059D01*
X11013649Y-16760583D01*
X10994602Y-16770107D01*
X10966030Y-16770107D01*
X11146982Y-16770107D02*
X11127935Y-16760583D01*
X11118411Y-16741536D01*
X11118411Y-16570107D01*
X11299363Y-16760583D02*
X11280316Y-16770107D01*
X11242220Y-16770107D01*
X11223173Y-16760583D01*
X11213649Y-16741536D01*
X11213649Y-16665345D01*
X11223173Y-16646297D01*
X11242220Y-16636774D01*
X11280316Y-16636774D01*
X11299363Y-16646297D01*
X11308887Y-16665345D01*
X11308887Y-16684393D01*
X11213649Y-16703440D01*
X11385078Y-16760583D02*
X11404125Y-16770107D01*
X11442220Y-16770107D01*
X11461268Y-16760583D01*
X11470792Y-16741536D01*
X11470792Y-16732012D01*
X11461268Y-16712964D01*
X11442220Y-16703440D01*
X11413649Y-16703440D01*
X11394601Y-16693917D01*
X11385078Y-16674869D01*
X11385078Y-16665345D01*
X11394601Y-16646297D01*
X11413649Y-16636774D01*
X11442220Y-16636774D01*
X11461268Y-16646297D01*
X11537459Y-16846298D02*
X11546982Y-16836774D01*
X11566030Y-16808202D01*
X11575554Y-16789155D01*
X11585078Y-16760583D01*
X11594601Y-16712964D01*
X11594601Y-16674869D01*
X11585078Y-16627250D01*
X11575554Y-16598678D01*
X11566030Y-16579631D01*
X11546982Y-16551059D01*
X11537459Y-16541536D01*
D14*
X6560140Y-16979694D02*
X6560140Y-16907568D01*
X6488015Y-16907568D01*
X6488015Y-16979694D01*
X6560140Y-16979694D01*
D11*
X6937459Y-17034107D02*
X6823173Y-17034107D01*
X6880316Y-17034107D02*
X6880316Y-16834107D01*
X6861268Y-16862679D01*
X6842220Y-16881726D01*
X6823173Y-16891250D01*
X7023173Y-17015059D02*
X7032697Y-17024583D01*
X7023173Y-17034107D01*
X7013649Y-17024583D01*
X7023173Y-17015059D01*
X7023173Y-17034107D01*
X7156506Y-16834107D02*
X7175554Y-16834107D01*
X7194601Y-16843631D01*
X7204125Y-16853155D01*
X7213649Y-16872202D01*
X7223173Y-16910298D01*
X7223173Y-16957917D01*
X7213649Y-16996012D01*
X7204125Y-17015059D01*
X7194601Y-17024583D01*
X7175554Y-17034107D01*
X7156506Y-17034107D01*
X7137459Y-17024583D01*
X7127935Y-17015059D01*
X7118411Y-16996012D01*
X7108887Y-16957917D01*
X7108887Y-16910298D01*
X7118411Y-16872202D01*
X7127935Y-16853155D01*
X7137459Y-16843631D01*
X7156506Y-16834107D01*
X7299363Y-16853155D02*
X7308887Y-16843631D01*
X7327935Y-16834107D01*
X7375554Y-16834107D01*
X7394601Y-16843631D01*
X7404125Y-16853155D01*
X7413649Y-16872202D01*
X7413649Y-16891250D01*
X7404125Y-16919821D01*
X7289840Y-17034107D01*
X7413649Y-17034107D01*
X7537459Y-16834107D02*
X7556506Y-16834107D01*
X7575554Y-16843631D01*
X7585078Y-16853155D01*
X7594601Y-16872202D01*
X7604125Y-16910298D01*
X7604125Y-16957917D01*
X7594601Y-16996012D01*
X7585078Y-17015059D01*
X7575554Y-17024583D01*
X7556506Y-17034107D01*
X7537459Y-17034107D01*
X7518411Y-17024583D01*
X7508887Y-17015059D01*
X7499363Y-16996012D01*
X7489840Y-16957917D01*
X7489840Y-16910298D01*
X7499363Y-16872202D01*
X7508887Y-16853155D01*
X7518411Y-16843631D01*
X7537459Y-16834107D01*
X7689840Y-17034107D02*
X7689840Y-16900774D01*
X7689840Y-16919821D02*
X7699363Y-16910298D01*
X7718411Y-16900774D01*
X7746982Y-16900774D01*
X7766030Y-16910298D01*
X7775554Y-16929345D01*
X7775554Y-17034107D01*
X7775554Y-16929345D02*
X7785078Y-16910298D01*
X7804125Y-16900774D01*
X7832697Y-16900774D01*
X7851744Y-16910298D01*
X7861268Y-16929345D01*
X7861268Y-17034107D01*
X7956506Y-17034107D02*
X7956506Y-16900774D01*
X7956506Y-16919821D02*
X7966030Y-16910298D01*
X7985078Y-16900774D01*
X8013649Y-16900774D01*
X8032697Y-16910298D01*
X8042220Y-16929345D01*
X8042220Y-17034107D01*
X8042220Y-16929345D02*
X8051744Y-16910298D01*
X8070792Y-16900774D01*
X8099363Y-16900774D01*
X8118411Y-16910298D01*
X8127935Y-16929345D01*
X8127935Y-17034107D01*
X8518411Y-16824583D02*
X8346982Y-17081726D01*
X8775554Y-16834107D02*
X8794602Y-16834107D01*
X8813649Y-16843631D01*
X8823173Y-16853155D01*
X8832697Y-16872202D01*
X8842221Y-16910298D01*
X8842221Y-16957917D01*
X8832697Y-16996012D01*
X8823173Y-17015059D01*
X8813649Y-17024583D01*
X8794602Y-17034107D01*
X8775554Y-17034107D01*
X8756506Y-17024583D01*
X8746982Y-17015059D01*
X8737459Y-16996012D01*
X8727935Y-16957917D01*
X8727935Y-16910298D01*
X8737459Y-16872202D01*
X8746982Y-16853155D01*
X8756506Y-16843631D01*
X8775554Y-16834107D01*
X8927935Y-17015059D02*
X8937459Y-17024583D01*
X8927935Y-17034107D01*
X8918411Y-17024583D01*
X8927935Y-17015059D01*
X8927935Y-17034107D01*
X9061268Y-16834107D02*
X9080316Y-16834107D01*
X9099363Y-16843631D01*
X9108887Y-16853155D01*
X9118411Y-16872202D01*
X9127935Y-16910298D01*
X9127935Y-16957917D01*
X9118411Y-16996012D01*
X9108887Y-17015059D01*
X9099363Y-17024583D01*
X9080316Y-17034107D01*
X9061268Y-17034107D01*
X9042221Y-17024583D01*
X9032697Y-17015059D01*
X9023173Y-16996012D01*
X9013649Y-16957917D01*
X9013649Y-16910298D01*
X9023173Y-16872202D01*
X9032697Y-16853155D01*
X9042221Y-16843631D01*
X9061268Y-16834107D01*
X9299363Y-16900774D02*
X9299363Y-17034107D01*
X9251744Y-16824583D02*
X9204125Y-16967440D01*
X9327935Y-16967440D01*
X9442221Y-16834107D02*
X9461268Y-16834107D01*
X9480316Y-16843631D01*
X9489840Y-16853155D01*
X9499363Y-16872202D01*
X9508887Y-16910298D01*
X9508887Y-16957917D01*
X9499363Y-16996012D01*
X9489840Y-17015059D01*
X9480316Y-17024583D01*
X9461268Y-17034107D01*
X9442221Y-17034107D01*
X9423173Y-17024583D01*
X9413649Y-17015059D01*
X9404125Y-16996012D01*
X9394602Y-16957917D01*
X9394602Y-16910298D01*
X9404125Y-16872202D01*
X9413649Y-16853155D01*
X9423173Y-16843631D01*
X9442221Y-16834107D01*
X9585078Y-16853155D02*
X9594602Y-16843631D01*
X9613649Y-16834107D01*
X9661268Y-16834107D01*
X9680316Y-16843631D01*
X9689840Y-16853155D01*
X9699363Y-16872202D01*
X9699363Y-16891250D01*
X9689840Y-16919821D01*
X9575554Y-17034107D01*
X9699363Y-17034107D01*
X9775554Y-16834107D02*
X9775554Y-16872202D01*
X9851744Y-16834107D02*
X9851744Y-16872202D01*
X10146982Y-17110298D02*
X10137459Y-17100774D01*
X10118411Y-17072202D01*
X10108887Y-17053155D01*
X10099363Y-17024583D01*
X10089840Y-16976964D01*
X10089840Y-16938869D01*
X10099363Y-16891250D01*
X10108887Y-16862679D01*
X10118411Y-16843631D01*
X10137459Y-16815059D01*
X10146982Y-16805536D01*
X10204125Y-16834107D02*
X10327935Y-16834107D01*
X10261268Y-16910298D01*
X10289840Y-16910298D01*
X10308887Y-16919821D01*
X10318411Y-16929345D01*
X10327935Y-16948393D01*
X10327935Y-16996012D01*
X10318411Y-17015059D01*
X10308887Y-17024583D01*
X10289840Y-17034107D01*
X10232697Y-17034107D01*
X10213649Y-17024583D01*
X10204125Y-17015059D01*
X10566030Y-17034107D02*
X10566030Y-16834107D01*
X10651744Y-17034107D02*
X10651744Y-16929345D01*
X10642221Y-16910298D01*
X10623173Y-16900774D01*
X10594602Y-16900774D01*
X10575554Y-16910298D01*
X10566030Y-16919821D01*
X10775554Y-17034107D02*
X10756506Y-17024583D01*
X10746982Y-17015059D01*
X10737459Y-16996012D01*
X10737459Y-16938869D01*
X10746982Y-16919821D01*
X10756506Y-16910298D01*
X10775554Y-16900774D01*
X10804125Y-16900774D01*
X10823173Y-16910298D01*
X10832697Y-16919821D01*
X10842221Y-16938869D01*
X10842221Y-16996012D01*
X10832697Y-17015059D01*
X10823173Y-17024583D01*
X10804125Y-17034107D01*
X10775554Y-17034107D01*
X10956506Y-17034107D02*
X10937459Y-17024583D01*
X10927935Y-17005536D01*
X10927935Y-16834107D01*
X11108887Y-17024583D02*
X11089840Y-17034107D01*
X11051744Y-17034107D01*
X11032697Y-17024583D01*
X11023173Y-17005536D01*
X11023173Y-16929345D01*
X11032697Y-16910298D01*
X11051744Y-16900774D01*
X11089840Y-16900774D01*
X11108887Y-16910298D01*
X11118411Y-16929345D01*
X11118411Y-16948393D01*
X11023173Y-16967440D01*
X11194601Y-17024583D02*
X11213649Y-17034107D01*
X11251744Y-17034107D01*
X11270792Y-17024583D01*
X11280316Y-17005536D01*
X11280316Y-16996012D01*
X11270792Y-16976964D01*
X11251744Y-16967440D01*
X11223173Y-16967440D01*
X11204125Y-16957917D01*
X11194601Y-16938869D01*
X11194601Y-16929345D01*
X11204125Y-16910298D01*
X11223173Y-16900774D01*
X11251744Y-16900774D01*
X11270792Y-16910298D01*
X11346982Y-17110298D02*
X11356506Y-17100774D01*
X11375554Y-17072202D01*
X11385078Y-17053155D01*
X11394601Y-17024583D01*
X11404125Y-16976964D01*
X11404125Y-16938869D01*
X11394601Y-16891250D01*
X11385078Y-16862679D01*
X11375554Y-16843631D01*
X11356506Y-16815059D01*
X11346982Y-16805536D01*
M02*
